<svg version="1.1" id="Layer_1" xmlns="http://www.w3.org/2000/svg" xmlns:xlink="http://www.w3.org/1999/xlink" x="0px" y="0px"
	 width="100%" viewBox="0 0 1024 1024" enable-background="new 0 0 1024 1024" xml:space="preserve">
<path fill="#000000" opacity="1.000000" stroke="none" 
	d="
M294.329590,165.225052 
	C327.793945,151.065460 362.340363,142.208984 397.789886,136.819000 
	C430.266174,131.881027 462.988281,130.738419 495.784241,131.780838 
	C528.180176,132.810516 560.222839,136.656891 592.013000,143.197845 
	C625.714050,150.131973 658.192810,160.563934 689.732300,174.214569 
	C719.569397,187.128357 747.205139,203.601196 772.078003,224.540634 
	C801.780273,249.545715 822.728577,280.377502 832.439209,318.229584 
	C838.356812,341.296600 836.996948,364.397369 831.191833,387.368042 
	C824.450928,414.041412 811.577087,437.548767 793.922852,458.380310 
	C767.591980,489.450104 735.503418,512.929504 698.262695,529.457458 
	C686.694946,534.591370 675.018921,539.336670 662.852112,542.838806 
	C661.472656,543.235901 660.132996,543.875977 657.574768,543.252991 
	C663.122437,539.162048 668.015991,535.616760 672.843262,531.983398 
	C701.272705,510.584930 724.425476,484.457123 742.284485,453.718384 
	C753.763611,433.960602 761.151733,412.611664 764.449707,390.033051 
	C767.395203,369.868042 764.152588,350.298828 756.568604,331.446198 
	C745.150391,303.062408 725.997925,280.752563 702.470215,261.649780 
	C672.512024,237.325958 638.887939,219.921188 602.744141,206.936417 
	C566.868164,194.047821 529.866089,186.233826 492.044281,182.225800 
	C465.503082,179.413208 438.802673,179.147552 412.212646,180.550690 
	C364.582367,183.064102 317.787689,190.914581 271.994415,204.659470 
	C242.758041,213.434799 214.531281,224.642456 186.899170,237.483490 
	C186.152649,237.830414 185.392868,238.258392 184.081009,237.082260 
	C216.102783,205.969879 252.561127,181.917206 294.329590,165.225052 
z"/>
<path fill="#000000" opacity="1.000000" stroke="none" 
	d="
M607.287109,457.000000 
	C607.286438,532.623840 607.286499,607.747742 607.281494,682.871582 
	C607.281006,690.115967 607.266235,690.125122 600.200745,690.112122 
	C581.378357,690.077515 562.555847,690.066284 543.733643,689.977417 
	C537.044861,689.945862 536.847717,689.680786 536.845764,683.334412 
	C536.814148,580.893311 536.811096,478.452179 536.677856,376.011200 
	C536.671997,371.527344 537.883728,369.809570 542.563110,369.858521 
	C562.382996,370.065887 582.206787,370.065613 602.027466,369.916779 
	C606.303223,369.884674 607.381165,371.571075 607.362549,375.546356 
	C607.236084,402.530426 607.290466,429.515350 607.287109,457.000000 
z"/>
<path fill="#000000" opacity="1.000000" stroke="none" 
	d="
M502.580383,296.000366 
	C501.958923,274.246857 502.172302,252.951752 502.492065,231.652420 
	C502.546570,228.021271 503.886993,226.945404 507.162201,227.033981 
	C511.157990,227.142029 515.159180,227.112640 519.156982,227.062668 
	C521.987732,227.027283 523.596802,228.051865 523.351135,231.162537 
	C523.233582,232.652252 523.346680,234.159775 523.346680,235.659241 
	C523.346741,384.108978 523.346069,532.558716 523.344238,681.008484 
	C523.344238,682.674500 523.251404,684.344421 523.335632,686.005737 
	C523.473145,688.719421 522.259338,690.059937 519.543579,690.048950 
	C519.210876,690.047607 518.877502,690.098572 518.545288,690.090698 
	C513.723328,689.976318 508.040741,691.412720 504.297882,689.342896 
	C499.637115,686.765442 502.832458,680.529419 502.737122,676.001831 
	C502.341278,657.203247 502.590363,638.391907 502.508484,619.585571 
	C502.441803,604.275696 502.099945,588.966064 502.130981,573.656860 
	C502.184662,547.190063 502.667755,520.722473 502.533844,494.257416 
	C502.398163,467.450104 502.251007,440.633636 502.378021,413.835968 
	C502.546967,378.197845 501.466492,342.568726 502.104614,306.935486 
	C502.167175,303.441071 502.415405,299.949982 502.580383,296.000366 
z"/>
<path fill="#000000" opacity="1.000000" stroke="none" 
	d="
M521.781677,795.990723 
	C521.781433,791.827820 521.803955,788.162415 521.771667,784.497559 
	C521.708496,777.332458 521.695801,777.332581 515.425354,775.419434 
	C514.688538,773.643555 515.715942,772.062622 517.018982,771.740662 
	C522.789062,770.315125 522.243103,765.787842 521.821899,761.795166 
	C521.183350,755.742615 524.303894,753.003052 529.416809,751.346741 
	C533.908386,749.891663 535.219177,750.689026 535.324158,755.348450 
	C535.395447,758.512268 535.572937,761.701233 535.277222,764.838806 
	C534.902344,768.816345 536.617554,770.075745 540.379639,770.266785 
	C549.547180,770.732361 558.555908,768.197693 567.725525,769.037964 
	C569.546204,769.204834 571.390137,769.113220 573.212585,769.268066 
	C574.387573,769.367798 575.568909,769.697815 575.794312,771.154846 
	C576.008301,772.538391 575.274170,773.552551 574.042725,773.783813 
	C569.561340,774.625549 570.011047,777.350342 571.274658,780.499634 
	C573.997131,787.284668 576.701294,794.077026 579.830750,801.912476 
	C583.920959,793.658569 586.599182,785.952881 588.582336,778.000427 
	C589.117188,775.855896 587.760193,774.609009 585.691040,774.070068 
	C584.363220,773.724304 583.019226,773.151978 583.105103,771.492493 
	C583.216980,769.329041 585.118103,769.633423 586.495911,769.394043 
	C591.320679,768.555542 596.130920,769.565796 600.950867,769.601196 
	C601.828003,769.607666 602.665161,769.877808 602.903259,770.812805 
	C603.241760,772.141846 602.616089,773.234863 601.394958,773.596375 
	C597.830078,774.651794 596.825684,777.665100 595.658081,780.626099 
	C588.821533,797.963806 582.062012,815.333008 575.074951,832.610046 
	C572.218567,839.672913 567.304565,844.764160 559.198914,845.204895 
	C552.293152,845.580383 550.625183,843.469910 551.767151,836.874084 
	C552.021667,835.404236 552.132996,833.887634 553.325562,832.807007 
	C553.681030,832.726501 554.039124,832.519958 554.308289,832.602661 
	C564.179688,835.636292 570.948059,831.434692 572.712585,821.173706 
	C573.043091,819.252258 572.345398,817.568359 571.628296,815.877808 
	C566.233643,803.159912 560.812988,790.453003 555.455688,777.719360 
	C554.091919,774.477722 551.928528,773.167114 548.827271,775.124939 
	C546.312195,776.712646 543.678223,776.289429 541.080139,776.274170 
	C537.090576,776.250793 535.281921,777.989136 535.335388,782.000000 
	C535.426453,788.829285 535.268982,795.662170 535.378357,802.490906 
	C535.479675,808.815308 538.201721,811.087646 544.593506,810.412598 
	C546.188843,810.244080 548.089417,809.222778 548.889282,811.450989 
	C549.672852,813.633728 547.622742,814.316711 546.255798,815.057007 
	C544.070068,816.240723 541.829102,817.473450 539.458069,818.138428 
	C528.200378,821.295227 521.980103,816.592529 521.826111,804.984619 
	C521.788513,802.152832 521.793945,799.320496 521.781677,795.990723 
z"/>
<path fill="#000000" opacity="1.000000" stroke="none" 
	d="
M176.880035,746.835266 
	C184.663712,751.289246 186.205688,758.210754 185.193695,765.927673 
	C184.127151,774.060669 179.331100,779.499756 171.698486,782.368042 
	C166.304199,784.395203 160.654266,784.739502 154.974640,784.278625 
	C151.582047,784.003357 150.101471,785.131165 150.220596,788.715210 
	C150.419510,794.699219 150.373230,800.696106 150.255615,806.684204 
	C150.178375,810.616333 151.889359,812.546814 155.820282,812.711060 
	C157.757660,812.791992 160.294296,812.636719 160.097000,815.573792 
	C159.897964,818.536499 157.233841,817.872803 155.416199,817.888367 
	C147.097580,817.959717 138.776962,817.920898 130.458618,817.807739 
	C128.731140,817.784241 126.383614,818.053101 126.080177,815.563110 
	C125.754547,812.891113 128.117538,812.959045 129.859024,812.711182 
	C131.838226,812.429382 132.736771,811.197205 133.104141,809.436646 
	C133.375000,808.138672 133.683685,806.813965 133.688126,805.500244 
	C133.745483,788.528137 133.704269,771.555603 133.807709,754.583923 
	C133.829636,750.982422 132.447647,748.896423 128.828720,748.422852 
	C127.217789,748.212036 125.785454,747.715027 126.042747,745.700012 
	C126.263306,743.972778 127.719551,743.756409 129.070023,743.786621 
	C142.686096,744.091309 156.332077,742.719299 169.923477,744.537842 
	C172.279541,744.853088 174.404755,745.735535 176.880035,746.835266 
M162.271042,750.872070 
	C159.531631,749.994385 156.709839,750.176331 153.894272,750.178711 
	C151.449265,750.180847 150.260666,751.218140 150.279846,753.766907 
	C150.334732,761.056885 150.302322,768.347656 150.277542,775.638062 
	C150.271561,777.397339 150.931885,778.242004 152.812439,778.578125 
	C159.475433,779.768677 166.471008,776.532349 168.630417,771.048157 
	C171.894501,762.758240 169.742218,755.152893 162.271042,750.872070 
z"/>
<path fill="#000000" opacity="1.000000" stroke="none" 
	d="
M676.000977,750.762939 
	C671.263000,749.565918 666.844177,748.503418 662.349854,749.634521 
	C655.182129,751.438599 649.776489,755.530273 646.588745,762.346252 
	C640.112000,776.194519 641.371460,789.900513 647.914856,803.204224 
	C651.808228,811.120178 661.651611,814.985229 670.017761,812.923767 
	C672.514038,812.308655 673.771301,811.130981 673.706787,808.486694 
	C673.625549,805.158325 673.563660,801.816284 673.770325,798.497375 
	C674.046143,794.067993 673.504944,790.460815 667.957947,790.046692 
	C666.437744,789.933167 665.715088,788.761841 665.842529,787.183289 
	C665.986938,785.394409 667.310059,785.047241 668.685059,785.070435 
	C676.504883,785.202087 684.323425,785.405518 692.142456,785.585266 
	C693.028931,785.605591 693.846558,785.845947 694.060181,786.805237 
	C694.250488,787.659729 694.033508,788.655945 693.166626,788.918457 
	C688.726196,790.263184 688.890564,793.937500 688.765259,797.435242 
	C688.598511,802.090637 688.514160,806.749084 688.424683,811.406860 
	C688.392029,813.105591 688.471924,814.726074 686.304688,815.360840 
	C671.903870,819.578308 657.536499,821.261414 643.519226,814.155457 
	C630.900940,807.758667 626.194824,796.308838 626.129883,783.182556 
	C625.981995,753.268127 648.383057,740.165527 673.916016,743.130615 
	C688.295654,744.800476 688.221497,745.425110 687.359680,760.674561 
	C687.277039,762.136719 687.627747,763.823486 685.461182,764.126282 
	C683.294922,764.429077 682.108582,763.529480 681.456665,761.382568 
	C680.321167,757.643005 680.048218,753.429626 676.000977,750.762939 
z"/>
<path fill="#000000" opacity="1.000000" stroke="none" 
	d="
M366.179688,806.072144 
	C366.012512,817.392395 366.012512,817.393799 355.316467,817.389404 
	C341.655670,817.383789 327.994568,817.419800 314.334534,817.314575 
	C312.567139,817.300903 309.792358,818.390076 309.359253,815.553894 
	C308.980591,813.074341 311.552704,813.099060 313.254395,812.670105 
	C315.609894,812.076294 316.513245,810.287964 316.525574,808.200562 
	C316.632843,790.044373 316.661591,771.887512 316.667603,753.730896 
	C316.668518,750.950439 315.007416,749.583435 312.346680,749.122070 
	C310.717072,748.839478 308.812073,748.491150 308.983673,746.221191 
	C309.184662,743.562927 311.399994,743.854675 313.163727,743.846863 
	C328.656677,743.778259 344.150208,743.807190 359.642700,743.695190 
	C362.859222,743.671936 364.240906,744.973083 364.074341,748.144409 
	C363.882172,751.802979 363.795166,755.466858 363.624054,759.126709 
	C363.561829,760.458435 363.563385,761.893921 361.707977,762.107422 
	C359.999329,762.303833 358.412170,761.708252 358.255768,760.005920 
	C357.288116,749.475098 349.912994,749.966858 342.271027,750.216431 
	C330.765198,750.592163 332.348785,748.947266 332.145172,760.438599 
	C332.071381,764.601929 332.123230,768.768188 332.165375,772.932617 
	C332.180450,774.422363 332.071136,776.167419 333.729279,776.854919 
	C337.234955,778.308472 340.973083,777.399475 344.604370,777.630798 
	C349.264465,777.927490 351.187103,775.259216 351.759369,771.085876 
	C351.978119,769.490967 352.985626,768.829590 354.536102,768.845825 
	C356.460297,768.865967 357.201263,770.036621 357.205048,771.741455 
	C357.218018,777.570740 357.196136,783.400452 357.129822,789.229370 
	C357.112457,790.754639 356.277252,791.788879 354.680511,791.822449 
	C353.257996,791.852356 352.089294,791.350220 351.727478,789.727051 
	C351.142059,787.100708 350.635101,784.060669 347.411163,783.687683 
	C342.806549,783.154907 338.109375,782.893494 333.514038,783.857483 
	C332.215088,784.130066 332.253418,785.695862 332.250427,786.855103 
	C332.232880,793.684082 332.252838,800.513245 332.255554,807.342285 
	C332.256805,810.504272 333.900848,811.780090 336.978058,811.726624 
	C341.641174,811.645691 346.313324,811.561707 350.969574,811.761353 
	C355.260071,811.945374 358.014252,810.385803 359.024597,806.065308 
	C359.325958,804.776489 359.924255,803.559875 360.325134,802.290771 
	C360.886993,800.512085 361.313293,798.615845 363.832489,798.901123 
	C366.531036,799.206726 366.059967,801.341675 366.185333,803.096924 
	C366.244507,803.925537 366.188751,804.762329 366.179688,806.072144 
z"/>
<path fill="#000000" opacity="1.000000" stroke="none" 
	d="
M378.880554,815.321289 
	C369.553070,807.347107 367.155304,791.716187 373.396393,781.406921 
	C380.317383,769.974609 391.963928,765.827209 404.342834,770.689880 
	C406.905884,771.696716 408.707428,770.985840 410.894867,770.025696 
	C416.019897,767.776062 417.985046,769.068481 418.005188,774.709900 
	C418.072418,793.538391 418.037415,812.367188 418.073334,831.195862 
	C418.080170,834.784668 417.239105,838.943359 422.984558,839.076355 
	C424.014587,839.100220 424.689087,840.086731 424.683441,841.221802 
	C424.675964,842.719360 423.648560,843.260864 422.374969,843.264160 
	C414.712128,843.283813 407.049103,843.266418 399.386383,843.221802 
	C398.340668,843.215698 397.362640,842.793823 397.137177,841.633118 
	C396.861969,840.216187 397.731812,839.237000 398.973541,839.144104 
	C404.395721,838.738220 404.689240,834.793152 404.606079,830.873169 
	C404.495026,825.636963 405.475128,820.287903 403.536194,814.545471 
	C395.359192,818.995544 387.320068,820.479187 378.880554,815.321289 
M403.518311,780.252136 
	C399.736664,775.419983 394.498138,773.991211 390.113464,776.981628 
	C383.402588,781.558594 384.064758,788.692749 384.412567,795.475281 
	C384.692657,800.937561 386.286102,805.948181 391.686157,808.746887 
	C394.792236,810.356689 397.836426,809.717041 400.808533,808.455139 
	C402.662231,807.668091 404.609650,806.612915 404.555817,804.265381 
	C404.377838,796.505127 405.620239,788.696533 403.518311,780.252136 
z"/>
<path fill="#000000" opacity="1.000000" stroke="none" 
	d="
M898.894897,774.140808 
	C905.820923,783.508667 906.395325,796.467712 899.921387,806.346375 
	C893.116699,816.729492 882.624084,819.629211 870.672913,818.786011 
	C869.780640,824.538452 870.181335,829.842712 870.234924,835.132507 
	C870.264282,838.021545 872.185364,838.640198 874.577576,838.823059 
	C876.275940,838.952881 878.198425,839.248901 877.876770,841.580505 
	C877.597961,843.601685 875.701538,843.325439 874.260925,843.332947 
	C867.595642,843.367737 860.929749,843.362488 854.264648,843.303955 
	C852.839844,843.291443 850.929382,843.677490 850.521912,841.713196 
	C850.111633,839.735413 851.866028,839.214722 853.327881,838.897217 
	C856.295654,838.252563 856.685120,836.193970 856.678589,833.631653 
	C856.635315,816.634521 856.624207,799.637024 856.693115,782.640015 
	C856.703857,779.994019 856.141785,778.037781 853.239380,777.492004 
	C851.897400,777.239746 850.532654,776.998779 850.502747,775.197021 
	C850.474548,773.497131 851.653198,772.986267 853.028809,772.611084 
	C857.363342,771.428955 861.690125,770.217773 866.016174,769.004822 
	C870.092590,767.861816 870.103394,771.084412 870.648865,773.962463 
	C880.211609,767.154907 889.486877,765.825806 898.894897,774.140808 
M884.301575,780.026123 
	C875.362732,775.736206 870.232178,778.911316 870.198181,788.767700 
	C870.181458,793.599060 870.337036,798.435852 870.156555,803.260498 
	C869.969421,808.263367 872.432922,811.070496 877.002502,812.317871 
	C881.678650,813.594360 886.278748,811.635071 888.496521,807.538818 
	C892.757812,799.667847 891.090942,787.060120 884.301575,780.026123 
z"/>
<path fill="#000000" opacity="1.000000" stroke="none" 
	d="
M456.408508,808.563843 
	C460.455963,806.810608 461.735077,804.121704 461.342377,800.024414 
	C460.772736,794.081360 462.041595,788.084229 461.065308,782.089111 
	C460.648163,779.527344 460.093170,777.543457 457.120789,777.259949 
	C455.668640,777.121521 454.504974,776.525452 454.407898,774.882874 
	C454.281097,772.738037 456.087616,772.673035 457.461853,772.306152 
	C460.994781,771.362793 464.554810,770.521118 468.102325,769.631958 
	C473.761719,768.213501 474.250702,768.525024 474.283051,774.207642 
	C474.343750,784.867920 474.413513,795.529724 474.284485,806.188538 
	C474.240387,809.829651 474.945831,812.467102 479.158173,812.777466 
	C480.749420,812.894653 481.565704,813.814758 481.466431,815.427307 
	C481.366699,817.048584 480.349152,817.815491 478.835510,817.843506 
	C474.174011,817.929688 469.510284,817.903259 464.849365,818.008789 
	C461.619476,818.081909 461.777161,815.001709 460.223694,813.075195 
	C454.980408,816.846558 449.451813,819.642212 442.692719,818.683960 
	C434.790436,817.563599 430.505035,812.885559 430.497925,804.905701 
	C430.491974,798.249695 430.591187,791.593628 430.610504,784.937500 
	C430.620361,781.540833 430.718750,778.072327 426.249146,777.134949 
	C425.093811,776.892639 424.723022,775.954346 424.715240,774.867859 
	C424.704498,773.368164 425.752441,773.002563 426.962036,772.676453 
	C430.657593,771.679749 434.325592,770.581177 438.017944,769.572327 
	C443.351868,768.114929 444.068848,768.622253 444.100800,774.358704 
	C444.148071,782.851990 443.860748,791.350891 444.075256,799.838318 
	C444.286804,808.207092 448.057709,810.829834 456.408508,808.563843 
z"/>
<path fill="#000000" opacity="1.000000" stroke="none" 
	d="
M828.920410,815.616333 
	C828.121094,811.221436 826.208557,814.101746 825.153198,814.830566 
	C820.691833,817.911987 815.811157,819.150024 810.482178,818.586060 
	C803.225281,817.818115 799.651001,814.709229 798.285706,807.509583 
	C796.847351,799.924316 797.913696,792.217957 797.705383,784.568665 
	C797.612671,781.162048 798.036743,777.691284 793.287415,777.043701 
	C792.120850,776.884583 791.850586,775.786743 791.872192,774.714722 
	C791.896179,773.528381 792.625061,772.952942 793.688477,772.669128 
	C798.352051,771.424744 802.978455,770.012512 807.687866,768.977356 
	C811.299438,768.183472 811.267639,770.952332 811.272827,773.355164 
	C811.291809,782.186340 811.667114,791.040405 811.152283,799.841675 
	C810.706238,807.465820 816.304871,812.197571 824.993774,808.104065 
	C827.424866,806.958679 828.852051,805.178406 828.791260,802.233704 
	C828.653687,795.571472 828.662903,788.904541 828.725403,782.240540 
	C828.750610,779.558838 828.036926,777.645935 825.050049,777.321838 
	C823.619385,777.166565 822.388367,776.700806 822.259583,775.038269 
	C822.097534,772.946045 823.792664,772.736572 825.218018,772.349548 
	C829.233154,771.259583 833.270386,770.249695 837.275330,769.124084 
	C840.736145,768.151489 841.776794,769.753357 841.785828,772.932495 
	C841.817566,784.085388 841.941650,795.237976 842.013489,806.390808 
	C842.034790,809.705505 842.062683,812.920715 846.724426,812.962402 
	C847.954773,812.973450 848.941040,813.703674 849.025146,815.132690 
	C849.090698,816.246582 848.605896,817.367310 847.559265,817.440430 
	C841.653809,817.853088 835.711609,819.212708 829.856750,817.149902 
	C829.481934,817.017761 829.291687,816.361633 828.920410,815.616333 
z"/>
<path fill="#000000" opacity="1.000000" stroke="none" 
	d="
M223.918823,770.830261 
	C228.992554,773.264099 230.219910,777.498230 230.285294,782.188660 
	C230.401352,790.514832 230.395309,798.844666 230.285126,807.170959 
	C230.241989,810.429871 230.872864,812.802734 234.752151,812.860168 
	C236.488327,812.885803 237.677765,813.766724 237.642532,815.586304 
	C237.608353,817.351562 236.042435,817.688660 234.760147,817.734680 
	C230.274673,817.895386 225.782623,817.914673 221.293213,817.906189 
	C218.845901,817.901489 218.195175,815.730774 216.790512,813.552002 
	C212.251694,817.281860 207.123398,819.063293 201.198227,818.492249 
	C194.466492,817.843567 190.508072,814.660400 189.436783,808.431396 
	C188.208984,801.292358 190.812057,795.951904 197.260483,793.652344 
	C201.777634,792.041443 206.530960,791.060547 211.218338,789.967773 
	C216.721100,788.684998 218.196625,785.828247 216.066910,780.292236 
	C214.666855,776.653015 211.733383,775.464966 208.187927,775.257202 
	C204.846695,775.061340 202.916931,776.755127 202.035873,779.907837 
	C201.358292,782.332520 200.740585,784.784119 197.217041,784.357727 
	C195.228973,784.117188 193.482605,783.818237 193.185913,781.522949 
	C192.780350,778.384949 192.124939,775.004761 195.724792,773.143250 
	C204.646301,768.529846 213.857559,766.703979 223.918823,770.830261 
M209.357803,795.662476 
	C205.644531,797.175720 203.332993,799.759583 203.412582,803.933411 
	C203.488739,807.926636 205.972977,810.124817 209.636566,810.391785 
	C212.686417,810.613953 215.938019,809.485291 216.546219,806.057617 
	C217.193771,802.408386 217.298950,798.556335 215.975830,794.434998 
	C213.917984,794.785950 212.006607,795.112000 209.357803,795.662476 
z"/>
<path fill="#000000" opacity="1.000000" stroke="none" 
	d="
M763.753174,818.537292 
	C747.824829,818.228333 738.886658,809.222656 738.937073,793.883057 
	C738.985840,779.054688 748.884705,768.842957 763.374756,768.673157 
	C778.799805,768.492432 788.815063,777.569336 788.923523,791.828491 
	C789.041443,807.317200 779.131348,818.003174 763.753174,818.537292 
M772.474792,783.114441 
	C771.715576,781.110107 771.216492,779.015991 769.707336,777.330933 
	C765.589478,772.733337 758.974243,773.305603 755.831970,778.598389 
	C751.537964,785.831055 752.904358,803.545349 758.275879,810.047363 
	C760.560181,812.812561 763.473083,814.248840 767.065796,813.500000 
	C770.536011,812.776550 772.283508,810.304443 773.085815,806.949524 
	C774.934998,799.217224 775.123596,791.536316 772.474792,783.114441 
z"/>
<path fill="#000000" opacity="1.000000" stroke="none" 
	d="
M261.153870,771.827087 
	C261.253510,773.162109 261.313782,774.150391 261.422058,775.926697 
	C266.260132,770.378723 271.896790,765.621704 278.352997,769.729309 
	C282.484375,772.357849 279.667114,778.236145 278.952972,782.452820 
	C276.309937,783.609436 275.108429,781.794434 273.587189,780.957764 
	C267.958191,777.862000 261.871002,780.631104 261.488159,786.942749 
	C261.055145,794.082214 261.346527,801.267578 261.385986,808.432678 
	C261.403503,811.609070 263.437500,812.631348 266.277008,812.926819 
	C268.160858,813.122925 270.995117,812.899353 270.884644,815.589355 
	C270.754272,818.763855 267.704102,817.864075 265.753326,817.877075 
	C258.260345,817.927307 250.755676,818.318787 243.276535,817.511841 
	C242.011246,817.375305 240.340836,817.700867 240.046173,815.909424 
	C239.712112,813.878418 241.389114,813.313232 242.862793,813.136292 
	C246.086411,812.749390 246.949966,810.716187 246.947754,807.918335 
	C246.940750,799.087585 246.911591,790.256897 246.927811,781.426147 
	C246.932068,779.113892 246.066864,777.621765 243.650528,777.173462 
	C242.324646,776.927368 240.967255,776.498230 240.895660,774.787231 
	C240.806793,772.663452 242.673584,772.555298 243.985397,772.157776 
	C248.122391,770.903687 252.318619,769.846436 256.480865,768.673828 
	C259.063202,767.946350 260.728302,768.631897 261.153870,771.827087 
z"/>
<path fill="#000000" opacity="1.000000" stroke="none" 
	d="
M736.318848,777.724976 
	C736.142578,779.976135 736.198669,781.870728 734.363220,782.903320 
	C732.717529,783.172485 731.911621,781.875916 730.796326,781.243347 
	C724.637207,777.749756 717.847839,781.125244 717.453918,788.208618 
	C717.103577,794.507690 717.315063,800.842346 717.399841,807.159668 
	C717.450012,810.902283 719.318542,812.917297 723.256470,813.061096 
	C724.998108,813.124695 727.314331,813.428650 726.987671,816.018005 
	C726.698669,818.308899 724.506287,817.879089 722.961853,817.864319 
	C715.484558,817.793152 707.993286,818.313599 700.533081,817.459106 
	C699.183594,817.304443 697.233032,817.992493 697.048035,815.706177 
	C696.898865,813.863708 698.526123,813.723206 699.783020,813.444580 
	C702.718506,812.793762 703.749878,811.002014 703.714966,808.051697 
	C703.612732,799.406494 703.657104,790.758545 703.743591,782.112610 
	C703.770508,779.419678 703.036682,777.576782 700.053101,777.239563 
	C698.624878,777.078003 697.469910,776.425415 697.399719,774.782043 
	C697.322571,772.974548 698.778992,772.663330 700.057739,772.382019 
	C705.497192,771.185364 710.663269,768.630737 716.272034,768.699707 
	C718.107483,770.939880 716.728760,773.537415 717.769775,775.628357 
	C719.816162,775.359070 720.478882,773.621277 721.666992,772.574951 
	C723.045654,771.360840 724.391602,770.167419 726.138306,769.470154 
	C733.429443,766.559631 736.332458,768.769348 736.318848,777.724976 
z"/>
<path fill="#000000" opacity="1.000000" stroke="none" 
	d="
M489.727356,777.334595 
	C487.782318,777.021912 486.259155,776.567078 486.233948,774.672180 
	C486.206207,772.581604 488.156342,772.627319 489.482819,772.247070 
	C493.470459,771.103882 497.505707,770.127930 501.512299,769.049255 
	C504.963165,768.120178 506.418060,769.351440 506.427734,772.971497 
	C506.457428,784.106873 506.741089,795.241699 506.746582,806.376831 
	C506.748352,809.888184 507.109802,812.690491 511.424255,813.111938 
	C512.761047,813.242493 514.070984,813.935974 513.877808,815.679138 
	C513.672302,817.533325 512.185364,817.452698 510.849915,817.453552 
	C503.378204,817.458435 495.906464,817.456970 488.434875,817.422974 
	C487.147614,817.417114 485.560455,817.650940 485.344055,815.760437 
	C485.146515,814.034973 486.435608,813.309387 487.818695,813.250671 
	C492.630951,813.046509 493.447266,809.525818 493.486603,805.986694 
	C493.575165,798.019409 494.078247,790.029724 493.007263,782.077759 
	C492.734497,780.052673 492.592133,778.026978 489.727356,777.334595 
z"/>
<path fill="#000000" opacity="1.000000" stroke="none" 
	d="
M491.638977,754.020935 
	C490.430786,748.221741 492.351227,744.686340 497.138641,743.295776 
	C500.946503,742.189758 505.140594,744.064636 506.695343,747.567871 
	C508.367126,751.334778 506.685364,756.238892 503.011047,758.311707 
	C499.005646,760.571472 495.232971,759.258728 491.638977,754.020935 
z"/>
</svg>