<?xml version="1.0" encoding="UTF-8"?>
<svg version="1.1" xmlns="http://www.w3.org/2000/svg" width="1024" height="1024">
<path d="M0 0 C337.92 0 675.84 0 1024 0 C1024 337.92 1024 675.84 1024 1024 C686.08 1024 348.16 1024 0 1024 C0 686.08 0 348.16 0 0 Z " fill="#FCFCFD" transform="translate(0,0)"/>
<path d="M0 0 C0.59567815 4.39312634 1.06218804 8.56132862 1 13 C1.67546875 13.18175781 2.3509375 13.36351562 3.046875 13.55078125 C3.93890625 13.80214844 4.8309375 14.05351562 5.75 14.3125 C6.63171875 14.55613281 7.5134375 14.79976563 8.421875 15.05078125 C11.0826919 16.03044566 12.78176463 17.26516826 15 19 C19.24949514 21.05293702 23.22384519 22.44776451 28 22 C28.4640625 20.7934375 28.4640625 20.7934375 28.9375 19.5625 C30 17 30 17 31 16 C35.98968777 15.95220606 39.95526024 16.28957697 44.125 19.125 C48.88080741 22.32227775 54.95160031 20.81645901 60.35546875 20.26171875 C63.43063686 20.04088674 65.1695118 20.02721581 68 21 C69.32 21.33 70.64 21.66 72 22 C72 24.97 72 27.94 72 31 C69 30 69 30 67 28 C67.50789062 28.87140625 68.01578125 29.7428125 68.5390625 30.640625 C72.53622811 37.54357994 76.32701237 44.47096439 79.7734375 51.671875 C80.90960657 54.10694191 80.90960657 54.10694191 83 56 C83.061875 57.010625 83.12375 58.02125 83.1875 59.0625 C83.90898698 65.55588279 89.5114614 70.62461783 94 75 C94.639375 75.66 95.27875 76.32 95.9375 77 C97.91036351 79.02937462 97.91036351 79.02937462 100.125 80.4375 C102 82 102 82 102.875 84.625 C103.24625 85.40875 103.6175 86.1925 104 87 C108.78512571 88.38424341 111.93177339 87.68626128 116.5625 86.0625 C120.56057449 84.67329862 123.75386192 83.73906414 128 84 C126.63589956 102.00612578 116.90544002 115.34718311 103.625 126.875 C102.98433594 127.41898438 102.34367188 127.96296875 101.68359375 128.5234375 C97.01938707 132.61408744 93.55074416 137.70419556 92.74609375 143.98046875 C92.59222975 149.28364788 93.61160416 154.22320833 96 159 C96.28884988 162.13910095 96.27772222 165.28663332 96.3125 168.4375 C96.34150391 169.30955078 96.37050781 170.18160156 96.40039062 171.08007812 C96.46443481 177.48942264 96.46443481 177.48942264 94.19140625 179.98828125 C93.46824219 180.32214844 92.74507812 180.65601563 92 181 C86.70092132 183.74767043 81.71039284 186.4407271 79 192 C78.79271788 195.12581441 78.93786672 198.13168427 79.109375 201.2578125 C79 204 79 204 76.6875 207 C75.3571875 207.99 75.3571875 207.99 74 209 C71.96632338 211.34654994 70.95624568 213.11910899 69.875 216.0625 C66.92131694 223.26015926 60.63536664 230.87839045 54.08984375 235.14453125 C50.21125377 236.73221575 46.12714795 237.15427169 41.98828125 237.640625 C39.09813647 237.89981958 39.09813647 237.89981958 36.79296875 238.671875 C35 239 35 239 32 237 C31.41015625 234.828125 31.41015625 234.828125 31.0625 232.25 C30.04056126 226.42829982 28.10419745 222.653298 23.375 218.9375 C20.67885824 215.60279835 20.58901609 214.22855754 20.125 210.0625 C19.1794422 201.94182712 15.88813888 192.88813888 10 187 C9.17777778 169.73333333 9.17777778 169.73333333 13 164 C13.62512275 154.93572011 11.80909823 147.6645003 7 140 C6.71125 139.29875 6.4225 138.5975 6.125 137.875 C4.97473101 135.6546572 4.97473101 135.6546572 1.8125 133.875 C0.203125 132.60546875 0.203125 132.60546875 -1 131 C-1.30926008 127.55650796 -0.66674854 124.37477339 0 121 C1.17380117 115.25614281 1.17380117 115.25614281 -1 110 C-4.0761981 109.34019046 -7.1222075 109.04972109 -10.25 108.72265625 C-13 108 -13 108 -14.25 105.99609375 C-14.62125 105.00802734 -14.62125 105.00802734 -15 104 C-18.26157182 102.36921409 -21.47508688 102.44218547 -25 103 C-26.57071176 103.7772034 -28.11178982 104.61604554 -29.625 105.5 C-35.0538606 108.48252218 -39.65470338 108.36725248 -45.74609375 108.078125 C-48.5694153 108.01033817 -50.50899777 108.2739994 -53.1875 109 C-60.22058387 109 -65.07955049 103.74932942 -70 99.1171875 C-73.27064061 95.61068339 -74.75887699 92.94302166 -75 88 C-75.88751953 87.88398438 -75.88751953 87.88398438 -76.79296875 87.765625 C-79.74477327 86.74163617 -80.59334369 85.32660151 -82.3125 82.75 C-82.84488281 81.98171875 -83.37726563 81.2134375 -83.92578125 80.421875 C-85.64561527 76.54443104 -84.29005047 73.87015141 -83 70 C-82.98701911 68.65708386 -83.03058787 67.3130868 -83.11328125 65.97265625 C-83.71588781 52.38826209 -81.55541668 44.0569917 -72.5 33.5 C-69.24007784 30.080655 -66.16590847 27.23536552 -62 25 C-61.34 25 -60.68 25 -60 25 C-59.9175 23.96875 -59.835 22.9375 -59.75 21.875 C-58.90592038 17.51392197 -57.74516001 15.46757054 -55 12 C-54.53851563 11.36320312 -54.07703125 10.72640625 -53.6015625 10.0703125 C-51.00142921 6.91210183 -49.29272018 5.15105154 -45.125 4.6640625 C-43.03254479 4.72160502 -40.94079263 4.81570765 -38.8515625 4.9453125 C-35.00687634 5.01904621 -32.43389682 3.65335773 -29 2 C-20.68067203 -0.39449292 -8.36118762 -2.79406521 0 0 Z " fill="#13375A" transform="translate(497,258)"/>
<path d="M0 0 C0.99 0 1.98 0 3 0 C5.63608426 5.65433182 8.26859826 11.31030738 10.89794922 16.96777344 C11.7911973 18.88846649 12.68538569 20.80872256 13.58056641 22.72851562 C14.87395264 25.50273538 16.16384522 28.27855737 17.453125 31.0546875 C18.04556 32.32250565 18.04556 32.32250565 18.64996338 33.61593628 C20.95345624 38.58600501 23.08751009 43.59406487 25.08267212 48.69598389 C26.65207752 52.63779729 28.39049445 56.50368913 30.125 60.375 C30.47175781 61.15488281 30.81851563 61.93476562 31.17578125 62.73828125 C32.57503484 65.8749701 32.57503484 65.8749701 34 69 C34.28472168 69.7007666 34.56944336 70.4015332 34.86279297 71.12353516 C36.05922145 73.47389011 36.05922145 73.47389011 40 75 C33.73 75 27.46 75 21 75 C21.33 74.34 21.66 73.68 22 73 C22.57169947 64.67462648 18.92326564 57.66462908 15.49609375 50.34375 C14 47 14 47 14 45 C4.43 45 -5.14 45 -15 45 C-15.66 47.31 -16.32 49.62 -17 52 C-17.48304603 53.26370546 -17.99122775 54.51864642 -18.54296875 55.75390625 C-18.81173828 56.38103516 -19.08050781 57.00816406 -19.35742188 57.65429688 C-19.91411289 58.93403129 -20.4793408 60.21008353 -21.05273438 61.48242188 C-22.8591344 65.75009686 -23.24086812 68.52893549 -22 73 C-21.67 73.66 -21.34 74.32 -21 75 C-26.28 75 -31.56 75 -37 75 C-35.35 73.68 -33.7 72.36 -32 71 C-30.82661802 69.20024472 -30.82661802 69.20024472 -30.125 67.1875 C-28.47803923 63.13899485 -26.69283853 59.1965496 -24.8125 55.25 C-21.89383667 49.0611904 -19.17408645 42.79790141 -16.5 36.5 C-13.33116041 29.03878048 -10.04007316 21.65960688 -6.57421875 14.33203125 C-4.32871474 9.57914064 -2.16164466 4.79147963 0 0 Z " fill="#244566" transform="translate(296,559)"/>
<path d="M0 0 C4.24972277 -0.88159143 7.76281937 -1.02442619 12 0 C16.29328087 3.0149228 19.50888573 7.31834387 22.73681641 11.40234375 C24.25961253 13.32835416 25.86779819 15.166243 27.5 17 C28.02851563 17.61101563 28.55703125 18.22203125 29.1015625 18.8515625 C32.16133331 22.31426609 35.3141355 25.69063641 38.45483398 29.07983398 C42.19278762 33.11640398 45.88580659 37.19033609 49.55615234 41.28857422 C52.28000082 44.31065826 55.02593533 47.31162537 57.77734375 50.30859375 C58.28197144 50.85866089 58.78659912 51.40872803 59.30651855 51.97546387 C60.53745708 53.31717957 61.76869714 54.65861864 63 56 C63.05067793 48.66767322 63.08572428 41.33539156 63.10986328 34.00292969 C63.11992561 31.50812085 63.13357679 29.01332382 63.15087891 26.51855469 C63.17511668 22.93421516 63.18648082 19.35003147 63.1953125 15.765625 C63.20563507 14.64883362 63.21595764 13.53204224 63.22659302 12.38140869 C63.22674408 11.34063171 63.22689514 10.29985474 63.22705078 9.22753906 C63.23371262 7.85520111 63.23371262 7.85520111 63.24050903 6.45513916 C63.1112029 3.62593731 63.1112029 3.62593731 61 0 C64.96 0 68.92 0 73 0 C72.51391769 0.84720612 72.02783539 1.69441223 71.52702332 2.56729126 C69.85446221 6.32716517 69.6056689 8.83002601 69.56762695 12.92333984 C69.5574353 13.5874588 69.54724365 14.25157776 69.53674316 14.93582153 C69.50676971 17.11094774 69.49737182 19.28563247 69.48828125 21.4609375 C69.47142285 22.97695359 69.45327104 24.4929558 69.43388367 26.00894165 C69.38650324 29.98398501 69.35661689 33.95897208 69.33044434 37.9342041 C69.30057816 41.9966137 69.25406874 46.05882959 69.20898438 50.12109375 C69.12308747 58.08063372 69.05568205 66.04019157 69 74 C68.34 74 67.68 74 67 74 C65.66015625 72.63671875 65.66015625 72.63671875 64.0625 70.6875 C61.03120713 67.11196665 57.837603 63.79169374 54.5 60.5 C50.75220893 56.79838425 47.15897829 53.02305557 43.734375 49.01953125 C40.98540286 45.81858846 38.14520315 42.70065628 35.31640625 39.5703125 C33.796489 37.88379387 32.28321724 36.19125741 30.77734375 34.4921875 C26.08213084 29.20903788 21.22618614 24.16012427 16.1640625 19.2265625 C14.23439748 17.24116708 12.63321693 15.22690151 11 13 C10.89856588 20.59876096 10.82851979 28.19734727 10.78027344 35.79663086 C10.76016028 38.38165817 10.73286614 40.96664 10.69824219 43.55151367 C10.64971346 47.26752955 10.62702765 50.98294378 10.609375 54.69921875 C10.58872986 55.85459641 10.56808472 57.00997406 10.54681396 58.20036316 C10.54651184 59.28110611 10.54620972 60.36184906 10.54589844 61.4753418 C10.53701599 62.42354294 10.52813354 63.37174408 10.51898193 64.34867859 C10.90995459 67.69935746 10.90995459 67.69935746 15 72 C10.05 72 5.1 72 0 72 C1.32 70.35 2.64 68.7 4 67 C4.59949556 64.03778774 4.59949556 64.03778774 4.51757812 60.8203125 C4.53018677 59.59554199 4.54279541 58.37077148 4.55578613 57.10888672 C4.54768921 55.7942041 4.53959229 54.47952148 4.53125 53.125 C4.53394691 51.75406621 4.53783099 50.3831343 4.54284668 49.01220703 C4.54873254 46.14401981 4.54020921 43.27633211 4.52148438 40.40820312 C4.4986942 36.73939248 4.51182235 33.07175236 4.53577423 29.40298462 C4.55025761 26.57356005 4.54561485 23.74441109 4.53526306 20.91497803 C4.53131298 18.90701534 4.54341962 16.89904177 4.55578613 14.89111328 C4.54317749 13.66634277 4.53056885 12.44157227 4.51757812 11.1796875 C4.51439575 10.10444824 4.51121338 9.02920898 4.50793457 7.92138672 C3.88478032 4.33731379 2.44853368 2.63036226 0 0 Z " fill="#204264" transform="translate(346,562)"/>
<path d="M0 0 C5.61 0 11.22 0 17 0 C15.02 2.97 15.02 2.97 13 6 C12.37076878 9.07473111 12.37076878 9.07473111 12.390625 12.2734375 C12.34470215 13.83457275 12.34470215 13.83457275 12.29785156 15.42724609 C12.28206055 16.73000488 12.26626953 18.03276367 12.25 19.375 C12.1675 23.54125 12.085 27.7075 12 32 C27.18 32 42.36 32 58 32 C57.87625 27.648125 57.7525 23.29625 57.625 18.8125 C57.59100098 17.44843018 57.55700195 16.08436035 57.52197266 14.67895508 C57.4863623 13.59509521 57.45075195 12.51123535 57.4140625 11.39453125 C57.3826416 10.28956299 57.3512207 9.18459473 57.31884766 8.04614258 C57.09614553 4.5813033 57.09614553 4.5813033 55 0 C59.62 0 64.24 0 69 0 C68.34 1.32 67.68 2.64 67 4 C66.69054907 6.96255675 66.69054907 6.96255675 66.7253418 10.265625 C66.71580978 11.53374023 66.70627777 12.80185547 66.69645691 14.10839844 C66.69671832 15.48893257 66.69765528 16.86946672 66.69921875 18.25 C66.69533034 19.66959763 66.69099537 21.0891941 66.68623352 22.50878906 C66.67877937 25.4811582 66.67905706 28.45340854 66.68432617 31.42578125 C66.6901252 35.23238682 66.67317599 39.03850651 66.6499815 42.84503174 C66.63524269 45.77558224 66.63437253 48.70601568 66.63749123 51.63659668 C66.63697826 53.04000818 66.63174511 54.44342627 66.62167931 55.84680176 C66.60932846 57.80928833 66.61804603 59.77187324 66.62768555 61.734375 C66.62705612 62.85038086 66.6264267 63.96638672 66.6257782 65.11621094 C66.81644347 68.43867509 66.81644347 68.43867509 70 72 C64.39 72 58.78 72 53 72 C53.33 71.34 53.66 70.68 54 70 C54.66 70 55.32 70 56 70 C56.91983592 66.0293204 57.19088698 62.23837938 57.31640625 58.16796875 C57.35451416 57.00289795 57.39262207 55.83782715 57.43188477 54.63745117 C57.47498779 53.16896729 57.51809082 51.7004834 57.5625 50.1875 C57.706875 45.505625 57.85125 40.82375 58 36 C42.82 36 27.64 36 12 36 C12.103125 41.011875 12.20625 46.02375 12.3125 51.1875 C12.33739502 52.76039795 12.36229004 54.3332959 12.38793945 55.95385742 C12.42105225 57.20013916 12.45416504 58.4464209 12.48828125 59.73046875 C12.51446533 61.00301514 12.54064941 62.27556152 12.56762695 63.58666992 C12.82709754 67.4724052 12.82709754 67.4724052 16 72 C10.72 72 5.44 72 0 72 C0.99 70.35 1.98 68.7 3 67 C3.43119746 63.87243345 3.43119746 63.87243345 3.34057617 60.46557617 C3.34034958 59.16460495 3.34012299 57.86363373 3.33988953 56.52323914 C3.32457184 55.11314547 3.30892389 53.70305535 3.29296875 52.29296875 C3.28736939 50.84280334 3.2831009 49.39263223 3.28010559 47.94245911 C3.26868347 44.13652721 3.23923945 40.33094197 3.20599365 36.52514648 C3.17523566 32.63725473 3.16158805 28.74930664 3.14648438 24.86132812 C3.1143668 17.24072784 3.06320287 9.62041261 3 2 C2.01 1.67 1.02 1.34 0 1 C0 0.67 0 0.34 0 0 Z " fill="#133658" transform="translate(502,562)"/>
<path d="M0 0 C4.51651109 -0.12483978 9.03207334 -0.2149125 13.54980469 -0.2746582 C15.0822095 -0.29959759 16.61449792 -0.33356266 18.14648438 -0.37719727 C27.14249275 -0.62676016 35.54558312 -0.84707641 43 5 C46.2168301 8.65825631 47.12299238 12.1681564 47 17 C46.0126694 22.60887808 43.490925 26.20857452 39.04296875 29.6796875 C35.24967255 32.13118677 30.6181269 35 26 35 C31.75671737 42.46759226 37.54209825 49.81456459 43.94140625 56.75 C45.91921353 58.91170208 47.80315575 61.13192938 49.6875 63.375 C52.50266628 66.63085819 55.33855277 68.76741023 59 71 C59 71.33 59 71.66 59 72 C49.02203467 73.04768636 49.02203467 73.04768636 44.73828125 70.828125 C40.07008355 66.85116144 36.308822 61.90096395 32.5078125 57.11328125 C29.13984001 52.93216899 25.61693935 48.89178687 22.07324219 44.85913086 C15 36.71222965 15 36.71222965 15 33 C15.94101562 32.84144531 16.88203125 32.68289063 17.8515625 32.51953125 C27.52955852 30.83707821 27.52955852 30.83707821 35 25 C37.51707078 20.75794365 37.69800081 16.82568464 37 12 C34.63699165 7.8866151 32.45036096 6.39886172 28 5 C24.45042747 4.72205846 24.45042747 4.72205846 20.75 4.8125 C19.50734375 4.81894531 18.2646875 4.82539062 16.984375 4.83203125 C14.11693877 4.66097641 14.11693877 4.66097641 13 6 C12.89571953 7.81438268 12.86145659 9.6328308 12.85473633 11.45019531 C12.84835648 12.61520569 12.84197662 13.78021606 12.83540344 14.98052979 C12.83429062 16.25023621 12.8331778 17.51994263 12.83203125 18.828125 C12.82870285 20.12441833 12.82537445 21.42071167 12.82194519 22.75628662 C12.81594588 25.50696646 12.81410596 28.25761486 12.81469727 31.00830078 C12.8147986 34.52669122 12.8011795 38.04487856 12.78392506 41.56322098 C12.77009898 44.92235863 12.77071517 48.28145926 12.76953125 51.640625 C12.76234573 52.9022345 12.75516022 54.16384399 12.74775696 55.46368408 C12.75083359 56.6413031 12.75391022 57.81892212 12.75708008 59.03222656 C12.75494255 60.58324066 12.75494255 60.58324066 12.75276184 62.16558838 C13.11253174 66.29009728 14.06231841 69.06231841 17 72 C11.39 72 5.78 72 0 72 C0.99 70.35 1.98 68.7 3 67 C3.43119746 63.87243345 3.43119746 63.87243345 3.34057617 60.46557617 C3.34034958 59.16460495 3.34012299 57.86363373 3.33988953 56.52323914 C3.32457184 55.11314547 3.30892389 53.70305535 3.29296875 52.29296875 C3.28736939 50.84280334 3.2831009 49.39263223 3.28010559 47.94245911 C3.26868347 44.13652721 3.23923945 40.33094197 3.20599365 36.52514648 C3.17523566 32.63725473 3.16158805 28.74930664 3.14648438 24.86132812 C3.1143668 17.24072784 3.06320287 9.62041261 3 2 C2.01 1.67 1.02 1.34 0 1 C0 0.67 0 0.34 0 0 Z " fill="#214264" transform="translate(670,562)"/>
<path d="M0 0 C4.95 0 9.9 0 15 0 C13.515 2.475 13.515 2.475 12 5 C11.56326525 7.16680305 11.56326525 7.16680305 11.62768555 9.37207031 C11.62145676 10.20353577 11.61522797 11.03500122 11.60881042 11.8916626 C11.61802017 12.77819519 11.62722992 13.66472778 11.63671875 14.578125 C11.63622025 15.50413513 11.63572174 16.43014526 11.63520813 17.38421631 C11.6375445 19.34096423 11.64724724 21.29771539 11.66381836 23.25439453 C11.6873092 26.22586461 11.68438818 29.19642997 11.67773438 32.16796875 C11.68331537 34.07552611 11.69042789 35.98307973 11.69921875 37.890625 C11.69830734 38.76906067 11.69739594 39.64749634 11.69645691 40.55255127 C11.78689648 48.56111143 12.62646818 55.71632372 17.29296875 62.39453125 C22.65238335 67.43507907 27.4478036 68.65178019 34.5625 68.5 C35.29146484 68.51546875 36.02042969 68.5309375 36.77148438 68.546875 C41.99083564 68.50929191 44.75358596 67.21833485 49 64 C49.66 64 50.32 64 51 64 C51.66952539 62.66809986 52.33551381 61.33442134 53 60 C53.34885254 59.33661621 53.69770508 58.67323242 54.05712891 57.98974609 C58.11317712 48.89729581 57.53422743 39.39877316 57.41162109 29.64599609 C57.37483411 26.61131545 57.37060449 23.57785047 57.37109375 20.54296875 C57.36127054 18.60415614 57.34961703 16.66535174 57.3359375 14.7265625 C57.33371185 13.82443024 57.33148621 12.92229797 57.32919312 11.99282837 C57.31643341 11.14779755 57.30367371 10.30276672 57.29052734 9.43212891 C57.28290375 8.69475494 57.27528015 7.95738098 57.26742554 7.19766235 C57.02861823 4.45163307 57.02861823 4.45163307 55 0 C58.96 0 62.92 0 67 0 C66.34 1.65 65.68 3.3 65 5 C64.8015341 7.88391847 64.69925253 10.67891001 64.69140625 13.5625 C64.66621802 15.26432592 64.64082047 16.96614876 64.61523438 18.66796875 C64.58670502 21.32241798 64.56266565 23.9768128 64.54370117 26.63134766 C64.28734238 56.71265762 64.28734238 56.71265762 52.625 68.375 C46.12105494 72.4012517 40.13951616 73.56057651 32.625 73.5 C31.37154785 73.49033203 31.37154785 73.49033203 30.09277344 73.48046875 C21.19998785 73.2171841 15.32542767 70.6787337 9.0625 64.3125 C2.9483688 57.53738165 2.55965842 47.76156964 2.55859375 39.1015625 C2.54538589 38.1041806 2.53217804 37.10679871 2.51856995 36.07919312 C2.47803876 32.92776576 2.45609011 29.77662736 2.4375 26.625 C2.4136775 23.45203574 2.38557587 20.27934195 2.34571838 17.10653687 C2.32143733 15.14115865 2.30651707 13.17563678 2.30210876 11.21011353 C2.29192215 10.32173798 2.28173553 9.43336243 2.27124023 8.51806641 C2.26696518 7.73992584 2.26269012 6.96178528 2.25828552 6.1600647 C2.07365451 3.5842132 2.07365451 3.5842132 0 0 Z " fill="#183A5C" transform="translate(588,562)"/>
<path d="M0 0 C19.47 0 38.94 0 59 0 C58.01 3.96 57.02 7.92 56 12 C55.20335937 11.19175781 54.40671875 10.38351562 53.5859375 9.55078125 C49.55560364 6.1921697 45.70302897 6.22394518 40.625 6.1875 C39.79355469 6.16236328 38.96210938 6.13722656 38.10546875 6.11132812 C36.07081407 6.05286104 34.03535926 6.0234685 32 6 C32.06127752 13.99768959 32.13843075 21.99500283 32.23571491 29.99232769 C32.28039482 33.70604459 32.31965586 37.41965239 32.34643555 41.13354492 C32.37249278 44.71936673 32.41291143 48.30476819 32.46318626 51.89032936 C32.47983879 53.25656712 32.49136315 54.62287756 32.49761391 55.9892025 C32.50727161 57.90657498 32.5370458 59.82381389 32.56762695 61.7409668 C32.58428154 63.37644722 32.58428154 63.37644722 32.60127258 65.04496765 C32.87426412 68.53695048 32.87426412 68.53695048 36 73 C30.39 73 24.78 73 19 73 C19.99 71.68 20.98 70.36 22 69 C22.47073851 66.09587329 22.47073851 66.09587329 22.43237305 62.85449219 C22.45216721 61.61350769 22.47196136 60.37252319 22.49235535 59.09393311 C22.49912456 57.74491528 22.50557149 56.3958958 22.51171875 55.046875 C22.52856935 53.66252042 22.54672012 52.27818111 22.56611633 50.89385986 C22.6135817 47.25745412 22.64341308 43.62111028 22.66955566 39.98449707 C22.69937893 36.27079037 22.74590312 32.55729687 22.79101562 28.84375 C22.87700916 21.56260586 22.94437161 14.28144616 23 7 C20.4783624 7.11503269 17.9581881 7.24174777 15.4375 7.375 C14.38079102 7.42140625 14.38079102 7.42140625 13.30273438 7.46875 C8.59217974 7.7292415 4.45464149 8.40619004 0 10 C-0.33 10.66 -0.66 11.32 -1 12 C-1.66 12 -2.32 12 -3 12 C-2.4721307 7.51311093 -1.70509 4.26272499 0 0 Z " fill="#2C4E6D" transform="translate(433,561)"/>
<path d="M0 0 C3.32216051 2.59995171 3.49526557 4.91886161 4 9 C4.18233121 13.6708967 4.11435861 18.32763373 4 23 C3.98324219 23.75539063 3.96648437 24.51078125 3.94921875 25.2890625 C3.67145702 28.8920289 2.86120355 30.15910813 0.4375 32.9375 C-0.7690625 33.9584375 -0.7690625 33.9584375 -2 35 C-2 33.68 -2 32.36 -2 31 C-5.3 31 -8.6 31 -12 31 C-10.94548112 35.21807554 -10.40769235 35.70843312 -7.5 38.5625 C-1.84912385 45.4036425 -2.93997093 54.57020311 -3 63 C-1.68 63.66 -0.36 64.32 1 65 C1 65.66 1 66.32 1 67 C-2.375 67.125 -2.375 67.125 -6 67 C-9.23150962 63.76849038 -8.39806416 59.1483146 -8.47851562 54.765625 C-8.5506536 52.83725371 -8.7667462 50.91557104 -9 49 C-9.99 48.34 -10.98 47.68 -12 47 C-12.495 47.845625 -12.99 48.69125 -13.5 49.5625 C-15.38152375 52.45977389 -17.55457915 54.35417737 -20.25 56.5 C-23.58833675 59.20946937 -23.58833675 59.20946937 -24.5 63.4375 C-24.335 64.283125 -24.17 65.12875 -24 66 C-27.7498532 64.54844392 -27.7498532 64.54844392 -28.83203125 62.17578125 C-29 60 -29 60 -27.671875 57.96484375 C-27.03765625 57.29582031 -26.4034375 56.62679687 -25.75 55.9375 C-25.12609375 55.26589844 -24.5021875 54.59429687 -23.859375 53.90234375 C-22.2507303 52.25652449 -20.63487874 50.61974098 -19 49 C-19.3403125 48.44441406 -19.680625 47.88882813 -20.03125 47.31640625 C-21.20688331 44.50531531 -20.96831122 42.92298402 -20.5 39.9375 C-19.79358562 35.74242906 -19.79358562 35.74242906 -22 32 C-22.93916221 27.78623683 -22.83840373 24.32656047 -20.50390625 20.6328125 C-18.75724595 18.59201605 -17.06706697 16.71632031 -15 15 C-14.34 15 -13.68 15 -13 15 C-13.66 14.01 -14.32 13.02 -15 12 C-15.25 9.4375 -15.25 9.4375 -15 7 C-14.34 6.34 -13.68 5.68 -13 5 C-9.70285207 5.32971479 -8.3773161 5.6226839 -6 8 C-6.375 10.625 -6.375 10.625 -7 13 C-8.32 13.33 -9.64 13.66 -11 14 C-10.01 15.485 -10.01 15.485 -9 17 C-8.8046875 19.26171875 -8.8046875 19.26171875 -8.875 21.6875 C-8.89304687 22.49574219 -8.91109375 23.30398438 -8.9296875 24.13671875 C-8.95289063 24.75160156 -8.97609375 25.36648438 -9 26 C-6.04335481 27.4783226 -3.25770263 27.06032783 0 27 C0.89758306 24.30725081 1.12836222 22.74313992 1.1328125 19.98046875 C1.13410156 19.20509766 1.13539063 18.42972656 1.13671875 17.63085938 C1.13091797 16.42139648 1.13091797 16.42139648 1.125 15.1875 C1.12886719 14.39279297 1.13273437 13.59808594 1.13671875 12.77929688 C1.12948616 8.40719832 0.87334493 4.30434286 0 0 Z " fill="#2C4B69" transform="translate(458,423)"/>
<path d="M0 0 C1.21171875 -0.01675781 2.4234375 -0.03351562 3.671875 -0.05078125 C8.65162907 0.45480514 11.92010261 2.12259181 15.625 5.4375 C17.89897135 9.46068008 18.040699 12.79193804 17.25 17.3125 C14.79395366 22.13362799 11.57653966 26.10034476 6.36328125 28 C2.27542418 29.1212408 -1.49260729 29.52536964 -5.75 29.3125 C-5.42 30.3025 -5.09 31.2925 -4.75 32.3125 C-5.74 32.3125 -6.73 32.3125 -7.75 32.3125 C-7.75 41.8825 -7.75 51.4525 -7.75 61.3125 C-8.08 61.3125 -8.41 61.3125 -8.75 61.3125 C-8.79629168 53.65442785 -8.83185303 45.99637016 -8.85362434 38.33819008 C-8.86407224 34.78237601 -8.87824959 31.2266575 -8.90087891 27.67089844 C-8.92671832 23.585277 -8.93646444 19.49975631 -8.9453125 15.4140625 C-8.95563507 14.13383209 -8.96595764 12.85360168 -8.97659302 11.53457642 C-8.97674408 10.35350311 -8.97689514 9.17242981 -8.97705078 7.95556641 C-8.981492 6.91187897 -8.98593323 5.86819153 -8.99050903 4.7928772 C-8.45627234 -0.71672259 -4.6004183 0.01455829 0 0 Z " fill="#F0F3F6" transform="translate(690.75,565.6875)"/>
<path d="M0 0 C5.61 0 11.22 0 17 0 C15.02 2.97 15.02 2.97 13 6 C12.36970242 9.17276245 12.36970242 9.17276245 12.390625 12.4921875 C12.35839844 13.69101562 12.32617188 14.88984375 12.29296875 16.125 C12.27169922 17.98125 12.27169922 17.98125 12.25 19.875 C12.22035156 21.13570312 12.19070313 22.39640625 12.16015625 23.6953125 C12.08967395 26.79653358 12.04254774 29.8982699 12 33 C16.95 33 21.9 33 27 33 C27 33.33 27 33.66 27 34 C37.23 34.33 47.46 34.66 58 35 C58 35.33 58 35.66 58 36 C42.82 36 27.64 36 12 36 C12.103125 41.011875 12.20625 46.02375 12.3125 51.1875 C12.33739502 52.76039795 12.36229004 54.3332959 12.38793945 55.95385742 C12.42105225 57.20013916 12.45416504 58.4464209 12.48828125 59.73046875 C12.51446533 61.00301514 12.54064941 62.27556152 12.56762695 63.58666992 C12.82709754 67.4724052 12.82709754 67.4724052 16 72 C10.72 72 5.44 72 0 72 C0.99 70.35 1.98 68.7 3 67 C3.43119746 63.87243345 3.43119746 63.87243345 3.34057617 60.46557617 C3.34034958 59.16460495 3.34012299 57.86363373 3.33988953 56.52323914 C3.32457184 55.11314547 3.30892389 53.70305535 3.29296875 52.29296875 C3.28736939 50.84280334 3.2831009 49.39263223 3.28010559 47.94245911 C3.26868347 44.13652721 3.23923945 40.33094197 3.20599365 36.52514648 C3.17523566 32.63725473 3.16158805 28.74930664 3.14648438 24.86132812 C3.1143668 17.24072784 3.06320287 9.62041261 3 2 C2.01 1.67 1.02 1.34 0 1 C0 0.67 0 0.34 0 0 Z " fill="#1A3F63" transform="translate(502,562)"/>
<path d="M0 0 C6.36290045 5.8356887 7.46665408 13.40431627 7.921875 21.69140625 C7.94765625 22.45324219 7.9734375 23.21507812 8 24 C7.01 24 6.02 24 5 24 C4.34 25.32 3.68 26.64 3 28 C3 26.68 3 25.36 3 24 C1.2365625 24.061875 1.2365625 24.061875 -0.5625 24.125 C-4.72409674 24.13983635 -8.06487667 23.31170778 -12 22 C-11.74605469 22.6290625 -11.49210937 23.258125 -11.23046875 23.90625 C-9.57318931 28.02772397 -7.92696549 32.15004896 -6.375 36.3125 C-5.60454656 38.37871604 -4.79910141 40.43528028 -3.875 42.4375 C-2.99935426 45.00189109 -2.87978565 46.93843713 -2.75 49.625 C-2.62412624 51.94259393 -2.62412624 51.94259393 -2 54 C0.90251302 56.16247221 0.90251302 56.16247221 4 57 C4 57.99 4 58.98 4 60 C1.03 60 -1.94 60 -5 60 C-5.32613281 58.71222656 -5.65226562 57.42445313 -5.98828125 56.09765625 C-6.42902064 54.41909559 -6.87046332 52.74071949 -7.3125 51.0625 C-7.63250977 49.78729492 -7.63250977 49.78729492 -7.95898438 48.48632812 C-8.17490234 47.67744141 -8.39082031 46.86855469 -8.61328125 46.03515625 C-8.80704346 45.2862915 -9.00080566 44.53742676 -9.20043945 43.76586914 C-9.46429443 43.18313232 -9.72814941 42.60039551 -10 42 C-11.485 41.505 -11.485 41.505 -13 41 C-13.06058594 41.56976563 -13.12117188 42.13953125 -13.18359375 42.7265625 C-14.64861094 46.80617976 -18.53604713 48.9570865 -21.84765625 51.5859375 C-24.31605341 53.87427898 -24.31605341 53.87427898 -24.30859375 57.2890625 C-24.20675781 58.18367188 -24.10492188 59.07828125 -24 60 C-25.65 58.68 -27.3 57.36 -29 56 C-28.52492969 51.72436721 -26.04697466 49.83439503 -23 47 C-21.63015802 45.70420353 -20.2848951 44.38007251 -19 43 C-19 42.34 -19 41.68 -19 41 C-20.32 40.34 -21.64 39.68 -23 39 C-22.67 38.113125 -22.34 37.22625 -22 36.3125 C-20.78482235 32.28722405 -20.31026255 29.59501785 -22 25.6875 C-23.37213941 21.99987534 -24.07064571 18.80287795 -23 15 C-20.63294813 11.96624574 -17.94232953 9.46945514 -15 7 C-11.125 8.875 -11.125 8.875 -10 10 C-9.83900597 12.02852478 -9.6811709 14.05775294 -9.57421875 16.08984375 C-9.16766784 18.14927788 -9.16766784 18.14927788 -7.25390625 19.24609375 C-4.77053794 20.07675247 -2.86067002 20.20178441 -0.25 20.125 C0.94882812 20.09792969 0.94882812 20.09792969 2.171875 20.0703125 C2.77515625 20.04710937 3.3784375 20.02390625 4 20 C4.40486341 13.62340131 3.77205346 9.55123024 0.875 3.84765625 C0 2 0 2 0 0 Z " fill="#204162" transform="translate(405,428)"/>
<path d="M0 0 C8.91 0 17.82 0 27 0 C26.67 0.99 26.34 1.98 26 3 C24.96939453 3.07347656 24.96939453 3.07347656 23.91796875 3.1484375 C22.56638672 3.26058594 22.56638672 3.26058594 21.1875 3.375 C20.29417969 3.44460938 19.40085937 3.51421875 18.48046875 3.5859375 C15.75601501 3.86645036 15.75601501 3.86645036 13 6 C12.54698309 8.54772748 12.54698309 8.54772748 12.62768555 11.5637207 C12.62145676 12.72865555 12.61522797 13.89359039 12.60881042 15.09382629 C12.61802017 16.35837143 12.62722992 17.62291656 12.63671875 18.92578125 C12.63622025 20.22065964 12.63572174 21.51553802 12.63520813 22.84965515 C12.63529793 25.5944682 12.64573844 28.33898803 12.66381836 31.08374023 C12.68643897 34.59429733 12.68706271 38.10442334 12.68030071 41.61503315 C12.67614399 44.96866451 12.68814521 48.32216469 12.69921875 51.67578125 C12.69830734 52.93425369 12.69739594 54.19272614 12.69645691 55.48933411 C12.70598892 56.66372543 12.71552094 57.83811676 12.7253418 59.0480957 C12.72994919 60.0790889 12.73455658 61.11008209 12.73930359 62.1723175 C13.11874054 66.28793698 14.06661556 69.06661556 17 72 C11.39 72 5.78 72 0 72 C0.99 70.35 1.98 68.7 3 67 C3.43119746 63.87243345 3.43119746 63.87243345 3.34057617 60.46557617 C3.34034958 59.16460495 3.34012299 57.86363373 3.33988953 56.52323914 C3.32457184 55.11314547 3.30892389 53.70305535 3.29296875 52.29296875 C3.28736939 50.84280334 3.2831009 49.39263223 3.28010559 47.94245911 C3.26868347 44.13652721 3.23923945 40.33094197 3.20599365 36.52514648 C3.17523566 32.63725473 3.16158805 28.74930664 3.14648438 24.86132812 C3.1143668 17.24072784 3.06320287 9.62041261 3 2 C2.01 1.67 1.02 1.34 0 1 C0 0.67 0 0.34 0 0 Z " fill="#13385A" transform="translate(670,562)"/>
<path d="M0 0 C4.95 0 9.9 0 15 0 C14.34 1.65 13.68 3.3 13 5 C12.68653558 7.97326808 12.68653558 7.97326808 12.70947266 11.1796875 C12.69671295 12.40445801 12.68395325 13.62922852 12.67080688 14.89111328 C12.66858124 16.2057959 12.66635559 17.52047852 12.6640625 18.875 C12.65763042 20.24593239 12.65090176 21.61686342 12.64389038 22.98779297 C12.63194024 25.85582665 12.62820739 28.72374006 12.62939453 31.59179688 C12.62959801 35.26052146 12.60225723 38.92847393 12.56785011 42.59701538 C12.54558047 45.42638674 12.54155693 48.25557195 12.54261398 51.08502197 C12.53911815 53.09303522 12.51746259 55.10099038 12.49551392 57.10888672 C12.50166718 58.33365723 12.50782043 59.55842773 12.51416016 60.8203125 C12.5098851 62.43317139 12.5098851 62.43317139 12.50552368 64.07861328 C12.86961094 67.66661005 12.86961094 67.66661005 17 72 C11.06 72 5.12 72 -1 72 C0.32 70.35 1.64 68.7 3 67 C3.59295545 64.03739463 3.59295545 64.03739463 3.50170898 60.8203125 C3.51108994 59.59554199 3.52047089 58.37077148 3.53013611 57.10888672 C3.51890213 55.7942041 3.50766815 54.47952148 3.49609375 53.125 C3.49624885 51.75406823 3.49773961 50.38313602 3.50050354 49.01220703 C3.50188548 46.14400767 3.48936501 43.27630962 3.46655273 40.40820312 C3.4381679 36.73954002 3.44090777 33.07170933 3.45364285 29.40298462 C3.46061199 26.5735773 3.45279681 23.74436095 3.44038582 20.91497803 C3.43370041 18.90703412 3.43800594 16.89906331 3.44248962 14.89111328 C3.42980545 13.66634277 3.41712128 12.44157227 3.40405273 11.1796875 C3.39864975 10.10444824 3.39324677 9.02920898 3.38768005 7.92138672 C3.12485854 4.45779204 3.12485854 4.45779204 0 0 Z " fill="#183D60" transform="translate(740,562)"/>
<path d="M0 0 C1.2375 0.1546875 1.2375 0.1546875 2.5 0.3125 C4.64915785 3.53623677 4.88286803 4.57953674 4.5 8.3125 C3.84 8.9725 3.18 9.6325 2.5 10.3125 C1.51 10.3125 0.52 10.3125 -0.5 10.3125 C0.49 11.7975 0.49 11.7975 1.5 13.3125 C1.6953125 16.01171875 1.6953125 16.01171875 1.625 19 C1.60695313 19.99386719 1.58890625 20.98773438 1.5703125 22.01171875 C1.54710937 22.77097656 1.52390625 23.53023438 1.5 24.3125 C3.2015625 24.993125 3.2015625 24.993125 4.9375 25.6875 C8.5 27.3125 8.5 27.3125 9.5 29.3125 C6.53 28.9825 3.56 28.6525 0.5 28.3125 C1.02156484 32.38634432 2.07002681 34.24050285 4.875 37.1875 C9.22053884 42.45023249 9.95356876 47.58538095 10.9921875 54.15234375 C11.32056205 57.20332584 11.32056205 57.20332584 12.5 59.3125 C14.52463255 59.96463292 14.52463255 59.96463292 16.5 60.3125 C16.17 61.3025 15.84 62.2925 15.5 63.3125 C12.53 63.8075 12.53 63.8075 9.5 64.3125 C9.01080078 62.63220703 9.01080078 62.63220703 8.51171875 60.91796875 C8.07081483 59.44516203 7.62938079 57.97251393 7.1875 56.5 C6.97416016 55.76201172 6.76082031 55.02402344 6.54101562 54.26367188 C6.32509766 53.55146484 6.10917969 52.83925781 5.88671875 52.10546875 C5.69295654 51.4508667 5.49919434 50.79626465 5.29956055 50.12182617 C4.35752968 47.9901038 3.29563735 46.78668378 1.5 45.3125 C0.84 45.3125 0.18 45.3125 -0.5 45.3125 C-1.0878125 46.364375 -1.0878125 46.364375 -1.6875 47.4375 C-3.42556472 50.19443025 -4.64913807 51.28372855 -7.1875 53.1875 C-10.2813406 55.68337141 -10.4584682 55.9446469 -10.9375 60.1875 C-10.793125 61.21875 -10.64875 62.25 -10.5 63.3125 C-13.97899158 61.92090337 -14.98052501 60.67998512 -16.5 57.3125 C-15.85538818 56.83248535 -15.21077637 56.3524707 -14.54663086 55.85791016 C-10.66285599 52.57218919 -7.87019389 50.05737263 -6.78955078 44.96386719 C-6.68696953 41.17193344 -6.8120852 37.47239551 -7.0625 33.6875 C-7.89018075 15.16233089 -7.89018075 15.16233089 -3.875 10.375 C-3.42125 10.024375 -2.9675 9.67375 -2.5 9.3125 C-3.16 8.6525 -3.82 7.9925 -4.5 7.3125 C-4.75 4.8125 -4.75 4.8125 -4.5 2.3125 C-2.5 0.3125 -2.5 0.3125 0 0 Z " fill="#1E3F5F" transform="translate(486.5,425.6875)"/>
<path d="M0 0 C3.96 0 7.92 0 12 0 C11.34 1.65 10.68 3.3 10 5 C9.8015341 7.88391847 9.69925253 10.67891001 9.69140625 13.5625 C9.66621802 15.26432592 9.64082047 16.96614876 9.61523438 18.66796875 C9.58670502 21.32241798 9.56266565 23.9768128 9.54370117 26.63134766 C9.28734238 56.71265762 9.28734238 56.71265762 -2.375 68.375 C-9.01512229 72.4855519 -14.91298595 73.48488927 -22.5625 73.375 C-23.37396484 73.38660156 -24.18542969 73.39820313 -25.02148438 73.41015625 C-30.41862911 73.38401996 -34.18461002 72.44324485 -39 70 C-38.0409375 69.319375 -38.0409375 69.319375 -37.0625 68.625 C-34.90297594 67.16078274 -34.90297594 67.16078274 -34 65 C-33.34902344 65.48597656 -32.69804688 65.97195313 -32.02734375 66.47265625 C-28.0758676 68.4662397 -24.92230297 68.47916623 -20.5625 68.4375 C-19.82451172 68.45748047 -19.08652344 68.47746094 -18.32617188 68.49804688 C-13.05067656 68.49335755 -10.29160476 67.26886939 -6 64 C-5.34 64 -4.68 64 -4 64 C-3.33047461 62.66809986 -2.66448619 61.33442134 -2 60 C-1.65114746 59.33661621 -1.30229492 58.67323242 -0.94287109 57.98974609 C3.11317712 48.89729581 2.53422743 39.39877316 2.41162109 29.64599609 C2.37483411 26.61131545 2.37060449 23.57785047 2.37109375 20.54296875 C2.36127054 18.60415614 2.34961703 16.66535174 2.3359375 14.7265625 C2.33371185 13.82443024 2.33148621 12.92229797 2.32919312 11.99282837 C2.31643341 11.14779755 2.30367371 10.30276672 2.29052734 9.43212891 C2.28290375 8.69475494 2.27528015 7.95738098 2.26742554 7.19766235 C2.02861823 4.45163307 2.02861823 4.45163307 0 0 Z " fill="#1B3F60" transform="translate(643,562)"/>
<path d="M0 0 C0.6710274 11.6311416 -2.8016273 23.33958498 -10 32.5625 C-12.34415568 34.2473619 -14.19612226 34.43922445 -17 35 C-19.29289472 36.95809523 -19.29289472 36.95809523 -21 39 C-20.835 37.88625 -20.67 36.7725 -20.5 35.625 C-20.0500574 32.34849488 -20.11475748 29.41446543 -20.375 26.125 C-20.45127915 17.83599957 -14.27941452 12.17301077 -8.8125 6.5625 C-2.08559499 0 -2.08559499 0 0 0 Z " fill="#1C4164" transform="translate(623,426)"/>
<path d="M0 0 C0.66 0 1.32 0 2 0 C3.49097694 3.20297245 4.96561739 6.41321366 6.4375 9.625 C6.85837891 10.52863281 7.27925781 11.43226563 7.71289062 12.36328125 C8.11572266 13.24628906 8.51855469 14.12929688 8.93359375 15.0390625 C9.4913147 16.24876709 9.4913147 16.24876709 10.06030273 17.48291016 C11 20 11 20 12 26 C4.74 26 -2.52 26 -10 26 C-8.87452038 18.12164264 -8.87452038 18.12164264 -7.1875 14.4140625 C-6.65769531 13.23650391 -6.65769531 13.23650391 -6.1171875 12.03515625 C-5.74851562 11.23980469 -5.37984375 10.44445312 -5 9.625 C-4.63132812 8.80644531 -4.26265625 7.98789062 -3.8828125 7.14453125 C-1.16636588 1.16636588 -1.16636588 1.16636588 0 0 Z " fill="#F1F4F6" transform="translate(295,573)"/>
<path d="M0 0 C0.33 1.32 0.66 2.64 1 4 C11.23 4 21.46 4 32 4 C32 4.33 32 4.66 32 5 C22.43 5 12.86 5 3 5 C2.34 7.31 1.68 9.62 1 12 C0.51695397 13.26370546 0.00877225 14.51864642 -0.54296875 15.75390625 C-0.81173828 16.38103516 -1.08050781 17.00816406 -1.35742188 17.65429688 C-1.91411289 18.93403129 -2.4793408 20.21008353 -3.05273438 21.48242188 C-4.8591344 25.75009686 -5.24086812 28.52893549 -4 33 C-3.67 33.66 -3.34 34.32 -3 35 C-8.28 35 -13.56 35 -19 35 C-17.35 33.68 -15.7 32.36 -14 31 C-12.82661802 29.20024472 -12.82661802 29.20024472 -12.125 27.1875 C-10.36074736 22.84527819 -8.440171 18.61093676 -6.4375 14.375 C-4.19399601 9.62096694 -2.04759313 4.84202875 0 0 Z " fill="#274664" transform="translate(278,599)"/>
<path d="M0 0 C19.47 0 38.94 0 59 0 C58.01 3.96 57.02 7.92 56 12 C50.125 7.25 50.125 7.25 49 5 C48.01 4.67 47.02 4.34 46 4 C46 3.34 46 2.68 46 2 C36.76 2.33 27.52 2.66 18 3 C17.67 3.66 17.34 4.32 17 5 C14.04008728 5.61286536 11.07613413 5.95955441 8.078125 6.33984375 C4.81093491 7.04054822 2.7036317 8.05980387 0 10 C-0.33 10.66 -0.66 11.32 -1 12 C-1.66 12 -2.32 12 -3 12 C-2.4721307 7.51311093 -1.70509 4.26272499 0 0 Z " fill="#1D3E5E" transform="translate(433,561)"/>
<path d="M0 0 C0 0.66 0 1.32 0 2 C-3.3 2.33 -6.6 2.66 -10 3 C-10 3.66 -10 4.32 -10 5 C-11.8746679 5.05460198 -13.74980905 5.09306244 -15.625 5.125 C-17.19121094 5.15980469 -17.19121094 5.15980469 -18.7890625 5.1953125 C-22 5 -22 5 -24.78125 4.03125 C-29.14150408 2.63427539 -33.32262279 2.53954375 -37.875 2.375 C-39.19371094 2.31699219 -39.19371094 2.31699219 -40.5390625 2.2578125 C-42.69238793 2.16418966 -44.84616414 2.08103541 -47 2 C-47 1.34 -47 0.68 -47 0 C-46.16807129 -0.029729 -46.16807129 -0.029729 -45.31933594 -0.06005859 C-42.79576307 -0.15557651 -40.27298776 -0.26514567 -37.75 -0.375 C-36.87730469 -0.4059375 -36.00460937 -0.436875 -35.10546875 -0.46875 C-34.26113281 -0.50742187 -33.41679688 -0.54609375 -32.546875 -0.5859375 C-31.77182617 -0.6173584 -30.99677734 -0.6487793 -30.19824219 -0.68115234 C-11.42715991 -3.40383487 -11.42715991 -3.40383487 0 0 Z " fill="#33516F" transform="translate(680,469)"/>
<path d="M0 0 C3.96 0 7.92 0 12 0 C11.514104 0.77182617 11.02820801 1.54365234 10.52758789 2.33886719 C8.50439125 7.18781346 8.55921542 11.37695371 8.55859375 16.578125 C8.54538589 17.58591003 8.53217804 18.59369507 8.51856995 19.63201904 C8.47779331 22.83804148 8.45602335 26.04377736 8.4375 29.25 C8.41373573 32.47041903 8.38569745 35.69056741 8.34571838 38.91082764 C8.32130149 40.91174872 8.30649173 42.91281414 8.30210876 44.91387939 C8.29192215 45.81531677 8.28173553 46.71675415 8.27124023 47.64550781 C8.26696518 48.44015442 8.26269012 49.23480103 8.25828552 50.05352783 C8 52 8 52 6 54 C5.30251417 55.31747324 4.63040043 56.64914193 4 58 C3.99413376 57.36186371 3.98826752 56.72372742 3.98222351 56.06625366 C3.91820972 49.41481016 3.83376899 42.76384691 3.73754883 36.11279297 C3.70432764 33.63173765 3.67628702 31.15060727 3.65356445 28.66943359 C3.6199678 25.09960999 3.56764717 21.53047255 3.51171875 17.9609375 C3.50532883 16.85446869 3.4989389 15.74799988 3.49235535 14.60800171 C3.38431205 8.92790912 3.13540005 4.81077679 0 0 Z " fill="#0E3154" transform="translate(407,562)"/>
<path d="M0 0 C1.14263306 0.00773437 1.14263306 0.00773437 2.30834961 0.015625 C3.07719482 0.01691406 3.84604004 0.01820313 4.63818359 0.01953125 C10.07523823 0.11190979 14.28830704 0.82852879 19.18334961 3.328125 C11.93575199 7.55589028 3.38485515 8.18612866 -4.81665039 7.328125 C-5.47665039 6.668125 -6.13665039 6.008125 -6.81665039 5.328125 C-9.93861375 4.86325782 -9.93861375 4.86325782 -13.44165039 4.703125 C-14.63016602 4.62835938 -15.81868164 4.55359375 -17.04321289 4.4765625 C-17.95844727 4.42757813 -18.87368164 4.37859375 -19.81665039 4.328125 C-19.81665039 3.998125 -19.81665039 3.668125 -19.81665039 3.328125 C-18.97360352 3.27914063 -18.13055664 3.23015625 -17.26196289 3.1796875 C-16.16625977 3.10492188 -15.07055664 3.03015625 -13.94165039 2.953125 C-12.30583008 2.84871094 -12.30583008 2.84871094 -10.63696289 2.7421875 C-6.51840779 2.13752429 -4.63704253 0.05806023 0 0 Z " fill="#1E3E60" transform="translate(352.816650390625,465.671875)"/>
<path d="M0 0 C0.33 0 0.66 0 1 0 C1.01401855 1.36934692 1.01401855 1.36934692 1.02832031 2.76635742 C1.07245181 6.16816048 1.134114 9.56872167 1.20751953 12.9699707 C1.23566611 14.4392545 1.25691209 15.90868795 1.27099609 17.37817383 C1.2925153 19.49638114 1.33920334 21.61280153 1.390625 23.73046875 C1.41157227 25.00301514 1.43251953 26.27556152 1.45410156 27.58666992 C1.8086369 31.60392294 1.8086369 31.60392294 6 36 C1.05 36 -3.9 36 -9 36 C-7.02 33.525 -7.02 33.525 -5 31 C-3.62730702 27.42949804 -3.68308078 23.5389606 -3.4375 19.75 C-3.35371094 18.48671875 -3.26992188 17.2234375 -3.18359375 15.921875 C-3.12300781 14.95765625 -3.06242187 13.9934375 -3 13 C-2.34 13 -1.68 13 -1 13 C-0.67 8.71 -0.34 4.42 0 0 Z " fill="#103354" transform="translate(355,598)"/>
<path d="M0 0 C0.81210937 0.49113281 1.62421875 0.98226562 2.4609375 1.48828125 C6.76247012 3.32569088 10.02293093 3.34329921 14.625 3.1875 C15.75035156 3.16719727 15.75035156 3.16719727 16.8984375 3.14648438 C18.93252524 3.10861572 20.96630391 3.05501983 23 3 C27 3 27 3 30 5 C23.92615053 7.63595304 19.0292224 8.46969354 12.4375 8.375 C11.22030273 8.39240234 11.22030273 8.39240234 9.97851562 8.41015625 C4.58137089 8.38401996 0.81538998 7.44324485 -4 5 C-3.34 4.54625 -2.68 4.0925 -2 3.625 C-1.34 3.08875 -0.68 2.5525 0 2 C0 1.34 0 0.68 0 0 Z " fill="#30506C" transform="translate(608,627)"/>
<path d="M0 0 C2.4375 1.5 2.4375 1.5 4 3 C3.125 7.75 3.125 7.75 2 10 C-3.71658336 10.45732667 -6.48649253 9.52273754 -11 6 C-10.6875 4.125 -10.6875 4.125 -10 2 C-6.28986601 -0.47342266 -4.38939738 -0.38503486 0 0 Z " fill="#213F5C" transform="translate(489,414)"/>
<path d="M0 0 C0.33 1.32 0.66 2.64 1 4 C11.23 4 21.46 4 32 4 C32 4.33 32 4.66 32 5 C22.43 5 12.86 5 3 5 C2.34 7.31 1.68 9.62 1 12 C0.08402537 14.38237438 -0.95367115 16.66954028 -2 19 C-3.32 18.01 -4.64 17.02 -6 16 C-4.25192871 10.53262809 -2.34205919 5.24175152 0 0 Z " fill="#415E7B" transform="translate(278,599)"/>
<path d="M0 0 C-0.33 1.98 -0.66 3.96 -1 6 C7.25 6 15.5 6 24 6 C24 6.99 24 7.98 24 9 C14.1 9 4.2 9 -6 9 C-6 3 -6 3 -5 1 C-2 0 -2 0 0 0 Z " fill="#153758" transform="translate(285,594)"/>
<path d="M0 0 C1.65 0 3.3 0 5 0 C3.54884678 4.57888152 1.79418096 8.97649435 -0.125 13.375 C-0.40214844 14.01566406 -0.67929687 14.65632812 -0.96484375 15.31640625 C-1.64100385 16.87856925 -2.32018707 18.43942315 -3 20 C-4.65 20 -6.3 20 -8 20 C-7.35014905 15.28629244 -5.48438608 11.42313556 -3.4375 7.1875 C-2.9434668 6.14819336 -2.9434668 6.14819336 -2.43945312 5.08789062 C-1.63127749 3.38955052 -0.81631623 1.69444231 0 0 Z " fill="#2A4A67" transform="translate(289,575)"/>
<path d="M0 0 C6.36290045 5.8356887 7.46665408 13.40431627 7.921875 21.69140625 C7.94765625 22.45324219 7.9734375 23.21507812 8 24 C7.01 24 6.02 24 5 24 C4.34 25.32 3.68 26.64 3 28 C3 26.68 3 25.36 3 24 C1.7625 24.04125 0.525 24.0825 -0.75 24.125 C-4.01637962 24.13658291 -6.2146947 23.8568702 -9 22 C-8.34 22 -7.68 22 -7 22 C-7 21.34 -7 20.68 -7 20 C-3.37 20 0.26 20 4 20 C4.40486341 13.62340131 3.77205346 9.55123024 0.875 3.84765625 C0 2 0 2 0 0 Z " fill="#556A80" transform="translate(405,428)"/>
<path d="M0 0 C0.66 0.33 1.32 0.66 2 1 C2.99 0.67 3.98 0.34 5 0 C4.67430572 3.06291217 4.00627057 3.9941046 1.71484375 6.1484375 C-0.13576755 7.63204994 -1.98994128 9.11122968 -3.84765625 10.5859375 C-6.31605341 12.87427898 -6.31605341 12.87427898 -6.30859375 16.2890625 C-6.20675781 17.18367188 -6.10492188 18.07828125 -6 19 C-7.65 17.68 -9.3 16.36 -11 15 C-10.5236925 10.71323254 -8.01914242 8.88190868 -5 6 C-3.2859832 4.03515148 -1.64636389 2.02267563 0 0 Z " fill="#2C4A68" transform="translate(387,469)"/>
<path d="M0 0 C3 0.25 3 0.25 5 2.25 C5.125 5.875 5.125 5.875 5 9.25 C3.25 9.9375 3.25 9.9375 1 10.25 C-1.25 8.8125 -1.25 8.8125 -3 7.25 C-3 7.91 -3 8.57 -3 9.25 C-3.66 9.25 -4.32 9.25 -5 9.25 C-5.125 5.875 -5.125 5.875 -5 2.25 C-3 0.25 -3 0.25 0 0 Z " fill="#214160" transform="translate(392,424.75)"/>
<path d="M0 0 C1.125 3.75 1.125 3.75 0 6 C-0.1199408 7.90908186 -0.17731288 9.82222248 -0.20532227 11.73486328 C-0.22526749 12.93595734 -0.24521271 14.13705139 -0.26576233 15.37454224 C-0.28247482 16.67664642 -0.29918732 17.97875061 -0.31640625 19.3203125 C-0.33697625 20.66267538 -0.35797273 22.00503179 -0.37937927 23.34738159 C-0.43459531 26.88188438 -0.48400658 30.41644557 -0.53222656 33.9510498 C-0.58244504 37.55726322 -0.63812929 41.16339172 -0.69335938 44.76953125 C-0.80093517 51.84628049 -0.90238142 58.92310584 -1 66 C-1.33 66 -1.66 66 -2 66 C-2.04635629 57.98530167 -2.08188589 49.97065943 -2.10362434 41.95586014 C-2.11405811 38.2341971 -2.12820982 34.51262584 -2.15087891 30.79101562 C-2.1726219 27.19893238 -2.18457169 23.60693737 -2.18975449 20.0147934 C-2.19344764 18.64487062 -2.20065945 17.27495262 -2.21146011 15.90506744 C-2.22599349 13.98526221 -2.22681708 12.06536804 -2.22705078 10.14550781 C-2.231492 9.05296692 -2.23593323 7.96042603 -2.24050903 6.83477783 C-2.00222033 4.02617009 -1.45414413 2.38358455 0 0 Z " fill="#D9E4ED" transform="translate(754,563)"/>
<path d="M0 0 C1.2375 0.1546875 1.2375 0.1546875 2.5 0.3125 C4.6519437 3.54041555 4.70086443 4.59650809 4.5 8.3125 C1.98718205 9.56890898 0.28302919 9.52122719 -2.5 9.3125 C-4.5 7.3125 -4.5 7.3125 -4.75 4.8125 C-4.40047575 1.3172575 -3.47557682 0.4344471 0 0 Z " fill="#1D3C5A" transform="translate(486.5,425.6875)"/>
<path d="M0 0 C3.29714793 0.32971479 4.6226839 0.6226839 7 3 C6.75 5.5625 6.75 5.5625 6 8 C5.01 8.495 5.01 8.495 4 9 C3.01 8.67 2.02 8.34 1 8 C0.67 8.66 0.34 9.32 0 10 C-2.14915785 6.77626323 -2.38286803 5.73296326 -2 2 C-1.34 1.34 -0.68 0.68 0 0 Z " fill="#234563" transform="translate(445,428)"/>
<path d="M0 0 C1.96301592 3.50538557 2.95902388 7.13351728 4 11 C5.32 11.33 6.64 11.66 8 12 C7.67 12.99 7.34 13.98 7 15 C5.02 15.33 3.04 15.66 1 16 C-2.59471366 7.16299559 -2.59471366 7.16299559 -2 3 C-1.34 2.01 -0.68 1.02 0 0 Z " fill="#32516E" transform="translate(495,474)"/>
<path d="M0 0 C3.96 0 7.92 0 12 0 C10.75 2.9375 10.75 2.9375 9 6 C6.8125 6.875 6.8125 6.875 5 7 C0 1.125 0 1.125 0 0 Z " fill="#163B5F" transform="translate(407,562)"/>
<path d="M0 0 C4.29 0 8.58 0 13 0 C13 0.66 13 1.32 13 2 C14.65 2.33 16.3 2.66 18 3 C14.17189179 4.27603607 10.76524893 3.86283987 6.8125 3.5625 C6.06291016 3.51029297 5.31332031 3.45808594 4.54101562 3.40429688 C2.69362918 3.27486216 0.84675629 3.13813482 -1 3 C-0.67 2.01 -0.34 1.02 0 0 Z " fill="#13385D" transform="translate(466,563)"/>
<path d="M0 0 C1.32 0.99 2.64 1.98 4 3 C3.8125 4.875 3.8125 4.875 3 7 C0.4375 8.25 0.4375 8.25 -2 9 C-2.66 7.35 -3.32 5.7 -4 4 C-2.68 2.68 -1.36 1.36 0 0 Z " fill="#EBF1F5" transform="translate(569,382)"/>
<path d="M0 0 C0.66 0.33 1.32 0.66 2 1 C2.99 0.67 3.98 0.34 5 0 C4.82374165 2.37948772 4.30280227 3.70225849 2.59765625 5.37890625 C1.09350908 6.62115486 -0.45129851 7.81376056 -2 9 C-2.99 8.01 -3.98 7.02 -5 6 C-3.35 4.02 -1.7 2.04 0 0 Z " fill="#2F4D6C" transform="translate(387,469)"/>
<path d="M0 0 C1.32 0.33 2.64 0.66 4 1 C4.33 4.3 4.66 7.6 5 11 C4.01 11.33 3.02 11.66 2 12 C-0.13586678 8.79619983 -0.23132175 7.98060033 -0.125 4.3125 C-0.10695313 3.50425781 -0.08890625 2.69601562 -0.0703125 1.86328125 C-0.04710937 1.24839844 -0.02390625 0.63351562 0 0 Z " fill="#71879C" transform="translate(436,446)"/>
<path d="M0 0 C2.64 0.33 5.28 0.66 8 1 C8.33 2.32 8.66 3.64 9 5 C6.03 5 3.06 5 0 5 C0 3.35 0 1.7 0 0 Z " fill="#223F5E" transform="translate(400,483)"/>
<path d="M0 0 C0.33 0 0.66 0 1 0 C1.33 6.27 1.66 12.54 2 19 C3.32 19.66 4.64 20.32 6 21 C6 21.66 6 22.32 6 23 C3.69 23 1.38 23 -1 23 C-0.34 22.67 0.32 22.34 1 22 C0.67 21.34 0.34 20.68 0 20 C-0.08372659 18.47851674 -0.10730027 16.95344222 -0.09765625 15.4296875 C-0.09443359 14.53378906 -0.09121094 13.63789063 -0.08789062 12.71484375 C-0.07951172 11.77769531 -0.07113281 10.84054687 -0.0625 9.875 C-0.05798828 8.93011719 -0.05347656 7.98523438 -0.04882812 7.01171875 C-0.03702357 4.67441613 -0.02055759 2.33723939 0 0 Z " fill="#445D76" transform="translate(453,467)"/>
<path d="M0 0 C2.9375 1.3125 2.9375 1.3125 6 3 C6.33 3.99 6.66 4.98 7 6 C5.4375 7.1875 5.4375 7.1875 3 8 C-0.75 6.625 -0.75 6.625 -4 5 C-3.34 4.54625 -2.68 4.0925 -2 3.625 C-1.34 3.08875 -0.68 2.5525 0 2 C0 1.34 0 0.68 0 0 Z " fill="#35526F" transform="translate(608,627)"/>
<path d="M0 0 C0.33 0 0.66 0 1 0 C1.25 2.75 1.25 2.75 1 6 C-1 8.375 -1 8.375 -3 10 C-3 8.68 -3 7.36 -3 6 C-6.3 5.67 -9.6 5.34 -13 5 C-13 4.67 -13 4.34 -13 4 C-11.7625 4.04125 -10.525 4.0825 -9.25 4.125 C-5.99716438 4.125 -3.71812283 3.95704844 -1 2 C-0.67 1.34 -0.34 0.68 0 0 Z " fill="#445F79" transform="translate(459,448)"/>
<path d="M0 0 C1.32 0.66 2.64 1.32 4 2 C3.34 2.66 2.68 3.32 2 4 C1.83318891 7.08347826 1.83318891 7.08347826 2 10 C-0.47128202 9.0433747 -1.72986449 8.54027102 -2.9375 6.125 C-3.0225942 3.23179718 -1.88243538 2.10832763 0 0 Z " fill="#34546F" transform="translate(432,479)"/>
<path d="M0 0 C1.32 0 2.64 0 4 0 C4 2.97 4 5.94 4 9 C3.34 9 2.68 9 2 9 C0.3125 7.3125 0.3125 7.3125 -1 5 C-0.6875 2.25 -0.6875 2.25 0 0 Z " fill="#102F51" transform="translate(449,466)"/>
<path d="M0 0 C3.96 0.33 7.92 0.66 12 1 C12 1.99 12 2.98 12 4 C8.04 4 4.08 4 0 4 C0 2.66666667 0 1.33333333 0 0 Z " fill="#1B3C5B" transform="translate(613,631)"/>
<path d="M0 0 C0.66 0 1.32 0 2 0 C3.85776765 3.13498292 4.20140476 5.37471432 4 9 C3.67 7.68 3.34 6.36 3 5 C2.01 5 1.02 5 0 5 C-0.33 6.32 -0.66 7.64 -1 9 C-1.625 5.625 -1.625 5.625 -2 2 C-1.34 1.34 -0.68 0.68 0 0 Z " fill="#3C5B79" transform="translate(398,469)"/>
<path d="M0 0 C1.32 0.33 2.64 0.66 4 1 C4 3.97 4 6.94 4 10 C3.01 9.67 2.02 9.34 1 9 C0.67 6.03 0.34 3.06 0 0 Z " fill="#375574" transform="translate(565,279)"/>
<path d="M0 0 C0.66 0 1.32 0 2 0 C2 0.66 2 1.32 2 2 C3.918125 1.938125 3.918125 1.938125 5.875 1.875 C8.0546875 1.8046875 8.0546875 1.8046875 10 2 C10.66 2.66 11.32 3.32 12 4 C7.05 4 2.1 4 -3 4 C-2.01 2.68 -1.02 1.36 0 0 Z " fill="#364F68" transform="translate(349,630)"/>
<path d="M0 0 C-0.33 0.99 -0.66 1.98 -1 3 C-2.65614657 3.38218767 -4.32457024 3.71395102 -6 4 C-6.33 3.67 -6.66 3.34 -7 3 C-8.99958364 2.95919217 -11.00045254 2.95745644 -13 3 C-13 2.67 -13 2.34 -13 2 C-11.39935157 1.46845258 -9.79431126 0.95011647 -8.1875 0.4375 C-7.29417969 0.14746094 -6.40085937 -0.14257812 -5.48046875 -0.44140625 C-3 -1 -3 -1 0 0 Z " fill="#33506D" transform="translate(704,592)"/>
<path d="M0 0 C1.125 3.75 1.125 3.75 0 6 C-0.15004973 7.3734635 -0.24838006 8.7528526 -0.31640625 10.1328125 C-0.37924805 11.34130859 -0.37924805 11.34130859 -0.44335938 12.57421875 C-0.48267578 13.41597656 -0.52199219 14.25773438 -0.5625 15.125 C-0.60568359 15.97449219 -0.64886719 16.82398438 -0.69335938 17.69921875 C-0.79954236 19.79928223 -0.90028497 21.89961948 -1 24 C-1.33 24 -1.66 24 -2 24 C-2.05819424 20.75007554 -2.09366116 17.50028565 -2.125 14.25 C-2.14175781 13.32960938 -2.15851562 12.40921875 -2.17578125 11.4609375 C-2.18222656 10.57148437 -2.18867187 9.68203125 -2.1953125 8.765625 C-2.20578613 7.94868164 -2.21625977 7.13173828 -2.22705078 6.29003906 C-1.97829916 3.78112482 -1.25700129 2.16604375 0 0 Z " fill="#CDDAE6" transform="translate(754,563)"/>
<path d="M0 0 C5.61 0 11.22 0 17 0 C15.68 1.32 14.36 2.64 13 4 C13 3.01 13 2.02 13 1 C10.03 1 7.06 1 4 1 C3.67 1.99 3.34 2.98 3 4 C3 3.34 3 2.68 3 2 C2.01 1.67 1.02 1.34 0 1 C0 0.67 0 0.34 0 0 Z " fill="#2F4A66" transform="translate(502,562)"/>
<path d="M0 0 C-0.66 3.96 -1.32 7.92 -2 12 C-2.33 12 -2.66 12 -3 12 C-3 8.7 -3 5.4 -3 2 C-4.32 2 -5.64 2 -7 2 C-7.33 2.66 -7.66 3.32 -8 4 C-8.66 3.34 -9.32 2.68 -10 2 C-6.19956554 0.26265853 -4.40285423 0 0 0 Z " fill="#465F77" transform="translate(625,342)"/>
<path d="M0 0 C0.66 0 1.32 0 2 0 C1.45773019 3.79588866 -0.20127563 5.47211993 -3 8 C-3.99 7.67 -4.98 7.34 -6 7 C-5.04882866 5.8274869 -4.08882991 4.66212985 -3.125 3.5 C-2.59132813 2.8503125 -2.05765625 2.200625 -1.5078125 1.53125 C-0.76144531 0.77328125 -0.76144531 0.77328125 0 0 Z " fill="#264668" transform="translate(643,623)"/>
<path d="M0 0 C1.98 0 3.96 0 6 0 C5.505 0.45375 5.01 0.9075 4.5 1.375 C2.77390663 2.87635519 2.77390663 2.87635519 3 5 C-3.93 4.505 -3.93 4.505 -11 4 C-11 3.67 -11 3.34 -11 3 C-10.28972656 2.95101562 -9.57945312 2.90203125 -8.84765625 2.8515625 C-7.46900391 2.73941406 -7.46900391 2.73941406 -6.0625 2.625 C-5.14597656 2.55539062 -4.22945312 2.48578125 -3.28515625 2.4140625 C-2.15400391 2.20910156 -2.15400391 2.20910156 -1 2 C-0.67 1.34 -0.34 0.68 0 0 Z " fill="#43607A" transform="translate(697,562)"/>
<path d="M0 0 C1.65 1.65 3.3 3.3 5 5 C-0.94 5 -6.88 5 -13 5 C-9.54785147 2.69856764 -8.76520676 2.86166146 -4.8125 3.375 C-3.91144531 3.48585938 -3.01039063 3.59671875 -2.08203125 3.7109375 C-1.39496094 3.80632813 -0.70789063 3.90171875 0 4 C0 2.68 0 1.36 0 0 Z " fill="#334E67" transform="translate(752,629)"/>
<path d="M0 0 C3.96 0.33 7.92 0.66 12 1 C12 1.66 12 2.32 12 3 C8.04 3 4.08 3 0 3 C0 2.01 0 1.02 0 0 Z " fill="#435B74" transform="translate(348,470)"/>
<path d="M0 0 C0.33 1.32 0.66 2.64 1 4 C1.77085937 3.90460937 2.54171875 3.80921875 3.3359375 3.7109375 C4.33882812 3.60007812 5.34171875 3.48921875 6.375 3.375 C7.37273438 3.25898437 8.37046875 3.14296875 9.3984375 3.0234375 C10.25695312 3.01570312 11.11546875 3.00796875 12 3 C12.66 3.66 13.32 4.32 14 5 C8.39 5 2.78 5 -3 5 C-2.01 3.35 -1.02 1.7 0 0 Z " fill="#364D64" transform="translate(673,629)"/>
<path d="M0 0 C0.33 0.99 0.66 1.98 1 3 C2.98 3 4.96 3 7 3 C7 3.66 7 4.32 7 5 C6.2575 5.0825 5.515 5.165 4.75 5.25 C1.48778646 6.1396946 0.19045122 7.48503749 -2 10 C-1.34 6.7 -0.68 3.4 0 0 Z " fill="#4E657D" transform="translate(604,455)"/>
<path d="M0 0 C0.99 0 1.98 0 3 0 C2.95875 1.0725 2.9175 2.145 2.875 3.25 C2.9885825 6.65747485 3.21273364 8.20739631 5 11 C2 10 2 10 0.8125 8.3125 C-0.19313465 5.45030907 -0.13689641 3.01172092 0 0 Z " fill="#D2DCE6" transform="translate(559,394)"/>
<path d="M0 0 C0 4.35251187 -2.06165511 5.92809398 -5 9 C-7.171875 9.6796875 -7.171875 9.6796875 -9 10 C-8.06409496 8.8944811 -7.12620142 7.79064547 -6.1875 6.6875 C-5.66542969 6.07261719 -5.14335937 5.45773437 -4.60546875 4.82421875 C-3.12827531 3.14575321 -1.59960869 1.56117966 0 0 Z " fill="#314F6C" transform="translate(449,263)"/>
<path d="M0 0 C2.0625 0.4375 2.0625 0.4375 4 1 C4.33 2.98 4.66 4.96 5 7 C2.37812506 5.95125002 1.20628639 5.35068687 -0.25 2.875 C-0.4975 2.25625 -0.745 1.6375 -1 1 C-0.67 0.67 -0.34 0.34 0 0 Z " fill="#304F6A" transform="translate(471,482)"/>
<path d="M0 0 C1.32 0 2.64 0 4 0 C4.33 2.31 4.66 4.62 5 7 C2.5 5.1875 2.5 5.1875 0 3 C0 2.01 0 1.02 0 0 Z " fill="#25435F" transform="translate(376,481)"/>
<path d="M0 0 C0.66 0.33 1.32 0.66 2 1 C-0.65654657 4.73884332 -2.58110387 6.64978174 -7 8 C-6.02133662 6.85373678 -5.04205413 5.70800212 -4.0625 4.5625 C-3.51722656 3.92441406 -2.97195313 3.28632813 -2.41015625 2.62890625 C-1.63204305 1.73008851 -0.84063472 0.84063472 0 0 Z " fill="#37526C" transform="translate(390,435)"/>
<path d="M0 0 C0.103125 0.639375 0.20625 1.27875 0.3125 1.9375 C0.539375 2.618125 0.76625 3.29875 1 4 C1.99 4.33 2.98 4.66 4 5 C3.34 5.66 2.68 6.32 2 7 C0.68 7 -0.64 7 -2 7 C-1.125 2.25 -1.125 2.25 0 0 Z " fill="#395875" transform="translate(278,599)"/>
<path d="M0 0 C1.74627478 2.61941217 2.38722388 4.03824877 3 7 C1.35 7 -0.3 7 -2 7 C-1.125 2.25 -1.125 2.25 0 0 Z " fill="#375772" transform="translate(283,588)"/>
<path d="M0 0 C2.97 0 5.94 0 9 0 C8.01 1.485 8.01 1.485 7 3 C3.875 3.1875 3.875 3.1875 1 3 C0.67 2.01 0.34 1.02 0 0 Z " fill="#0F365A" transform="translate(449,563)"/>
<path d="M0 0 C-0.33 1.98 -0.66 3.96 -1 6 C-1.66 5.01 -2.32 4.02 -3 3 C-3.33 3.66 -3.66 4.32 -4 5 C-4.66 5 -5.32 5 -6 5 C-5.6875 3.0625 -5.6875 3.0625 -5 1 C-2 0 -2 0 0 0 Z " fill="#264866" transform="translate(285,594)"/>
<path d="M0 0 C0.33 0.66 0.66 1.32 1 2 C3.02463255 2.65213292 3.02463255 2.65213292 5 3 C3.71034824 4.37562854 2.37310707 5.70766393 1 7 C0.34 7 -0.32 7 -1 7 C-0.67 4.69 -0.34 2.38 0 0 Z " fill="#3D566B" transform="translate(431,566)"/>
<path d="M0 0 C1.65 0 3.3 0 5 0 C5 1.32 5 2.64 5 4 C3.0625 3.6875 3.0625 3.6875 1 3 C0.67 2.01 0.34 1.02 0 0 Z " fill="#214362" transform="translate(588,562)"/>
<path d="M0 0 C3.96 0 7.92 0 12 0 C11.34 0.66 10.68 1.32 10 2 C8 2 6 2 4 2 C3.34 2.66 2.68 3.32 2 4 C1.34 2.68 0.68 1.36 0 0 Z " fill="#243F5C" transform="translate(407,562)"/>
<path d="M0 0 C0.99 0.66 1.98 1.32 3 2 C0.03 4.475 0.03 4.475 -3 7 C-3 3.48283697 -2.17554415 2.62878252 0 0 Z " fill="#2E4A69" transform="translate(443,438)"/>
<path d="M0 0 C0 0.99 0 1.98 0 3 C-2.5 5.1875 -2.5 5.1875 -5 7 C-5.66 6.67 -6.32 6.34 -7 6 C-4.69 4.02 -2.38 2.04 0 0 Z " fill="#2F4C69" transform="translate(431,286)"/>
<path d="M0 0 C1.4540625 0.0309375 1.4540625 0.0309375 2.9375 0.0625 C0.32235683 2.18288635 -2.25887616 4.19341744 -5.0625 6.0625 C-3.98897059 0.08140756 -3.98897059 0.08140756 0 0 Z " fill="#415F76" transform="translate(531.0625,273.9375)"/>
<path d="M0 0 C1.98 0.66 3.96 1.32 6 2 C4.1875 3.0625 4.1875 3.0625 2 4 C1.01 3.67 0.02 3.34 -1 3 C-0.67 2.01 -0.34 1.02 0 0 Z " fill="#35516E" transform="translate(366,467)"/>
</svg>
