<?xml version="1.0" encoding="UTF-8"?>
<svg version="1.1" xmlns="http://www.w3.org/2000/svg" width="1536" height="1024">
<path d="M0 0 C506.88 0 1013.76 0 1536 0 C1536 337.92 1536 675.84 1536 1024 C1029.12 1024 522.24 1024 0 1024 C0 686.08 0 348.16 0 0 Z " fill="#FBFBFB" transform="translate(0,0)"/>
<path d="M0 0 C0.66 0 1.32 0 2 0 C2.45826172 0.91265625 2.45826172 0.91265625 2.92578125 1.84375 C6.01195332 7.75529087 9.43270819 13.227854 13.25 18.6875 C34.95720414 49.78874806 34.95720414 49.78874806 33 62 C31.75 65.125 31.75 65.125 29 67 C21.55487622 68.04591618 14.23256619 66.7921403 7 65 C7.99 66.2684375 7.99 66.2684375 9 67.5625 C13.51825172 75.56626019 11.49745074 86.14382387 9.3125 94.625 C7.86622534 99.7315994 6.06717192 102.55901449 2 106 C-13.0923915 114.08724375 -41.93083045 112.29276386 -58 108 C-62.68708489 106.13555613 -64.86394879 104.58953418 -67 100 C-70.67915629 90.4760302 -73.71379342 78.48632669 -70.09375 68.5 C-69 66.5625 -69 66.5625 -67 64 C-69.64 64.33 -72.28 64.66 -75 65 C-75 65.66 -75 66.32 -75 67 C-77.24834496 67.13526139 -79.49902514 67.23210804 -81.75 67.3125 C-83.00296875 67.37050781 -84.2559375 67.42851562 -85.546875 67.48828125 C-89 67 -89 67 -91.421875 64.73828125 C-94.18761085 59.93931879 -93.58840922 55.90882943 -92.515625 50.60546875 C-89.81365735 41.63107621 -84.04648736 34.18969321 -78.77197266 26.57519531 C-75.56738285 21.91798765 -72.44510968 17.20577897 -69.3125 12.5 C-68.70035645 11.58557129 -68.08821289 10.67114258 -67.45751953 9.72900391 C-66.8901709 8.87999512 -66.32282227 8.03098633 -65.73828125 7.15625 C-65.23337158 6.40150391 -64.72846191 5.64675781 -64.20825195 4.86914062 C-62.96357376 3.01880138 -62.96357376 3.01880138 -62 1 C-58.96419724 1.59525544 -57.13509381 2.51820469 -54.6875 4.375 C-49.61631129 7.71080094 -43.96358277 8.43513943 -38.09765625 9.421875 C-35 10 -35 10 -34 11 C-33.53685234 21.23848068 -34.10904635 31.57051449 -34.63476562 41.79833984 C-34.71174878 43.352682 -34.7813812 44.90740521 -34.84375 46.46240234 C-35.2138141 55.66196447 -36.05894548 63.76170417 -39.16894531 72.49169922 C-40.15725436 75.03422897 -40.15725436 75.03422897 -40 78 C-38.02 78 -36.04 78 -34 78 C-33.01 75.69 -32.02 73.38 -31 71 C-30.34 71 -29.68 71 -29 71 C-27.68 73.31 -26.36 75.62 -25 78 C-23.35 78 -21.7 78 -20 78 C-20.54882172 75.07866773 -21.19951836 72.22104709 -21.9375 69.33984375 C-25.48755123 54.98701982 -25.84254958 40.73188286 -26 26 C-26.0098291 25.10410156 -26.0196582 24.20820313 -26.02978516 23.28515625 C-26.06546803 19.1890947 -26.06269297 15.09594091 -26 11 C-24.84242188 10.67386719 -23.68484375 10.34773438 -22.4921875 10.01171875 C-20.95303666 9.57062064 -19.41397905 9.12919711 -17.875 8.6875 C-17.11445312 8.47416016 -16.35390625 8.26082031 -15.5703125 8.04101562 C-9.64342533 6.32937149 -4.34253428 4.55966099 0 0 Z " fill="#132B59" transform="translate(798,422)"/>
<path d="M0 0 C55.92997812 0 55.92997812 0 65.80078125 9.78515625 C71.86104119 16.29711259 74.56496973 22.43277801 74.4375 31.3125 C74.42920166 32.05943115 74.42090332 32.8063623 74.41235352 33.57592773 C74.13477985 42.68844394 71.32806566 49.4767793 65.08203125 56.171875 C61.42312052 59.38457711 57.28596175 61.72335231 53 64 C54.728335 68.23180206 57.71411052 71.35521385 60.6875 74.75 C61.22407227 75.37036133 61.76064453 75.99072266 62.31347656 76.62988281 C65.79165632 80.64477988 69.30882009 84.62394581 72.890625 88.546875 C74 90 74 90 74 92 C74.66 92 75.32 92 76 92 C76 92.66 76 93.32 76 94 C57.79462467 95.78044636 57.79462467 95.78044636 52.09375 92.1484375 C50.25724596 89.81042659 48.65090998 87.44365815 47.14648438 84.88037109 C44.79298912 81.02035821 42.05870831 77.46027512 39.3125 73.875 C38.53821655 72.73720093 38.53821655 72.73720093 37.74829102 71.57641602 C35.917879 69.00761392 35.917879 69.00761392 32 66 C25.07 65.505 25.07 65.505 18 65 C18 74.57 18 84.14 18 94 C12.06 94 6.12 94 0 94 C0 62.98 0 31.96 0 0 Z " fill="#152F5E" transform="translate(967,572)"/>
<path d="M0 0 C4.43012135 3.79724687 8.5686076 7.44527093 12.65991211 11.54638672 C13.17787354 12.06420212 13.69583496 12.58201752 14.22949219 13.11552429 C15.91449522 14.80121534 17.5959437 16.49040331 19.27734375 18.1796875 C20.45539258 19.35960447 21.63366466 20.53929858 22.81214905 21.71878052 C25.89347142 24.80389691 28.97177716 27.89200589 32.04943848 30.98077393 C35.75338196 34.69681084 39.46110732 38.40907398 43.16819 42.12197876 C48.78167666 47.74511917 54.39037475 53.37299553 60 59 C60.33 40.85 60.66 22.7 61 4 C66.94 4 72.88 4 79 4 C79 36.67 79 69.34 79 103 C74.48588139 99.13075548 70.16542233 95.31520804 65.98828125 91.12109375 C65.45277145 90.58654068 64.91726166 90.05198761 64.36552429 89.50123596 C63.24595467 88.38234062 62.12762173 87.26220655 61.01049805 86.14086914 C59.30955257 84.43454325 57.6033011 82.73365387 55.89648438 81.03320312 C54.8017624 79.93782065 53.7073505 78.84212817 52.61328125 77.74609375 C52.10904129 77.24387802 51.60480133 76.74166229 51.08528137 76.22422791 C48.17385642 73.29358846 45.54906207 70.24754187 43 67 C41.84232782 65.9454612 40.65439602 64.92310693 39.4375 63.9375 C35.23220181 60.36220903 31.59093677 56.39358933 27.94506836 52.26342773 C25.80224795 49.85977639 23.69929835 47.76234201 21.16796875 45.76171875 C20.45253906 45.18035156 19.73710938 44.59898437 19 44 C19 43.34 19 42.68 19 42 C18.34 42 17.68 42 17 42 C17 60.15 17 78.3 17 97 C11.39 97 5.78 97 0 97 C0 64.99 0 32.98 0 0 Z " fill="#112B59" transform="translate(566,568)"/>
<path d="M0 0 C8.25 0 16.5 0 25 0 C25 12.87 25 25.74 25 39 C40.18 39 55.36 39 71 39 C71 26.13 71 13.26 71 0 C76.94 0 82.88 0 89 0 C89 31.02 89 62.04 89 94 C83.06 94 77.12 94 71 94 C71 81.13 71 68.26 71 55 C55.82 55 40.64 55 25 55 C25 67.87 25 80.74 25 94 C19.06 94 13.12 94 7 94 C6.98541748 91.62369385 6.97083496 89.2473877 6.95581055 86.79907227 C6.90534218 78.92398422 6.83872576 71.04909137 6.76428509 63.17419529 C6.71966852 58.40236176 6.6803934 53.6306119 6.65356445 48.85864258 C6.62744427 44.24840541 6.58698086 39.63849172 6.53681374 35.02845573 C6.52020375 33.27475971 6.50865309 31.52100782 6.50238609 29.76724434 C7.16719444 15.58928164 7.16719444 15.58928164 1.39653015 3.40382385 C0 2 0 2 0 0 Z " fill="#142D5B" transform="translate(749,572)"/>
<path d="M0 0 C5.94 0 11.88 0 18 0 C18.06801956 8.05874872 18.12295565 16.11727087 18.15543652 24.17623043 C18.17103274 27.91910991 18.19215898 31.66178127 18.22631836 35.40454102 C18.25912954 39.02259402 18.27689836 42.64044797 18.28463173 46.25863838 C18.29013651 47.63281954 18.30088513 49.00699091 18.31719017 50.38108635 C18.4055033 58.1384609 18.17317 64.84612651 15 72 C14.62359375 72.85851562 14.2471875 73.71703125 13.859375 74.6015625 C8.72837317 83.96022076 2.66264428 88.6826483 -7 93 C-8.051875 93.598125 -9.10375 94.19625 -10.1875 94.8125 C-19.82479774 97.81428126 -32.2739264 97.08104303 -41.515625 92.84765625 C-53.22947372 86.36192099 -59.80914743 77.93501047 -63.54483032 65.13287354 C-64.05079041 62.76200191 -64.13891262 60.59892205 -64.15771484 58.17480469 C-64.16797699 57.2199115 -64.17823914 56.26501831 -64.18881226 55.28118896 C-64.19611359 54.25511536 -64.20341492 53.22904175 -64.2109375 52.171875 C-64.23901089 49.98827382 -64.26767539 47.80468016 -64.296875 45.62109375 C-64.33807807 42.18701426 -64.37497637 38.75307472 -64.40136719 35.31884766 C-64.42907863 31.9987297 -64.47495416 28.67924613 -64.5234375 25.359375 C-64.52669037 24.34139832 -64.52994324 23.32342163 -64.53329468 22.27459717 C-64.64123632 15.97067408 -64.84353456 9.13429984 -69.60360718 4.40765381 C-71 3 -71 3 -71 1 C-63.08 1 -55.16 1 -47 1 C-47.00112793 2.75473633 -47.00225586 4.50947266 -47.00341797 6.31738281 C-47.0001275 12.1609429 -46.96906956 18.00401436 -46.9197216 23.84733963 C-46.89083495 27.38505639 -46.87257407 30.92211912 -46.87988281 34.45996094 C-46.88782339 38.54163969 -46.847236 42.62165776 -46.8046875 46.703125 C-46.81378143 47.95361633 -46.82287537 49.20410767 -46.83224487 50.49249268 C-46.68482505 59.53570889 -44.84401967 68.21775376 -38.16452026 74.81207275 C-32.07799655 79.33230977 -26.31551379 79.68851894 -19 79 C-12.84594458 77.40289676 -7.99492183 75.08444597 -4 70 C-1.46645064 65.64377496 -0.61727025 62.46774952 -0.56762695 57.44384766 C-0.54783279 56.16297272 -0.52803864 54.88209778 -0.50764465 53.56240845 C-0.50087642 52.17962796 -0.49442938 50.79684588 -0.48828125 49.4140625 C-0.471421 47.9877265 -0.45326895 46.56140524 -0.43388367 45.13510132 C-0.38652312 41.39679571 -0.35662407 37.65854988 -0.33044434 33.92004395 C-0.30056799 30.09891968 -0.25406212 26.27800106 -0.20898438 22.45703125 C-0.12310999 14.97143893 -0.0572334 7.48587613 0 0 Z " fill="#152F5D" transform="translate(928,572)"/>
<path d="M0 0 C6.21451093 3.48336646 11.67642265 8.36606176 14.09765625 15.17578125 C18.62915334 32.35634937 13.92611801 50.39572255 7.09765625 66.17578125 C6.82824219 67.02914062 6.55882812 67.8825 6.28125 68.76171875 C4.77666692 71.83047236 3.28061897 72.59496734 0.28515625 74.17578125 C-2.92997464 75.96350489 -5.08162607 77.35506357 -7.71484375 79.98828125 C-9.90234375 82.17578125 -9.90234375 82.17578125 -12.27734375 83.42578125 C-16.10070312 83.06165179 -17.37493842 80.85071938 -19.86328125 78.06640625 C-22.18112442 75.91729496 -24.30144582 74.99300749 -27.21484375 73.80078125 C-31.61989583 71.7309375 -31.61989583 71.7309375 -32.80859375 69.39453125 C-33.21484375 67.30078125 -33.21484375 67.30078125 -33.484375 64.96484375 C-34.02207999 61.37679361 -35.20342493 58.08341249 -36.40234375 54.67578125 C-40.98470374 41.11465212 -44.1287552 26.16859917 -38.15234375 12.47265625 C-30.52091891 -1.55008689 -14.79031134 -5.83318821 0 0 Z " fill="#112A57" transform="translate(780.90234375,311.82421875)"/>
<path d="M0 0 C0 0.66 0 1.32 0 2 C-1.3203125 3.2265625 -1.3203125 3.2265625 -3.125 4.625 C-6.59714281 7.47285855 -9.04500455 10.55107305 -11.54296875 14.265625 C-14.7315168 18.06110847 -19.39126749 18.69564174 -24 20 C-24.495 20.495 -24.495 20.495 -25 21 C-15.21641026 24.56288852 -15.21641026 24.56288852 -5 25 C-4.01 24.505 -4.01 24.505 -3 24 C0.22054507 22.38972746 2.45055279 22.51871902 6 23 C9.80385117 25.43109037 12.50414022 28.25621032 15 32 C15.35688862 34.85510892 15.36570003 36.39049995 13.875 38.875 C12 40 12 40 9.125 39.9375 C6 39 6 39 3.5625 37 C0.38905033 34.52316123 -2.04373265 34.31029548 -6 34 C-5.835 34.825 -5.67 35.65 -5.5 36.5 C-4.61396859 42.70221986 -4.02962722 47.70616962 -8 53 C-10.4375 52.625 -10.4375 52.625 -13 52 C-14.52056499 48.95887002 -14.3741161 45.71802203 -14.5625 42.375 C-14.7790625 38.724375 -14.7790625 38.724375 -15 35 C-20.28 34.01 -25.56 33.02 -31 32 C-30.95359375 33.80726563 -30.9071875 35.61453125 -30.859375 37.4765625 C-30.82185065 39.85935845 -30.78545121 42.2421723 -30.75 44.625 C-30.71648437 45.81480469 -30.68296875 47.00460937 -30.6484375 48.23046875 C-30.53776254 58.13587723 -30.53776254 58.13587723 -32.578125 61.8359375 C-35 64 -35 64 -38.0546875 64.82421875 C-43.84112996 64.29803825 -48.56091098 60.07907503 -53.125 56.8125 C-54.10082031 56.13896484 -55.07664062 55.46542969 -56.08203125 54.77148438 C-65.42317474 48.24033016 -65.42317474 48.24033016 -69 44 C-69.1875 41.4375 -69.1875 41.4375 -68 39 C-63.29093645 35.20517683 -59.18372717 34.10719064 -53.375 33.25 C-52.62476563 33.12496094 -51.87453125 32.99992187 -51.1015625 32.87109375 C-47.67854047 32.31879764 -44.47498937 32 -41 32 C-41 31.34 -41 30.68 -41 30 C-44.02181414 29.89132337 -47.03966327 29.81237246 -50.0625 29.75 C-50.91005859 29.71648437 -51.75761719 29.68296875 -52.63085938 29.6484375 C-58.73427059 29.55417632 -61.97774374 30.51248792 -67 34 C-67.54277588 34.37543945 -68.08555176 34.75087891 -68.64477539 35.13769531 C-70.29393016 36.30585686 -71.90019588 37.51523726 -73.5 38.75 C-74.06315918 39.18175537 -74.62631836 39.61351074 -75.20654297 40.05834961 C-79.17681055 43.17555392 -82.52668035 46.50455993 -85.6328125 50.50390625 C-87 52 -87 52 -90 53 C-89.11936076 46.62372598 -85.77675448 43.12568086 -81 39 C-75.88869131 35.61598769 -70.44786227 32.79665745 -65 30 C-65 29.67 -65 29.34 -65 29 C-71.66985532 29.32273494 -76.12118246 30.74627238 -81.93359375 34.0390625 C-82.61550781 34.35617187 -83.29742188 34.67328125 -84 35 C-84.66 34.67 -85.32 34.34 -86 34 C-80.97934696 29.36657818 -75.92147718 25.41744827 -70 22 C-76.63846034 19.31764244 -83.30761135 16.73955973 -90.01953125 14.24609375 C-94.40754776 12.41152328 -97.31848321 11.12802779 -99.8125 7 C-101 4 -101 4 -101 1 C-94.74036683 0.68772805 -89.9950988 1.63965704 -84.125 3.75 C-82.93982788 4.15943848 -82.93982788 4.15943848 -81.73071289 4.57714844 C-77.58463022 6.02437803 -73.49499658 7.56840016 -69.4375 9.25 C-59.15997855 13.42361277 -47.14071047 15.20601066 -36.37109375 11.87890625 C-34.31006055 11.00340117 -32.26829452 10.07981747 -30.2578125 9.09375 C-28 8 -28 8 -26 8 C-25.62875 6.88625 -25.62875 6.88625 -25.25 5.75 C-23.66320284 2.25904624 -21.84652132 -0.20863372 -18.25 -1.75 C-11.64268683 -2.48414591 -6.341168 -1.81176229 0 0 Z " fill="#152E5C" transform="translate(902,328)"/>
<path d="M0 0 C1.70351593 1.85446038 2.9730297 3.80559001 4.328125 5.92578125 C7.9114502 10.37144873 13.710435 12.23681167 19 14 C35.83387378 15.34825076 49.32891183 10.57637087 64.72192383 4.32177734 C70.20560619 2.1506595 75.05884166 1.09582513 81 1 C80.76866667 4.93266659 80.49801621 7.36182354 78.04296875 10.5078125 C74.1324858 13.71049302 70.24884013 15.09122066 65.5 16.6875 C63.82279541 17.27439318 62.14570859 17.86162302 60.46875 18.44921875 C59.69144531 18.71653809 58.91414062 18.98385742 58.11328125 19.25927734 C55.71145793 20.10113639 53.3497952 21.02252372 51 22 C51.9590625 22.7425 51.9590625 22.7425 52.9375 23.5 C57.0713508 26.87457208 61.02939246 30.43596883 65 34 C64.01 34.495 64.01 34.495 63 35 C61.1551465 34.07757325 59.31337669 33.14842776 57.48828125 32.1875 C51.34253043 29.25452002 44.69502688 27.21171419 38 26 C40.70864616 28.93297593 43.13153296 30.7857574 46.73828125 32.48046875 C47.64126953 32.92326172 48.54425781 33.36605469 49.47460938 33.82226562 C51.34942393 34.72418949 53.22960308 35.61505537 55.11523438 36.49414062 C61.5749336 39.69414799 66.62978761 43.44546969 70 50 C69.67 50.99 69.34 51.98 69 53 C68.39414062 52.43152344 67.78828125 51.86304688 67.1640625 51.27734375 C61.41641181 45.98066257 55.62479534 41.15906434 49 37 C48.08605469 36.41734375 47.17210937 35.8346875 46.23046875 35.234375 C37.95974023 30.49559079 31.30462639 30.31359313 22 31 C21.505 31.99 21.505 31.99 21 33 C21.66644531 33.03738281 22.33289063 33.07476562 23.01953125 33.11328125 C32.8300104 33.81304969 41.81932523 34.81932523 49 42 C47.71894388 45.8851837 46.49092501 47.80818946 43.1484375 50.15625 C42.37886719 50.70410156 41.60929688 51.25195312 40.81640625 51.81640625 C39.60791016 52.64978516 39.60791016 52.64978516 38.375 53.5 C37.59253906 54.05558594 36.81007813 54.61117187 36.00390625 55.18359375 C22.46956417 64.72272374 22.46956417 64.72272374 17.6875 65.625 C15 65 15 65 13.36401367 62.8605957 C11.79257307 59.56498634 11.57452229 57.24484079 11.48828125 53.60546875 C11.45283203 52.40341797 11.41738281 51.20136719 11.38085938 49.96289062 C11.34702148 48.09407227 11.34702148 48.09407227 11.3125 46.1875 C11.27833984 44.92228516 11.24417969 43.65707031 11.20898438 42.35351562 C11.12662871 39.23576555 11.05743471 36.11829241 11 33 C8.6865641 33.4746275 6.37426981 33.95482279 4.0625 34.4375 C2.77472656 34.70433594 1.48695313 34.97117187 0.16015625 35.24609375 C-2.84638879 35.67181616 -2.84638879 35.67181616 -4 37 C-4.24591214 40.26516681 -4.38423106 43.52943002 -4.5234375 46.80078125 C-5.02072303 50.1391161 -5.74334015 51.55629081 -8 54 C-9.875 53.6875 -9.875 53.6875 -12 53 C-14.45391569 49.31912647 -14.22802759 46.55644412 -14.125 42.3125 C-14.11597656 41.61060547 -14.10695313 40.90871094 -14.09765625 40.18554688 C-14.07413704 38.45688475 -14.03826713 36.72839855 -14 35 C-20.20075249 35.2849573 -20.20075249 35.2849573 -25.1875 38.625 C-28 41 -28 41 -30.8125 40.875 C-33 40 -33 40 -34 39 C-34.48539177 35.53291592 -34.66317769 33.03659775 -32.73046875 30.015625 C-28.81912029 25.40956014 -28.81912029 25.40956014 -26 24 C-22.81928343 23.78795223 -20.53065423 23.7822957 -17.5625 25 C-9.84251902 28.0126755 -2.44350043 24.50728436 5 22 C5 21.67 5 21.34 5 21 C4.27554688 20.86464844 3.55109375 20.72929687 2.8046875 20.58984375 C-4.52143693 18.95856004 -7.70738186 17.00017894 -12 11 C-13.2803546 9.55241541 -14.57217652 8.11489624 -15.875 6.6875 C-19 3.24458874 -19 3.24458874 -19 1 C-5.82213692 -2.32885477 -5.82213692 -2.32885477 0 0 Z " fill="#142E5B" transform="translate(654,327)"/>
<path d="M0 0 C2 2 2 2 2.453125 4.36328125 C2 7 2 7 -0.265625 9.16796875 C-1.25046875 9.83441406 -2.2353125 10.50085938 -3.25 11.1875 C-4.22453125 11.86167969 -5.1990625 12.53585937 -6.203125 13.23046875 C-8.4346005 14.64228216 -10.60926473 15.89001577 -13 17 C-12.33355469 16.9278125 -11.66710937 16.855625 -10.98046875 16.78125 C7.97230674 14.87271876 7.97230674 14.87271876 12.625 17.9375 C15 20 15 20 16 21 C16.125 23.5 16.125 23.5 16 26 C15 27 15 27 12.1875 27.1875 C9 27 9 27 7.06640625 26.00390625 C1.77476537 23.43310907 -4.29126293 25.01478399 -9.68359375 26.55078125 C-15.51458207 27.68158 -22.35011737 27.88329421 -28 26 C-27.47229232 28.7139252 -26.73712747 30.46492778 -24.4609375 32.1171875 C-18.67151095 35.00072428 -12.57979175 35.91202754 -6.25976562 36.91967773 C-0.92906191 37.77944952 3.94165985 39.06863376 9 41 C9.625 43.3125 9.625 43.3125 10 46 C9.34 46.99 8.68 47.98 8 49 C0.80567558 49.89929055 -5.26315651 47.60122508 -12 45.25 C-13.0415625 44.90195312 -14.083125 44.55390625 -15.15625 44.1953125 C-19.77316607 42.62136384 -24.22226686 40.98557712 -28.5625 38.75 C-31.82012385 37.09157331 -33.43420428 36.55427553 -37 37 C-37.47184078 41.86403973 -37.47184078 41.86403973 -35.4609375 46.1171875 C-32.30519796 48.5315787 -29.18684656 49.13542785 -25.375 49.875 C-18.25504117 51.43373089 -11.30508171 53.69491829 -6 59 C-5.8125 62.4375 -5.8125 62.4375 -6 66 C-8 68 -8 68 -11.359375 68.328125 C-17.21448548 68.17473909 -22.67378869 66.41200945 -28.25 64.75 C-29.86261719 64.29947266 -29.86261719 64.29947266 -31.5078125 63.83984375 C-32.54164063 63.53691406 -33.57546875 63.23398437 -34.640625 62.921875 C-35.57422852 62.64956055 -36.50783203 62.37724609 -37.46972656 62.09667969 C-40.37721294 60.83650709 -41.96576352 59.41107567 -44 57 C-44.79296875 54.5625 -44.79296875 54.5625 -45.1875 52 C-45.32542969 51.154375 -45.46335937 50.30875 -45.60546875 49.4375 C-45.80076172 48.2309375 -45.80076172 48.2309375 -46 47 C-46.31843374 45.66302998 -46.64645064 44.32811586 -47 43 C-50.22979763 45.89397769 -52.7398542 48.37979373 -53.4453125 52.7734375 C-53.48398437 53.73507812 -53.52265625 54.69671875 -53.5625 55.6875 C-53.77663225 60.74378405 -53.77663225 60.74378405 -56.125 63.4375 C-57.548125 64.2109375 -57.548125 64.2109375 -59 65 C-59.89912109 65.55107422 -59.89912109 65.55107422 -60.81640625 66.11328125 C-65.56808419 69 -65.56808419 69 -68 69 C-71.34125155 55.84382202 -71.34125155 55.84382202 -68.86328125 50.58984375 C-66.22719564 46.92585054 -62.85976429 44.71856838 -59.20703125 42.13085938 C-56.11665488 40.01057348 -56.11665488 40.01057348 -54 37 C-54.70125 36.9175 -55.4025 36.835 -56.125 36.75 C-60.65847216 35.56735509 -63.83510703 33.3590418 -66.875 29.8125 C-68.49875969 25.75310078 -68.8971605 22.30067414 -68 18 C-66.39493258 14.95138138 -64.57736113 12.30143926 -62 10 C-61.01 10 -60.02 10 -59 10 C-57.7949754 12.4100492 -57.82693982 14.18978742 -57.6875 16.875 C-57.37122727 20.00610007 -57.1161731 21.79290882 -55.5625 24.5625 C-51.46218647 26.86267588 -47.6766239 27.49265198 -43 27 C-39.85357804 25.57215759 -37.55577324 23.29515163 -35 21 C-32.62530833 19.03608934 -30.21974499 17.11129677 -27.8125 15.1875 C-27.16772705 14.67131104 -26.5229541 14.15512207 -25.85864258 13.62329102 C-21.6294004 10.25409113 -17.37741658 6.92506377 -13 3.75 C-12.01 3.02296875 -11.02 2.2959375 -10 1.546875 C-6.38592803 -0.31663086 -4.0146036 -0.44392251 0 0 Z " fill="#142E5C" transform="translate(717,377)"/>
<path d="M0 0 C7.88373211 1.4037287 14.51698648 8.65004013 20.5 13.5625 C21.85351562 14.67238281 21.85351562 14.67238281 23.234375 15.8046875 C24.68852427 16.99773262 26.14205109 18.19163297 27.58398438 19.39941406 C34.20457268 25.36744886 34.20457268 25.36744886 42.4375 27.8125 C47.38853004 26.89803788 47.38853004 26.89803788 52.0625 25.125 C53.40416964 22.12953451 53.40416964 22.12953451 53.875 18.625 C55.06075784 12.12848432 55.06075784 12.12848432 56.0625 10.125 C60.32522329 11.64740117 62.04281034 14.15775246 64.0625 18.125 C64.73413478 22.31718194 64.51355752 25.88459181 63.0625 29.875 C60.23160368 33.05975836 56.95132309 35.37092432 53.0625 37.125 C51.7425 37.125 50.4225 37.125 49.0625 37.125 C49.0625 37.785 49.0625 38.445 49.0625 39.125 C49.60648438 39.37507813 50.15046875 39.62515625 50.7109375 39.8828125 C53.54605901 41.38043483 56.07840526 43.1363609 58.6875 45 C59.64914062 45.67804688 60.61078125 46.35609375 61.6015625 47.0546875 C64.04345543 49.10897838 65.15828145 50.10545806 66.0625 53.125 C66.07421875 56.25390625 66.07421875 56.25390625 65.75 59.6875 C65.65074219 60.82316406 65.55148437 61.95882812 65.44921875 63.12890625 C65.0625 66.125 65.0625 66.125 64.0625 69.125 C59.0049153 68.65085143 55.05249203 66.11749402 51.0625 63.125 C49.80759986 60.61519973 49.95616378 58.73958286 49.875 55.9375 C49.46383393 50.72254369 48.14838537 48.07807146 44.53515625 44.3671875 C43.06482944 43.02831166 43.06482944 43.02831166 41.0625 42.125 C41.11470703 42.9603125 41.11470703 42.9603125 41.16796875 43.8125 C41.36340707 49.32199929 41.20778923 54.41776442 38.0625 59.125 C33.14956509 63.25690423 26.31816855 64.15712633 20.2109375 65.4140625 C17.02905912 66.07524058 17.02905912 66.07524058 13.8984375 67.1953125 C10.46562437 68.32066997 7.65274655 68.40117281 4.0625 68.125 C2.0625 66.125 2.0625 66.125 1.5 63.375 C2.21501075 59.24382678 3.56223123 58.0130862 6.80859375 55.5078125 C13.03600512 51.6871823 20.12682032 49.86690866 27.28515625 48.71484375 C29.45971017 48.19541465 29.45971017 48.19541465 31.0625 45.125 C31.51644552 42.84587062 31.51644552 42.84587062 31.6875 40.4375 C31.76226563 39.62925781 31.83703125 38.82101562 31.9140625 37.98828125 C31.96304688 37.37339844 32.01203125 36.75851562 32.0625 36.125 C25.10103698 37.90607607 18.49879087 40.57866576 11.8125 43.1875 C9.47416313 44.09557962 7.13563071 45.00315589 4.796875 45.91015625 C3.76788086 46.31113525 2.73888672 46.71211426 1.67871094 47.12524414 C-3.2713829 49.01686734 -6.66919755 49.37587155 -11.9375 49.125 C-13.9375 47.125 -13.9375 47.125 -14.375 44.6875 C-13.9375 42.125 -13.9375 42.125 -12.046875 40.5859375 C-7.73527749 38.56013666 -3.42760581 37.95152534 1.25 37.1875 C12.19687202 35.64099162 12.19687202 35.64099162 22.0625 31.125 C22.84740657 29.07270617 22.84740657 29.07270617 23.0625 27.125 C22.09570312 27.14820313 21.12890625 27.17140625 20.1328125 27.1953125 C13.28306203 27.29025954 6.91232783 27.13491028 0.20703125 25.578125 C-5.13705716 24.44895514 -9.01015089 25.05032669 -13.9375 27.125 C-16.75 27.25 -16.75 27.25 -18.9375 27.125 C-19.25 23.875 -19.25 23.875 -18.9375 20.125 C-16.31727443 17.39900386 -14.69265095 16.23162105 -10.921875 15.69921875 C-9.85453125 15.73660156 -8.7871875 15.77398437 -7.6875 15.8125 C-6.55441406 15.84730469 -5.42132812 15.88210938 -4.25390625 15.91796875 C-0.11684799 16.17623034 3.95490889 16.56803849 8.0625 17.125 C3.1125 14.155 -1.8375 11.185 -6.9375 8.125 C-4.29001799 0.18255396 -4.29001799 0.18255396 0 0 Z " fill="#142E5B" transform="translate(822.9375,376.875)"/>
<path d="M0 0 C24.09 0 48.18 0 73 0 C73 4.95 73 9.9 73 15 C64.09 15 55.18 15 46 15 C46 41.07 46 67.14 46 94 C40.06 94 34.12 94 28 94 C28 67.93 28 41.86 28 15 C18.76 15 9.52 15 0 15 C0 10.05 0 5.1 0 0 Z " fill="#18315E" transform="translate(663,572)"/>
<path d="M0 0 C0.66 0 1.32 0 2 0 C3.55026266 3.00658363 5.05954607 6.03202678 6.5625 9.0625 C7.21895508 10.33383789 7.21895508 10.33383789 7.88867188 11.63085938 C10.44743323 16.84912072 11.67141476 20.17837741 10 26 C8.94921875 28.73828125 8.94921875 28.73828125 7.6875 31.3125 C6.05356773 34.73818754 4.52656103 38.13659708 3.1875 41.6875 C1.17226833 46.81865212 -1.29930484 51.6983245 -3.78735352 56.6105957 C-8.91638972 66.75131785 -13.92157365 76.95761777 -17.9921875 87.57421875 C-20.04545299 92.51638104 -22.56386147 97.23845651 -25 102 C-31.93 102 -38.86 102 -46 102 C-43.750142 95.25042599 -43.750142 95.25042599 -42.20336914 91.93603516 C-41.8582579 91.19228638 -41.51314667 90.4485376 -41.15757751 89.68225098 C-40.7871785 88.89249878 -40.41677948 88.10274658 -40.03515625 87.2890625 C-39.64570328 86.45177612 -39.25625031 85.61448975 -38.85499573 84.75183105 C-37.5936938 82.04154324 -36.32806174 79.33330092 -35.0625 76.625 C-33.76149806 73.83141168 -32.46166495 71.0372814 -31.16186523 68.24313354 C-30.30335237 66.39784645 -29.44446736 64.55273244 -28.58520508 62.70779419 C-25.24030323 55.52480474 -21.9209737 48.33059432 -18.625 41.125 C-18.21644775 40.23248535 -17.80789551 39.3399707 -17.38696289 38.42041016 C-12.95643418 28.73159985 -8.55549693 19.02965789 -4.1875 9.3125 C-3.78080078 8.40822266 -3.37410156 7.50394531 -2.95507812 6.57226562 C-1.96985721 4.38159795 -0.98483268 2.19084223 0 0 Z " fill="#152E5B" transform="translate(503,564)"/>
<path d="M0 0 C8.25 0 16.5 0 25 0 C25 31.02 25 62.04 25 94 C19.06 94 13.12 94 7 94 C6.98541748 91.51710449 6.97083496 89.03420898 6.95581055 86.47607422 C6.90543708 78.2656927 6.83883705 70.05550028 6.76428509 61.84530449 C6.71958848 56.86824035 6.68033071 51.89125793 6.65356445 46.9140625 C6.62752451 42.1093285 6.58711703 37.30490911 6.53681374 32.50037003 C6.52014973 30.66883385 6.50863255 28.83724327 6.50238609 27.00564194 C6.49273993 24.43685807 6.46467487 21.86887822 6.43237305 19.30029297 C6.43380814 18.54575333 6.43524323 17.79121368 6.4367218 17.0138092 C6.33889002 11.50022229 5.19352801 7.27476979 1.3125 3.25 C0.879375 2.8375 0.44625 2.425 0 2 C0 1.34 0 0.68 0 0 Z " fill="#152F5C" transform="translate(1055,572)"/>
<path d="M0 0 C3.27604101 1.35255635 4.41693975 2.36896095 5.875 5.5625 C8.35961398 9.75480532 11.69589753 12.32629891 15.6875 15 C16.53320557 15.59663452 16.53320557 15.59663452 17.39599609 16.20532227 C23.31472094 19.9698969 28.97915729 19.73354914 35.72729492 18.50244141 C38.59288499 17.84557119 41.41788854 17.10102346 44.25 16.3125 C45.25708008 16.03994385 46.26416016 15.7673877 47.30175781 15.48657227 C57.13156553 12.77824723 66.61850961 9.62546964 75.875 5.3125 C87.70335981 -0.17862178 97.6967082 0.07043152 110 4 C108.80223391 7.72638338 106.575647 9.28844543 103.18457031 11.08496094 C98.9085247 12.87604486 94.40365692 13.70841431 89.875 14.625 C87.93410852 15.0301002 85.99397164 15.43883627 84.0546875 15.8515625 C83.20374512 16.02510254 82.35280273 16.19864258 81.47607422 16.37744141 C78.8655984 17.03379255 76.47484001 17.94820683 74 19 C74.54527344 19.21914063 75.09054687 19.43828125 75.65234375 19.6640625 C84.22810604 23.27028049 92.958213 27.83428223 98 36 C98 36.99 98 37.98 98 39 C92.52356868 38.35462931 87.11281122 37.54488915 81.6875 36.5625 C80.58643921 36.36563599 80.58643921 36.36563599 79.46313477 36.16479492 C77.30832704 35.77886978 75.15407718 35.38997985 73 35 C71.82953125 34.78859375 70.6590625 34.5771875 69.453125 34.359375 C66.96828133 33.90875568 64.48386087 33.45600038 62 33 C62.99 36.96 62.99 36.96 64 41 C60.15406194 39.26648605 56.80588802 36.86133048 53.375 34.4375 C47.39842603 30.23151898 45.28798545 28.92797812 37.875 29.9375 C34.00513702 30.32640796 30.96552325 30.60422076 27.546875 28.46484375 C26.26114817 27.06674649 25.02312346 25.62331139 23.8359375 24.140625 C20.86802119 20.68016088 17.04720349 18.96274154 13 17 C12.38350586 16.65396729 11.76701172 16.30793457 11.13183594 15.95141602 C8.82389137 14.92140457 7.32291265 14.75495577 4.8125 14.76953125 C3.64074219 14.77243164 3.64074219 14.77243164 2.4453125 14.77539062 C1.63835938 14.78763672 0.83140625 14.79988281 0 14.8125 C-0.80695312 14.81314453 -1.61390625 14.81378906 -2.4453125 14.81445312 C-6.15229441 14.84198022 -9.41328312 14.9899765 -13 16 C-12.154375 15.030625 -11.30875 14.06125 -10.4375 13.0625 C-6.80214054 8.82847752 -3.39403181 4.42830778 0 0 Z " fill="#142E5B" transform="translate(767,290)"/>
<path d="M0 0 C9.03631519 4.46365695 18.40302389 7.30496128 28.10668945 9.88476562 C29.09140228 10.15078583 29.09140228 10.15078583 30.0960083 10.42218018 C41.69407925 14.01708929 41.69407925 14.01708929 53.16918945 11.82226562 C56.41918945 10.38476562 56.41918945 10.38476562 59.41918945 11.38476562 C48.78016223 23.6592693 48.78016223 23.6592693 43.31323242 24.83935547 C40.42611959 24.91727755 37.64042217 24.64970462 34.77270508 24.34179688 C27.07947703 23.75163144 22.76673672 27.42623333 17.0793457 32.19726562 C14.41918945 34.38476562 14.41918945 34.38476562 12.41918945 34.38476562 C12.41918945 32.07476562 12.41918945 29.76476562 12.41918945 27.38476562 C7.79568764 26.97378769 4.77177417 27.52716975 0.48168945 29.32226562 C-6.69448402 32.15865821 -13.9597476 32.19352189 -21.58081055 32.38476562 C-20.65858605 27.2338044 -17.53761701 24.58888116 -13.58081055 21.38476562 C-8.85953582 18.401506 -4.10717827 15.49780456 1.41918945 14.38476562 C-5.12001913 11.47681057 -11.54257388 9.623868 -18.52612305 8.09570312 C-24.6506309 6.67030616 -29.96353163 4.85775458 -34.58081055 0.38476562 C-34.58081055 -0.27523438 -34.58081055 -0.93523437 -34.58081055 -1.61523438 C-22.18595181 -5.57404857 -11.80704835 -5.85915939 0 0 Z " fill="#132E5C" transform="translate(693.580810546875,295.615234375)"/>
<path d="M0 0 C6.2184375 -0.0928125 6.2184375 -0.0928125 12.5625 -0.1875 C13.85615479 -0.21481201 15.14980957 -0.24212402 16.48266602 -0.27026367 C23.76308227 -0.32280334 29.20000581 -0.19441743 34.9609375 4.6484375 C39.7877095 10.54189944 39.7877095 10.54189944 40 15 C40.08378906 15.66902344 40.16757813 16.33804688 40.25390625 17.02734375 C40.71351004 22.74794414 39.40330418 25.96878066 35.71875 30.33984375 C30.74494931 35.14408305 24.9935915 36.13294464 18.359375 36.09765625 C17.39483398 36.09515869 16.43029297 36.09266113 15.43652344 36.09008789 C13.61169434 36.07643188 13.61169434 36.07643188 11.75 36.0625 C7.8725 36.041875 3.995 36.02125 0 36 C0 24.12 0 12.24 0 0 Z " fill="#F9F9FA" transform="translate(985,587)"/>
<path d="M0 0 C2.93882078 2.53926342 4.31134085 5.34372623 5.96875 8.828125 C6.53513184 10.01043701 7.10151367 11.19274902 7.68505859 12.41088867 C8.29024345 13.6904958 8.89521963 14.97020164 9.5 16.25 C10.1213657 17.55405064 10.743278 18.85784097 11.36572266 20.16137695 C12.63120284 22.81338806 13.89331092 25.46696774 15.15332031 28.12158203 C16.87488831 31.74398706 18.61811781 35.35562749 20.3671875 38.96484375 C20.87701172 40.01961914 21.38683594 41.07439453 21.91210938 42.16113281 C22.87214938 44.14722359 23.83431934 46.13228649 24.79882812 48.11621094 C25.22357422 48.99954102 25.64832031 49.88287109 26.0859375 50.79296875 C26.6435376 51.94575317 26.6435376 51.94575317 27.21240234 53.12182617 C28 55 28 55 28 57 C21.4 57 14.8 57 8 57 C4.5625 50.125 4.5625 50.125 3.40673828 47.79370117 C1.46931551 43.88975271 -0.51277615 40.01791546 -2.5703125 36.17578125 C-2.98611572 35.38478027 -3.40191895 34.5937793 -3.83032227 33.77880859 C-4.63664348 32.24668645 -5.45696983 30.72183357 -6.29272461 29.20556641 C-8.80134509 24.38563883 -9.55054537 21.42690879 -8 16 C-6.7975423 13.10032154 -5.4063399 10.33528412 -3.9375 7.5625 C-3.37192383 6.46518555 -3.37192383 6.46518555 -2.79492188 5.34570312 C-1.87240704 3.55906047 -0.9374688 1.77884171 0 0 Z " fill="#162F5D" transform="translate(525,609)"/>
<path d="M0 0 C1.94616211 -0.04350586 1.94616211 -0.04350586 3.93164062 -0.08789062 C5.17751953 -0.09626953 6.42339844 -0.10464844 7.70703125 -0.11328125 C8.85276611 -0.12786377 9.99850098 -0.14244629 11.17895508 -0.1574707 C14.85055373 0.41607692 16.01110176 1.34212973 18.1875 4.3125 C18.78088457 8.98540346 18.88124982 11.13055585 16.5 15.1875 C10.04324176 21.1207373 0.34001747 21.68399804 -8.0625 21.625 C-8.89225342 21.62008545 -9.72200684 21.6151709 -10.5769043 21.61010742 C-18.59024414 21.45829539 -26.7205601 20.75406035 -33.5625 16.1875 C-36.29624838 12.69437707 -36.42688119 10.71432513 -36.31640625 6.3984375 C-35.66107597 3.68567495 -35.18628522 2.82352392 -32.8125 1.3125 C-30.16253674 1.0952899 -27.76173442 1.02898446 -25.125 1.125 C-24.42310547 1.13853516 -23.72121094 1.15207031 -22.99804688 1.16601562 C-21.26920171 1.20129818 -19.54075235 1.25510417 -17.8125 1.3125 C-18.1425 3.6225 -18.4725 5.9325 -18.8125 8.3125 C-22.1125 8.3125 -25.4125 8.3125 -28.8125 8.3125 C-28.4825 9.6325 -28.1525 10.9525 -27.8125 12.3125 C-23.5225 12.3125 -19.2325 12.3125 -14.8125 12.3125 C-14.833125 10.518125 -14.85375 8.72375 -14.875 6.875 C-14.8963122 5.02083878 -14.88476502 3.16537502 -14.8125 1.3125 C-12.04541906 -1.45458094 -3.72536232 0.02751375 0 0 Z " fill="#19335E" transform="translate(776.8125,405.6875)"/>
<path d="M0 0 C-1.40800705 3.4026837 -2.82574279 5.11707321 -6 7 C-9.02441406 7.34057617 -9.02441406 7.34057617 -12.515625 7.29296875 C-13.76601563 7.28330078 -15.01640625 7.27363281 -16.3046875 7.26367188 C-17.60664062 7.23853516 -18.90859375 7.21339844 -20.25 7.1875 C-21.56742188 7.17396484 -22.88484375 7.16042969 -24.2421875 7.14648438 C-27.49520321 7.11112551 -30.747396 7.06177033 -34 7 C-34.33 8.65 -34.66 10.3 -35 12 C-30.99920748 11.91845231 -26.99986519 11.8056677 -23 11.6875 C-21.87464844 11.66494141 -20.74929688 11.64238281 -19.58984375 11.61914062 C-10.62420898 11.33077226 -3.87616855 10.23152775 3 4 C5.4375 4.6875 5.4375 4.6875 8 6 C8.66015625 8.58203125 8.66015625 8.58203125 9 11 C2.96840476 15.37072119 -2.92543889 18.64181296 -10 21 C-10.66 21.226875 -11.32 21.45375 -12 21.6875 C-17.31130997 23.18130593 -22.76601453 23.29952433 -28.25 23.4375 C-29.42175781 23.48922363 -29.42175781 23.48922363 -30.6171875 23.54199219 C-34.86804997 23.57303371 -36.48960831 23.40872276 -39.921875 20.66015625 C-43.65058328 15.8871293 -44.46053391 13.38479225 -44.3046875 7.4453125 C-43.85196213 3.81190118 -42.85267218 2.28213774 -40 0 C-27.59422473 -4.73675056 -12.83829242 -1.51836193 0 0 Z " fill="#18325D" transform="translate(825,280)"/>
<path d="M0 0 C0.89162842 -0.02964844 1.78325684 -0.05929687 2.7019043 -0.08984375 C8.29453641 -0.14058495 11.5416581 0.50642784 15.9375 4.3125 C18.62993732 8.35115598 18.85015908 11.56824633 17.9375 16.3125 C15.52437742 20.47278601 12.45299852 23.56243476 7.9375 25.3125 C-5.80935528 26.92854253 -19.96616868 22.86595446 -31.14453125 14.8125 C-32.4957913 13.69858071 -33.78935073 12.51491875 -35.0625 11.3125 C-34.48905063 8.44525314 -34.2010485 7.4510485 -32.0625 5.3125 C-28.19096026 5.75677505 -25.82300422 7.82701488 -22.84375 10.15625 C-19.24368345 12.49313531 -15.40369822 12.47888578 -11.203125 12.62890625 C-10.08808594 12.67080078 -8.97304688 12.71269531 -7.82421875 12.75585938 C-6.66535156 12.79517578 -5.50648438 12.83449219 -4.3125 12.875 C-3.13816406 12.91818359 -1.96382812 12.96136719 -0.75390625 13.00585938 C2.14311451 13.11184794 5.04021935 13.21391638 7.9375 13.3125 C7.4425 10.8375 7.4425 10.8375 6.9375 8.3125 C5.75776611 8.35177612 5.75776611 8.35177612 4.55419922 8.3918457 C0.97383784 8.49609476 -2.60620381 8.5609175 -6.1875 8.625 C-7.425 8.66689453 -8.6625 8.70878906 -9.9375 8.75195312 C-20.21642024 8.89011066 -20.21642024 8.89011066 -23.9296875 5.91796875 C-26.0625 3.3125 -26.0625 3.3125 -26.0625 1.3125 C-17.38493729 0.56604299 -8.70811826 0.14631651 0 0 Z " fill="#18315D" transform="translate(737.0625,278.6875)"/>
<path d="M0 0 C0.31453125 1.05058594 0.6290625 2.10117187 0.953125 3.18359375 C3.22653482 10.68119927 5.55224973 17.94658723 9 25 C9.37898437 25.8765625 9.75796875 26.753125 10.1484375 27.65625 C12.69456104 33.29988688 14.23403931 35.42371969 20 38 C22.82178417 41.50769478 24 44.43556264 24 49 C18.72 49 13.44 49 8 49 C7.505 46.525 7.01 44.05 6.5 41.5 C3.33986898 27.49194179 -2.59604403 16.45698624 -12.77734375 6.35546875 C-15 4 -15 4 -16 1 C-14.64648453 0.82812502 -13.29213367 0.66282742 -11.9375 0.5 C-10.80634766 0.36078125 -10.80634766 0.36078125 -9.65234375 0.21875 C-6.42775855 -0.04719517 -3.23400977 -0.03166717 0 0 Z " fill="#152F5C" transform="translate(734,351)"/>
<path d="M0 0 C1.72945653 0.14235457 3.45855654 0.28904382 5.1875 0.4375 C6.63189453 0.55931641 6.63189453 0.55931641 8.10546875 0.68359375 C10.78649602 0.97666151 13.3662986 1.42703754 16 2 C13.60820066 4.93849634 11.27776126 7.72936082 8.5625 10.375 C-1.47045605 20.65266229 -7.41334831 33.72013481 -9 48 C-10 49 -10 49 -13.37890625 49.09765625 C-14.77347077 49.09098369 -16.16801743 49.07902532 -17.5625 49.0625 C-18.62887695 49.05573242 -18.62887695 49.05573242 -19.71679688 49.04882812 C-21.47790013 49.03700864 -23.23896036 49.01907263 -25 49 C-24.24371078 41.48212501 -24.24371078 41.48212501 -21.25 38.1875 C-20.76015625 37.62417969 -20.2703125 37.06085938 -19.765625 36.48046875 C-18 35 -18 35 -15.53442383 34.18041992 C-12.43290012 32.73587054 -11.96259516 31.74940865 -10.68359375 28.6328125 C-10.31355225 27.75197998 -9.94351074 26.87114746 -9.56225586 25.96362305 C-9.19108643 25.02687744 -8.81991699 24.09013184 -8.4375 23.125 C-8.04763916 22.17858643 -7.65777832 21.23217285 -7.25610352 20.25708008 C-4.54493768 13.59846589 -2.0419342 6.89688266 0 0 Z " fill="#18335F" transform="translate(803,351)"/>
<path d="M0 0 C2.72889343 1.9923337 4.82269632 4.43038935 7 7 C8.08253286 8.2506933 9.16588072 9.50068159 10.25 10.75 C10.81332031 11.41257812 11.37664063 12.07515625 11.95703125 12.7578125 C15.35818932 16.49063226 19.12098415 19.87551977 22.83984375 23.2890625 C25 26 25 26 25.44140625 29.2109375 C25 32 25 32 23 34 C18.45150658 34.6617805 16.58045529 34.42098711 12.81860352 31.69262695 C11.73681395 30.64331066 10.6743294 29.57383354 9.62890625 28.48828125 C9.06171371 27.92304245 8.49452118 27.35780365 7.91014099 26.7754364 C6.71945912 25.58076637 5.53737046 24.37747715 4.36352539 23.16625977 C2.56457358 21.3146343 0.73563356 19.49722638 -1.09960938 17.68164062 C-2.25452209 16.51491622 -3.40758349 15.34635572 -4.55859375 14.17578125 C-5.10535263 13.63286942 -5.65211151 13.08995758 -6.21543884 12.53059387 C-8.51702981 10.12631585 -9.91611794 8.57216129 -10.40649414 5.22729492 C-10 3 -10 3 -8.9375 1.1875 C-5.71284684 -0.78890032 -3.70681991 -0.61780332 0 0 Z " fill="#142D5C" transform="translate(851,469)"/>
<path d="M0 0 C1 1 1 1 1.5 4.0625 C0.97662668 8.18406489 0.67695896 8.77896138 -1.96875 11.65234375 C-2.60490234 12.3477124 -3.24105469 13.04308105 -3.89648438 13.75952148 C-4.59064453 14.49887939 -5.28480469 15.2382373 -6 16 C-6.70962891 16.76965088 -7.41925781 17.53930176 -8.15039062 18.33227539 C-10.40483961 20.75076077 -12.69716194 23.12761313 -15 25.5 C-15.76828125 26.32242187 -16.5365625 27.14484375 -17.328125 27.9921875 C-23.03993056 33.83998843 -23.03993056 33.83998843 -27.9375 34.65625 C-31 34 -31 34 -33 32 C-33.46508789 29.26708984 -33.46508789 29.26708984 -33 26 C-31.24962189 23.64024768 -29.62915543 21.76300987 -27.55859375 19.7265625 C-26.9980983 19.15795502 -26.43760284 18.58934753 -25.86012268 18.00350952 C-24.67292563 16.80786461 -23.47804524 15.61980633 -22.27612305 14.43896484 C-20.44481946 12.6322213 -18.65079096 10.79353162 -16.85742188 8.94921875 C-15.69740366 7.78957106 -14.53535756 6.63194764 -13.37109375 5.4765625 C-12.57220985 4.6517186 -12.57220985 4.6517186 -11.75718689 3.81021118 C-7.88614044 0.07939369 -5.30988747 -0.67925264 0 0 Z " fill="#132D5B" transform="translate(693,469)"/>
<path d="M0 0 C-1.65 3.96 -3.3 7.92 -5 12 C-6.05058594 12.06058594 -7.10117187 12.12117188 -8.18359375 12.18359375 C-15.48282152 12.61546473 -22.74111635 13.09263954 -30 14 C-29.75831078 9.89128321 -29.42202313 7.54614758 -26.875 4.25 C-19.28970152 -1.68632055 -8.84651317 -4.42325658 0 0 Z " fill="#14305D" transform="translate(814,260)"/>
<path d="M0 0 C17.91342076 -0.9160272 17.91342076 -0.9160272 23.5546875 3.57421875 C27.22625184 7.19616736 29.40205028 9.76793994 30 15 C23.46889952 15.12559809 23.46889952 15.12559809 21.25 14.53125 C17.95287766 13.75276278 14.62128689 13.63187476 11.25 13.4375 C10.55261719 13.39431641 9.85523438 13.35113281 9.13671875 13.30664062 C7.42468078 13.20110404 5.71236439 13.1001009 4 13 C3.32942113 11.2097939 2.6636531 9.41778511 2 7.625 C1.62875 6.62726563 1.2575 5.62953125 0.875 4.6015625 C0 2 0 2 0 0 Z " fill="#102B58" transform="translate(722,259)"/>
<path d="M0 0 C3.30216304 1.35931036 4.44826048 2.41642387 5.9375 5.625 C9.45953528 11.74930339 15.9980037 14.69582634 22 18 C21.01 18.66 20.02 19.32 19 20 C18.48695313 19.6390625 17.97390625 19.278125 17.4453125 18.90625 C9.06814145 13.82917663 -1.73675902 13.32969116 -11.24853516 15.51708984 C-11.82651855 15.6764502 -12.40450195 15.83581055 -13 16 C-12.154375 15.030625 -11.30875 14.06125 -10.4375 13.0625 C-6.80214054 8.82847752 -3.39403181 4.42830778 0 0 Z " fill="#182F5B" transform="translate(767,290)"/>
<path d="M0 0 C4.04131924 0.5672027 5.12897808 1.31770211 7.5625 4.5 C8.99985246 7.37470493 8.94422649 9.31894588 8.5625 12.5 C6.5 14.9375 6.5 14.9375 3.5625 16.5 C-0.21660616 16.5 -2.44443033 16.33289714 -5.375 13.875 C-6.859773 10.55609564 -6.82284485 8.09655194 -6.4375 4.5 C-4.84580713 0.8484693 -3.98042609 0.57897107 0 0 Z " fill="#1A3460" transform="translate(697.4375,265.5)"/>
<path d="M0 0 C1.175625 0.5775 2.35125 1.155 3.5625 1.75 C3.5625 2.41 3.5625 3.07 3.5625 3.75 C4.5525 4.08 5.5425 4.41 6.5625 4.75 C3.78789861 7.02496053 0.96900162 9.19687701 -1.9609375 11.265625 C-11.35278369 17.88815899 -11.35278369 17.88815899 -19.140625 26.2890625 C-20.4375 27.75 -20.4375 27.75 -23.4375 28.75 C-22.55686076 22.37372598 -19.21425448 18.87568086 -14.4375 14.75 C-9.32619131 11.36598769 -3.88536227 8.54665745 1.5625 5.75 C1.5625 5.42 1.5625 5.09 1.5625 4.75 C-5.10735532 5.07273494 -9.55868246 6.49627238 -15.37109375 9.7890625 C-16.05300781 10.10617187 -16.73492188 10.42328125 -17.4375 10.75 C-18.0975 10.42 -18.7575 10.09 -19.4375 9.75 C-6.35626328 -2.34589682 -6.35626328 -2.34589682 0 0 Z " fill="#1B3869" transform="translate(835.4375,352.25)"/>
<path d="M0 0 C3.4375 0.5625 3.4375 0.5625 5.375 1.5625 C7.1054553 4.81982762 7.0429801 8.01906532 6.4375 11.5625 C4.875 14.625 4.875 14.625 2.4375 16.5625 C-1.82340222 16.48774733 -4.00750111 15.93249926 -7.5625 13.5625 C-8.1257569 9.37830588 -7.75195405 6.97929891 -6 3.125 C-3.5625 0.5625 -3.5625 0.5625 0 0 Z " fill="#152F5C" transform="translate(837.5625,265.4375)"/>
<path d="M0 0 C0.70125 -0.01675781 1.4025 -0.03351563 2.125 -0.05078125 C2.74375 0.06910156 3.3625 0.18898437 4 0.3125 C6.47670471 4.02755706 6.5370338 7.00783848 6 11.3125 C4.8125 14.25 4.8125 14.25 3 16.3125 C0.3125 17.125 0.3125 17.125 -2 17.3125 C-6.00680179 12.26044557 -6.29887398 8.58885367 -6 2.3125 C-3.67471713 -0.01278287 -3.15334102 0.01738975 0 0 Z " fill="#17315C" transform="translate(768,251.6875)"/>
<path d="M0 0 C1.0384211 1.71866217 2.05514635 3.45044598 3.0625 5.1875 C3.63097656 6.15042969 4.19945312 7.11335938 4.78515625 8.10546875 C6 11 6 11 5.9375 13.71875 C4.7560576 16.59359318 3.75596276 17.10458739 0.9375 18.3125 C-0.16271484 18.80169922 -0.16271484 18.80169922 -1.28515625 19.30078125 C-1.85105469 19.53152344 -2.41695312 19.76226562 -3 20 C-5.42811925 14.17251381 -5.61727907 8.2242509 -6 2 C-3 0 -3 0 0 0 Z " fill="#F1F2F5" transform="translate(789,437)"/>
<path d="M0 0 C2.31 0.33 4.62 0.66 7 1 C8.18594057 5.23325806 7.71869389 8.10395424 6.5625 12.3125 C6.27503906 13.38113281 5.98757813 14.44976562 5.69140625 15.55078125 C5.46324219 16.35902344 5.23507812 17.16726563 5 18 C0.78087253 17.5205537 -1.79663178 16.83374881 -5 14 C-4.54636829 12.41531323 -4.08688548 10.83230076 -3.625 9.25 C-3.36976563 8.36828125 -3.11453125 7.4865625 -2.8515625 6.578125 C-2.0790066 4.23919428 -1.16374324 2.16557438 0 0 Z " fill="#F1F2F5" transform="translate(746,438)"/>
<path d="M0 0 C0.70189453 0.01353516 1.40378906 0.02707031 2.12695312 0.04101562 C3.85579829 0.07629818 5.58424765 0.13010417 7.3125 0.1875 C6.9825 2.4975 6.6525 4.8075 6.3125 7.1875 C3.0125 7.1875 -0.2875 7.1875 -3.6875 7.1875 C-3.6875 8.5075 -3.6875 9.8275 -3.6875 11.1875 C-6.1875 12.9375 -6.1875 12.9375 -8.6875 14.1875 C-11.10236943 11.77263057 -10.9836925 11.06042211 -11 7.75 C-11.01675781 6.96753906 -11.03351562 6.18507813 -11.05078125 5.37890625 C-10.6875 3.1875 -10.6875 3.1875 -9.6484375 1.4140625 C-6.60033444 -0.49251989 -3.47214772 -0.12643675 0 0 Z " fill="#16305B" transform="translate(751.6875,406.8125)"/>
<path d="M0 0 C2.875 0.9375 2.875 0.9375 4.875 3.9375 C5.39614798 7.93296788 5.20669207 9.46069265 2.875 12.8125 C2.215 13.51375 1.555 14.215 0.875 14.9375 C-2.09954134 14.61592796 -3.71835278 14.31610258 -5.9375 12.25 C-7.50266945 9.20203845 -7.61866687 7.32264427 -7.125 3.9375 C-4.91876051 0.62814076 -4.01949747 -0.08038995 0 0 Z " fill="#19335C" transform="translate(769.125,273.0625)"/>
<path d="M0 0 C3.42629773 2.9380721 5.15383765 6.51634177 5.8125 10.9375 C5.874375 11.948125 5.93625 12.95875 6 14 C2.9375 14.5625 2.9375 14.5625 -1 14 C-4.86142469 10.38133679 -8.0539667 6.2880836 -9 1 C-5.77945493 -0.61027254 -3.54944721 -0.48128098 0 0 Z " fill="#1D365E" transform="translate(716,260)"/>
<path d="M0 0 C0.66 0.33 1.32 0.66 2 1 C0.4182599 5.74522031 -2.34781704 11.67390852 -7 14 C-8.99960012 14.039992 -11.00047242 14.04346799 -13 14 C-12.56568635 8.57107935 -11.37231161 5.29203296 -8 1 C-5.26094655 -0.36952673 -3.02912668 -0.12621361 0 0 Z " fill="#17325D" transform="translate(827,260)"/>
<path d="M0 0 C2.45840605 -0.02691685 4.91651882 -0.04679802 7.375 -0.0625 C8.07367187 -0.07087891 8.77234375 -0.07925781 9.4921875 -0.08789062 C14.7734375 -0.11328125 14.7734375 -0.11328125 17 1 C17.44921875 3.46875 17.44921875 3.46875 17.6875 6.5 C17.77386719 7.5003125 17.86023438 8.500625 17.94921875 9.53125 C17.96597656 10.3459375 17.98273437 11.160625 18 12 C16.12756019 13.87243981 13.06340482 13.17380392 10.5625 13.1875 C8.80099609 13.20876953 8.80099609 13.20876953 7.00390625 13.23046875 C4 13 4 13 2 11 C2.33 9.68 2.66 8.36 3 7 C6.3 7.33 9.6 7.66 13 8 C13.33 5.69 13.66 3.38 14 1 C9.38 1 4.76 1 0 1 C0 0.67 0 0.34 0 0 Z " fill="#DFE1E8" transform="translate(745,406)"/>
<path d="M0 0 C3.02638102 1.38401847 6.04494765 2.78434928 9.0625 4.1875 C9.91005859 4.57486328 10.75761719 4.96222656 11.63085938 5.36132812 C19.81668992 9.18559645 26.30203431 13.0721829 31 21 C30.505 22.485 30.505 22.485 30 24 C29.39414062 23.43152344 28.78828125 22.86304688 28.1640625 22.27734375 C18.84536625 13.68980674 9.47674066 7.38341959 -2 2 C-1.34 1.34 -0.68 0.68 0 0 Z " fill="#1A305F" transform="translate(693,356)"/>
<path d="M0 0 C9.7174802 -0.58304881 16.62240048 -0.51935969 25 5 C24.67 6.32 24.34 7.64 24 9 C22.845 8.566875 21.69 8.13375 20.5 7.6875 C13.52074956 5.33494367 6.23943598 4.25246684 -1 3 C-0.67 2.01 -0.34 1.02 0 0 Z " fill="#E5E8ED" transform="translate(676,357)"/>
<path d="M0 0 C0.66 0 1.32 0 2 0 C2.33 1.65 2.66 3.3 3 5 C6.3 5 9.6 5 13 5 C12.67 6.65 12.34 8.3 12 10 C7.38 10.33 2.76 10.66 -2 11 C-2.33 9.35 -2.66 7.7 -3 6 C-2.34 5.34 -1.68 4.68 -1 4 C-0.3574765 1.93125966 -0.3574765 1.93125966 0 0 Z " fill="#E2E5EA" transform="translate(775,408)"/>
<path d="M0 0 C-0.96099609 0.72703125 -0.96099609 0.72703125 -1.94140625 1.46875 C-7.05211387 5.42935799 -11.49427709 9.3699646 -15.52734375 14.43359375 C-17 16 -17 16 -20 17 C-19.22429035 10.71675186 -15.43549995 7.23819123 -11 3 C-7.30781241 0.14559795 -4.62904135 -1.50947001 0 0 Z " fill="#1A3664" transform="translate(832,364)"/>
<path d="M0 0 C4.69165109 2.97519337 8.84703191 6.31393365 13 10 C12.01 10.495 12.01 10.495 11 11 C9.3359375 10.328125 9.3359375 10.328125 7.375 9.25 C3.34445883 7.12400026 -0.71031317 5.53203101 -5 4 C-4.01 3.67 -3.02 3.34 -2 3 C-2 2.34 -2 1.68 -2 1 C-1.34 0.67 -0.68 0.34 0 0 Z " fill="#304873" transform="translate(706,351)"/>
<path d="M0 0 C4.18394868 1.33915312 6.21577048 2.96224081 8.875 6.4375 C9.49117187 7.21996094 10.10734375 8.00242187 10.7421875 8.80859375 C11.15726563 9.53175781 11.57234375 10.25492187 12 11 C11.67 11.99 11.34 12.98 11 14 C8.03 11.36 5.06 8.72 2 6 C2.33 5.01 2.66 4.02 3 3 C2.01 2.67 1.02 2.34 0 2 C0 1.34 0 0.68 0 0 Z " fill="#253A68" transform="translate(712,366)"/>
<path d="M0 0 C1.60725635 3.21451269 1.05748185 6.43612536 1 10 C0.67 10 0.34 10 0 10 C0 7.69 0 5.38 0 3 C-0.94875 3.825 -1.8975 4.65 -2.875 5.5 C-5.75 8 -5.75 8 -8 8 C-5.18918919 0 -5.18918919 0 0 0 Z " fill="#3A5078" transform="translate(658,387)"/>
<path d="M0 0 C0.66 0.33 1.32 0.66 2 1 C1.67 1.33 1.34 1.66 1 2 C5.29 2 9.58 2 14 2 C14 2.33 14 2.66 14 3 C11.79248152 3.33868777 9.58394089 3.67071689 7.375 4 C6.14523437 4.185625 4.91546875 4.37125 3.6484375 4.5625 C0.3833973 4.95402516 -2.71712451 5.08080924 -6 5 C-4.06745228 2.9754262 -2.36841312 1.57894208 0 0 Z " fill="#ADB5C7" transform="translate(709,390)"/>
<path d="M0 0 C0 0.99 0 1.98 0 3 C-3.08809695 4.76462683 -4.23312136 5 -8 5 C-8.33 3.68 -8.66 2.36 -9 1 C-5.92677456 0.08941469 -3.19902639 -0.08886184 0 0 Z " fill="#D9DCE6" transform="translate(837,356)"/>
<path d="M0 0 C5.53846154 -0.36923077 5.53846154 -0.36923077 7.875 1.5 C8.24625 1.995 8.6175 2.49 9 3 C7.27473958 3.9765625 5.54947917 4.953125 3.82421875 5.9296875 C2.18017711 6.89428581 0.58599412 7.94267059 -1 9 C-1.66 8.34 -2.32 7.68 -3 7 C-0.69 5.68 1.62 4.36 4 3 C2.68 2.01 1.36 1.02 0 0 Z " fill="#7685A6" transform="translate(833,355)"/>
<path d="M0 0 C3.63 1.65 7.26 3.3 11 5 C10.01 5.66 9.02 6.32 8 7 C4.7 5.35 1.4 3.7 -2 2 C-1.34 1.34 -0.68 0.68 0 0 Z " fill="#586993" transform="translate(693,356)"/>
<path d="M0 0 C0.66 0.33 1.32 0.66 2 1 C4.204364 1.22950319 6.41392173 1.41075933 8.625 1.5625 C9.81351563 1.64628906 11.00203125 1.73007812 12.2265625 1.81640625 C13.59941406 1.90728516 13.59941406 1.90728516 15 2 C15 2.33 15 2.66 15 3 C13.96359375 3.06058594 12.9271875 3.12117188 11.859375 3.18359375 C10.48957127 3.26803371 9.11978025 3.35267997 7.75 3.4375 C6.72712891 3.49647461 6.72712891 3.49647461 5.68359375 3.55664062 C2.35551959 3.76666472 -0.80255402 4.01934002 -4 5 C-2.68 3.35 -1.36 1.7 0 0 Z " fill="#4A5C81" transform="translate(758,301)"/>
<path d="M0 0 C4.40114397 0.50298788 6.71195019 2.08772731 10 5 C7 6 7 6 4.95703125 5.22265625 C4.24933594 4.83980469 3.54164063 4.45695312 2.8125 4.0625 C2.09707031 3.68222656 1.38164063 3.30195313 0.64453125 2.91015625 C0.10183594 2.60980469 -0.44085937 2.30945313 -1 2 C-0.67 1.34 -0.34 0.68 0 0 Z " fill="#2D3F63" transform="translate(779,304)"/>
<path d="M0 0 C0.66 0.33 1.32 0.66 2 1 C0.88424427 4.34726719 0.48655378 4.62079748 -2.4375 6.25 C-4.2009375 7.11625 -4.2009375 7.11625 -6 8 C-6.66 7.67 -7.32 7.34 -8 7 C-5.36 4.69 -2.72 2.38 0 0 Z " fill="#364F77" transform="translate(824,355)"/>
<path d="M0 0 C0.66 0.99 1.32 1.98 2 3 C0.68 5.64 -0.64 8.28 -2 11 C-2.66 11 -3.32 11 -4 11 C-3.52269162 9.5410574 -3.04308958 8.08286504 -2.5625 6.625 C-2.29566406 5.81289063 -2.02882813 5.00078125 -1.75390625 4.1640625 C-1 2 -1 2 0 0 Z " fill="#2F4D7B" transform="translate(462,653)"/>
<path d="M0 0 C3 1 3 1 4 3 C4.13415472 5.6723621 4.04318541 8.32250488 4 11 C1.55160412 7.32740617 0 4.45351799 0 0 Z " fill="#203B65" transform="translate(791,407)"/>
<path d="M0 0 C3.3 0 6.6 0 10 0 C7.75 4.5 7.75 4.5 4 6 C4 5.34 4 4.68 4 4 C4.66 4 5.32 4 6 4 C6 3.34 6 2.68 6 2 C3.03 1.505 3.03 1.505 0 1 C0 0.67 0 0.34 0 0 Z " fill="#374D71" transform="translate(815,280)"/>
<path d="M0 0 C1.98 0.495 1.98 0.495 4 1 C3.67 2.32 3.34 3.64 3 5 C1.68 4.67 0.36 4.34 -1 4 C-0.67 2.68 -0.34 1.36 0 0 Z " fill="#C8CDD7" transform="translate(785,390)"/>
<path d="M0 0 C0.556875 0.226875 1.11375 0.45375 1.6875 0.6875 C0.924375 1.14125 0.16125 1.595 -0.625 2.0625 C-2.54882814 3.22574492 -4.44191224 4.4404415 -6.3125 5.6875 C-6.6425 4.6975 -6.9725 3.7075 -7.3125 2.6875 C-2.88173077 -0.38942308 -2.88173077 -0.38942308 0 0 Z " fill="#284476" transform="translate(816.3125,416.3125)"/>
<path d="M0 0 C3.26460973 1.80412643 4.88929795 2.83394693 7 6 C2 4 2 4 -3 2 C-2.01 1.34 -1.02 0.68 0 0 Z " fill="#485B80" transform="translate(712,356)"/>
<path d="M0 0 C0.66 0.33 1.32 0.66 2 1 C1.1875 3.4375 1.1875 3.4375 0 6 C-0.99 6.33 -1.98 6.66 -3 7 C-1.125 1.125 -1.125 1.125 0 0 Z " fill="#344C79" transform="translate(525,609)"/>
<path d="M0 0 C1.41377341 2.63904371 2.37240135 5.07120629 3 8 C0.53199953 6.84826645 -1.04783565 5.95216435 -3 4 C-2.34 3.67 -1.68 3.34 -1 3 C-0.67 2.01 -0.34 1.02 0 0 Z " fill="#3D587F" transform="translate(828,323)"/>
<path d="M0 0 C1.98 0.495 1.98 0.495 4 1 C4 1.99 4 2.98 4 4 C2.35 4 0.7 4 -1 4 C-0.67 2.68 -0.34 1.36 0 0 Z " fill="#DCDFE6" transform="translate(748,390)"/>
</svg>
