<?xml version="1.0" encoding="UTF-8"?>
<svg version="1.1" xmlns="http://www.w3.org/2000/svg" width="1024" height="1024">
<path d="M0 0 C337.92 0 675.84 0 1024 0 C1024 337.92 1024 675.84 1024 1024 C686.08 1024 348.16 1024 0 1024 C0 686.08 0 348.16 0 0 Z " fill="#FDFDFD" transform="translate(0,0)"/>
<path d="M0 0 C271.26 0 542.52 0 822 0 C822 219.12 822 438.24 822 664 C721.68 664 621.36 664 518 664 C518 540.25 518 416.5 518 289 C493.25 289 468.5 289 443 289 C443 412.75 443 536.5 443 664 C438.38 664 433.76 664 429 664 C429 496.36 429 328.72 429 156 C419.76 156 410.52 156 401 156 C401 323.64 401 491.28 401 664 C268.67 664 136.34 664 0 664 C0 444.88 0 225.76 0 0 Z " fill="#1B3E5E" transform="translate(101,75)"/>
<path d="M0 0 C2.24062128 0.26889789 4.48264732 0.52225956 6.7253418 0.77325439 C30.09118309 3.41058934 53.11383534 7.37014142 76.11010742 12.25323486 C77.16488281 12.47479248 78.2196582 12.6963501 79.30639648 12.92462158 C92.87704272 15.8172997 106.01870737 19.86794344 119.1706543 24.26983643 C121.82899458 25.15918814 124.49230663 26.03155241 127.15698242 26.90167236 C157.1603089 36.87322226 185.85271793 50.64634601 212.11010742 68.25323486 C212.75270508 68.68345947 213.39530273 69.11368408 214.05737305 69.5569458 C222.72326315 75.418089 230.71268638 81.9350904 238.54077148 88.86749268 C239.94698728 90.10919785 241.36750098 91.33466664 242.78979492 92.55792236 C276.55869169 122.01130517 301.96873306 167.13042331 305.11010742 212.25323486 C305.32665002 217.58767856 305.40815501 222.91478407 305.42260742 228.25323486 C305.4281665 229.5405249 305.43372559 230.82781494 305.43945312 232.15411377 C305.37755185 240.36000046 304.59593639 248.18671297 303.11010742 256.25323486 C302.98547119 256.98091064 302.86083496 257.70858643 302.73242188 258.45831299 C299.34875344 277.35066361 291.4758498 296.14743636 281.11010742 312.25323486 C280.46428711 313.28190674 279.8184668 314.31057861 279.15307617 315.37042236 C265.98427133 335.78596596 248.38376068 354.42038502 228.88989258 368.92657471 C227.09132064 370.26723862 225.30941398 371.62806477 223.52807617 372.99151611 C200.45718619 390.48278675 174.2724624 403.90086602 147.49682617 414.75323486 C142.10955574 416.93726342 137.07021899 419.21429327 132.11010742 422.25323486 C132.77677409 420.91990153 133.44344076 419.5865682 134.11010742 418.25323486 C134.50456055 417.3341333 134.89901367 416.41503174 135.30541992 415.46807861 C137.44231298 411.66144877 139.92182168 409.28935183 143.17260742 406.44073486 C143.75260498 405.91793945 144.33260254 405.39514404 144.93017578 404.85650635 C147.52198365 402.5251279 150.14090489 400.22633237 152.76635742 397.93292236 C186.88159377 367.91594493 214.52552361 322.87433852 219.11010742 277.25323486 C221.81629983 234.79776804 205.31710204 197.09503936 177.82348633 165.43048096 C168.39988205 154.84301738 158.37711726 144.87363165 147.11010742 136.25323486 C146.54275879 135.8094751 145.97541016 135.36571533 145.39086914 134.9085083 C134.75910753 126.59533071 123.66622323 119.21705074 112.11010742 112.25323486 C111.46170898 111.86071533 110.81331055 111.4681958 110.14526367 111.06378174 C89.835168 98.890606 68.08106702 89.44008726 45.89208984 81.29815674 C43.2683462 80.31266988 40.68301529 79.2607425 38.09448242 78.18682861 C32.64955907 75.99184558 27.08304808 74.41545093 21.42260742 72.87823486 C20.3266626 72.5778833 19.23071777 72.27753174 18.1015625 71.96807861 C15.84641856 71.35219775 13.59047738 70.73922855 11.33374023 70.12921143 C8.42897932 69.33988379 5.53086671 68.53027439 2.63354492 67.71417236 C-26.69810525 59.58807502 -56.60589823 54.90553148 -86.88989258 52.25323486 C-88.58662109 52.09745972 -88.58662109 52.09745972 -90.31762695 51.9385376 C-101.91061681 51.01007685 -113.52349311 51.06714571 -125.14672852 51.06793213 C-128.72269878 51.06576049 -132.29835218 51.04758868 -135.87426758 51.02862549 C-156.79341884 50.9764099 -177.43522159 52.54700722 -198.19238281 55.0581665 C-200.41047935 55.32575848 -202.62957537 55.58373535 -204.84887695 55.84112549 C-206.27797777 56.0105052 -207.7070172 56.18040393 -209.13598633 56.35089111 C-210.39080811 56.50050293 -211.64562988 56.65011475 -212.93847656 56.80426025 C-215.81329922 57.08676616 -215.81329922 57.08676616 -217.88989258 58.25323486 C-219.98261427 58.58544779 -222.08162776 58.87841974 -224.18286133 59.15167236 C-231.25540814 60.12899592 -238.21612725 61.41356439 -245.20239258 62.87823486 C-246.42716309 63.1340332 -247.65193359 63.38983154 -248.91381836 63.65338135 C-258.73058019 65.73525662 -268.50550341 67.98053999 -278.26489258 70.31573486 C-278.94000885 70.47527649 -279.61512512 70.63481812 -280.31069946 70.79919434 C-288.90367779 72.83763676 -297.26650398 75.27841157 -305.61645508 78.13970947 C-309.28790557 79.38862696 -312.96660918 80.46528843 -316.70239258 81.50323486 C-336.36719709 87.21707326 -355.32784176 94.50737535 -374.26489258 102.25323486 C-375.18734772 102.62983246 -376.10980286 103.00643005 -377.06021118 103.3944397 C-398.72853068 112.25739934 -398.72853068 112.25739934 -419.88989258 122.25323486 C-417.48854201 116.68968642 -412.87384696 112.89802658 -408.63989258 108.69073486 C-407.27997192 107.33818604 -407.27997192 107.33818604 -405.89257812 105.95831299 C-398.93065947 99.1166294 -391.80768298 92.94204005 -383.88989258 87.25323486 C-383.2452002 86.78014893 -382.60050781 86.30706299 -381.9362793 85.81964111 C-371.28947252 78.0101234 -360.2839515 70.91975881 -348.88989258 64.25323486 C-348.19379883 63.84395752 -347.49770508 63.43468018 -346.78051758 63.01300049 C-322.2695827 48.70727628 -296.51432945 37.87141485 -269.88989258 28.25323486 C-268.80111816 27.85765381 -267.71234375 27.46207275 -266.59057617 27.05450439 C-239.14543544 17.19175576 -210.58071886 10.32034018 -181.88989258 5.25323486 C-180.82448242 5.06422607 -179.75907227 4.87521729 -178.66137695 4.68048096 C-170.76302181 3.31686911 -162.84182144 2.25073831 -154.88989258 1.25323486 C-153.50894498 1.06867243 -152.12808828 0.88342881 -150.74731445 0.6975708 C-101.80741721 -5.76935236 -49.03289725 -5.95349079 0 0 Z " fill="#FCFCFD" transform="translate(560.889892578125,127.74676513671875)"/>
<path d="M0 0 C2.3329614 0.04166002 4.6670386 0.04166002 7 0 C8.32 0 9.64 0 11 0 C11.01030746 1.03760971 11.02061493 2.07521942 11.03123474 3.14427185 C11.12879604 12.90082473 11.23151327 22.65731137 11.33933926 32.41375637 C11.39461239 37.43019298 11.44803926 42.44663537 11.49731445 47.46313477 C11.54489343 52.30014866 11.59723363 57.13708931 11.65294075 61.97401619 C11.67339371 63.8236618 11.69210181 65.67332752 11.70907402 67.52300835 C11.7330532 70.10452454 11.76311618 72.68590097 11.79467773 75.26733398 C11.80331093 76.42610802 11.80331093 76.42610802 11.81211853 77.60829163 C11.54679154 81.09683282 11.54679154 81.09683282 13 84 C15.32817964 84.36760731 17.6618385 84.70241581 20 85 C20 85.99 20 86.98 20 88 C9.77 88 -0.46 88 -11 88 C-11 87.01 -11 86.02 -11 85 C-10.04287109 84.81824219 -10.04287109 84.81824219 -9.06640625 84.6328125 C-8.24011719 84.46523438 -7.41382813 84.29765625 -6.5625 84.125 C-5.73878906 83.96257812 -4.91507812 83.80015625 -4.06640625 83.6328125 C-3.04353516 83.31957031 -3.04353516 83.31957031 -2 83 C-0.60439955 80.20879909 -0.78191712 77.79794308 -0.68359375 74.6796875 C-0.62075195 72.79443359 -0.62075195 72.79443359 -0.55664062 70.87109375 C-0.51732422 69.55238281 -0.47800781 68.23367188 -0.4375 66.875 C-0.39430488 65.53514249 -0.35069027 64.19529844 -0.30664062 62.85546875 C-0.20029019 59.57042185 -0.09826192 56.28529719 0 53 C-0.80026611 53.49661133 -1.60053223 53.99322266 -2.42504883 54.50488281 C-3.48747803 55.14780273 -4.54990723 55.79072266 -5.64453125 56.453125 C-6.69229736 57.09411133 -7.74006348 57.73509766 -8.81958008 58.39550781 C-13.65254265 60.83369235 -17.74626506 61.11227722 -23 60 C-30.98349987 57.11636992 -35.88764374 51.87265314 -39.875 44.5625 C-42.34967259 36.97547985 -42.44441335 26.38457187 -39.375 19 C-38.62920449 17.64047694 -37.83707067 16.30530708 -37 15 C-36.5875 14.30519531 -36.175 13.61039063 -35.75 12.89453125 C-31.29372282 6.14681609 -24.68831801 1.85278003 -16.9375 -0.375 C-11.03728534 -1.31154201 -5.79055938 -1.45922096 0 0 Z " fill="#224360" transform="translate(378,819)"/>
<path d="M0 0 C0.33 2.64 0.66 5.28 1 8 C1.58007812 7.59007812 2.16015625 7.18015625 2.7578125 6.7578125 C9.32436469 2.22840851 14.75898816 -0.97774717 23 0 C30.1390168 2.79569889 35.45143097 7.16351104 39.03125 13.95703125 C42.32248971 22.1698933 42.42365855 32.0964251 39.375 40.375 C34.63627728 50.41187799 28.52378086 55.37925717 18.60546875 60.15234375 C15.41938846 61.18889461 12.72012167 61.22979464 9.375 61.1875 C7.68503906 61.17783203 7.68503906 61.17783203 5.9609375 61.16796875 C3 61 3 61 0 60 C0.08058849 63.79255672 0.19345317 67.58347092 0.3125 71.375 C0.33505859 72.45523438 0.35761719 73.53546875 0.38085938 74.6484375 C0.4340332 76.1953125 0.4340332 76.1953125 0.48828125 77.7734375 C0.51446533 78.72653809 0.54064941 79.67963867 0.56762695 80.66162109 C0.71031006 81.43328613 0.85299316 82.20495117 1 83 C4.44450737 85.29633824 6.93812283 85.54016485 11 86 C11 86.99 11 87.98 11 89 C0.77 89 -9.46 89 -20 89 C-20 88.01 -20 87.02 -20 86 C-17.03 85.01 -14.06 84.02 -11 83 C-10.97687516 73.49925675 -10.9590842 63.99852312 -10.94818783 54.49775791 C-10.94295931 50.08662996 -10.93586223 45.6755212 -10.92456055 41.2644043 C-10.91373056 37.01098885 -10.90772293 32.75759191 -10.90512276 28.50416374 C-10.90326871 26.87778367 -10.89964848 25.25140466 -10.89426994 23.62503242 C-10.88705802 21.35489807 -10.88600912 19.08484115 -10.88647461 16.81469727 C-10.884254 15.52008072 -10.88203339 14.22546417 -10.87974548 12.89161682 C-10.66871888 10.10557617 -10.66871888 10.10557617 -12 9 C-14.32817964 8.63239269 -16.6618385 8.29758419 -19 8 C-19 7.01 -19 6.02 -19 5 C-16.39741676 4.16142312 -13.79314353 3.32896656 -11.1875 2.5 C-10.08051758 2.14228516 -10.08051758 2.14228516 -8.95117188 1.77734375 C-5.86744804 0.80059864 -3.25504191 0 0 0 Z " fill="#737374" transform="translate(912,818)"/>
<path d="M0 0 C6.10143362 -0.09940302 12.20238847 -0.17172047 18.30444336 -0.21972656 C20.37711811 -0.23975397 22.449737 -0.26698411 24.5222168 -0.30175781 C27.51364996 -0.350668 30.50433155 -0.37305793 33.49609375 -0.390625 C34.87008583 -0.42159271 34.87008583 -0.42159271 36.27183533 -0.45318604 C45.41122904 -0.45632297 52.48022923 2.63546186 59 9 C63.50324715 15.36665977 63.84481366 21.98537215 62.57421875 29.52734375 C60.61810129 37.31581144 56.41291096 43.11112865 49.5625 47.375 C40.31913704 51.59127082 31.65855665 52.33945633 22 49 C22.06876343 53.37882456 22.15667083 57.75671521 22.26245117 62.13476562 C22.29573463 63.62456572 22.32375597 65.11449295 22.34643555 66.60449219 C22.37992071 68.74469252 22.43222789 70.88372419 22.48828125 73.0234375 C22.51446533 74.31169434 22.54064941 75.59995117 22.56762695 76.92724609 C22.71031006 77.94125488 22.85299316 78.95526367 23 80 C26.03525486 82.02350324 27.19426202 82.32124018 30.6875 82.625 C31.49574219 82.69976563 32.30398437 82.77453125 33.13671875 82.8515625 C34.05904297 82.92503906 34.05904297 82.92503906 35 83 C35 84.32 35 85.64 35 87 C23.12 87 11.24 87 -1 87 C-0.67 85.68 -0.34 84.36 0 83 C0.63808594 82.87882813 1.27617188 82.75765625 1.93359375 82.6328125 C2.75988281 82.46523438 3.58617188 82.29765625 4.4375 82.125 C5.26121094 81.96257812 6.08492188 81.80015625 6.93359375 81.6328125 C7.61550781 81.42398438 8.29742187 81.21515625 9 81 C10.46169537 78.07660925 10.15969638 75.47587771 10.19287109 72.21118164 C10.20104858 71.51345139 10.20922607 70.81572113 10.21765137 70.09684753 C10.24249418 67.78462588 10.2590158 65.47246543 10.2734375 63.16015625 C10.27876118 62.37139036 10.28408485 61.58262447 10.28956985 60.76995659 C10.3162929 56.59738003 10.33567298 52.42483335 10.35009766 48.25219727 C10.36677023 43.93633974 10.41157108 39.6212422 10.4624691 35.30567265 C10.49606817 31.99172556 10.50766673 28.67796081 10.51332474 25.36385918 C10.52005455 23.77256885 10.53532149 22.18129125 10.55921555 20.59016609 C10.59072448 18.365544 10.59092737 16.14299813 10.58349609 13.91821289 C10.59158295 12.65183487 10.5996698 11.38545685 10.60800171 10.08070374 C10.31102147 6.83261589 10.31102147 6.83261589 7.63931274 5.11058044 C5.07215775 4.03036282 2.75231874 3.39318839 0 3 C0 2.01 0 1.02 0 0 Z " fill="#1B3E5C" transform="translate(84,791)"/>
<path d="M0 0 C7.77272285 4.03688951 13.19649728 9.58949183 16 18 C16.64992926 29.82371314 16.73729891 40.32837636 9 50 C2.47228058 56.64166964 -3.07328266 59.14724026 -12.375 59.5 C-20.41037414 59.30981363 -25.17137042 57.58840184 -30.9921875 52.1328125 C-37.28171716 45.42572071 -39.55748262 39.24474786 -39.4375 30.1875 C-39.43065186 29.39504883 -39.42380371 28.60259766 -39.41674805 27.78613281 C-39.16863566 18.71283934 -36.6897228 11.39886529 -30 5 C-20.34689456 -1.57463111 -11.36214333 -4.54485733 0 0 Z " fill="#FBFBFB" transform="translate(803,820)"/>
<path d="M0 0 C20.13 0 40.26 0 61 0 C61 6.6 61 13.2 61 20 C59.68 20 58.36 20 57 20 C56.90203125 19.40832031 56.8040625 18.81664062 56.703125 18.20703125 C56.55359375 17.41683594 56.4040625 16.62664063 56.25 15.8125 C56.11078125 15.03519531 55.9715625 14.25789062 55.828125 13.45703125 C54.74263118 10.23639157 53.38987442 8.42554418 51 6 C47.92288417 5.22364439 47.92288417 5.22364439 44.484375 5.29296875 C43.35741211 5.26485107 42.23044922 5.2367334 41.06933594 5.20776367 C39.64395508 5.20107666 38.21857422 5.19438965 36.75 5.1875 C32.2125 5.125625 27.675 5.06375 23 5 C23 16.55 23 28.1 23 40 C26.2175 39.896875 29.435 39.79375 32.75 39.6875 C33.75772461 39.66260498 34.76544922 39.63770996 35.80371094 39.61206055 C37.00688965 39.56239136 37.00688965 39.56239136 38.234375 39.51171875 C39.05131836 39.48553467 39.86826172 39.45935059 40.70996094 39.43237305 C43.54247428 38.89757762 44.93896495 38.00148253 47 36 C47.81314911 32.39534252 47.81314911 32.39534252 48 29 C49.32 29 50.64 29 52 29 C52 37.91 52 46.82 52 56 C50.68 55.67 49.36 55.34 48 55 C47.896875 53.88625 47.79375 52.7725 47.6875 51.625 C47.460625 50.42875 47.23375 49.2325 47 48 C43.81579155 45.87719437 42.79462745 45.71980463 39.11328125 45.5859375 C38.17548828 45.54726563 37.23769531 45.50859375 36.27148438 45.46875 C35.29501953 45.4378125 34.31855469 45.406875 33.3125 45.375 C32.32443359 45.33632813 31.33636719 45.29765625 30.31835938 45.2578125 C27.87909293 45.16354133 25.43983405 45.07793782 23 45 C23.11811006 49.80567423 23.24234823 54.61113568 23.37231445 59.41650391 C23.41567538 61.05187653 23.45734961 62.68729477 23.49731445 64.32275391 C23.55498912 66.67103841 23.61869129 69.01909304 23.68359375 71.3671875 C23.70030624 72.10057343 23.71701874 72.83395935 23.73423767 73.58956909 C23.78637962 77.42202308 23.78637962 77.42202308 25 81 C29.04152915 81.08746928 33.08281305 81.14054982 37.125 81.1875 C38.83816406 81.22520508 38.83816406 81.22520508 40.5859375 81.26367188 C48.76219503 81.44746978 48.76219503 81.44746978 56 78 C57.45536393 76.19760304 57.45536393 76.19760304 58.25 74.125 C58.559375 73.42632813 58.86875 72.72765625 59.1875 72.0078125 C59.455625 71.34523438 59.72375 70.68265625 60 70 C60.4125 69.01 60.825 68.02 61.25 67 C61.4975 66.34 61.745 65.68 62 65 C62.99 65 63.98 65 65 65 C65 72.26 65 79.52 65 87 C43.22 87 21.44 87 -1 87 C-1 85.68 -1 84.36 -1 83 C-0.28972656 82.87882813 0.42054688 82.75765625 1.15234375 82.6328125 C2.07144531 82.46523438 2.99054688 82.29765625 3.9375 82.125 C4.85402344 81.96257812 5.77054687 81.80015625 6.71484375 81.6328125 C7.46894531 81.42398438 8.22304688 81.21515625 9 81 C10.48203779 78.03592441 10.11920826 75.37920835 10.11352539 72.07177734 C10.11367142 71.35947464 10.11381744 70.64717194 10.1139679 69.9132843 C10.11327011 67.55413794 10.10548397 65.19507011 10.09765625 62.8359375 C10.0957916 61.20211836 10.09436792 59.56829866 10.09336853 57.93447876 C10.08954709 53.6305182 10.07971998 49.32659129 10.06866455 45.02264404 C10.05844242 40.63228816 10.05386919 36.24192685 10.04882812 31.8515625 C10.03809739 23.23435954 10.02102543 14.61718396 10 6 C6.7 5.01 3.4 4.02 0 3 C0 2.01 0 1.02 0 0 Z " fill="#214361" transform="translate(264,791)"/>
<path d="M0 0 C1.3765979 0.01087646 1.3765979 0.01087646 2.78100586 0.02197266 C11.38194723 0.19658794 18.95360366 1.50805183 26.6875 5.375 C26.6875 11.975 26.6875 18.575 26.6875 25.375 C25.3675 25.045 24.0475 24.715 22.6875 24.375 C21.78125 22.265625 21.78125 22.265625 21.1875 19.625 C19.60654901 13.83220656 19.60654901 13.83220656 15.6875 9.375 C6.07730395 4.67840419 -1.50800685 4.31774479 -11.63671875 7.34375 C-19.49436658 10.37209895 -24.52367487 15.97439764 -28.3125 23.375 C-33.71619721 35.67096006 -33.04372056 52.98455822 -28.3125 65.375 C-24.43646181 74.52776308 -19.87775738 79.57899329 -11.0625 84.0078125 C-7.0061154 85.48670272 -3.50577351 85.8228867 0.75 85.75 C1.43126953 85.76160156 2.11253906 85.77320313 2.81445312 85.78515625 C7.63889797 85.75734965 12.14736777 84.91513223 15.6875 81.375 C15.96707408 77.56982733 15.9192828 73.75172654 15.9375 69.9375 C15.958125 68.86177734 15.97875 67.78605469 16 66.67773438 C16.00515625 65.65099609 16.0103125 64.62425781 16.015625 63.56640625 C16.0249707 62.61967041 16.03431641 61.67293457 16.04394531 60.69750977 C15.92631836 59.93108154 15.80869141 59.16465332 15.6875 58.375 C12.52509418 56.26672945 11.18092531 56.03682535 7.5 55.75 C6.59894531 55.67523437 5.69789063 55.60046875 4.76953125 55.5234375 C4.08246094 55.47445312 3.39539063 55.42546875 2.6875 55.375 C2.6875 54.055 2.6875 52.735 2.6875 51.375 C13.2475 51.375 23.8075 51.375 34.6875 51.375 C34.6875 52.365 34.6875 53.355 34.6875 54.375 C33.718125 54.849375 32.74875 55.32375 31.75 55.8125 C28.88272563 57.07693947 28.88272563 57.07693947 27.6875 58.375 C27.59982888 60.44762076 27.58054127 62.52320294 27.58984375 64.59765625 C27.59306641 65.85771484 27.59628906 67.11777344 27.59960938 68.41601562 C27.60796597 69.75651109 27.61643093 71.09700588 27.625 72.4375 C27.6300134 73.78189942 27.63457658 75.1263006 27.63867188 76.47070312 C27.65050512 79.77217941 27.66699029 83.07356803 27.6875 86.375 C25.79204608 86.85566535 23.89611961 87.33446743 22 87.8125 C20.94425781 88.07933594 19.88851562 88.34617187 18.80078125 88.62109375 C12.08743137 90.24678575 5.89808313 90.62444622 -1 90.6875 C-2.03833984 90.71650391 -3.07667969 90.74550781 -4.14648438 90.77539062 C-15.65322562 90.86917598 -24.59396107 86.80407435 -33.3125 79.375 C-44.19341526 67.99476932 -45.92930365 55.65397448 -45.63671875 40.5 C-45.1095284 28.8286511 -40.48429503 20.00677569 -32.21484375 11.94140625 C-22.71031676 3.53699948 -12.60709029 -0.19657024 0 0 Z " fill="#717172" transform="translate(676.3125,788.625)"/>
<path d="M0 0 C3.84802073 3.39195901 5.75687816 6.86265568 6.15148926 11.95487976 C6.16401733 12.63581192 6.17654541 13.31674408 6.18945312 14.01831055 C6.20617065 14.79559006 6.22288818 15.57286957 6.2401123 16.373703 C6.25368774 17.2029982 6.26726318 18.0322934 6.28125 18.88671875 C6.30886414 20.17314018 6.30886414 20.17314018 6.33703613 21.48554993 C6.41565465 25.15080424 6.48370898 28.81623481 6.55224609 32.48168945 C6.60381804 35.1584627 6.66110052 37.83507063 6.71875 40.51171875 C6.73232544 41.34708664 6.74590088 42.18245453 6.7598877 43.0431366 C6.48076341 46.83072186 6.48076341 46.83072186 8 50 C10.67058851 50.14115161 13.32432238 50.04247107 16 50 C15.6362558 52.54620938 15.42033309 53.68180393 13.328125 55.265625 C5.67063492 58.89285714 5.67063492 58.89285714 2 58 C-0.8125 55.625 -0.8125 55.625 -3 53 C-3 52.34 -3 51.68 -3 51 C-4.15628906 51.63228516 -4.15628906 51.63228516 -5.3359375 52.27734375 C-6.33882812 52.82519531 -7.34171875 53.37304688 -8.375 53.9375 C-9.37273437 54.48277344 -10.37046875 55.02804687 -11.3984375 55.58984375 C-16.13598705 58.15779478 -19.61139998 58.6542651 -25 58 C-29.9710149 55.46759618 -33.49430567 52.01138866 -36 47 C-36.71804344 43.06708023 -36.68787759 39.57229164 -35.0703125 35.875 C-28.42376835 26.67761998 -14.4510818 23.86292932 -4 21 C-4.08772455 19.10333474 -4.19591301 17.20761007 -4.3125 15.3125 C-4.37050781 14.25675781 -4.42851562 13.20101562 -4.48828125 12.11328125 C-5.04356897 8.73492769 -5.9926525 6.75080954 -8 4 C-10.32686453 2.83656773 -11.84721413 2.80104012 -14.4375 2.75 C-15.61119141 2.71132813 -15.61119141 2.71132813 -16.80859375 2.671875 C-19.56938043 3.08525482 -20.33140643 3.79330969 -22 6 C-22.98628417 8.03077684 -22.98628417 8.03077684 -23.6875 10.1875 C-23.93886719 10.90292969 -24.19023437 11.61835937 -24.44921875 12.35546875 C-24.63097656 12.89816406 -24.81273437 13.44085937 -25 14 C-28.375 14.625 -28.375 14.625 -32 15 C-34 13 -34 13 -34.4375 10.1875 C-33.83275884 5.78152867 -32.53179264 4.68416241 -29 2 C-19.51673689 -2.56544815 -9.76269825 -5.50558874 0 0 Z " fill="#20405E" transform="translate(191,821)"/>
<path d="M0 0 C0.00879936 0.82899055 0.00879936 0.82899055 0.01777649 1.67472839 C0.08177822 7.43395947 0.16621516 13.19263526 0.26245117 18.95141602 C0.29567746 21.09977898 0.32371653 23.24822875 0.34643555 25.39672852 C0.38002331 28.48751776 0.43234221 31.57751312 0.48828125 34.66796875 C0.49467117 35.62648239 0.5010611 36.58499603 0.50764465 37.57255554 C0.61553418 42.48110363 0.72437657 46.05870965 4 50 C6.46888179 51.2344409 8.30346136 51.30944335 11.0625 51.4375 C12.41021484 51.52837891 12.41021484 51.52837891 13.78515625 51.62109375 C19.00082057 50.61345022 22.76709026 49.41078157 26 45 C27.5374287 38.90029026 26.83960779 32.34569222 26.5625 26.125 C26.51732706 24.36989374 26.47626733 22.61467648 26.43945312 20.859375 C26.34054544 16.57016874 26.18543755 12.28630175 26 8 C23.03 7.01 20.06 6.02 17 5 C17 4.01 17 3.02 17 2 C19.20751848 1.66131223 21.41605911 1.32928311 23.625 1 C24.85476563 0.814375 26.08453125 0.62875 27.3515625 0.4375 C30.6216983 0.0453638 33.71357578 -0.03241849 37 0 C37.01030746 0.63671127 37.02061493 1.27342255 37.03123474 1.9294281 C37.13906331 8.53126798 37.25367961 15.13296478 37.37231445 21.73461914 C37.41573943 24.20138569 37.45740872 26.66818378 37.49731445 29.13500977 C37.55483445 32.67213466 37.61858075 36.20909966 37.68359375 39.74609375 C37.70030624 40.85649521 37.71701874 41.96689667 37.73423767 43.11094666 C37.7641555 44.64242088 37.7641555 44.64242088 37.79467773 46.20483398 C37.81799416 47.56051735 37.81799416 47.56051735 37.84178162 48.94358826 C37.77501457 50.99194101 37.77501457 50.99194101 39 52 C40.34747084 52.23075082 41.70377565 52.41153063 43.0625 52.5625 C44.361875 52.706875 45.66125 52.85125 47 53 C47 53.99 47 54.98 47 56 C44.77332235 56.67493341 42.54354023 57.33963044 40.3125 58 C39.07113281 58.37125 37.82976563 58.7425 36.55078125 59.125 C33.49131696 59.87892739 31.11842827 60.2777079 28 60 C25.95301586 57.95301586 26.29954307 53.69588759 26 51 C25.34773437 51.48210938 24.69546875 51.96421875 24.0234375 52.4609375 C16.60423584 57.8228974 10.37999361 61.378422 1 60 C-4.25330139 57.27606595 -7.15031323 54.49366309 -9.05224609 48.91186523 C-10.21622454 44.68565974 -10.34887763 40.58592202 -10.4140625 36.22265625 C-10.43342865 35.41130722 -10.4527948 34.59995819 -10.4727478 33.76402283 C-10.53206966 31.19695228 -10.57873736 28.62983571 -10.625 26.0625 C-10.66322352 24.31183044 -10.70227774 22.56117881 -10.7421875 20.81054688 C-10.83773156 16.54051184 -10.92193537 12.2703889 -11 8 C-13.31 7.34 -15.62 6.68 -18 6 C-18 4.68 -18 3.36 -18 2 C-16.12612523 1.6603981 -14.25083303 1.32861309 -12.375 1 C-11.33085938 0.814375 -10.28671875 0.62875 -9.2109375 0.4375 C-6.09108771 0.01241098 -3.14320507 -0.03070286 0 0 Z " fill="#747475" transform="translate(844,819)"/>
<path d="M0 0 C0.01458252 1.30146973 0.02916504 2.60293945 0.04418945 3.94384766 C0.10228934 8.78591992 0.17952191 13.62753285 0.26245117 18.46923828 C0.29564549 20.56226124 0.32369445 22.65537253 0.34643555 24.74853516 C0.38008231 27.76242612 0.43240393 30.77551163 0.48828125 33.7890625 C0.49467117 34.72054108 0.5010611 35.65201965 0.50764465 36.61172485 C0.62403831 41.78900713 1.06918572 45.53977229 4 50 C7.23614193 51.61807096 10.49193736 51.44669728 14 51 C18.14378398 49.60995482 21.88825437 48.11174563 25 45 C25.21205956 42.22682641 25.30397141 39.55601963 25.30078125 36.78125 C25.30720894 35.56072937 25.30720894 35.56072937 25.31376648 34.31555176 C25.31951336 32.59400362 25.3200074 30.87243119 25.31567383 29.15087891 C25.31251236 26.5103232 25.33597264 23.87088593 25.36132812 21.23046875 C25.36360086 19.55989725 25.36430473 17.88932273 25.36328125 16.21875 C25.372491 15.42601685 25.38170074 14.63328369 25.39118958 13.81652832 C25.40543981 11.35880398 25.40543981 11.35880398 25 8 C21.81237635 5.87491756 19.73487777 5.4979837 16 5 C16 4.01 16 3.02 16 2 C18.20751848 1.66131223 20.41605911 1.32928311 22.625 1 C23.85476563 0.814375 25.08453125 0.62875 26.3515625 0.4375 C29.6216983 0.0453638 32.71357578 -0.03241849 36 0 C36.01030746 0.62196259 36.02061493 1.24392517 36.03123474 1.88473511 C36.13916535 8.34074709 36.25377404 14.79661569 36.37231445 21.25244141 C36.4157065 23.66386931 36.45737837 26.07532879 36.49731445 28.48681641 C36.55491369 31.94703706 36.61863779 35.40709812 36.68359375 38.8671875 C36.70030624 39.95055389 36.71701874 41.03392029 36.73423767 42.15011597 C36.7641555 43.65144577 36.7641555 43.65144577 36.79467773 45.18310547 C36.81799416 46.50881058 36.81799416 46.50881058 36.84178162 47.86129761 C36.86765001 50.0519722 36.86765001 50.0519722 38 52 C39.89533342 52.46523063 39.89533342 52.46523063 42.0625 52.625 C43.361875 52.74875 44.66125 52.8725 46 53 C46 53.99 46 54.98 46 56 C43.586238 56.69951063 41.16989766 57.38483919 38.75 58.0625 C38.06808594 58.26166016 37.38617188 58.46082031 36.68359375 58.66601562 C32.8247525 59.73375325 30.98368098 59.99592024 27 59 C26.34 56.36 25.68 53.72 25 51 C24.31292969 51.48210938 23.62585938 51.96421875 22.91796875 52.4609375 C22.01691406 53.09257813 21.11585938 53.72421875 20.1875 54.375 C19.29417969 55.00148438 18.40085937 55.62796875 17.48046875 56.2734375 C11.72661802 60.27848006 7.9631862 60.8268161 1 60 C-2.5 58.1875 -2.5 58.1875 -5 56 C-5.5775 55.566875 -6.155 55.13375 -6.75 54.6875 C-10.4738299 49.66032964 -10.32708271 42.99076256 -10.4140625 37.00390625 C-10.43342865 36.17036118 -10.4527948 35.3368161 -10.4727478 34.47801208 C-10.53208993 31.83960916 -10.57874573 29.20116152 -10.625 26.5625 C-10.66322164 24.76365381 -10.70227575 22.96482511 -10.7421875 21.16601562 C-10.8377536 16.77748729 -10.9219502 12.38887339 -11 8 C-13.64 7.34 -16.28 6.68 -19 6 C-19 5.01 -19 4.02 -19 3 C-17.14874911 2.4893101 -15.29381095 1.99197934 -13.4375 1.5 C-11.88869141 1.08234375 -11.88869141 1.08234375 -10.30859375 0.65625 C-6.79126203 -0.04140257 -3.57673831 -0.04454682 0 0 Z " fill="#214462" transform="translate(417,819)"/>
<path d="M0 0 C7.77272285 4.03688951 13.19649728 9.58949183 16 18 C16.64992926 29.82371314 16.73729891 40.32837636 9 50 C2.47228058 56.64166964 -3.07328266 59.14724026 -12.375 59.5 C-20.41037414 59.30981363 -25.17137042 57.58840184 -30.9921875 52.1328125 C-37.28171716 45.42572071 -39.55748262 39.24474786 -39.4375 30.1875 C-39.43065186 29.39504883 -39.42380371 28.60259766 -39.41674805 27.78613281 C-39.16863566 18.71283934 -36.6897228 11.39886529 -30 5 C-20.34689456 -1.57463111 -11.36214333 -4.54485733 0 0 Z M-24.25 8.8125 C-29.05484873 17.56418876 -29.37023186 27.79864136 -27.2421875 37.4296875 C-25.201102 43.8743748 -23.03639611 49.46966991 -17.75 53.875 C-14.0550297 55.38657876 -10.93822962 55.58433082 -7 55 C-1.53296899 52.63923661 1.10310116 48.76176557 3.75 43.5625 C7.03570005 34.04653812 6.09556759 20.51750492 1.77734375 11.42578125 C-1.39704518 6.16899318 -4.0481538 3.59424452 -10 2 C-16.51655616 1.06906341 -20.25487136 3.8185892 -24.25 8.8125 Z " fill="#717273" transform="translate(803,820)"/>
<path d="M0 0 C5.02332718 2.32561444 8.45185358 6.11689869 11 11 C13.32325398 19.42179569 13.20415587 30.84396688 10 39 C7.28532692 43.00813495 4.57893263 46.1990098 0 48 C-6.82530371 48.98320958 -11.40297056 47.92982918 -17 44 C-19.85049813 41.14950187 -18.32298677 30.94662606 -18.35009766 26.90893555 C-18.36665127 25.09988536 -18.3939337 23.29090041 -18.43212891 21.48217773 C-18.48688253 18.87709549 -18.50876915 16.27354883 -18.5234375 13.66796875 C-18.54610687 12.86054733 -18.56877625 12.05312592 -18.59213257 11.22123718 C-18.57709606 7.22601531 -18.42824737 5.4409706 -15.59228516 2.52075195 C-10.38124805 -0.53627857 -5.99768496 -0.59467131 0 0 Z " fill="#FBFBFB" transform="translate(930,826)"/>
<path d="M0 0 C8.25 0 16.5 0 25 0 C25 0.99 25 1.98 25 3 C23.35 3.33 21.7 3.66 20 4 C20.51933531 9.77164004 21.68711213 14.4630235 23.94140625 19.78125 C24.22853989 20.48020386 24.51567352 21.17915771 24.81150818 21.89929199 C25.71940522 24.10342403 26.64065818 26.30166903 27.5625 28.5 C28.1851412 30.00483775 28.80689445 31.51004322 29.42773438 33.015625 C30.94159998 36.6814107 32.46745934 40.34198464 34 44 C36.6992479 37.35930201 39.27949462 30.68935824 41.6875 23.9375 C41.99494141 23.10412109 42.30238281 22.27074219 42.61914062 21.41210938 C44.58229789 15.892072 45.55850808 10.845353 46 5 C44.02 4.34 42.04 3.68 40 3 C40 2.01 40 1.02 40 0 C46.93 0 53.86 0 61 0 C61 0.99 61 1.98 61 3 C60.06671875 3.21914063 59.1334375 3.43828125 58.171875 3.6640625 C54.90032289 4.70364003 54.90032289 4.70364003 53.453125 7.2734375 C53.05609375 8.29695312 52.6590625 9.32046875 52.25 10.375 C52.01450439 10.97022461 51.77900879 11.56544922 51.53637695 12.17871094 C50.65841822 14.44140645 49.82757641 16.71838448 49 19 C48.63890137 19.98452148 48.27780273 20.96904297 47.90576172 21.98339844 C43.98284354 32.7179437 40.18921626 43.49682288 36.49609375 54.3125 C35.89728394 56.06191895 35.89728394 56.06191895 35.28637695 57.84667969 C34.53321482 60.0537598 33.78532818 62.26264996 33.04370117 64.47363281 C27.63924089 80.34437878 27.63924089 80.34437878 22.375 84.4375 C21.48941406 85.14712891 21.48941406 85.14712891 20.5859375 85.87109375 C17.77114233 87.87472873 15.91521192 88.15977912 12.5 88.1875 C11.7059375 88.20167969 10.911875 88.21585938 10.09375 88.23046875 C8 88 8 88 6 86 C6.54347826 79.91304348 6.54347826 79.91304348 8 77 C8.81984375 77.05800781 9.6396875 77.11601563 10.484375 77.17578125 C16.9025309 77.66390255 16.9025309 77.66390255 22.5 75.125 C22.995 74.09375 23.49 73.0625 24 72 C24.37769531 71.236875 24.75539063 70.47375 25.14453125 69.6875 C28.17102109 63.04744202 28.29213542 58.67374981 25.82006836 51.64526367 C25.33159424 50.49775635 24.84312012 49.35024902 24.33984375 48.16796875 C24.07408539 47.53769775 23.80832703 46.90742676 23.53451538 46.25805664 C22.67710851 44.23090917 21.80779478 42.20914377 20.9375 40.1875 C20.34413595 38.79424345 19.75128329 37.40076901 19.15893555 36.00708008 C17.71222472 32.61082686 16.25450125 29.21946326 14.79064941 25.83056641 C14.07073889 24.16377959 13.3531156 22.49600535 12.63574219 20.828125 C11.53594894 18.27767329 10.42786352 15.73117463 9.3125 13.1875 C8.99853271 12.46651123 8.68456543 11.74552246 8.36108398 11.00268555 C7.13366329 8.24673983 6.15283789 6.15283789 4 4 C1.93125966 3.3574765 1.93125966 3.3574765 0 3 C0 2.01 0 1.02 0 0 Z " fill="#1E3F5D" transform="translate(541,820)"/>
<path d="M0 0 C0.69246826 0.36762451 1.38493652 0.73524902 2.09838867 1.11401367 C2.8019751 1.48244385 3.50556152 1.85087402 4.23046875 2.23046875 C4.75793701 2.51559326 5.28540527 2.80071777 5.82885742 3.09448242 C5.9772383 8.7177372 6.08608773 14.33985188 6.15844727 19.96459961 C6.18861096 21.87756193 6.22954903 23.79038605 6.28149414 25.70288086 C6.35433125 28.45355291 6.38831622 31.2023967 6.41479492 33.95385742 C6.44576263 34.80816345 6.47673035 35.66246948 6.50863647 36.54266357 C6.50995735 38.87591432 6.44847331 40.84431733 5.82885742 43.09448242 C1.11603542 47.27276125 -2.47739039 47.72015245 -8.55004883 47.48120117 C-13.40539749 46.76483825 -16.0024414 44.2631836 -19.35864258 40.90698242 C-24.48458316 32.9529367 -25.29088715 24.41160239 -24.17114258 15.09448242 C-22.11989737 8.48491452 -18.88283771 3.94366827 -13.17114258 0.09448242 C-8.68302312 -1.4015574 -4.40300304 -1.83635874 0 0 Z " fill="#FBFBFB" transform="translate(372.171142578125,823.905517578125)"/>
<path d="M0 0 C6.69552444 0.14022041 11.43893764 1.36365011 16.6875 5.5625 C21.31042337 11.37417509 22.44205977 16.20226427 22.23046875 23.52734375 C21.53308161 28.99148692 19.39020394 33.39324167 16 37.6875 C9.2497326 42.84946919 3.16867036 42.90817798 -5.125 42.3125 C-5.785 41.9825 -6.445 41.6525 -7.125 41.3125 C-7.1743521 35.79493524 -7.21069662 30.27749829 -7.23486328 24.75976562 C-7.24493534 22.88181318 -7.25859362 21.00387647 -7.27587891 19.12597656 C-7.30007453 16.4302991 -7.31147083 13.73482854 -7.3203125 11.0390625 C-7.33063507 10.19630768 -7.34095764 9.35355286 -7.35159302 8.48526001 C-7.35199144 6.42628753 -7.24757588 4.36782065 -7.125 2.3125 C-4.5722893 -0.2402107 -3.54169481 0.01479817 0 0 Z " fill="#F8F9FA" transform="translate(113.125,794.6875)"/>
<path d="M0 0 C0 5.94 0 11.88 0 18 C5.61 18 11.22 18 17 18 C16.505 20.475 16.505 20.475 16 23 C10.72 23 5.44 23 0 23 C0.06877545 29.0693381 0.15669255 35.13798056 0.26245117 41.20678711 C0.29572924 43.2718129 0.32375214 45.33693027 0.34643555 47.40209961 C0.37992855 50.36872432 0.43224145 53.33450748 0.48828125 56.30078125 C0.49467117 57.2258699 0.5010611 58.15095856 0.50764465 59.1040802 C0.52743881 59.96474594 0.54723297 60.82541168 0.56762695 61.7121582 C0.57873001 62.46938675 0.58983307 63.2266153 0.60127258 64.00679016 C1.11165448 66.55815276 1.92647717 67.46012666 4 69 C8.47621945 69.33782788 12.60590108 68.85738516 17 68 C16.66134287 70.77461195 16.30281536 71.76202995 14.06640625 73.51953125 C8.57427726 76.35556041 4.38360009 77.72939373 -1.796875 76.71875 C-5.17530328 75.61656773 -6.92017961 73.81782117 -9 71 C-9.94337376 68.16987873 -10.12172829 66.45700082 -10.11352539 63.52856445 C-10.11344986 62.62785721 -10.11337433 61.72714996 -10.11329651 60.79914856 C-10.10813522 59.83031235 -10.10297394 58.86147614 -10.09765625 57.86328125 C-10.0962413 56.86870407 -10.09482635 55.87412689 -10.09336853 54.84941101 C-10.08776761 51.67041018 -10.07521496 48.49147957 -10.0625 45.3125 C-10.05748512 43.15820414 -10.05292219 41.00390718 -10.04882812 38.84960938 C-10.03779787 33.56637916 -10.02053262 28.28320149 -10 23 C-12.97 23 -15.94 23 -19 23 C-18.34 21.35 -17.68 19.7 -17 18 C-14.69 18 -12.38 18 -10 18 C-10.12181641 17.05640625 -10.12181641 17.05640625 -10.24609375 16.09375 C-10.6454224 10.68243926 -10.28013993 7.58654008 -6.6875 3.375 C-3.50592885 0 -3.50592885 0 0 0 Z " fill="#20415D" transform="translate(522,802)"/>
<path d="M0 0 C0 4.62 0 9.24 0 14 C0.66 14 1.32 14 2 14 C2.185625 13.319375 2.37125 12.63875 2.5625 11.9375 C5.11136722 6.72894525 9.53233628 2.1399858 15 0 C18.43860421 0.18097917 21.0139826 0.36385974 23.9375 2.25 C25.44180259 4.72767486 25.48669885 6.14933533 25 9 C23.3125 11.375 23.3125 11.375 21 13 C18.6875 12.8125 18.6875 12.8125 16 12 C12.53462587 11.00489151 12.53462587 11.00489151 9 11 C5.97220823 13.42223342 4.14535991 15.78196013 2 19 C1.81637777 21.67405634 1.74382002 24.24128412 1.76953125 26.9140625 C1.76998947 27.68430756 1.77044769 28.45455261 1.7709198 29.24813843 C1.77393791 30.87377466 1.78181103 32.4994081 1.79418945 34.125 C1.81248168 36.62249914 1.81469885 39.11962827 1.81445312 41.6171875 C1.81936707 43.19531573 1.82519486 44.77344143 1.83203125 46.3515625 C1.83314407 47.10257233 1.8342569 47.85358215 1.83540344 48.62734985 C1.55341623 52.10508461 1.55341623 52.10508461 3 55 C4.51469448 55.23192865 6.03754562 55.41215238 7.5625 55.5625 C8.38878906 55.64628906 9.21507812 55.73007812 10.06640625 55.81640625 C11.02353516 55.90728516 11.02353516 55.90728516 12 56 C12 57.32 12 58.64 12 60 C1.77 60 -8.46 60 -19 60 C-18.67 58.68 -18.34 57.36 -18 56 C-15.36 55.67 -12.72 55.34 -10 55 C-10 40.15 -10 25.3 -10 10 C-14.455 9.01 -14.455 9.01 -19 8 C-19 7.01 -19 6.02 -19 5 C-16.39741676 4.16142312 -13.79314353 3.32896656 -11.1875 2.5 C-10.08051758 2.14228516 -10.08051758 2.14228516 -8.95117188 1.77734375 C-5.86744804 0.80059864 -3.25504191 0 0 0 Z " fill="#1D3E5B" transform="translate(231,818)"/>
<path d="M0 0 C0.33 3.63 0.66 7.26 1 11 C2.03125 9.7625 3.0625 8.525 4.125 7.25 C7.14674578 3.83384965 9.82848786 0.99884956 14 -1 C17.57293629 -0.93944176 19.91942609 -0.69714446 22.9375 1.25 C24.41474475 3.68310899 24.41948576 5.20342824 24 8 C22.875 9.8125 22.875 9.8125 21 11 C17.57752275 11.3111343 14.80590199 10.95913726 11.4375 10.25 C7.94735775 9.66480653 7.94735775 9.66480653 5.1875 11.6875 C0.92315766 16.19551905 0.71087342 19.95615107 0.76953125 26.01171875 C0.76998947 26.78054886 0.77044769 27.54937897 0.7709198 28.34150696 C0.77393367 29.96116689 0.78179403 31.58082415 0.79418945 33.20043945 C0.81251155 35.68906827 0.81469858 38.17732622 0.81445312 40.66601562 C0.81936613 42.23958657 0.82519349 43.81315499 0.83203125 45.38671875 C0.83314407 46.13459152 0.8342569 46.88246429 0.83540344 47.65299988 C0.55579523 51.11725033 0.55579523 51.11725033 2 54 C3.51469448 54.23192865 5.03754562 54.41215238 6.5625 54.5625 C7.38878906 54.64628906 8.21507812 54.73007812 9.06640625 54.81640625 C10.02353516 54.90728516 10.02353516 54.90728516 11 55 C11 56.32 11 57.64 11 59 C0.77 59 -9.46 59 -20 59 C-20 58.01 -20 57.02 -20 56 C-17.03 55.01 -14.06 54.02 -11 53 C-10.97535545 46.75203746 -10.95716657 40.50410297 -10.94506836 34.25610352 C-10.94002702 32.12881986 -10.93319409 30.00153969 -10.92456055 27.87426758 C-10.91248621 24.82372174 -10.90676986 21.77322155 -10.90234375 18.72265625 C-10.89460182 17.28672874 -10.89460182 17.28672874 -10.88670349 15.8217926 C-10.88662796 14.94095505 -10.88655243 14.06011749 -10.88647461 13.15258789 C-10.88314369 11.9834359 -10.88314369 11.9834359 -10.87974548 10.79066467 C-10.80428614 8.97633465 -10.80428614 8.97633465 -12 8 C-14.32817964 7.63239269 -16.6618385 7.29758419 -19 7 C-19 6.01 -19 5.02 -19 4 C-16.58732675 3.132758 -14.17095531 2.28103064 -11.75 1.4375 C-11.06808594 1.19064453 -10.38617187 0.94378906 -9.68359375 0.68945312 C-5.77037444 -0.6592778 -4.13045997 -1.03261499 0 0 Z " fill="#727374" transform="translate(737,819)"/>
<path d="M0 0 C0.01030746 0.66176743 0.02061493 1.32353485 0.03123474 2.00535583 C0.13905949 8.86671313 0.25367609 15.72793266 0.37231445 22.58911133 C0.41574066 25.15288421 0.45740985 27.71668746 0.49731445 30.28051758 C0.55483147 33.95663628 0.61857863 37.63260099 0.68359375 41.30859375 C0.70030624 42.46274277 0.71701874 43.61689178 0.73423767 44.80601501 C0.75418289 45.86703934 0.77412811 46.92806366 0.79467773 48.02124023 C0.81799416 49.43021828 0.81799416 49.43021828 0.84178162 50.86766052 C0.76545159 52.98306665 0.76545159 52.98306665 2 54 C4.32817964 54.36760731 6.6618385 54.70241581 9 55 C9 56.32 9 57.64 9 59 C-0.57 59 -10.14 59 -20 59 C-20 57.68 -20 56.36 -20 55 C-15.545 54.505 -15.545 54.505 -11 54 C-11 38.82 -11 23.64 -11 8 C-13.97 7.67 -16.94 7.34 -20 7 C-20 6.01 -20 5.02 -20 4 C-17.23208055 3.13521219 -14.46134374 2.28288326 -11.6875 1.4375 C-10.90181641 1.19064453 -10.11613281 0.94378906 -9.30664062 0.68945312 C-8.54931641 0.46064453 -7.79199219 0.23183594 -7.01171875 -0.00390625 C-5.96697388 -0.32597046 -5.96697388 -0.32597046 -4.90112305 -0.65454102 C-3 -1 -3 -1 0 0 Z " fill="#20415E" transform="translate(489,819)"/>
<path d="M0 0 C0.01030746 0.62196259 0.02061493 1.24392517 0.03123474 1.88473511 C0.13916535 8.34074709 0.25377404 14.79661569 0.37231445 21.25244141 C0.4157065 23.66386931 0.45737837 26.07532879 0.49731445 28.48681641 C0.55491369 31.94703706 0.61863779 35.40709812 0.68359375 38.8671875 C0.70030624 39.95055389 0.71701874 41.03392029 0.73423767 42.15011597 C0.75418289 43.1510025 0.77412811 44.15188904 0.79467773 45.18310547 C0.81799416 46.50881058 0.81799416 46.50881058 0.84178162 47.86129761 C0.86765001 50.0519722 0.86765001 50.0519722 2 52 C3.89533342 52.46523063 3.89533342 52.46523063 6.0625 52.625 C8.0115625 52.810625 8.0115625 52.810625 10 53 C10 53.99 10 54.98 10 56 C7.586238 56.69951063 5.16989766 57.38483919 2.75 58.0625 C2.06808594 58.26166016 1.38617188 58.46082031 0.68359375 58.66601562 C-3.1752475 59.73375325 -5.01631902 59.99592024 -9 59 C-9.33 56.03 -9.66 53.06 -10 50 C-10.99 49.67 -11.98 49.34 -13 49 C-12.67620361 48.51354004 -12.35240723 48.02708008 -12.01879883 47.52587891 C-10.56643387 43.92507186 -10.69476377 40.41037847 -10.69921875 36.5859375 C-10.69493362 35.77508698 -10.6906485 34.96423645 -10.68623352 34.1288147 C-10.68050187 32.41921929 -10.67998137 30.7095995 -10.68432617 29 C-10.68749736 26.37718594 -10.66397495 23.75548809 -10.63867188 21.1328125 C-10.63639996 19.47135559 -10.63569488 17.80989565 -10.63671875 16.1484375 C-10.627509 15.36197845 -10.61829926 14.57551941 -10.60881042 13.76522827 C-10.59456238 11.32904957 -10.59456238 11.32904957 -11 8 C-14.18762365 5.87491756 -16.26512223 5.4979837 -20 5 C-20 4.01 -20 3.02 -20 2 C-17.79248152 1.66131223 -15.58394089 1.32928311 -13.375 1 C-12.14523437 0.814375 -10.91546875 0.62875 -9.6484375 0.4375 C-6.3783017 0.0453638 -3.28642422 -0.03241849 0 0 Z " fill="#1C3D5B" transform="translate(453,819)"/>
<path d="M0 0 C0.23329086 3.22793797 0.37467674 6.45371232 0.5 9.6875 C0.60054687 11.05551758 0.60054687 11.05551758 0.703125 12.45117188 C0.78240154 15.17630278 0.74034163 17.37244699 0 20 C-3.34854099 23.48273731 -7.39714081 25.26553661 -12.1875 25.6875 C-16.12785277 24.97694458 -17.83946527 24.16408878 -20.15234375 20.84765625 C-21.77552905 17.30956111 -21.55305275 14.87136924 -21 11 C-18.17631373 5.48097683 -12.50186107 3.29244211 -7 1 C-4.44855864 0.23081547 -2.70513155 0 0 0 Z " fill="#F8F9FA" transform="translate(187,847)"/>
<path d="M0 0 C6.93 0 13.86 0 21 0 C21 0.99 21 1.98 21 3 C19.60587891 3.31324219 19.60587891 3.31324219 18.18359375 3.6328125 C14.8476808 4.71521734 14.8476808 4.71521734 13.34765625 7.5546875 C12.92355469 8.65039062 12.49945312 9.74609375 12.0625 10.875 C11.82217041 11.47272217 11.58184082 12.07044434 11.33422852 12.6862793 C9.8251194 16.52392111 8.52098761 20.42028648 7.2421875 24.33984375 C6.94175537 25.24557129 6.64132324 26.15129883 6.33178711 27.08447266 C5.74122901 28.88597311 5.17124791 30.69436523 4.62329102 32.50927734 C3.87994954 34.79966904 3.17885785 36.89984491 2 39 C-0.71484375 40.07421875 -0.71484375 40.07421875 -3 40 C-1.8906485 33.89856676 -0.07466296 28.30069023 2.0625 22.5 C4.2220727 16.61060644 5.77002918 11.32419751 6 5 C4.02 4.34 2.04 3.68 0 3 C0 2.01 0 1.02 0 0 Z " fill="#234462" transform="translate(581,820)"/>
<path d="M0 0 C0.99 0 1.98 0 3 0 C3 7.26 3 14.52 3 22 C-18.78 22 -40.56 22 -63 22 C-63 20.68 -63 19.36 -63 18 C-61.68 18.33 -60.36 18.66 -59 19 C-59.99 19 -60.98 19 -62 19 C-62 19.66 -62 20.32 -62 21 C-40.88 21 -19.76 21 2 21 C0.83722968 19.60843516 0.83722968 19.60843516 -2.37890625 19.90234375 C-3.77347077 19.90901631 -5.16801743 19.92097468 -6.5625 19.9375 C-7.62887695 19.94426758 -7.62887695 19.94426758 -8.71679688 19.95117188 C-10.47790013 19.96299136 -12.23896036 19.98092737 -14 20 C-14 19.67 -14 19.34 -14 19 C-20.27 18.67 -26.54 18.34 -33 18 C-33 17.67 -33 17.34 -33 17 C-32.09290283 16.97812622 -32.09290283 16.97812622 -31.16748047 16.95581055 C-28.40270735 16.88090812 -25.63908643 16.78438927 -22.875 16.6875 C-21.92367187 16.66494141 -20.97234375 16.64238281 -19.9921875 16.61914062 C-14.67306709 16.41597978 -10.51621683 16.11834019 -6 13 C-4.54463607 11.19760304 -4.54463607 11.19760304 -3.75 9.125 C-3.440625 8.42632813 -3.13125 7.72765625 -2.8125 7.0078125 C-2.544375 6.34523438 -2.27625 5.68265625 -2 5 C-1.38125 3.515 -1.38125 3.515 -0.75 2 C-0.5025 1.34 -0.255 0.68 0 0 Z " fill="#2B4B66" transform="translate(326,856)"/>
<path d="M0 0 C1.32 0 2.64 0 4 0 C4 8.91 4 17.82 4 27 C2.68 26.67 1.36 26.34 0 26 C-0.103125 24.88625 -0.20625 23.7725 -0.3125 22.625 C-0.539375 21.42875 -0.76625 20.2325 -1 19 C-4.18420845 16.87719437 -5.20537255 16.71980463 -8.88671875 16.5859375 C-9.82451172 16.54726563 -10.76230469 16.50859375 -11.72851562 16.46875 C-12.70498047 16.4378125 -13.68144531 16.406875 -14.6875 16.375 C-15.67556641 16.33632813 -16.66363281 16.29765625 -17.68164062 16.2578125 C-20.12090707 16.16354133 -22.56016595 16.07793782 -25 16 C-25 15.67 -25 15.34 -25 15 C-22.36 14.67 -19.72 14.34 -17 14 C-17 13.67 -17 13.34 -17 13 C-19.64 12.67 -22.28 12.34 -25 12 C-25 11.67 -25 11.34 -25 11 C-24.41508789 10.98541748 -23.83017578 10.97083496 -23.22753906 10.95581055 C-20.56770603 10.8811643 -17.90910552 10.78456101 -15.25 10.6875 C-14.32960938 10.66494141 -13.40921875 10.64238281 -12.4609375 10.61914062 C-11.12675781 10.5659668 -11.12675781 10.5659668 -9.765625 10.51171875 C-8.54020996 10.47244263 -8.54020996 10.47244263 -7.29003906 10.43237305 C-4.45752572 9.89757762 -3.06103505 9.00148253 -1 7 C-0.18685089 3.39534252 -0.18685089 3.39534252 0 0 Z " fill="#24445F" transform="translate(312,820)"/>
<path d="M0 0 C1.9375 1.25 1.9375 1.25 3 3 C3.4375 5.4375 3.4375 5.4375 3 8 C1.3125 10.375 1.3125 10.375 -1 12 C-3.3125 11.8125 -3.3125 11.8125 -6 11 C-9.46537413 10.00489151 -9.46537413 10.00489151 -13 10 C-15.77122275 12.35426499 -15.77122275 12.35426499 -18 15 C-18.99 15 -19.98 15 -21 15 C-19.7413252 8.70662602 -15.76309615 4.9902164 -11 1 C-7.06563622 -1.40894826 -4.4916311 -1.06165826 0 0 Z " fill="#224564" transform="translate(253,819)"/>
<path d="M0 0 C7.26 0 14.52 0 22 0 C22 6.6 22 13.2 22 20 C20.68 20 19.36 20 18 20 C17.90203125 19.40832031 17.8040625 18.81664062 17.703125 18.20703125 C17.55359375 17.41683594 17.4040625 16.62664063 17.25 15.8125 C17.11078125 15.03519531 16.9715625 14.25789062 16.828125 13.45703125 C15.74531443 10.24435271 14.37581465 8.42535207 12 6 C9.02120111 5.22464348 9.02120111 5.22464348 5.703125 5.29296875 C4.49785156 5.26396484 3.29257812 5.23496094 2.05078125 5.20507812 C0.79652344 5.19927734 -0.45773437 5.19347656 -1.75 5.1875 C-3.01972656 5.16236328 -4.28945313 5.13722656 -5.59765625 5.11132812 C-8.73208201 5.05241035 -11.86510958 5.0161625 -15 5 C-15 4.67 -15 4.34 -15 4 C-7.41 3.67 0.18 3.34 8 3 C8 2.67 8 2.34 8 2 C5.36 1.67 2.72 1.34 0 1 C0 0.67 0 0.34 0 0 Z " fill="#2C4B68" transform="translate(303,791)"/>
<path d="M0 0 C2.4375 1.5625 2.4375 1.5625 4 4 C4 7.84721904 3.81667389 10.06665842 1.25 13 C-1.66694866 14.29642163 -3.01792673 14.07048784 -6 13 C-7.8125 11.875 -7.8125 11.875 -9 10 C-9.63316583 4.09045226 -9.63316583 4.09045226 -7.875 1.0625 C-5.06487736 -0.52990283 -3.17235276 -0.45319325 0 0 Z " fill="#1B3A57" transform="translate(486,790)"/>
<path d="M0 0 C0.99 0 1.98 0 3 0 C3 7.26 3 14.52 3 22 C-18.78 22 -40.56 22 -63 22 C-63 20.68 -63 19.36 -63 18 C-61.68 18.33 -60.36 18.66 -59 19 C-59.99 19 -60.98 19 -62 19 C-62 19.66 -62 20.32 -62 21 C-40.88 21 -19.76 21 2 21 C1.505 13.575 1.505 13.575 1 6 C0.34 5.67 -0.32 5.34 -1 5 C-0.67 3.35 -0.34 1.7 0 0 Z " fill="#33526C" transform="translate(326,856)"/>
<path d="M0 0 C0.33 0 0.66 0 1 0 C1 4.29 1 8.58 1 13 C-12.53 13 -26.06 13 -40 13 C-38.68 12.67 -37.36 12.34 -36 12 C-36 11.34 -36 10.68 -36 10 C-28.74 10 -21.48 10 -14 10 C-14 10.33 -14 10.66 -14 11 C-7.07 11.495 -7.07 11.495 0 12 C0 8.04 0 4.08 0 0 Z " fill="#0E3251" transform="translate(327,864)"/>
<path d="M0 0 C11.88 0 23.76 0 36 0 C36 0.99 36 1.98 36 3 C24.12 3 12.24 3 0 3 C0 2.01 0 1.02 0 0 Z " fill="#234663" transform="translate(83,875)"/>
<path d="M0 0 C0 0.99 0 1.98 0 3 C-8.25 3 -16.5 3 -25 3 C-25 2.01 -25 1.02 -25 0 C-16.50375215 -0.89073566 -8.48881273 -0.99418527 0 0 Z " fill="#133656" transform="translate(312,792)"/>
<path d="M0 0 C-1.58921525 5.36095277 -3.18972938 10.70843973 -5 16 C-6.65 16.33 -8.3 16.66 -10 17 C-7.0120013 2.69575089 -7.0120013 2.69575089 -4 0.625 C-2 0 -2 0 0 0 Z " fill="#2C4D69" transform="translate(588,843)"/>
<path d="M0 0 C1.32 0 2.64 0 4 0 C4 8.91 4 17.82 4 27 C3.01 26.67 2.02 26.34 1 26 C1.66 26 2.32 26 3 26 C2.67 19.07 2.34 12.14 2 5 C1.01 5.495 1.01 5.495 0 6 C0 4.02 0 2.04 0 0 Z " fill="#45647D" transform="translate(312,820)"/>
<path d="M0 0 C1.65 0.33 3.3 0.66 5 1 C4.25 6.75 4.25 6.75 2 9 C2 8.34 2 7.68 2 7 C0.35 7.66 -1.3 8.32 -3 9 C-2.01 6.03 -1.02 3.06 0 0 Z " fill="#375974" transform="translate(568,884)"/>
<path d="M0 0 C0 0.66 0 1.32 0 2 C-0.99 2.495 -0.99 2.495 -2 3 C-1.34 3.66 -0.68 4.32 0 5 C-2.97 5 -5.94 5 -9 5 C-8.67 4.01 -8.34 3.02 -8 2 C-9.65 2 -11.3 2 -13 2 C-13 1.67 -13 1.34 -13 1 C-11.20843648 0.83222817 -9.4167455 0.66581706 -7.625 0.5 C-6.62726562 0.4071875 -5.62953125 0.314375 -4.6015625 0.21875 C-2 0 -2 0 0 0 Z " fill="#787A7B" transform="translate(687,874)"/>
<path d="M0 0 C0.66 0.33 1.32 0.66 2 1 C0.71034824 2.37562854 -0.62689293 3.70766393 -2 5 C-2.66 5 -3.32 5 -4 5 C-4 6.32 -4 7.64 -4 9 C-5.65 9 -7.3 9 -9 9 C-9 8.01 -9 7.02 -9 6 C-9.66 5.67 -10.32 5.34 -11 5 C-10.37351562 4.80664062 -9.74703125 4.61328125 -9.1015625 4.4140625 C-8.28429687 4.15367187 -7.46703125 3.89328125 -6.625 3.625 C-5.81289063 3.36976563 -5.00078125 3.11453125 -4.1640625 2.8515625 C-1.83540815 2.10145717 -1.83540815 2.10145717 0 0 Z " fill="#78797B" transform="translate(802,870)"/>
<path d="M0 0 C1.134375 0.020625 2.26875 0.04125 3.4375 0.0625 C2.4475 1.5475 2.4475 1.5475 1.4375 3.0625 C3.0875 3.3925 4.7375 3.7225 6.4375 4.0625 C6.4375 4.3925 6.4375 4.7225 6.4375 5.0625 C3.1375 5.0625 -0.1625 5.0625 -3.5625 5.0625 C-3.8925 3.7425 -4.2225 2.4225 -4.5625 1.0625 C-3.5625 0.0625 -3.5625 0.0625 0 0 Z " fill="#3A5975" transform="translate(115.5625,836.9375)"/>
<path d="M0 0 C0 0.99 0 1.98 0 3 C-3.37097383 4.49821059 -5.20442119 5 -9 5 C-9 4.01 -9 3.02 -9 2 C-6.03 1.34 -3.06 0.68 0 0 Z " fill="#294D6E" transform="translate(376,902)"/>
<path d="M0 0 C1.11375 0.556875 1.11375 0.556875 2.25 1.125 C-0.13573379 3.01713369 -1.82175348 4.14891783 -4.75 5.125 C-4.75 4.135 -4.75 3.145 -4.75 2.125 C-5.41 1.795 -6.07 1.465 -6.75 1.125 C-4.02098495 -0.69434337 -3.21400584 -1.02263822 0 0 Z " fill="#2F4F6B" transform="translate(185.75,869.875)"/>
<path d="M0 0 C5.53846154 -0.36923077 5.53846154 -0.36923077 7.875 1.5 C8.24625 1.995 8.6175 2.49 9 3 C8.67 3.66 8.34 4.32 8 5 C5.36 4.34 2.72 3.68 0 3 C0 2.01 0 1.02 0 0 Z " fill="#284A68" transform="translate(398,822)"/>
<path d="M0 0 C0.99 0.66 1.98 1.32 3 2 C0.25 2.6875 0.25 2.6875 -3 3 C-5.375 1.5625 -5.375 1.5625 -7 0 C-3.8195064 -1.06016453 -3.04021693 -1.04507457 0 0 Z " fill="#415F7B" transform="translate(181,846)"/>
<path d="M0 0 C1.32 0.66 2.64 1.32 4 2 C2.68 3.32 1.36 4.64 0 6 C-0.66 5.34 -1.32 4.68 -2 4 C-1.34 2.68 -0.68 1.36 0 0 Z " fill="#2D4E69" transform="translate(438,867)"/>
<path d="M0 0 C-0.33 1.32 -0.66 2.64 -1 4 C-2.65 4 -4.3 4 -6 4 C-6 3.01 -6 2.02 -6 1 C-3 0 -3 0 0 0 Z " fill="#2F5271" transform="translate(218,822)"/>
<path d="M0 0 C1.98 0 3.96 0 6 0 C5.67 0.99 5.34 1.98 5 3 C3.02 3 1.04 3 -1 3 C-0.67 2.01 -0.34 1.02 0 0 Z " fill="#636465" transform="translate(673,876)"/>
<path d="M0 0 C1.98 0 3.96 0 6 0 C6 0.99 6 1.98 6 3 C4.02 3 2.04 3 0 3 C0 2.01 0 1.02 0 0 Z " fill="#0F3051" transform="translate(560,820)"/>
<path d="M0 0 C2.97 0.33 5.94 0.66 9 1 C5.00889681 2.9955516 3.30013434 3.19546065 -1 3 C-0.67 2.01 -0.34 1.02 0 0 Z " fill="#2E4D6C" transform="translate(489,873)"/>
</svg>
