<?xml version="1.0" encoding="UTF-8"?>
<svg version="1.1" xmlns="http://www.w3.org/2000/svg" width="1024" height="1024">
<path d="M0 0 C337.92 0 675.84 0 1024 0 C1024 337.92 1024 675.84 1024 1024 C686.08 1024 348.16 1024 0 1024 C0 686.08 0 348.16 0 0 Z " fill="#FDFDFD" transform="translate(0,0)"/>
<path d="M0 0 C271.26 0 542.52 0 822 0 C822 218.46 822 436.92 822 662 C721.68 662 621.36 662 518 662 C518 538.58 518 415.16 518 288 C493.25 288 468.5 288 443 288 C443 411.42 443 534.84 443 662 C438.38 662 433.76 662 429 662 C429 494.69 429 327.38 429 155 C419.43 155 409.86 155 400 155 C400 322.31 400 489.62 400 662 C268 662 136 662 0 662 C0 443.54 0 225.08 0 0 Z " fill="#1B3F61" transform="translate(101,76)"/>
<path d="M0 0 C1.00131958 -0.00261841 2.00263916 -0.00523682 3.03430176 -0.00793457 C37.98209842 -0.01749696 73.49070481 2.20035124 107.9375 8.3125 C109.61271729 8.60060547 109.61271729 8.60060547 111.32177734 8.89453125 C131.7507631 12.42609996 151.96051794 16.76090399 171.9375 22.3125 C173.54927124 22.75879761 173.54927124 22.75879761 175.19360352 23.21411133 C201.83070469 30.70094609 227.56401629 40.56710276 252.11083984 53.36230469 C253.92878925 54.30796882 255.75479872 55.23648855 257.58203125 56.1640625 C272.77072517 63.96607134 287.19236941 73.07702088 300.33740234 83.98876953 C301.88430992 85.26849686 303.45163263 86.5234223 305.01953125 87.77734375 C340.38947572 116.39179646 367.14276856 155.50825696 376.9375 200.3125 C377.11772705 201.12412598 377.2979541 201.93575195 377.48364258 202.77197266 C379.18087571 211.46925204 379.27608061 220.0648549 379.25317383 228.89160156 C379.25003109 231.41255714 379.27349211 233.93231496 379.29882812 236.453125 C379.3680658 253.14980655 376.79087832 268.44911163 371.375 284.25 C371.15851807 284.88970734 370.94203613 285.52941467 370.71899414 286.18850708 C366.866602 297.51254011 362.1911529 308.0973014 355.9375 318.3125 C355.53031738 318.98265137 355.12313477 319.65280273 354.70361328 320.34326172 C348.92544382 329.71531049 342.20974823 338.06911303 334.9375 346.3125 C334.33421875 347.02664063 333.7309375 347.74078125 333.109375 348.4765625 C320.54439656 363.29835746 305.69816871 375.08917846 289.9375 386.3125 C289.08841064 386.92496582 289.08841064 386.92496582 288.22216797 387.54980469 C269.98665551 400.62028353 249.52016662 410.53407043 228.9375 419.3125 C227.01682275 420.13777806 225.09625346 420.96330742 223.17578125 421.7890625 C220.36494222 422.99627425 217.5531843 424.20091706 214.73706055 425.39575195 C213.49049683 425.92495239 213.49049683 425.92495239 212.21875 426.46484375 C211.48720703 426.77413818 210.75566406 427.08343262 210.00195312 427.40209961 C207.94465626 428.30934417 205.93977047 429.2902021 203.9375 430.3125 C204.5975 428.9925 205.2575 427.6725 205.9375 426.3125 C206.5975 426.3125 207.2575 426.3125 207.9375 426.3125 C207.834375 425.58804687 207.73125 424.86359375 207.625 424.1171875 C208.07169471 420.10810244 209.90736497 419.01476159 212.9375 416.4375 C213.43934814 416.00332764 213.94119629 415.56915527 214.45825195 415.12182617 C215.94179495 413.84091805 217.43945317 412.57641501 218.9375 411.3125 C220.33554232 410.0858464 221.73168127 408.85701636 223.125 407.625 C225.02625407 405.95947052 226.93413077 404.31525603 228.890625 402.71484375 C233.75401105 398.66521324 237.66910231 394.19820939 241.59765625 389.2421875 C243.91206854 386.3443424 246.32296454 383.55371136 248.75 380.75 C264.98068972 361.26813175 278.87737909 337.54653798 285.8125 313.0625 C286.00360352 312.39105957 286.19470703 311.71961914 286.39160156 311.02783203 C289.6842277 298.52362116 290.34525725 285.91512572 290.3125 273.0625 C290.31218277 271.90796326 290.31218277 271.90796326 290.31185913 270.73010254 C290.28002195 259.10998573 289.51389681 248.44037073 285.9375 237.3125 C285.57527344 236.05824219 285.21304688 234.80398438 284.83984375 233.51171875 C274.15423286 198.62953812 249.88356497 167.33264427 221.9375 144.3125 C221.45716309 143.90773438 220.97682617 143.50296875 220.48193359 143.0859375 C204.59338064 129.73020401 187.1643206 118.57804136 169.05126953 108.49267578 C167.15897912 107.4361579 165.27985492 106.35980012 163.40234375 105.27734375 C143.89860527 94.37226839 122.65621704 86.47897124 101.57568359 79.22167969 C99.26041122 78.42378275 96.95169949 77.61000447 94.64453125 76.7890625 C86.27664969 73.87926175 77.85352927 71.75940217 69.21899414 69.8425293 C66.59768109 69.23355438 63.99640242 68.55902904 61.390625 67.88671875 C54.10813049 66.05390889 46.74985299 64.64890989 39.375 63.25 C38.0292403 62.9918312 36.68353691 62.73336869 35.33789062 62.47460938 C32.727878 61.973621 30.11698853 61.47826346 27.50537109 60.9855957 C25.33526115 60.57619423 23.16604512 60.1619644 20.99853516 59.73901367 C-0.05825956 55.71587403 -21.67217878 54.70898417 -43.0625 54.3125 C-44.02833008 54.29058594 -44.99416016 54.26867187 -45.98925781 54.24609375 C-91.4332411 53.30554908 -137.78503354 58.15519875 -182.0625 68.3125 C-183.37045226 68.60663914 -184.6785633 68.90007292 -185.98681641 69.19287109 C-199.45427782 72.21158186 -212.80787311 75.44928286 -226.0625 79.3125 C-227.87302915 79.82398777 -229.68417314 80.3333072 -231.49609375 80.83984375 C-243.84023138 84.31084236 -256.02712829 88.01650723 -268.02807617 92.55102539 C-269.97118689 93.27832196 -271.92072225 93.98303176 -273.875 94.6796875 C-296.95626225 102.95689391 -319.58112996 112.52672625 -342.00927734 122.41943359 C-344.34135325 123.43378956 -346.6909145 124.39430851 -349.0625 125.3125 C-346.66114944 119.74895156 -342.04645438 115.95729171 -337.8125 111.75 C-336.45257935 110.39745117 -336.45257935 110.39745117 -335.06518555 109.01757812 C-328.63725272 102.70065822 -322.10941403 96.83722731 -314.80078125 91.56787109 C-312.97580209 90.24988755 -311.17611716 88.90115106 -309.375 87.55078125 C-281.30086804 66.8348028 -249.66185027 51.1422954 -217.3125 38.375 C-216.1469458 37.91440186 -214.9813916 37.45380371 -213.78051758 36.97924805 C-207.96365564 34.71576191 -202.16431243 32.62957847 -196.15649414 30.93115234 C-194.14005618 30.3354133 -192.20863476 29.63763188 -190.25 28.875 C-149.68805405 13.28316738 -104.18976966 6.2665464 -61.0625 2.5 C-59.78511963 2.38833496 -58.50773926 2.27666992 -57.19165039 2.16162109 C-38.16983523 0.63578752 -19.07923678 0.04900558 0 0 Z " fill="#FCFDFD" transform="translate(491.0625,123.6875)"/>
<path d="M0 0 C6.7035596 -0.1025619 13.40691234 -0.17194542 20.11108398 -0.21972656 C22.38524943 -0.23967397 24.65936473 -0.26684184 26.93334961 -0.30175781 C60.33464869 -0.80127141 60.33464869 -0.80127141 71.19140625 8.98828125 C78.1659478 16.74614064 78.8833483 24.65239899 78.41015625 34.71484375 C77.72849956 43.44726469 74.33746995 49.67838551 68.35546875 56.01953125 C62.22218453 61.17637221 54.33332706 64.12151201 46.33984375 64.1328125 C45.46392578 64.13410156 44.58800781 64.13539063 43.68554688 64.13671875 C42.32526367 64.13091797 42.32526367 64.13091797 40.9375 64.125 C40.02677734 64.12886719 39.11605469 64.13273438 38.17773438 64.13671875 C37.30310547 64.13542969 36.42847656 64.13414062 35.52734375 64.1328125 C34.73062256 64.13168457 33.93390137 64.13055664 33.11303711 64.12939453 C31 64 31 64 28 63 C28.09341361 68.09066226 28.19947911 73.18084204 28.31738281 78.27099609 C28.35571341 80.00334407 28.39055906 81.73577274 28.421875 83.46826172 C28.46743765 85.95569749 28.52544503 88.44257566 28.5859375 90.9296875 C28.59748871 91.70682098 28.60903992 92.48395447 28.62094116 93.28463745 C28.58793768 97.60650975 28.58793768 97.60650975 31 101 C33.88717605 101.6837613 33.88717605 101.6837613 37.125 102.125 C38.22070312 102.29257812 39.31640625 102.46015625 40.4453125 102.6328125 C41.70988281 102.81457031 41.70988281 102.81457031 43 103 C43 104.32 43 105.64 43 107 C29.14 107 15.28 107 1 107 C1 106.01 1 105.02 1 104 C4.63 102.68 8.26 101.36 12 100 C12 69.31 12 38.62 12 7 C6.06 5.515 6.06 5.515 0 4 C0 2.68 0 1.36 0 0 Z " fill="#1B3C5B" transform="translate(277,799)"/>
<path d="M0 0 C13.2 0 26.4 0 40 0 C40 1.65 40 3.3 40 5 C36.7 5.33 33.4 5.66 30 6 C29.64558269 12.3086281 30.64618045 16.61335 33.125 22.375 C33.78227823 23.98028836 34.43583786 25.58710361 35.0859375 27.1953125 C35.41303711 28.00258789 35.74013672 28.80986328 36.07714844 29.64160156 C37.44363192 33.13372601 38.60335351 36.68084327 39.75 40.25 C42.32855652 48.1876047 45.13624676 56.03862673 47.99816895 63.87756348 C48.49723911 65.24496226 48.99489202 66.61287918 49.49108887 67.98132324 C50.19291839 69.91492075 50.90026523 71.846406 51.609375 73.77734375 C52.2276416 75.46718384 52.2276416 75.46718384 52.85839844 77.19116211 C53.94595596 80.13624361 53.94595596 80.13624361 56 83 C58.82679794 75.60966713 61.63533526 68.21267938 64.42652893 60.80883789 C65.90737192 56.88320464 67.39565531 52.96059235 68.89501953 49.04199219 C70.52215112 44.78847626 72.13389913 40.52938218 73.73675537 36.2666626 C74.36697113 34.59845393 75.00237447 32.93219517 75.64312744 31.26800537 C76.55084168 28.90766407 77.43938819 26.5408736 78.32421875 24.171875 C78.59557144 23.4790744 78.86692413 22.7862738 79.14649963 22.07247925 C81.04999312 16.88991944 81.23123186 12.51580828 81 7 C77.37 6.34 73.74 5.68 70 5 C70 3.35 70 1.7 70 0 C81.22 0 92.44 0 104 0 C104 1.65 104 3.3 104 5 C102.68 5 101.36 5 100 5 C96.17780097 5.86269069 95.14213431 6.79590971 92.8671875 10.0625 C90.63282302 14.25213662 88.78860735 18.6052676 87 23 C86.68788574 23.76103027 86.37577148 24.52206055 86.05419922 25.30615234 C84.27047282 29.70153047 82.57040397 34.1240012 80.91308594 38.56835938 C79.8656207 41.35786572 78.79504903 44.1379497 77.72265625 46.91796875 C74.49086109 55.30798394 71.30670854 63.71589479 68.125 72.125 C67.81729675 72.93794525 67.50959351 73.7508905 67.19256592 74.58847046 C62.73434338 86.37016915 58.30759047 98.16222318 54 110 C52.02 110 50.04 110 48 110 C47.69521729 109.12005371 47.39043457 108.24010742 47.07641602 107.33349609 C40.28535382 87.75490412 33.31243527 68.24925271 26.125 48.8125 C25.77132355 47.85470642 25.41764709 46.89691284 25.05325317 45.91009521 C23.04054611 40.46367169 21.00928543 35.0246544 18.96398926 29.59039307 C17.99320383 26.9817376 17.05098592 24.36400984 16.11230469 21.74365234 C15.51020518 20.1036797 14.90768645 18.46386089 14.3046875 16.82421875 C14.04398468 16.07469437 13.78328186 15.32516998 13.51467896 14.55293274 C12.28083091 11.25129812 11.32868097 9.25179184 8.50048828 7.08520508 C5.71054881 5.87437898 2.91079589 4.88000806 0 4 C0 2.68 0 1.36 0 0 Z " fill="#1B3B5A" transform="translate(483,799)"/>
<path d="M0 0 C4.43561137 2.67876138 6.49527872 6.38228487 7.9921875 11.203125 C8.31598389 14.69427038 8.34082314 18.17914138 8.37109375 21.68359375 C8.38808823 22.69279373 8.4050827 23.70199371 8.42259216 24.74177551 C8.47562362 27.95799553 8.51598756 31.17420311 8.5546875 34.390625 C8.59860463 37.61769437 8.64526632 40.84466367 8.69749451 44.0716095 C8.72947192 46.07811454 8.75635566 48.08470832 8.77772522 50.09135437 C8.79121506 50.99601944 8.8047049 51.90068451 8.81860352 52.83276367 C8.82811539 53.63042648 8.83762726 54.42808929 8.84742737 55.24992371 C8.8737504 57.28281901 8.8737504 57.28281901 9.9921875 59.203125 C15.07522436 59.31633356 15.07522436 59.31633356 19.9921875 58.203125 C20.4871875 60.183125 20.4871875 60.183125 20.9921875 62.203125 C10.46822584 69.44913139 10.46822584 69.44913139 2.9921875 68.203125 C-0.4453125 66.515625 -0.4453125 66.515625 -3.0078125 64.203125 C-3.66796875 61.55859375 -3.66796875 61.55859375 -4.0078125 59.203125 C-5.40580078 60.17765625 -5.40580078 60.17765625 -6.83203125 61.171875 C-14.23371257 66.10795732 -20.04139312 69.49528199 -29.26171875 68.76171875 C-35.77100946 67.43763828 -39.21779763 63.29257354 -43.0078125 58.203125 C-44.7499613 52.97667859 -45.01128397 47.48212496 -42.5078125 42.453125 C-37.58818566 35.1076132 -29.56008288 33.26192298 -21.42578125 31.1171875 C-17.83344664 30.15649459 -14.36487862 28.99520366 -10.875 27.71875 C-9.0078125 27.203125 -9.0078125 27.203125 -5.0078125 27.203125 C-5.21021013 24.4903926 -5.44364213 21.78636548 -5.6953125 19.078125 C-5.77555664 17.93730469 -5.77555664 17.93730469 -5.85742188 16.7734375 C-6.42438717 11.0544832 -7.84720545 8.20778726 -12.0078125 4.203125 C-16.48035747 2.71227668 -20.53526753 2.71227668 -25.0078125 4.203125 C-25.92747488 6.40080339 -25.92747488 6.40080339 -26.5078125 9.015625 C-27.42534143 12.71304815 -28.31476126 15.43385533 -31.0078125 18.203125 C-34.46987847 19.08958141 -37.89341545 18.82997334 -41.0078125 17.078125 C-42.62569079 14.0446032 -42.72848565 12.60994351 -42.0078125 9.203125 C-32.30660632 -3.31723511 -13.96874051 -6.50347919 0 0 Z " fill="#1B3C5B" transform="translate(406.0078125,839.796875)"/>
<path d="M0 0 C5.7631963 4.17856965 8.98128961 9.62178433 10.23046875 16.6171875 C10.41092286 19.33863063 10.37201229 21.8806791 10.23046875 24.6171875 C9.23046875 25.6171875 9.23046875 25.6171875 7.43980408 25.73744202 C6.66036942 25.73522141 5.88093475 25.73300079 5.07788086 25.73071289 C4.1970433 25.73063736 3.31620575 25.73056183 2.40867615 25.73048401 C1.45139114 25.72532272 0.49410614 25.72016144 -0.4921875 25.71484375 C-1.46739853 25.7134288 -2.44260956 25.71201385 -3.44737244 25.71055603 C-6.57562268 25.70493883 -9.70380248 25.69238343 -12.83203125 25.6796875 C-14.94726459 25.67467472 -17.06249906 25.67011143 -19.17773438 25.66601562 C-24.37502421 25.65496381 -29.5722727 25.63820896 -34.76953125 25.6171875 C-34.47667529 27.67133857 -34.17719719 29.72454612 -33.875 31.77734375 C-33.70895264 32.92082275 -33.54290527 34.06430176 -33.37182617 35.24243164 C-32.02467512 42.79073686 -29.81434659 48.81631275 -23.54296875 53.5 C-17.73724116 57.15735262 -11.45577155 57.38476419 -4.76953125 56.6171875 C0.01810261 55.16008154 3.82774365 53.32828456 7.23046875 49.6171875 C8.55046875 50.2771875 9.87046875 50.9371875 11.23046875 51.6171875 C9.7665813 55.06888001 7.89274951 57.13097191 5.10546875 59.6171875 C4.01878906 60.6071875 4.01878906 60.6071875 2.91015625 61.6171875 C-3.53898213 66.43053859 -9.02774433 68.35391667 -17.08203125 68.2421875 C-17.91508789 68.2330835 -18.74814453 68.22397949 -19.60644531 68.21459961 C-28.00736993 67.9017297 -33.85825995 65.48500023 -39.87890625 59.53125 C-46.47204554 51.76660249 -48.28300256 43.61789352 -48.14453125 33.6171875 C-48.15613281 32.77929688 -48.16773438 31.94140625 -48.1796875 31.078125 C-48.13146961 20.69520607 -44.83923495 13.17053291 -37.76953125 5.6171875 C-27.82475172 -4.03324337 -12.22277275 -6.87895319 0 0 Z " fill="#1A3B59" transform="translate(619.76953125,840.3828125)"/>
<path d="M0 0 C0 5.94 0 11.88 0 18 C-1.32 18 -2.64 18 -4 18 C-4.24234375 17.32453125 -4.4846875 16.6490625 -4.734375 15.953125 C-7.16263194 9.17012779 -7.16263194 9.17012779 -12 4 C-17.63630456 2.12123181 -23.7491946 1.9849309 -29.1875 4.4375 C-31.4555592 7.64406645 -31.63449894 9.8335206 -31.76171875 13.68359375 C-30.38504469 17.87009487 -26.8358003 20.04659452 -23.07495117 21.99975586 C-20.98046063 22.95207207 -18.86914777 23.85401153 -16.75 24.75 C-8.79987008 28.3079682 -0.21036061 32.53745277 3.2265625 41.03125 C4.73890351 46.8361953 4.90695174 51.01075926 1.875 56.1875 C-2.18574168 62.00485466 -7.16020389 65.83830988 -14 68 C-16.80892264 68.28367338 -19.33010152 68.42931668 -22.125 68.375 C-22.85912109 68.36847412 -23.59324219 68.36194824 -24.34960938 68.35522461 C-41.04848854 67.95151146 -41.04848854 67.95151146 -45 64 C-45.08651611 62.58429877 -45.10704904 61.164405 -45.09765625 59.74609375 C-45.09443359 58.89208984 -45.09121094 58.03808594 -45.08789062 57.15820312 C-45.07951172 56.26037109 -45.07113281 55.36253906 -45.0625 54.4375 C-45.05798828 53.53580078 -45.05347656 52.63410156 -45.04882812 51.70507812 C-45.03700225 49.46998686 -45.0205222 47.23502563 -45 45 C-43.68 45 -42.36 45 -41 45 C-40.54109375 45.97582031 -40.0821875 46.95164062 -39.609375 47.95703125 C-38.99012326 49.24244775 -38.3703015 50.52758975 -37.75 51.8125 C-37.44964844 52.45509766 -37.14929688 53.09769531 -36.83984375 53.75976562 C-35.0573753 57.41951467 -33.57310101 59.96333242 -30 62 C-25.07092769 63.6430241 -21.18901338 63.3765209 -16.25 61.8125 C-12.69473294 59.82975491 -11.48371293 58.75292093 -10 55 C-9.31708268 50.98786075 -9.67432989 49.48655114 -11.953125 46.08203125 C-15.33877528 42.1884132 -19.57715523 40.58705837 -24.25 38.625 C-40.38908464 31.41936707 -40.38908464 31.41936707 -44.1875 23.53515625 C-45.67910957 18.88104755 -45.89505436 14.49888272 -44.23046875 9.8515625 C-40.80110343 3.52601939 -34.89307911 -0.2448738 -28.203125 -2.64453125 C-18.77522981 -4.16569874 -8.76895608 -3.82645356 0 0 Z " fill="#1B3B5A" transform="translate(686,840)"/>
<path d="M0 0 C21.31428571 0 21.31428571 0 27.6875 5.1875 C34.37645187 13.32271173 34.95270795 20.77022868 34.22314453 30.96582031 C33.50828905 37.48242411 31.54761594 43.00110889 26.6875 47.5 C19.37959886 52.83445948 12.86383994 53.65009827 4 53 C2.68 52.67 1.36 52.34 0 52 C0 34.84 0 17.68 0 0 Z " fill="#FBFCFC" transform="translate(305,805)"/>
<path d="M0 0 C0 7.92 0 15.84 0 24 C6.93 24 13.86 24 21 24 C21 25.98 21 27.96 21 30 C14.07 30 7.14 30 0 30 C0.07420305 36.12047214 0.15721841 42.23953746 0.26245117 48.359375 C0.2955876 50.4387265 0.32365424 52.51816552 0.34643555 54.59765625 C0.38018951 57.59673146 0.4325156 60.59501287 0.48828125 63.59375 C0.49467117 64.51490601 0.5010611 65.43606201 0.50764465 66.38513184 C0.63899983 72.22691177 1.47415639 76.69874558 4 82 C8.06738583 84.71159055 11.22987142 84.40999452 16 84 C18.42704396 83.48718197 20.64511366 82.80166344 23 82 C22.8359375 84.328125 22.8359375 84.328125 22 87 C19.6015625 88.546875 19.6015625 88.546875 16.625 89.75 C15.64789062 90.15734375 14.67078125 90.5646875 13.6640625 90.984375 C7.20572669 93.44649716 1.96177503 93.78980668 -4.75 92 C-9.02664537 89.36821823 -11.06251506 86.62187057 -13 82 C-13.64810207 77.93165527 -13.58506579 73.95474181 -13.48828125 69.84375 C-13.48120651 68.70087524 -13.47413177 67.55800049 -13.46684265 66.38049316 C-13.43899621 62.75297841 -13.37627166 59.12704323 -13.3125 55.5 C-13.28740472 53.03127239 -13.26459372 50.56252043 -13.24414062 48.09375 C-13.18920077 42.06189728 -13.10299207 36.03121586 -13 30 C-16.96 30 -20.92 30 -25 30 C-23 26 -23 26 -21 24 C-18.31160615 23.73008094 -15.70858064 23.91262643 -13 24 C-13.11601563 23.10539063 -13.23203125 22.21078125 -13.3515625 21.2890625 C-14.0746889 11.59916875 -14.0746889 11.59916875 -10.87890625 6.84375 C-4.10398707 0 -4.10398707 0 0 0 Z " fill="#183958" transform="translate(722,815)"/>
<path d="M0 0 C0.495 7.92 0.495 7.92 1 16 C1.845625 14.80375 2.69125 13.6075 3.5625 12.375 C7.56971004 7.04465458 12.30916965 1.67270759 19 0 C22.95060656 -0.41585332 25.09547193 -0.60301871 28.4375 1.625 C30.49791771 4.75683492 30.6767545 6.31544773 30 10 C27.9375 12.9375 27.9375 12.9375 25 15 C21.6875 14.8125 21.6875 14.8125 18 14 C13.95428529 13.55304485 10.84071819 13.53293434 7.1875 15.5625 C2.31436784 20.99256155 1.54422173 26.44766169 1.6015625 33.453125 C1.59869232 34.23516296 1.59582214 35.01720093 1.59286499 35.82293701 C1.59083605 37.46334565 1.59628347 39.10377914 1.60888672 40.74414062 C1.62504537 43.25705525 1.60895487 45.76838287 1.58984375 48.28125 C1.59182469 49.88021188 1.59566529 51.47917277 1.6015625 53.078125 C1.59245346 54.20314423 1.59245346 54.20314423 1.5831604 55.35089111 C1.62051344 59.41276271 1.62051344 59.41276271 3.3972168 62.96313477 C5.37677694 64.24374283 6.84594769 64.49556948 9.1875 64.6875 C10.445625 64.790625 11.70375 64.89375 13 65 C13 66.32 13 67.64 13 69 C1.12 69 -10.76 69 -23 69 C-23 67.68 -23 66.36 -23 65 C-22.36191406 64.87882813 -21.72382813 64.75765625 -21.06640625 64.6328125 C-20.24011719 64.46523438 -19.41382813 64.29765625 -18.5625 64.125 C-17.32693359 63.88136719 -17.32693359 63.88136719 -16.06640625 63.6328125 C-15.38449219 63.42398438 -14.70257813 63.21515625 -14 63 C-12.78016252 60.56032503 -12.87948473 59.00095476 -12.88647461 56.27490234 C-12.88655014 55.29403656 -12.88662567 54.31317078 -12.88670349 53.30258179 C-12.89186478 52.24108917 -12.89702606 51.17959656 -12.90234375 50.0859375 C-12.9037587 49.00116119 -12.90517365 47.91638489 -12.90663147 46.79873657 C-12.91224198 43.32413 -12.92479628 39.84958719 -12.9375 36.375 C-12.94251365 34.02343843 -12.94707679 31.67187585 -12.95117188 29.3203125 C-12.96221483 23.54685032 -12.97948653 17.77343598 -13 12 C-16.63 11.34 -20.26 10.68 -24 10 C-24 8.68 -24 7.36 -24 6 C-20.56435978 4.99353274 -17.12620371 3.9959455 -13.6875 3 C-12.71103516 2.71382812 -11.73457031 2.42765625 -10.72851562 2.1328125 C-9.79072266 1.86210938 -8.85292969 1.59140625 -7.88671875 1.3125 C-7.02264404 1.06113281 -6.15856934 0.80976562 -5.26831055 0.55078125 C-3 0 -3 0 0 0 Z " fill="#193A59" transform="translate(457,837)"/>
<path d="M0 0 C0.20391987 3.56165107 0.32782061 7.12180053 0.4375 10.6875 C0.49615234 11.69490234 0.55480469 12.70230469 0.61523438 13.74023438 C0.7842284 21.05526154 0.7842284 21.05526154 -1.48388672 23.78759766 C-6.38292536 27.36939939 -10.91552489 28.51563348 -17 28 C-20.05357079 26.38679279 -22.23833566 24.96939098 -24.375 22.25 C-25.81852456 17.05331159 -25.81120999 13.47756105 -23.25 8.8125 C-17.7525441 3.03069294 -7.83145108 0 0 0 Z " fill="#F8F9FA" transform="translate(401,872)"/>
<path d="M0 0 C4.51993359 3.64105761 6.40905802 6.26423635 7.0625 12.0625 C7.26953125 14.703125 7.26953125 14.703125 7.25 16.8125 C6.25 17.8125 6.25 17.8125 3.47436523 17.92602539 C2.26466064 17.92078857 1.05495605 17.91555176 -0.19140625 17.91015625 C-1.49658203 17.90693359 -2.80175781 17.90371094 -4.14648438 17.90039062 C-5.5351569 17.89203401 -6.92382877 17.88356905 -8.3125 17.875 C-9.70507656 17.86998666 -11.09765481 17.86542347 -12.49023438 17.86132812 C-15.9101987 17.84949434 -19.33007844 17.8330088 -22.75 17.8125 C-21.77607677 10.11783168 -19.29650281 4.8923577 -13.375 -0.25 C-8.69267902 -1.92225749 -4.58027373 -1.97784547 0 0 Z " fill="#F9F9FA" transform="translate(608.75,843.1875)"/>
<path d="M0 0 C0 5.94 0 11.88 0 18 C-1.32 18 -2.64 18 -4 18 C-4.24234375 17.32453125 -4.4846875 16.6490625 -4.734375 15.953125 C-5.06953125 15.06109375 -5.4046875 14.1690625 -5.75 13.25 C-6.07484375 12.36828125 -6.3996875 11.4865625 -6.734375 10.578125 C-8.17575718 7.64197612 -9.40026032 5.99358276 -12 4 C-15.09011609 3.23658824 -15.09011609 3.23658824 -18.4375 3 C-23.58901047 2.52245558 -26.18183821 1.5398285 -30 -2 C-20.79076845 -4.99723022 -8.71301724 -3.80204389 0 0 Z " fill="#224362" transform="translate(686,840)"/>
<path d="M0 0 C11.88 0 23.76 0 36 0 C36 1.65 36 3.3 36 5 C33.69 5 31.38 5 29 5 C29.33 4.01 29.66 3.02 30 2 C15.15 1.505 15.15 1.505 0 1 C0 0.67 0 0.34 0 0 Z " fill="#3A5773" transform="translate(487,799)"/>
<path d="M0 0 C-0.639375 0.28875 -1.27875 0.5775 -1.9375 0.875 C-4.15206079 1.82823451 -4.15206079 1.82823451 -5 4 C-4.34 4.33 -3.68 4.66 -3 5 C-6.3125 5.6875 -6.3125 5.6875 -10 6 C-11.9375 4.5625 -11.9375 4.5625 -13 3 C-4.20833333 -1.55864198 -4.20833333 -1.55864198 0 0 Z " fill="#224468" transform="translate(401,868)"/>
<path d="M0 0 C0.99 0.33 1.98 0.66 3 1 C2.67 1.66 2.34 2.32 2 3 C2.66 3.66 3.32 4.32 4 5 C1.36 5.33 -1.28 5.66 -4 6 C-3.6875 4.125 -3.6875 4.125 -3 2 C-2.01 1.34 -1.02 0.68 0 0 Z " fill="#234666" transform="translate(601,837)"/>
<path d="M0 0 C2.97 0.495 2.97 0.495 6 1 C6 1.66 6 2.32 6 3 C8.64 3 11.28 3 14 3 C14 3.33 14 3.66 14 4 C5.96498906 4.63019694 5.96498906 4.63019694 1.9375 2 C1.298125 1.34 0.65875 0.68 0 0 Z " fill="#3F5E79" transform="translate(656,838)"/>
<path d="M0 0 C1.98 0 3.96 0 6 0 C5.67 0.99 5.34 1.98 5 3 C3.35 3.33 1.7 3.66 0 4 C0 2.68 0 1.36 0 0 Z " fill="#2F5273" transform="translate(434,902)"/>
<path d="M0 0 C-1.65 0.66 -3.3 1.32 -5 2 C-5.66 1.34 -6.32 0.68 -7 0 C-3.86650268 -1.04449911 -3.01031744 -0.93423645 0 0 Z M-7 2 C-6.34 2 -5.68 2 -5 2 C-5 2.66 -5 3.32 -5 4 C-4.34 4.33 -3.68 4.66 -3 5 C-4.65 4.67 -6.3 4.34 -8 4 C-7.67 3.34 -7.34 2.68 -7 2 Z " fill="#425E7C" transform="translate(401,868)"/>
</svg>
