<?xml version="1.0" encoding="UTF-8"?>
<svg version="1.1" xmlns="http://www.w3.org/2000/svg" width="1024" height="1024">
<path d="M0 0 C337.92 0 675.84 0 1024 0 C1024 337.92 1024 675.84 1024 1024 C686.08 1024 348.16 1024 0 1024 C0 686.08 0 348.16 0 0 Z " fill="#224260" transform="translate(0,0)"/>
<path d="M0 0 C337.92 0 675.84 0 1024 0 C1024 337.92 1024 675.84 1024 1024 C686.08 1024 348.16 1024 0 1024 C0 686.08 0 348.16 0 0 Z M55 82 C55 325.21 55 568.42 55 819 C201.85 819 348.7 819 500 819 C500 633.21 500 447.42 500 256 C510.56 256 521.12 256 532 256 C532 441.79 532 627.58 532 819 C536.95 819 541.9 819 547 819 C547 681.72 547 544.44 547 403 C575.05 403 603.1 403 632 403 C632 539.95 632 676.9 632 818 C743.21 818 854.42 818 969 818 C969 575.12 969 332.24 969 82 C667.38 82 365.76 82 55 82 Z " fill="#FBFBFB" transform="translate(0,0)"/>
<path d="M0 0 C3.56409206 0.01076081 7.12814574 0.01041875 10.69225121 0.01000881 C40.11482609 0.01069587 69.57612844 0.04431183 98.87615967 3.00811768 C100.71233552 3.1873762 102.54851729 3.36657413 104.38470459 3.54571533 C141.68105136 7.24240978 179.67614954 12.50502192 214.94647217 25.70343018 C218.26868399 26.9324325 221.62891423 27.95376144 225.02459717 28.96124268 C233.38313403 31.5069228 241.4930275 34.64057459 249.62615967 37.82061768 C250.41984955 38.13030487 251.21353943 38.43999207 252.03128052 38.75906372 C273.04192526 46.98091893 292.65917326 56.77946806 312.12615967 68.19561768 C313.39048828 68.93328369 313.39048828 68.93328369 314.68035889 69.68585205 C329.72234879 78.50471116 342.93422388 88.84277214 356.12615967 100.19561768 C356.81967529 100.7756958 357.51319092 101.35577393 358.22772217 101.95343018 C368.86432752 110.96059811 378.67992401 121.11834224 387.12615967 132.19561768 C387.55493408 132.75329834 387.9837085 133.310979 388.42547607 133.88555908 C404.90172546 155.41164155 418.38690312 179.82827641 425.12615967 206.19561768 C425.48019786 207.49122571 425.83436816 208.78679764 426.18865967 210.08233643 C429.24311204 221.66113332 430.42618873 233.26075972 431.12615967 245.19561768 C431.19963623 246.43311768 431.27311279 247.67061768 431.34881592 248.94561768 C431.85905695 268.11293296 429.41105324 288.06425102 423.12615967 306.19561768 C422.89525635 306.87479248 422.66435303 307.55396729 422.42645264 308.25372314 C418.99785945 318.20960369 414.79754605 327.76573862 410.12615967 337.19561768 C409.6821582 338.10561523 409.6821582 338.10561523 409.22918701 339.03399658 C401.17779891 355.40210756 390.31727985 369.69980039 378.12615967 383.19561768 C377.57750244 383.80598877 377.02884521 384.41635986 376.46356201 385.04522705 C370.34693115 391.82392218 364.2449042 398.45110035 357.12615967 404.19561768 C356.07516155 405.07035717 355.02440335 405.94538497 353.97381592 406.82061768 C322.17490728 433.04283577 285.54348816 451.92698942 247.43084717 467.16046143 C245.01497695 468.18362484 245.01497695 468.18362484 242.50897217 469.82452393 C240.12615967 471.19561768 240.12615967 471.19561768 237.12615967 471.19561768 C244.05929697 456.87997306 255.71442467 447.30243798 268.18865967 437.88311768 C272.19217241 434.22032942 275.45352766 430.08916287 278.81512451 425.83917236 C280.20031177 424.10265829 281.60821822 422.386559 283.02069092 420.67218018 C300.0471904 399.90546939 313.13867975 377.11301621 323.12615967 352.19561768 C323.48314941 351.33347656 323.84013916 350.47133545 324.20794678 349.58306885 C327.09330352 342.55885374 328.81129584 335.67067031 330.12615967 328.19561768 C330.26441162 327.42282471 330.40266357 326.65003174 330.54510498 325.8538208 C337.3208441 286.91243979 330.17921644 246.85200264 307.92303467 213.72296143 C295.53607552 196.30043411 281.64079078 178.89861804 265.12615967 165.19561768 C263.67596436 163.91364502 263.67596436 163.91364502 262.19647217 162.60577393 C242.03409868 144.80629541 219.71650489 130.937505 196.12615967 118.19561768 C195.26426025 117.72510986 194.40236084 117.25460205 193.51434326 116.76983643 C163.9138298 100.65984597 132.3799616 87.78118727 99.36785889 80.68829346 C96.0171009 79.95187115 92.70068673 79.10554614 89.37615967 78.25811768 C88.08205163 77.9345492 86.78777454 77.61165628 85.49334717 77.28936768 C83.15711083 76.70667769 80.8227917 76.11783678 78.49041748 75.51983643 C56.75527195 69.96158382 34.62951302 65.75070365 12.30076599 63.42350769 C10.83371926 63.26976708 9.36717369 63.11117717 7.90113831 62.94807434 C-10.80529431 60.91291353 -29.47978043 60.85307231 -48.27105713 60.87994385 C-51.78909099 60.8845706 -55.30677874 60.87765465 -58.82476807 60.85943604 C-80.41147974 60.74874538 -101.438794 61.41127701 -122.87384033 64.19561768 C-124.51769951 64.39419569 -126.16180102 64.59078516 -127.80621338 64.784729 C-131.66634547 65.24504097 -135.52029406 65.74529635 -139.37384033 66.25811768 C-141.23202393 66.4988501 -141.23202393 66.4988501 -143.12774658 66.7444458 C-156.37067829 67.67715139 -156.37067829 67.67715139 -168.87384033 71.19561768 C-170.51447363 71.49635082 -172.16184288 71.76057738 -173.81134033 72.00811768 C-197.28195714 75.82762843 -220.8313559 81.28720702 -243.40118408 88.75421143 C-247.2135861 90.00887318 -251.05535898 91.08895822 -254.92877197 92.13751221 C-293.3612176 102.60718243 -332.67117566 117.46575101 -367.76593018 136.31719971 C-369.87384033 137.19561768 -369.87384033 137.19561768 -373.87384033 137.19561768 C-372.33882827 131.737797 -368.67316256 128.21413157 -364.87384033 124.19561768 C-363.99212158 123.26104736 -363.11040283 122.32647705 -362.20196533 121.36358643 C-355.312355 114.20183416 -347.90169869 108.04478691 -339.87384033 102.19561768 C-338.46486552 101.1541142 -337.05601776 100.11243884 -335.64727783 99.07061768 C-319.08154569 86.89285937 -301.90055108 76.08026407 -283.87384033 66.19561768 C-282.86063721 65.63970947 -281.84743408 65.08380127 -280.80352783 64.51104736 C-253.24127474 49.51941646 -224.01901461 36.99596048 -193.87384033 28.19561768 C-192.25120349 27.70292113 -190.62883111 27.20935318 -189.00665283 26.71514893 C-166.12067091 19.81334847 -142.57920168 12.8801549 -118.83477783 9.73077393 C-114.95654585 9.20679189 -111.15273325 8.50224146 -107.31134033 7.75811768 C-98.73776397 6.18181462 -90.08824397 5.16647924 -81.43634033 4.13311768 C-80.42565994 4.00998703 -80.42565994 4.00998703 -79.39456177 3.8843689 C-74.22687063 3.25888354 -69.05340932 2.71280059 -63.87384033 2.19561768 C-62.99678436 2.10454742 -62.11972839 2.01347717 -61.21609497 1.91964722 C-40.81968694 -0.13903949 -20.47519764 -0.07755581 0 0 Z " fill="#FAFAFB" transform="translate(475.87384033203125,138.80438232421875)"/>
<path d="M0 0 C6.22553948 -0.09948619 12.45060782 -0.17175931 18.67675781 -0.21972656 C20.79109772 -0.23974016 22.90538299 -0.26695972 25.01953125 -0.30175781 C28.07305448 -0.35072941 31.12584078 -0.37307182 34.1796875 -0.390625 C35.11239471 -0.41127014 36.04510193 -0.43191528 37.006073 -0.45318604 C44.91367035 -0.45584004 52.03211008 1.5274202 58.4375 6.3125 C63.36470646 11.48005799 64.18327574 15.53401857 64.375 22.5 C64.19473986 29.33421052 63.18613652 33.31417513 58.8125 38.6875 C53.05044523 43.42518948 46.94578788 46.1372793 39.45703125 46.09765625 C38.00647339 46.09390991 38.00647339 46.09390991 36.52661133 46.09008789 C35.30095459 46.08098389 34.07529785 46.07187988 32.8125 46.0625 C26.9653125 46.0315625 26.9653125 46.0315625 21 46 C21 56.56 21 67.12 21 78 C25.29 78 29.58 78 34 78 C34 79.65 34 81.3 34 83 C22.78 83 11.56 83 0 83 C0 81.35 0 79.7 0 78 C3.3 78 6.6 78 10 78 C10 53.58 10 29.16 10 4 C6.7 4 3.4 4 0 4 C0 2.68 0 1.36 0 0 Z " fill="#254463" transform="translate(305,879)"/>
<path d="M0 0 C3.85932215 2.63450734 6.31535497 5.89194794 7.50341797 10.41699219 C8.10005885 14.25630238 8.08020592 18.04407284 8.0546875 21.91796875 C8.05327255 22.73214767 8.0518576 23.5463266 8.05039978 24.38517761 C8.04482442 26.97296906 8.03227649 29.56067242 8.01953125 32.1484375 C8.01451306 33.90820187 8.00995071 35.66796761 8.00585938 37.42773438 C7.99486306 41.73050244 7.97761546 46.03320506 7.95703125 50.3359375 C10.92703125 50.3359375 13.89703125 50.3359375 16.95703125 50.3359375 C16.95703125 51.9859375 16.95703125 53.6359375 16.95703125 55.3359375 C11.01703125 55.3359375 5.07703125 55.3359375 -1.04296875 55.3359375 C-1.70296875 53.6859375 -2.36296875 52.0359375 -3.04296875 50.3359375 C-3.59984375 50.9546875 -4.15671875 51.5734375 -4.73046875 52.2109375 C-9.290513 56.40124843 -13.98728417 56.6998081 -19.98046875 56.7109375 C-20.67076172 56.73542969 -21.36105469 56.75992188 -22.07226562 56.78515625 C-28.05597404 56.81918682 -31.43858244 54.8104138 -35.6875 50.7734375 C-39.73840022 45.78771415 -39.73840022 45.78771415 -40.04296875 42.3359375 C-40.18734375 41.0984375 -40.33171875 39.8609375 -40.48046875 38.5859375 C-40.40159237 33.30122009 -37.70060031 29.94554764 -34.04296875 26.3359375 C-29.00428964 22.57589094 -24.25689697 21.20048672 -18.05859375 21.23828125 C-17.12402344 21.24150391 -16.18945312 21.24472656 -15.2265625 21.24804688 C-13.77443359 21.26061523 -13.77443359 21.26061523 -12.29296875 21.2734375 C-11.30941406 21.27794922 -10.32585937 21.28246094 -9.3125 21.28710938 C-6.88926084 21.29887267 -4.46614602 21.31531066 -2.04296875 21.3359375 C-2.27180705 19.08368684 -2.52686098 16.83408933 -2.79296875 14.5859375 C-2.9321875 13.33296875 -3.07140625 12.08 -3.21484375 10.7890625 C-4.12093161 7.0108471 -5.03346161 5.7021912 -8.04296875 3.3359375 C-12.2234514 1.24569618 -17.48937129 1.903711 -22.04296875 2.3359375 C-26.49756787 4.69960234 -28.07229892 7.77228106 -30.04296875 12.3359375 C-31.69296875 12.3359375 -33.34296875 12.3359375 -35.04296875 12.3359375 C-35.04296875 8.7059375 -35.04296875 5.0759375 -35.04296875 1.3359375 C-24.46249472 -4.03827153 -10.97423026 -5.27211743 0 0 Z " fill="#294867" transform="translate(414.04296875,906.6640625)"/>
<path d="M0 0 C7.25121317 7.75711177 8.6875 14.22160835 8.6875 24.875 C-4.5125 24.875 -17.7125 24.875 -31.3125 24.875 C-30.25269973 38.7012482 -30.25269973 38.7012482 -22.6875 48.25 C-17.45014427 50.77168979 -12.65245389 50.80437847 -7.06640625 49.25 C-1.50443602 46.8948368 1.01947568 43.15974049 3.6875 37.875 C5.3375 38.205 6.9875 38.535 8.6875 38.875 C6.83744153 44.98019297 2.70631371 49.94733304 -2.6875 53.3125 C-9.40347208 56.30746052 -18.95514602 56.14024649 -25.94921875 54.109375 C-27.90010955 53.17294742 -29.57123688 52.15429535 -31.3125 50.875 C-32.6428125 50.00875 -32.6428125 50.00875 -34 49.125 C-41.3437495 41.97973021 -43.2916892 33.90937862 -43.6875 23.9375 C-43.49243107 14.90695595 -40.33937993 8.10942718 -34.1796875 1.56640625 C-24.21903045 -7.45653204 -11.0101852 -7.06313768 0 0 Z " fill="#254563" transform="translate(602.3125,908.125)"/>
<path d="M0 0 C10.56 0 21.12 0 32 0 C32 1.32 32 2.64 32 4 C28.04 4 24.08 4 20 4 C25.55680523 19.74063528 31.13984454 35.47159613 36.82531738 51.16629028 C37.35875454 52.63963458 37.89122432 54.11332947 38.42272949 55.58737183 C39.16701899 57.65042924 39.91498312 59.71211525 40.6640625 61.7734375 C41.09154785 62.95341309 41.5190332 64.13338867 41.95947266 65.34912109 C42.75050712 67.88379107 42.75050712 67.88379107 44 69 C44.31751221 68.06728271 44.63502441 67.13456543 44.9621582 66.17358398 C46.15031726 62.68565957 47.34209031 59.19897877 48.53491211 55.71264648 C49.04890706 54.20874729 49.56194492 52.70452061 50.07397461 51.19995117 C50.81367529 49.02694539 51.55690566 46.85517338 52.30078125 44.68359375 C52.52590897 44.01976181 52.75103668 43.35592987 52.98298645 42.67198181 C54.46669899 38.3548473 56.19644828 34.19138659 58 30 C58.70606252 28.03094671 59.38792492 26.05301459 60.04296875 24.06640625 C60.39423828 23.00615234 60.74550781 21.94589844 61.10742188 20.85351562 C61.46384766 19.76748047 61.82027344 18.68144531 62.1875 17.5625 C62.55552734 16.44939453 62.92355469 15.33628906 63.30273438 14.18945312 C64.20456806 11.46052782 65.10357399 8.73070546 66 6 C66.66 6 67.32 6 68 6 C68 5.34 68 4.68 68 4 C63.38 4 58.76 4 54 4 C54 2.68 54 1.36 54 0 C62.58 0 71.16 0 80 0 C80 1.32 80 2.64 80 4 C77.69 4.33 75.38 4.66 73 5 C70.95319357 10.70602651 68.90862098 16.41284707 66.8659668 22.12036133 C66.17319601 24.05514249 65.47985301 25.98971888 64.78588867 27.92407227 C61.08544475 38.23989463 57.41895273 48.55752059 54.02050781 58.97729492 C52.80801551 62.56865071 51.4252607 66.06742916 49.98046875 69.5703125 C48.19327401 73.99913771 46.60716786 78.50334949 45 83 C42.03 83 39.06 83 36 83 C35.56300781 81.80177612 35.56300781 81.80177612 35.1171875 80.5793457 C30.08574607 66.79331484 25.04723381 53.0130743 19.7902832 39.31103516 C16.97465549 31.96458771 14.24906808 24.58660623 11.54296875 17.19921875 C10.05001601 13.12468211 8.52820281 9.06143991 7 5 C4.69 4.67 2.38 4.34 0 4 C0 2.68 0 1.36 0 0 Z " fill="#264563" transform="translate(483,879)"/>
<path d="M0 0 C0.54785156 0.28875 1.09570312 0.5775 1.66015625 0.875 C1.99015625 -0.115 2.32015625 -1.105 2.66015625 -2.125 C4.31015625 -2.125 5.96015625 -2.125 7.66015625 -2.125 C7.66015625 3.155 7.66015625 8.435 7.66015625 13.875 C6.01015625 13.875 4.36015625 13.875 2.66015625 13.875 C1.25390625 12.23046875 1.25390625 12.23046875 0.16015625 10.0625 C-2.22606182 5.828646 -4.46165711 3.72646355 -9.21484375 2.3203125 C-11.45184279 1.85152961 -13.49301304 1.70729489 -15.77734375 1.6875 C-16.88916016 1.66623047 -16.88916016 1.66623047 -18.0234375 1.64453125 C-20.8727369 1.81977008 -20.8727369 1.81977008 -25.33984375 3.875 C-25.33984375 7.505 -25.33984375 11.135 -25.33984375 14.875 C-22.27287716 16.10178663 -19.2094452 17.31686362 -16.125 18.49609375 C-15.35607422 18.79193359 -14.58714844 19.08777344 -13.79492188 19.39257812 C-12.20458004 20.00404833 -10.6134362 20.61343684 -9.02148438 21.22070312 C-0.78233499 24.39915322 5.59578434 27.27844214 10.66015625 34.875 C11.11960187 40.48023661 10.86483431 44.06798292 7.66015625 48.875 C1.77716805 54.50220611 -2.9777735 56.26523097 -11.02734375 56.25 C-12.08211914 56.25193359 -12.08211914 56.25193359 -13.15820312 56.25390625 C-19.14176821 56.13324774 -24.04717745 54.72489724 -29.33984375 51.875 C-29.66984375 52.865 -29.99984375 53.855 -30.33984375 54.875 C-31.65984375 54.875 -32.97984375 54.875 -34.33984375 54.875 C-34.33984375 49.265 -34.33984375 43.655 -34.33984375 37.875 C-33.01984375 37.875 -31.69984375 37.875 -30.33984375 37.875 C-29.13671875 39.44921875 -29.13671875 39.44921875 -28.08984375 41.5625 C-25.34946953 46.2236199 -22.49606133 49.04919181 -17.33984375 50.875 C-12.11107379 51.58122348 -7.40146346 51.82651679 -2.546875 49.5859375 C-0.26672863 48.08486238 -0.26672863 48.08486238 0.54296875 46.0078125 C0.62289062 45.34523438 0.7028125 44.68265625 0.78515625 44 C0.89085937 43.34257813 0.9965625 42.68515625 1.10546875 42.0078125 C0.39306503 38.59577364 -1.57753771 36.79102824 -4.33984375 34.875 C-7.71331706 33.28957649 -11.19001093 32.07931788 -14.71484375 30.875 C-22.25884854 28.27580507 -28.92574507 25.83975976 -34.27734375 19.625 C-35.81730834 15.6392093 -36.01007462 12.09000748 -35.33984375 7.875 C-28.37310123 -5.80045754 -12.58915879 -5.89541095 0 0 Z " fill="#284766" transform="translate(658.33984375,907.125)"/>
<path d="M0 0 C3.34125 -0.0825 6.6825 -0.165 10.125 -0.25 C11.16672363 -0.28641602 12.20844727 -0.32283203 13.28173828 -0.36035156 C19.21193339 -0.43107133 22.48059165 0.07544154 27 4 C31.63224529 9.27117568 31.40268926 14.7093665 31.33984375 21.46875 C30.88151774 26.23112603 29.65215773 29.81339204 26 33 C20.27894307 36.16701366 15.50769683 36.37714688 9.0625 36.1875 C4.5765625 36.0946875 4.5765625 36.0946875 0 36 C0 24.12 0 12.24 0 0 Z " fill="#FAFBFB" transform="translate(326,884)"/>
<path d="M0 0 C3.3 0 6.6 0 10 0 C10 6.93 10 13.86 10 21 C15.94 21 21.88 21 28 21 C28 22.65 28 24.3 28 26 C22.06 26 16.12 26 10 26 C10.06892137 32.03271442 10.15691082 38.0647387 10.26245117 44.09692383 C10.29567083 46.14827816 10.32371197 48.19972325 10.34643555 50.2512207 C10.3800357 53.20302949 10.43235476 56.15400886 10.48828125 59.10546875 C10.49467117 60.02023483 10.5010611 60.93500092 10.50764465 61.87748718 C10.61951582 66.74088036 10.88987902 70.01368661 14 74 C18.93894561 73.76623573 18.93894561 73.76623573 22.875 71.125 C24.11987426 68.91437553 24.11987426 68.91437553 25 66 C26.65 66 28.3 66 30 66 C29.62610764 67.42261484 29.22470957 68.83801142 28.8125 70.25 C28.48185547 71.43335938 28.48185547 71.43335938 28.14453125 72.640625 C26.6022734 75.81988692 25.00449811 77.14819715 22 79 C16.74279684 79.89157247 10.77143435 80.25883822 5.82421875 78.01171875 C2.49031137 75.33962921 0.23560899 72.1075958 -0.24050903 67.84857178 C-0.23606781 67.07579895 -0.23162659 66.30302612 -0.22705078 65.50683594 C-0.22689972 64.62622498 -0.22674866 63.74561401 -0.22659302 62.83831787 C-0.21627045 61.89651672 -0.20594788 60.95471558 -0.1953125 59.984375 C-0.1924826 59.01340881 -0.18965271 58.04244263 -0.18673706 57.04205322 C-0.17555292 53.94457615 -0.15045142 50.8473895 -0.125 47.75 C-0.11496792 45.64844168 -0.10584247 43.54687882 -0.09765625 41.4453125 C-0.07561934 36.29676331 -0.04110145 31.14843087 0 26 C-2.97 26 -5.94 26 -9 26 C-9 24.35 -9 22.7 -9 21 C-6.03 21 -3.06 21 0 21 C0 14.07 0 7.14 0 0 Z " fill="#244361" transform="translate(686,884)"/>
<path d="M0 0 C1.546875 0.00966797 1.546875 0.00966797 3.125 0.01953125 C6 0.1875 6 0.1875 10 1.1875 C10 5.4775 10 9.7675 10 14.1875 C8.02 14.1875 6.04 14.1875 4 14.1875 C3.525625 13.218125 3.05125 12.24875 2.5625 11.25 C1.29806053 8.38272563 1.29806053 8.38272563 0 7.1875 C-4.52285132 6.61747122 -7.97343495 6.57592933 -11.9375 8.9375 C-16.20578692 13.59381301 -16.3262634 17.7296851 -16.4140625 23.890625 C-16.43342865 24.72841492 -16.4527948 25.56620483 -16.4727478 26.42938232 C-16.53240724 29.09865213 -16.57887413 31.76796539 -16.625 34.4375 C-16.66319236 36.25001854 -16.70224482 38.06251918 -16.7421875 39.875 C-16.83809752 44.31235415 -16.9221788 48.74979325 -17 53.1875 C-13.04 53.1875 -9.08 53.1875 -5 53.1875 C-5 54.8375 -5 56.4875 -5 58.1875 C-15.56 58.1875 -26.12 58.1875 -37 58.1875 C-37 56.5375 -37 54.8875 -37 53.1875 C-33.7 53.1875 -30.4 53.1875 -27 53.1875 C-27 37.6775 -27 22.1675 -27 6.1875 C-30.3 6.1875 -33.6 6.1875 -37 6.1875 C-37 4.5375 -37 2.8875 -37 1.1875 C-30.4 1.1875 -23.8 1.1875 -17 1.1875 C-16.67 3.1675 -16.34 5.1475 -16 7.1875 C-15.0925 6.40375 -14.185 5.62 -13.25 4.8125 C-8.90909152 1.06353359 -5.7941346 -0.07966935 0 0 Z " fill="#284765" transform="translate(474,903.8125)"/>
<path d="M0 0 C0.77923828 0.01804687 1.55847656 0.03609375 2.36132812 0.0546875 C4.26226131 0.10133617 6.16255169 0.17306171 8.0625 0.25 C9.09538573 18.32550034 9.09538573 18.32550034 5.375 22.75 C1.65109933 25.96055922 -1.47432347 27.11698395 -6.375 27.5625 C-10.38209804 27.21100017 -12.61590379 26.51472469 -15.9375 24.25 C-19.3136255 19.52342431 -19.67620463 14.8683169 -18.9375 9.25 C-17.34387239 5.03157397 -14.89354373 3.25072611 -10.98999023 1.08129883 C-7.37234855 -0.38391705 -3.84464372 -0.17131232 0 0 Z " fill="#F5F6F7" transform="translate(403.9375,931.75)"/>
<path d="M0 0 C4.18145284 1.72712182 6.42475328 4.32107611 9 8 C10 11 10 11 10 21 C0.43 21 -9.14 21 -19 21 C-19 11.77268495 -18.55848729 8.18645564 -12.875 1.5 C-8.60213169 -0.72932259 -4.72188887 -0.63893546 0 0 Z " fill="#F4F5F7" transform="translate(590,908)"/>
<path d="M0 0 C8.58 0 17.16 0 26 0 C26 1.32 26 2.64 26 4 C23.69 4.33 21.38 4.66 19 5 C16.95319357 10.70602651 14.90862098 16.41284707 12.8659668 22.12036133 C12.17319601 24.05514249 11.47985301 25.98971888 10.78588867 27.92407227 C6.72615572 39.24149389 2.7302355 50.56913528 -1 62 C-1.66 62 -2.32 62 -3 62 C-3.33 62.99 -3.66 63.98 -4 65 C-5.485 65.495 -5.485 65.495 -7 66 C-8.2551966 62.2344102 -7.54082157 60.96703041 -6.234375 57.265625 C-5.64076172 55.56792969 -5.64076172 55.56792969 -5.03515625 53.8359375 C-4.61105469 52.65257812 -4.18695312 51.46921875 -3.75 50.25 C-3.34136719 49.08210937 -2.93273437 47.91421875 -2.51171875 46.7109375 C-0.93394398 42.23634797 0.6518974 37.80515335 2.53515625 33.44921875 C4.73823716 28.26169757 6.43090513 22.91487317 8.1875 17.5625 C8.55552734 16.44939453 8.92355469 15.33628906 9.30273438 14.18945312 C10.20456806 11.46052782 11.10357399 8.73070546 12 6 C12.66 6 13.32 6 14 6 C14 5.34 14 4.68 14 4 C9.38 4 4.76 4 0 4 C0 2.68 0 1.36 0 0 Z " fill="#2C4C6A" transform="translate(537,879)"/>
<path d="M0 0 C1.65 0 3.3 0 5 0 C5 5.28 5 10.56 5 16 C3.35 16 1.7 16 0 16 C-1.40625 14.35546875 -1.40625 14.35546875 -2.5 12.1875 C-4.53939656 8.56261646 -6.13698887 6.78292821 -10 5 C-10.763125 4.608125 -11.52625 4.21625 -12.3125 3.8125 C-12.869375 3.544375 -13.42625 3.27625 -14 3 C-12.02 3 -10.04 3 -8 3 C-8 2.34 -8 1.68 -8 1 C-5.69 1.66 -3.38 2.32 -1 3 C-0.67 2.01 -0.34 1.02 0 0 Z " fill="#314E6B" transform="translate(661,905)"/>
<path d="M0 0 C2.475 0.495 2.475 0.495 5 1 C3.29409646 6.62948167 -0.17846804 11.12786821 -5.06640625 14.37109375 C-7.04642742 15.42491717 -8.84492024 16.37507282 -11 17 C-11.99 16.67 -12.98 16.34 -14 16 C-13.67 15.67 -13.34 15.34 -13 15 C-13.66 14.34 -14.32 13.68 -15 13 C-14.33613281 12.731875 -13.67226563 12.46375 -12.98828125 12.1875 C-6.44793615 9.28492349 -3.06243747 6.49559106 0 0 Z " fill="#2E4D6C" transform="translate(606,946)"/>
<path d="M0 0 C1.62433191 2.50076998 2.07333427 3.58982529 1.5390625 6.578125 C1.23742187 7.45984375 0.93578125 8.3415625 0.625 9.25 C0.32851563 10.14203125 0.03203125 11.0340625 -0.2734375 11.953125 C-0.51320313 12.62859375 -0.75296875 13.3040625 -1 14 C-1.66 14 -2.32 14 -3 14 C-3.33 14.99 -3.66 15.98 -4 17 C-4.99 17.33 -5.98 17.66 -7 18 C-8.3274855 14.01754349 -6.99907829 11.55210457 -5.5625 7.8125 C-5.19801758 6.83120117 -5.19801758 6.83120117 -4.82617188 5.83007812 C-4.2256707 4.21696714 -3.61390797 2.6080565 -3 1 C-2.34 1.33 -1.68 1.66 -1 2 C-0.67 1.34 -0.34 0.68 0 0 Z " fill="#395671" transform="translate(537,927)"/>
<path d="M0 0 C1.65 0 3.3 0 5 0 C3.79811746 4.57301648 2.85482305 8.12380637 -0.5 11.5625 C-3 13 -3 13 -6 13 C-6.3125 10.8125 -6.3125 10.8125 -6 8 C-3.5625 5.375 -3.5625 5.375 -1 3 C-0.67 2.01 -0.34 1.02 0 0 Z " fill="#315170" transform="translate(711,950)"/>
<path d="M0 0 C2.43757413 -0.02698422 4.87484915 -0.04683099 7.3125 -0.0625 C8.00279297 -0.07087891 8.69308594 -0.07925781 9.40429688 -0.08789062 C12.5483025 -0.10307906 14.99420019 -0.00193327 18 1 C18 1.99 18 2.98 18 4 C15.56131832 4.1079859 13.12740867 4.18726589 10.6875 4.25 C9.99720703 4.28351562 9.30691406 4.31703125 8.59570312 4.3515625 C6.57421875 4.390625 6.57421875 4.390625 3 4 C1.01953125 1.984375 1.01953125 1.984375 0 0 Z " fill="#294664" transform="translate(635,904)"/>
<path d="M0 0 C0 3.74814879 -1.36671178 4.5535328 -3.75390625 7.23828125 C-5.88553967 10.25196988 -6.31859301 13.40712679 -7 17 C-7.33 17 -7.66 17 -8 17 C-8.56946521 11.68499135 -8.36651929 8.91337419 -5.125 4.5625 C-3.44722836 2.49162728 -2.38655791 1.19327895 0 0 Z " fill="#4A657F" transform="translate(382,932)"/>
<path d="M0 0 C1.21816406 0.03480469 1.21816406 0.03480469 2.4609375 0.0703125 C3.68683594 0.09738281 3.68683594 0.09738281 4.9375 0.125 C5.87722656 0.15980469 5.87722656 0.15980469 6.8359375 0.1953125 C6.5059375 0.8553125 6.1759375 1.5153125 5.8359375 2.1953125 C4.5159375 2.1953125 3.1959375 2.1953125 1.8359375 2.1953125 C1.8359375 2.8553125 1.8359375 3.5153125 1.8359375 4.1953125 C-0.1440625 4.1953125 -2.1240625 4.1953125 -4.1640625 4.1953125 C-4.1640625 1.13098089 -2.96049401 0.2671926 0 0 Z " fill="#325170" transform="translate(643.1640625,958.8046875)"/>
<path d="M0 0 C3.96 0 7.92 0 12 0 C12 0.99 12 1.98 12 3 C7.45194365 3.17835515 4.1205746 2.99785435 0 1 C0 0.67 0 0.34 0 0 Z " fill="#2A4D6B" transform="translate(457,957)"/>
<path d="M0 0 C1.65 0.33 3.3 0.66 5 1 C5 1.66 5 2.32 5 3 C5.66 3.33 6.32 3.66 7 4 C3.75 4.75 3.75 4.75 0 5 C-2.4375 3.0625 -2.4375 3.0625 -4 1 C-2.02 1.66 -0.04 2.32 2 3 C2 2.34 2 1.68 2 1 C1.34 0.67 0.68 0.34 0 0 Z " fill="#2C4966" transform="translate(636,957)"/>
<path d="M0 0 C1 2 1 2 0.75 4.0625 C0.5025 4.701875 0.255 5.34125 0 6 C-0.99 6.33 -1.98 6.66 -3 7 C-3.99 6.34 -4.98 5.68 -6 5 C-4.02 3.35 -2.04 1.7 0 0 Z " fill="#33526F" transform="translate(464,906)"/>
<path d="M0 0 C2.0625 0.4375 2.0625 0.4375 4 1 C3.01 1.495 3.01 1.495 2 2 C3.65 2.33 5.3 2.66 7 3 C7 3.33 7 3.66 7 4 C4.03 4.66 1.06 5.32 -2 6 C-1.125 1.125 -1.125 1.125 0 0 Z " fill="#1E3D5A" transform="translate(466,905)"/>
<path d="M0 0 C2.97 0 5.94 0 9 0 C8.01 1.485 8.01 1.485 7 3 C4.5 3.375 4.5 3.375 2 3 C1.34 2.01 0.68 1.02 0 0 Z " fill="#1B3A5C" transform="translate(639,904)"/>
<path d="M0 0 C0 1.65 0 3.3 0 5 C-1.65 5.33 -3.3 5.66 -5 6 C-4.67 5.34 -4.34 4.68 -4 4 C-4.66 3.34 -5.32 2.68 -6 2 C-2.25 0 -2.25 0 0 0 Z " fill="#355573" transform="translate(597,957)"/>
<path d="M0 0 C0 0.33 0 0.66 0 1 C-2.31 1 -4.62 1 -7 1 C-7.33 1.99 -7.66 2.98 -8 4 C-9.32 3.67 -10.64 3.34 -12 3 C-12 2.34 -12 1.68 -12 1 C-8.0186217 -0.3271261 -4.14954773 -0.06915913 0 0 Z " fill="#576F89" transform="translate(589,903)"/>
<path d="M0 0 C2.64 0.33 5.28 0.66 8 1 C7.67 1.99 7.34 2.98 7 4 C4.69 4 2.38 4 0 4 C-0.33 3.34 -0.66 2.68 -1 2 C-0.67 1.34 -0.34 0.68 0 0 Z " fill="#304E6D" transform="translate(582,904)"/>
<path d="M0 0 C2.475 0.99 2.475 0.99 5 2 C4.01 2.33 3.02 2.66 2 3 C1.360625 3.226875 0.72125 3.45375 0.0625 3.6875 C-2.56628048 4.08580007 -3.76885014 3.3546267 -6 2 C-4.02 2 -2.04 2 0 2 C0 1.34 0 0.68 0 0 Z " fill="#395572" transform="translate(653,906)"/>
</svg>
