<?xml version="1.0" encoding="UTF-8"?>
<svg version="1.1" xmlns="http://www.w3.org/2000/svg" width="1024" height="1024">
<path d="M0 0 C337.92 0 675.84 0 1024 0 C1024 337.92 1024 675.84 1024 1024 C686.08 1024 348.16 1024 0 1024 C0 686.08 0 348.16 0 0 Z " fill="#FDFDFD" transform="translate(0,0)"/>
<path d="M0 0 C271.26 0 542.52 0 822 0 C822 218.79 822 437.58 822 663 C722.01 663 622.02 663 519 663 C519 539.25 519 415.5 519 288 C493.92 288 468.84 288 443 288 C443 411.75 443 535.5 443 663 C438.38 663 433.76 663 429 663 C429 495.69 429 328.38 429 156 C419.76 156 410.52 156 401 156 C401 323.31 401 490.62 401 663 C268.67 663 136.34 663 0 663 C0 444.21 0 225.42 0 0 Z " fill="#1C4062" transform="translate(101,75)"/>
<path d="M0 0 C1.14976979 -0.00735955 1.14976979 -0.00735955 2.32276726 -0.01486778 C72.73060228 -0.46006695 144.42984294 2.64569269 211.70214844 25.62402344 C214.43915018 26.53539141 217.21277261 27.31444848 219.984375 28.11328125 C228.23832497 30.63678188 236.1726562 34.00192167 244.15332031 37.26855469 C246.29535365 38.1363797 248.44412788 38.97997464 250.6015625 39.80859375 C259.89929166 43.40581243 268.73714674 47.59659647 277.546875 52.23828125 C278.24651367 52.60405273 278.94615234 52.96982422 279.66699219 53.34667969 C296.19388722 62.04859585 312.32667964 72.08426813 326.546875 84.23828125 C327.49691406 85.0065625 328.44695313 85.77484375 329.42578125 86.56640625 C365.70471305 116.09998059 394.00320173 158.23340924 400.984375 205.17578125 C403.09136546 225.92517113 403.08479753 248.07808128 397.546875 268.23828125 C397.32193359 269.0595752 397.09699219 269.88086914 396.86523438 270.72705078 C389.74347313 295.99164594 377.67457135 318.30034111 360.546875 338.23828125 C359.87269531 339.02460938 359.19851563 339.8109375 358.50390625 340.62109375 C348.77796796 351.67910238 338.40870459 362.47007339 326.546875 371.23828125 C325.45401094 372.07106876 324.36159479 372.90444426 323.26953125 373.73828125 C297.26733082 393.40670333 268.24121359 408.15428937 238.00927734 420.1418457 C235.4424601 421.21461793 235.4424601 421.21461793 232.85400391 422.93432617 C232.09265137 423.36463135 231.33129883 423.79493652 230.546875 424.23828125 C229.886875 423.90828125 229.226875 423.57828125 228.546875 423.23828125 C229.000625 422.84640625 229.454375 422.45453125 229.921875 422.05078125 C231.68441324 420.31541182 231.68441324 420.31541182 232.37109375 417.921875 C235.46895333 410.85134499 242.98305574 405.60615695 248.921875 400.92578125 C261.06713994 391.15157225 270.36506658 378.72671119 279.546875 366.23828125 C280.2378125 365.29855469 280.92875 364.35882813 281.640625 363.390625 C292.56985734 348.11453889 301.17430385 331.89232994 307.546875 314.23828125 C307.78696289 313.64764893 308.02705078 313.0570166 308.27441406 312.44848633 C310.43677039 307.04327549 311.63642648 301.64503256 312.671875 295.92578125 C312.84364258 294.99080811 313.01541016 294.05583496 313.19238281 293.0925293 C314.32061913 286.81219636 315.33632049 280.62510131 315.546875 274.23828125 C315.57265625 273.59890625 315.5984375 272.95953125 315.625 272.30078125 C316.02699184 261.20580656 315.04126737 251.04348321 312.546875 240.23828125 C312.31871094 239.1915625 312.09054687 238.14484375 311.85546875 237.06640625 C305.01295583 207.50675045 287.43324559 181.79939509 266.546875 160.23828125 C265.24556641 158.89443359 265.24556641 158.89443359 263.91796875 157.5234375 C255.55604476 149.03385055 246.62755302 141.59117705 237.12255859 134.42871094 C235.74328011 133.3866654 234.37283254 132.33295204 233.00390625 131.27734375 C216.7293799 119.01323328 198.73213303 109.31851042 180.546875 100.23828125 C179.88091309 99.90135254 179.21495117 99.56442383 178.52880859 99.21728516 C159.35321901 89.56909067 138.05913016 80.92957788 117.234375 75.73828125 C115.5621633 75.31121206 113.89028904 74.88281946 112.21875 74.453125 C111.0131543 74.1435083 111.0131543 74.1435083 109.78320312 73.82763672 C106.83053068 73.04949793 103.90912938 72.17748001 100.984375 71.30078125 C71.66679563 62.85102384 41.80458512 58.34875486 11.50689697 55.42773438 C9.77728278 55.26055216 8.04848022 55.08501829 6.31982422 54.90820312 C-5.2752003 53.88623191 -16.92649666 54.08821172 -28.55615234 54.10791016 C-32.31221573 54.1132586 -36.06815905 54.10794618 -39.82421875 54.1015625 C-59.08974672 54.09381768 -77.89516095 55.23276618 -97.015625 57.55078125 C-97.94497864 57.66287933 -98.87433228 57.77497742 -99.83184814 57.89047241 C-113.79213564 59.5830872 -127.6757915 61.38085543 -141.453125 64.23828125 C-142.7421875 64.50479492 -144.03125 64.77130859 -145.359375 65.04589844 C-174.53961648 71.13259392 -203.36465813 78.3903985 -231.52539062 88.22460938 C-234.57176314 89.27935743 -237.6280157 90.3003623 -240.6875 91.31640625 C-260.09369893 97.81173521 -278.97392414 105.49448429 -297.62890625 113.89453125 C-298.29833755 114.19595032 -298.96776886 114.49736938 -299.65748596 114.80792236 C-302.89478362 116.2686822 -306.12707965 117.73939681 -309.3527832 119.22558594 C-310.50222412 119.75055664 -311.65166504 120.27552734 -312.8359375 120.81640625 C-313.85059082 121.2846582 -314.86524414 121.75291016 -315.91064453 122.23535156 C-318.453125 123.23828125 -318.453125 123.23828125 -321.453125 123.23828125 C-319.83063969 119.33126202 -317.17524295 116.47863388 -314.328125 113.42578125 C-313.83094971 112.89025635 -313.33377441 112.35473145 -312.8215332 111.80297852 C-308.92175098 107.64895844 -304.89370944 103.81520641 -300.453125 100.23828125 C-299.96505371 99.84318359 -299.47698242 99.44808594 -298.97412109 99.04101562 C-294.84714608 95.71181558 -290.66433295 92.46003963 -286.453125 89.23828125 C-285.4528125 88.46871094 -284.4525 87.69914062 -283.421875 86.90625 C-241.25849451 55.65637077 -191.10577208 34.23737389 -140.62841797 20.82373047 C-138.34735475 20.20981469 -136.07373326 19.57295797 -133.80078125 18.9296875 C-120.57645337 15.18739597 -107.3261895 12.06249454 -93.78808594 9.65625 C-92.1888048 9.36997132 -90.59053134 9.07802169 -88.99316406 8.78125 C-75.4973887 6.28222046 -61.96863005 4.51597521 -48.328125 3.05078125 C-47.54402252 2.96619659 -46.75992004 2.88161194 -45.95205688 2.79446411 C-43.65854522 2.54904295 -41.3645901 2.30845989 -39.0703125 2.0703125 C-38.40939102 2.00068298 -37.74846954 1.93105347 -37.06752014 1.85931396 C-24.71505314 0.60651723 -12.40852981 0.06095099 0 0 Z " fill="#FCFDFD" transform="translate(464.453125,124.76171875)"/>
<path d="M0 0 C2.2489796 0.13055874 3.92551395 -0.29239273 6.0859375 -0.87890625 C6.09806778 0.70843071 6.09806778 0.70843071 6.11044312 2.32783508 C6.18785339 12.28983858 6.27557964 22.25170465 6.37346458 32.21352863 C6.42345776 37.33527722 6.46978752 42.45700488 6.5078125 47.57885742 C6.54462714 52.51967614 6.59097664 57.46032101 6.64400101 62.40099144 C6.6625653 64.28804672 6.6776657 66.17513929 6.68928146 68.06225014 C6.70610914 70.70094313 6.73513551 73.33923618 6.76708984 75.9777832 C6.76925003 76.76181015 6.77141022 77.5458371 6.77363586 78.35362244 C6.83235084 82.13696447 6.93565327 83.8956674 9.0859375 87.12109375 C12.65363302 87.85715874 12.65363302 87.85715874 16.0859375 88.12109375 C16.0859375 89.11109375 16.0859375 90.10109375 16.0859375 91.12109375 C5.5259375 91.12109375 -5.0340625 91.12109375 -15.9140625 91.12109375 C-15.9140625 90.13109375 -15.9140625 89.14109375 -15.9140625 88.12109375 C-15.27597656 87.98832031 -14.63789062 87.85554687 -13.98046875 87.71875 C-13.15417969 87.54214844 -12.32789063 87.36554688 -11.4765625 87.18359375 C-10.65285156 87.00957031 -9.82914063 86.83554687 -8.98046875 86.65625 C-6.93745046 86.31356381 -6.93745046 86.31356381 -5.9140625 85.12109375 C-5.75532295 82.90421381 -5.66272413 80.68254077 -5.59765625 78.4609375 C-5.57687515 77.7964711 -5.55609406 77.1320047 -5.53468323 76.44740295 C-5.46912592 74.31790832 -5.41027465 72.18828707 -5.3515625 70.05859375 C-5.30838311 68.61782528 -5.26476901 67.17706976 -5.22070312 65.73632812 C-5.11343857 62.19805335 -5.01218879 58.65963506 -4.9140625 55.12109375 C-6.01814453 55.75337891 -6.01814453 55.75337891 -7.14453125 56.3984375 C-8.12035156 56.94628906 -9.09617187 57.49414062 -10.1015625 58.05859375 C-11.06449219 58.60386719 -12.02742187 59.14914062 -13.01953125 59.7109375 C-18.31162131 62.28913522 -24.09637964 62.95915192 -29.9140625 62.12109375 C-37.32333121 59.19025548 -43.63206006 52.60745204 -46.8515625 45.37109375 C-49.4087225 37.32077523 -48.75693235 27.03058941 -45.9140625 19.12109375 C-42.23458825 12.25138281 -37.57971142 7.13050664 -30.9140625 3.12109375 C-30.24890625 2.70859375 -29.58375 2.29609375 -28.8984375 1.87109375 C-20.07383169 -2.83536268 -9.58444025 -1.32481171 0 0 Z " fill="#183956" transform="translate(557.9140625,822.87890625)"/>
<path d="M0 0 C6.51020197 -0.12757048 13.02007749 -0.21467172 19.53125 -0.2746582 C21.74263555 -0.29968484 23.95393937 -0.3337169 26.16503906 -0.37719727 C29.35762791 -0.43837176 32.54911613 -0.46632914 35.7421875 -0.48828125 C36.71864227 -0.51408768 37.69509705 -0.5398941 38.70114136 -0.56648254 C46.48284069 -0.56960819 53.18534116 1.38979071 58.94821167 6.84379578 C64.74886103 13.26838369 65.5452594 18.57813424 65.3046875 27.1640625 C64.72471625 34.46575181 62.69592363 39.76949838 57.375 44.875 C48.21575243 51.98392059 39.27793383 52.7862331 28 52 C26.33012105 51.68315117 24.66266082 51.35277171 23 51 C23.11848926 55.34181226 23.2427536 59.68340965 23.37231445 64.02490234 C23.41556035 65.5010939 23.45724256 66.97733215 23.49731445 68.45361328 C23.55526846 70.57859348 23.61888946 72.70334093 23.68359375 74.828125 C23.72025146 76.1059082 23.75690918 77.38369141 23.79467773 78.70019531 C23.90903116 82.1512792 23.90903116 82.1512792 25 86 C28.63 86.33 32.26 86.66 36 87 C36.33 88.32 36.66 89.64 37 91 C24.79 91 12.58 91 0 91 C0 89.68 0 88.36 0 87 C1.27875 86.87625 2.5575 86.7525 3.875 86.625 C7.34790936 86.30957601 7.34790936 86.30957601 10 84 C10.20346026 81.51174713 10.28323676 79.13430025 10.2746582 76.64453125 C10.27976913 75.88667328 10.28488007 75.12881531 10.29014587 74.34799194 C10.30407713 71.83608158 10.30308266 69.32444446 10.30078125 66.8125 C10.30466592 65.0713694 10.30900011 63.33023974 10.31376648 61.58911133 C10.32123605 57.937306 10.32093186 54.28559735 10.31567383 50.63378906 C10.3098747 45.94585606 10.32681717 41.25831756 10.3500185 36.57044983 C10.3647237 32.97430087 10.36563201 29.37824767 10.36250877 25.78207397 C10.36302349 24.05324522 10.36828933 22.3244113 10.37832069 20.59561157 C10.39060752 18.18196687 10.38394112 15.76910026 10.37231445 13.35546875 C10.37995819 12.63644379 10.38760193 11.91741882 10.39547729 11.17660522 C10.40713767 8.98239781 10.40713767 8.98239781 10 6 C6.55549263 3.70366176 4.06187717 3.45983515 0 3 C0 2.01 0 1.02 0 0 Z " fill="#163653" transform="translate(246,793)"/>
<path d="M0 0 C20.79 0 41.58 0 63 0 C63 6.6 63 13.2 63 20 C62.01 20 61.02 20 60 20 C59.82984375 19.32453125 59.6596875 18.6490625 59.484375 17.953125 C57.71154403 11.09939527 57.71154403 11.09939527 53 6 C50.23382437 4.61691219 47.98982 4.88789804 44.8984375 4.90234375 C43.26140869 4.90609009 43.26140869 4.90609009 41.59130859 4.90991211 C40.19992676 4.91901611 38.80854492 4.92812012 37.375 4.9375 C32.96125 4.958125 28.5475 4.97875 24 5 C23.67 17.21 23.34 29.42 23 42 C26.5475 41.896875 30.095 41.79375 33.75 41.6875 C34.86213867 41.66260498 35.97427734 41.63770996 37.12011719 41.61206055 C38.00344727 41.57894775 38.88677734 41.54583496 39.796875 41.51171875 C41.14797363 41.47244263 41.14797363 41.47244263 42.52636719 41.43237305 C45.43961833 40.92315791 46.84355834 39.99300095 49 38 C49.89405175 35.97993559 49.89405175 35.97993559 50.25 33.8125 C50.4975 32.554375 50.745 31.29625 51 30 C51.99 30 52.98 30 54 30 C54 39.24 54 48.48 54 58 C53.01 58 52.02 58 51 58 C50.57682292 55.98177083 50.15364583 53.96354167 49.73046875 51.9453125 C49.07691162 49.62953451 49.07691162 49.62953451 46 48 C43.48497823 47.63303819 43.48497823 47.63303819 40.67578125 47.5859375 C39.64775391 47.54726563 38.61972656 47.50859375 37.56054688 47.46875 C36.48869141 47.4378125 35.41683594 47.406875 34.3125 47.375 C33.22904297 47.33632813 32.14558594 47.29765625 31.02929688 47.2578125 C28.35303533 47.16349491 25.67678157 47.07789995 23 47 C23.04416951 51.91195369 23.11401757 56.82262391 23.20751953 61.73388672 C23.23571718 63.40403011 23.25693779 65.07430665 23.27099609 66.74462891 C23.29244337 69.14815372 23.33909845 71.55007983 23.390625 73.953125 C23.39185364 74.69806213 23.39308228 75.44299927 23.39434814 76.21051025 C23.48918644 79.57925575 23.77078996 81.66718978 25.70092773 84.46972656 C28.48288725 86.32141205 30.0689258 86.51528755 33.39453125 86.53125 C34.43287109 86.53640625 35.47121094 86.5415625 36.54101562 86.546875 C38.16040039 86.52367187 38.16040039 86.52367187 39.8125 86.5 C41.41448242 86.52320313 41.41448242 86.52320313 43.04882812 86.546875 C49.54109323 86.51475495 53.81728832 86.03802062 59 82 C60.56228966 79.89952966 60.56228966 79.89952966 61.3125 77.5625 C61.61285156 76.78132812 61.91320312 76.00015625 62.22265625 75.1953125 C62.60744141 74.10863281 62.60744141 74.10863281 63 73 C63.4125 71.989375 63.825 70.97875 64.25 69.9375 C64.62125 68.9784375 64.62125 68.9784375 65 68 C65.99 68 66.98 68 68 68 C68.02804921 69.58322194 68.04684498 71.166607 68.0625 72.75 C68.07410156 73.63171875 68.08570313 74.5134375 68.09765625 75.421875 C67.95563537 80.62552007 67.43230012 85.81239857 67 91 C44.56 91 22.12 91 -1 91 C-1 90.01 -1 89.02 -1 88 C-0.38511719 87.91363281 0.22976563 87.82726562 0.86328125 87.73828125 C1.67152344 87.59777344 2.47976563 87.45726562 3.3125 87.3125 C4.11300781 87.18488281 4.91351563 87.05726563 5.73828125 86.92578125 C8.92882103 85.61980901 9.52451749 84.08938163 11 81 C11.4460304 77.5689533 11.4460304 77.5689533 11.37231445 73.77880859 C11.37596512 73.07088669 11.37961578 72.36296478 11.38337708 71.6335907 C11.39145138 69.30495862 11.37790182 66.97702912 11.36328125 64.6484375 C11.36276238 63.02609253 11.36328112 61.40374693 11.36479187 59.78140259 C11.36470229 56.3870501 11.35430078 52.99293586 11.33618164 49.59863281 C11.31345868 45.24611647 11.31295844 40.89394694 11.31969929 36.54138756 C11.32303851 33.19396883 11.31641068 29.84662932 11.30657005 26.49922562 C11.30271967 24.89404337 11.30156917 23.28885231 11.3031559 21.68366623 C11.30352632 19.44307357 11.29091444 17.20292791 11.2746582 14.96240234 C11.27005081 13.68730804 11.26544342 12.41221375 11.26069641 11.09848022 C11.23708477 7.83239062 11.23708477 7.83239062 9 5 C6.81494871 4.20562077 6.81494871 4.20562077 4.375 3.8125 C3.14910156 3.57466797 3.14910156 3.57466797 1.8984375 3.33203125 C1.27195312 3.22246094 0.64546875 3.11289062 0 3 C0 2.01 0 1.02 0 0 Z " fill="#10324F" transform="translate(435,793)"/>
<path d="M0 0 C3.10425121 2.75116102 5.31438199 5.52581655 6.02462769 9.64013672 C6.17261023 12.21603459 6.20196117 14.76754981 6.1875 17.34765625 C6.19929291 18.28648148 6.21108582 19.2253067 6.22323608 20.19258118 C6.25841443 23.17803705 6.26766023 26.16279149 6.2734375 29.1484375 C6.28977706 32.14458508 6.31178176 35.14042035 6.34506226 38.13642883 C6.36470334 39.99717648 6.37402593 41.85806767 6.37197876 43.71891785 C6.37893768 44.56021744 6.38589661 45.40151703 6.39306641 46.26831055 C6.39432526 47.00744186 6.39558411 47.74657318 6.3968811 48.50810242 C6.54318052 50.78389107 6.54318052 50.78389107 8.6484375 53.4609375 C10.62590872 53.82391686 10.62590872 53.82391686 12.7734375 53.6484375 C14.0521875 53.5865625 15.3309375 53.5246875 16.6484375 53.4609375 C15.6484375 56.4609375 15.6484375 56.4609375 14.01171875 57.62890625 C6.14987162 61.5373674 6.14987162 61.5373674 1.6484375 60.4609375 C-0.65167787 58.33491343 -2.52531817 55.99954664 -4.3515625 53.4609375 C-5.09019531 53.96625 -5.82882812 54.4715625 -6.58984375 54.9921875 C-12.69546562 58.90226809 -17.50494382 61.54709325 -24.87109375 61.015625 C-30.20058646 59.82383293 -33.15749058 57.11723081 -36.2890625 52.7734375 C-38.13211936 47.02743671 -38.2787065 41.87151189 -36.1015625 36.2109375 C-28.43245579 28.54183079 -16.58936279 25.41968797 -6.3515625 22.4609375 C-5.6915625 22.4609375 -5.0315625 22.4609375 -4.3515625 22.4609375 C-4.38485633 12.08272464 -4.38485633 12.08272464 -9.3515625 3.4609375 C-12.94420702 2.26338933 -15.57873724 2.12998792 -19.3515625 2.4609375 C-23.35739 5.24276215 -24.55413236 9.04906351 -26.3515625 13.4609375 C-28.3515625 15.4609375 -28.3515625 15.4609375 -30.7890625 15.7734375 C-33.3515625 15.4609375 -33.3515625 15.4609375 -35.1640625 14.2734375 C-36.3515625 12.4609375 -36.3515625 12.4609375 -36.9765625 10.1484375 C-35.80723482 5.12032846 -31.52716318 2.85830948 -27.375 0.19140625 C-19.06773614 -4.21113246 -8.33817485 -4.41432786 0 0 Z " fill="#173855" transform="translate(356.3515625,824.5390625)"/>
<path d="M0 0 C0.01030746 0.65954681 0.02061493 1.31909363 0.03123474 1.99862671 C0.13915379 8.8439149 0.25376339 15.68906754 0.37231445 22.53417969 C0.41571022 25.09111707 0.4573818 27.64808431 0.49731445 30.20507812 C0.55490469 33.87378959 0.61863138 37.54235011 0.68359375 41.2109375 C0.70030624 42.35992523 0.71701874 43.50891296 0.73423767 44.69271851 C0.7641555 46.28414169 0.7641555 46.28414169 0.79467773 47.90771484 C0.81799416 49.31336197 0.81799416 49.31336197 0.84178162 50.74740601 C0.85779985 53.03513791 0.85779985 53.03513791 2 55 C4.12576782 55.46651207 4.12576782 55.46651207 6.5625 55.625 C7.38878906 55.69976563 8.21507812 55.77453125 9.06640625 55.8515625 C9.70449219 55.90054688 10.34257813 55.94953125 11 56 C11 56.99 11 57.98 11 59 C8.60612843 59.67449966 6.21030779 60.33976641 3.8125 61 C3.13896484 61.19078125 2.46542969 61.3815625 1.77148438 61.578125 C-1.88996548 62.57832594 -5.19830114 63.34365639 -9 63 C-10 62 -10 62 -10.09765625 59.93359375 C-10.08605469 59.10988281 -10.07445312 58.28617188 -10.0625 57.4375 C-10.05347656 56.61121094 -10.04445313 55.78492188 -10.03515625 54.93359375 C-10.02355469 54.29550781 -10.01195312 53.65742187 -10 53 C-10.65226563 53.47050781 -11.30453125 53.94101562 -11.9765625 54.42578125 C-20.74023539 60.66892875 -26.89647529 64.57771263 -38 63 C-42.06013012 61.33320974 -44.25064639 59.20013848 -46.56005859 55.50146484 C-48.42091333 50.97647694 -48.44076995 47.1397141 -48.44140625 42.296875 C-48.45461411 41.37787415 -48.46782196 40.45887329 -48.48143005 39.51202393 C-48.52217218 36.59131762 -48.54396743 33.67092551 -48.5625 30.75 C-48.58627096 27.81488631 -48.61431423 24.88006906 -48.65428162 21.94512939 C-48.67868353 20.1222774 -48.69350553 18.29926736 -48.69789124 16.47625732 C-48.52347865 11.75414469 -48.52347865 11.75414469 -51 8 C-52.98821313 7.60235737 -54.98944339 7.26224651 -57 7 C-57 6.01 -57 5.02 -57 4 C-55.33742523 3.48655779 -53.66963368 2.99000119 -52 2.5 C-50.6078125 2.08234375 -50.6078125 2.08234375 -49.1875 1.65625 C-45.34884508 0.86593869 -41.91765074 0.95772319 -38 1 C-37.99120064 1.84445175 -37.99120064 1.84445175 -37.98222351 2.70596313 C-37.918163 8.57887936 -37.83371096 14.451254 -37.73754883 20.32373047 C-37.7043469 22.51376188 -37.6763003 24.70387789 -37.65356445 26.89404297 C-37.61993191 30.0469153 -37.56761052 33.19901573 -37.51171875 36.3515625 C-37.50532883 37.32678864 -37.4989389 38.30201477 -37.49235535 39.30679321 C-37.37887267 44.58415637 -37.01416259 48.46466693 -34 53 C-30.08253225 54.95873387 -26.33734612 54.29572814 -22 54 C-18.7 52.35 -15.4 50.7 -12 49 C-12 35.47 -12 21.94 -12 8 C-14.64 7.34 -17.28 6.68 -20 6 C-20 5.01 -20 4.02 -20 3 C-17.22970414 2.49685437 -14.4588348 1.99736162 -11.6875 1.5 C-10.90181641 1.35691406 -10.11613281 1.21382812 -9.30664062 1.06640625 C-8.54931641 0.93105469 -7.79199219 0.79570313 -7.01171875 0.65625 C-6.31522217 0.53056641 -5.61872559 0.40488281 -4.90112305 0.27539062 C-3 0 -3 0 0 0 Z " fill="#163855" transform="translate(632,822)"/>
<path d="M0 0 C2.5625 1.625 2.5625 1.625 4.5625 3.625 C4.73803419 6.71024939 4.79372797 9.70464202 4.7578125 12.7890625 C4.7549826 13.69627045 4.75215271 14.60347839 4.74923706 15.53817749 C4.73802153 18.44225123 4.71291463 21.34601912 4.6875 24.25 C4.67747197 26.21614139 4.66834581 28.1822876 4.66015625 30.1484375 C4.63807772 34.97407659 4.60353865 39.7994864 4.5625 44.625 C-1.74300792 48.34708802 -5.98292251 50.01737798 -13.4375 48.625 C-19.07481977 46.05062397 -22.25177844 42.12495219 -24.74609375 36.5546875 C-27.62879218 28.50919019 -28.09788521 17.42922598 -24.75 9.4375 C-22.38001583 5.0647123 -19.51362603 1.83607352 -15.1875 -0.6875 C-9.82702393 -2.02761902 -5.15207907 -2.06083163 0 0 Z " fill="#FBFCFC" transform="translate(548.4375,828.375)"/>
<path d="M0 0 C8.91 0 17.82 0 27 0 C27 0.99 27 1.98 27 3 C25.02 3.33 23.04 3.66 21 4 C21.51673135 9.95554782 22.81307514 14.74286857 25.16015625 20.21875 C25.46948593 20.96209595 25.77881561 21.70544189 26.09751892 22.47131348 C27.07661081 24.81820457 28.06926608 27.15906411 29.0625 29.5 C29.73333106 31.10118189 30.40326176 32.70274131 31.07226562 34.3046875 C32.70447216 38.20756476 34.34885867 42.10509766 36 46 C38.77945316 39.23926612 41.3105218 32.43319354 43.625 25.5 C43.9240625 24.62730469 44.223125 23.75460937 44.53125 22.85546875 C46.50261455 16.96754365 47.92772994 11.11505925 49 5 C46.69 4.34 44.38 3.68 42 3 C42 2.01 42 1.02 42 0 C49.26 0 56.52 0 64 0 C64 0.66 64 1.32 64 2 C63.0925 2.33 62.185 2.66 61.25 3 C54.72473999 7.01554462 52.9293941 15.58267459 50.5625 22.5625 C50.26102051 23.43583984 49.95954102 24.30917969 49.64892578 25.20898438 C47.84342205 30.4575194 46.10073267 35.72481086 44.375 41 C42.63490861 46.26532508 40.6543222 51.3330141 38.44921875 56.41796875 C37.2412177 59.40378268 36.14293361 62.38625707 35.08203125 65.42578125 C34.73889893 66.40281006 34.3957666 67.37983887 34.04223633 68.38647461 C33.36074254 70.34060097 32.68955644 72.29836058 32.0300293 74.26000977 C29.71049649 80.88498879 27.19985536 85.25726684 21.8125 89.875 C17.64856968 91.54057213 13.43207237 91.60401694 9 91 C7 89 7 89 6.75 86.0625 C7 83 7 83 9 80 C12.05796685 79.82615057 15.00104287 80.0713261 18.0546875 80.28515625 C21.06157933 80.2512671 21.06157933 80.2512671 23.203125 78.3515625 C25.18500807 75.75788075 26.55527342 73.29945512 27.875 70.3125 C28.32617188 69.33925781 28.77734375 68.36601563 29.2421875 67.36328125 C30.83373279 60.29977355 27.54454795 53.30532044 24.69921875 46.88671875 C24.38096634 46.15105179 24.06271393 45.41538483 23.7348175 44.65742493 C22.72648238 42.33079759 21.70738758 40.00908301 20.6875 37.6875 C19.683763 35.3822725 18.68226823 33.07607999 17.68093872 30.76980591 C17.03055301 29.27383183 16.37845413 27.7786013 15.72457886 26.28414917 C13.42637021 21.02476008 11.23197917 15.7297312 9.11645508 10.39379883 C7.97462876 7.94560136 6.79188548 6.02062465 5 4 C2.40144267 3.1957792 2.40144267 3.1957792 0 3 C0 2.01 0 1.02 0 0 Z " fill="#173856" transform="translate(723,824)"/>
<path d="M0 0 C6.02498942 0 11.26119125 0.16732755 15.9375 4.3125 C22.04971377 11.68718613 22.27426784 18.54286973 21.50390625 27.85546875 C20.45517347 34.25635505 17.85335271 37.81813489 12.8125 41.75 C8.64925292 44.01263428 5.62085628 44.47130296 0.9375 44.5 C-0.114375 44.51417969 -1.16625 44.52835938 -2.25 44.54296875 C-5.0625 44.3125 -5.0625 44.3125 -8.0625 42.3125 C-8.34142331 39.20212303 -8.43409309 36.29356529 -8.390625 33.18359375 C-8.38875183 32.27875748 -8.38687866 31.3739212 -8.38494873 30.44166565 C-8.37822059 28.52756062 -8.36429103 26.61346952 -8.34375 24.69946289 C-8.31259003 21.75849741 -8.30278036 18.81806731 -8.296875 15.87695312 C-8.28770563 14.02082675 -8.27733007 12.16470586 -8.265625 10.30859375 C-8.26137512 9.42320419 -8.25712524 8.53781464 -8.25274658 7.62559509 C-8.16176729 -0.08566321 -7.60089166 0.1422827 0 0 Z " fill="#F8F9FA" transform="translate(277.0625,796.6875)"/>
<path d="M0 0 C0 4.29 0 8.58 0 13 C0.66 13 1.32 13 2 13 C2.226875 12.443125 2.45375 11.88625 2.6875 11.3125 C4.38083057 8.32901281 6.49153571 6.33345516 9 4 C9.763125 3.236875 10.52625 2.47375 11.3125 1.6875 C15.18567388 -0.7444929 17.46757164 -0.51172578 22 0 C24 1.0625 24 1.0625 25 3 C25.3125 6.5625 25.3125 6.5625 25 10 C23 12 23 12 20 12.1875 C17 12 17 12 15 11 C12.12693772 10.49904977 12.12693772 10.49904977 9 11 C6.0728873 13.46143568 4.11917214 15.82124178 2 19 C1.79202009 21.8057876 1.69597101 24.50994955 1.69921875 27.31640625 C1.69493362 28.12867172 1.6906485 28.94093719 1.68623352 29.77781677 C1.68049424 31.49338855 1.67998701 33.20898466 1.68432617 34.92456055 C1.68749247 37.55624543 1.66400122 40.18681299 1.63867188 42.81835938 C1.63639955 44.48437358 1.63569508 46.15039081 1.63671875 47.81640625 C1.627509 48.60600235 1.61829926 49.39559845 1.60881042 50.2091217 C1.59456128 52.65607313 1.59456128 52.65607313 2 56 C5.44450737 58.29633824 7.93812283 58.54016485 12 59 C12 59.99 12 60.98 12 62 C1.44 62 -9.12 62 -20 62 C-20 61.01 -20 60.02 -20 59 C-19.15115234 58.80083984 -19.15115234 58.80083984 -18.28515625 58.59765625 C-17.55167969 58.42105469 -16.81820313 58.24445312 -16.0625 58.0625 C-15.33160156 57.88847656 -14.60070312 57.71445312 -13.84765625 57.53515625 C-12.00030102 57.16112431 -12.00030102 57.16112431 -11 56 C-10.90695982 54.52645652 -10.88253735 53.04849409 -10.88647461 51.57202148 C-10.88655014 50.63112167 -10.88662567 49.69022186 -10.88670349 48.72080994 C-10.89186478 47.69790359 -10.89702606 46.67499725 -10.90234375 45.62109375 C-10.90446617 44.058395 -10.90446617 44.058395 -10.90663147 42.46412659 C-10.9122492 39.12188906 -10.9248047 35.77971743 -10.9375 32.4375 C-10.94251272 30.17773534 -10.94707602 27.91796963 -10.95117188 25.65820312 C-10.96222439 20.10544318 -10.9795009 14.55273278 -11 9 C-13.97 8.67 -16.94 8.34 -20 8 C-20 6.68 -20 5.36 -20 4 C-17.60612843 3.32550034 -15.21030779 2.66023359 -12.8125 2 C-12.13896484 1.80921875 -11.46542969 1.6184375 -10.77148438 1.421875 C-6.9469132 0.37711409 -4.03123843 0 0 0 Z " fill="#1A3B59" transform="translate(400,822)"/>
<path d="M0 0 C0 5.94 0 11.88 0 18 C5.94 18 11.88 18 18 18 C18 19.98 18 21.96 18 24 C12.06 24 6.12 24 0 24 C0.04416602 30.17524689 0.11401463 36.34947264 0.20751953 42.52416992 C0.23571852 44.62402208 0.25693837 46.72398017 0.27099609 48.82397461 C0.29244014 51.84544059 0.33909867 54.86563434 0.390625 57.88671875 C0.39185364 58.82335861 0.39308228 59.75999847 0.39434814 60.72502136 C0.48887858 64.9462785 0.6502483 67.40569317 2.82714844 71.10473633 C4.95088946 73.3110649 4.95088946 73.3110649 8.375 73.4375 C11.84526986 73.01867433 14.75153752 72.26769267 18 71 C18.33 71.99 18.66 72.98 19 74 C12.06334083 78.43102183 6.35792445 81.49626496 -2 80 C-5.42912061 78.68671977 -6.59924577 77.60662904 -8.6105957 74.56201172 C-10.51705982 69.67441525 -10.37368663 65.33072897 -10.29296875 60.1328125 C-10.28872391 59.09808807 -10.28447906 58.06336365 -10.28010559 56.99728394 C-10.26336996 53.70625319 -10.22572649 50.41584434 -10.1875 47.125 C-10.17244658 44.8880297 -10.15875933 42.65104977 -10.14648438 40.4140625 C-10.11348306 34.94247027 -10.06173541 29.47134043 -10 24 C-12.97 24 -15.94 24 -19 24 C-18 20 -18 20 -17 19 C-14.66702567 18.95907063 -12.33294775 18.95758277 -10 19 C-10.08121094 18.29875 -10.16242187 17.5975 -10.24609375 16.875 C-10.62306553 11.21273005 -10.46714878 7.7353243 -6.6875 3.3125 C-3.52104208 0 -3.52104208 0 0 0 Z " fill="#193A57" transform="translate(703,805)"/>
<path d="M0 0 C3.10425121 2.75116102 5.31438199 5.52581655 6.02462769 9.64013672 C6.17261023 12.21603459 6.20196117 14.76754981 6.1875 17.34765625 C6.19929291 18.28648148 6.21108582 19.2253067 6.22323608 20.19258118 C6.25841443 23.17803705 6.26766023 26.16279149 6.2734375 29.1484375 C6.28977706 32.14458508 6.31178176 35.14042035 6.34506226 38.13642883 C6.36470334 39.99717648 6.37402593 41.85806767 6.37197876 43.71891785 C6.37893768 44.56021744 6.38589661 45.40151703 6.39306641 46.26831055 C6.39432526 47.00744186 6.39558411 47.74657318 6.3968811 48.50810242 C6.54318052 50.78389107 6.54318052 50.78389107 8.6484375 53.4609375 C10.62590872 53.82391686 10.62590872 53.82391686 12.7734375 53.6484375 C14.0521875 53.5865625 15.3309375 53.5246875 16.6484375 53.4609375 C15.6484375 56.4609375 15.6484375 56.4609375 14.01171875 57.62890625 C6.14987162 61.5373674 6.14987162 61.5373674 1.6484375 60.4609375 C-0.65167787 58.33491343 -2.52531817 55.99954664 -4.3515625 53.4609375 C-4.9703125 53.6671875 -5.5890625 53.8734375 -6.2265625 54.0859375 C-6.9278125 54.2096875 -7.6290625 54.3334375 -8.3515625 54.4609375 C-9.0115625 53.8009375 -9.6715625 53.1409375 -10.3515625 52.4609375 C-9.54332031 52.03296875 -8.73507812 51.605 -7.90234375 51.1640625 C-3.97189576 46.99887106 -4.57064331 42.74108836 -4.5390625 37.2109375 C-4.51392578 36.1796875 -4.48878906 35.1484375 -4.46289062 34.0859375 C-4.40404688 31.54388761 -4.36774743 29.00355834 -4.3515625 26.4609375 C-5.3415625 26.1309375 -6.3315625 25.8009375 -7.3515625 25.4609375 C-7.0215625 24.4709375 -6.6915625 23.4809375 -6.3515625 22.4609375 C-5.6915625 22.4609375 -5.0315625 22.4609375 -4.3515625 22.4609375 C-4.38485633 12.08272464 -4.38485633 12.08272464 -9.3515625 3.4609375 C-12.94420702 2.26338933 -15.57873724 2.12998792 -19.3515625 2.4609375 C-23.35739 5.24276215 -24.55413236 9.04906351 -26.3515625 13.4609375 C-28.3515625 15.4609375 -28.3515625 15.4609375 -30.7890625 15.7734375 C-33.3515625 15.4609375 -33.3515625 15.4609375 -35.1640625 14.2734375 C-36.3515625 12.4609375 -36.3515625 12.4609375 -36.9765625 10.1484375 C-35.80723482 5.12032846 -31.52716318 2.85830948 -27.375 0.19140625 C-19.06773614 -4.21113246 -8.33817485 -4.41432786 0 0 Z " fill="#153653" transform="translate(356.3515625,824.5390625)"/>
<path d="M0 0 C0.33 19.14 0.66 38.28 1 58 C2.98 58 4.96 58 7 58 C7.66 58.33 8.32 58.66 9 59 C9 59.99 9 60.98 9 62 C-0.9 62 -10.8 62 -21 62 C-21 61.01 -21 60.02 -21 59 C-20.15115234 58.80083984 -20.15115234 58.80083984 -19.28515625 58.59765625 C-18.55167969 58.42105469 -17.81820312 58.24445312 -17.0625 58.0625 C-16.33160156 57.88847656 -15.60070312 57.71445312 -14.84765625 57.53515625 C-13.00030102 57.16112431 -13.00030102 57.16112431 -12 56 C-11.90695982 54.52645652 -11.88253735 53.04849409 -11.88647461 51.57202148 C-11.88655014 50.63112167 -11.88662567 49.69022186 -11.88670349 48.72080994 C-11.89186478 47.69790359 -11.89702606 46.67499725 -11.90234375 45.62109375 C-11.90446617 44.058395 -11.90446617 44.058395 -11.90663147 42.46412659 C-11.9122492 39.12188906 -11.9248047 35.77971743 -11.9375 32.4375 C-11.94251272 30.17773534 -11.94707602 27.91796963 -11.95117188 25.65820312 C-11.96222439 20.10544318 -11.9795009 14.55273278 -12 9 C-14.97 8.67 -17.94 8.34 -21 8 C-21 7.01 -21 6.02 -21 5 C-18.44013121 4.15774 -15.87760985 3.32601449 -13.3125 2.5 C-12.2306543 2.14228516 -12.2306543 2.14228516 -11.12695312 1.77734375 C-10.42119141 1.55175781 -9.71542969 1.32617188 -8.98828125 1.09375 C-8.34415283 0.88427734 -7.70002441 0.67480469 -7.03637695 0.45898438 C-5 0 -5 0 0 0 Z " fill="#1C3E5B" transform="translate(670,822)"/>
<path d="M0 0 C0.20391987 3.56165107 0.32782061 7.12180053 0.4375 10.6875 C0.49615234 11.69490234 0.55480469 12.70230469 0.61523438 13.74023438 C0.78287737 20.99678129 0.78287737 20.99678129 -1.40698242 23.80297852 C-5.71403138 27.08551535 -9.42593885 27.70519465 -14.7578125 27.4296875 C-17 27 -17 27 -19.5625 25.1875 C-22.21368383 21.15308983 -22.40155056 17.73829656 -22 13 C-19.18821522 6.60958006 -14.12771938 4.56127072 -8 2 C-2.66666667 0 -2.66666667 0 0 0 Z " fill="#F7F8F9" transform="translate(352,851)"/>
<path d="M0 0 C7.26 0 14.52 0 22 0 C22 0.66 22 1.32 22 2 C21.0925 2.33 20.185 2.66 19.25 3 C12.72511289 7.01531514 10.92872973 15.58276806 8.5625 22.5625 C8.264646 23.42713867 7.96679199 24.29177734 7.65991211 25.18261719 C5.05390513 32.77059352 2.50588756 40.37840649 0 48 C-0.99 47.67 -1.98 47.34 -3 47 C-4.24094231 42.70047368 -3.68254389 40.13666445 -2.19921875 35.95703125 C-1.79896484 34.80009766 -1.39871094 33.64316406 -0.98632812 32.45117188 C-0.55771484 31.25041016 -0.12910156 30.04964844 0.3125 28.8125 C3.09453234 20.93079167 5.67473551 13.27074195 7 5 C4.69 4.34 2.38 3.68 0 3 C0 2.01 0 1.02 0 0 Z " fill="#1A3A57" transform="translate(765,824)"/>
<path d="M0 0 C0.99 0 1.98 0 3 0 C3.02804921 1.58322194 3.04684498 3.166607 3.0625 4.75 C3.07410156 5.63171875 3.08570313 6.5134375 3.09765625 7.421875 C2.95563537 12.62552007 2.43230012 17.81239857 2 23 C-12.52 23 -27.04 23 -42 23 C-42 22.67 -42 22.34 -42 22 C-41.36191406 21.93941406 -40.72382813 21.87882813 -40.06640625 21.81640625 C-38.82697266 21.69072266 -38.82697266 21.69072266 -37.5625 21.5625 C-36.73878906 21.48128906 -35.91507812 21.40007813 -35.06640625 21.31640625 C-33.01337975 21.21069185 -33.01337975 21.21069185 -32 20 C-30.58429877 19.91348389 -29.164405 19.89295096 -27.74609375 19.90234375 C-26.46508789 19.90717773 -26.46508789 19.90717773 -25.15820312 19.91210938 C-23.81145508 19.92467773 -23.81145508 19.92467773 -22.4375 19.9375 C-21.53580078 19.94201172 -20.63410156 19.94652344 -19.70507812 19.95117188 C-17.46998686 19.96299775 -15.23502563 19.9794778 -13 20 C-12.67 19.01 -12.34 18.02 -12 17 C-11.071875 16.62875 -10.14375 16.2575 -9.1875 15.875 C-4.65795025 13.21055897 -3.74505731 9.79051791 -2 5 C-1.38125 3.4840625 -1.38125 3.4840625 -0.75 1.9375 C-0.5025 1.298125 -0.255 0.65875 0 0 Z " fill="#163956" transform="translate(500,861)"/>
<path d="M0 0 C0.99 0 1.98 0 3 0 C3 9.24 3 18.48 3 28 C2.01 28 1.02 28 0 28 C-0.42317708 25.98177083 -0.84635417 23.96354167 -1.26953125 21.9453125 C-1.92308838 19.62953451 -1.92308838 19.62953451 -5 18 C-7.51502177 17.63303819 -7.51502177 17.63303819 -10.32421875 17.5859375 C-11.35224609 17.54726563 -12.38027344 17.50859375 -13.43945312 17.46875 C-15.04723633 17.42234375 -15.04723633 17.42234375 -16.6875 17.375 C-17.77095703 17.33632813 -18.85441406 17.29765625 -19.97070312 17.2578125 C-22.64696467 17.16349491 -25.32321843 17.07789995 -28 17 C-28 16.67 -28 16.34 -28 16 C-23.05 15.67 -18.1 15.34 -13 15 C-13 14.67 -13 14.34 -13 14 C-19.93 13.505 -19.93 13.505 -27 13 C-27 12.67 -27 12.34 -27 12 C-26.07719238 11.97812622 -26.07719238 11.97812622 -25.13574219 11.95581055 C-22.33987146 11.88119423 -19.54517713 11.7845802 -16.75 11.6875 C-15.78191406 11.66494141 -14.81382812 11.64238281 -13.81640625 11.61914062 C-12.88183594 11.58369141 -11.94726562 11.54824219 -10.984375 11.51171875 C-10.12553711 11.48553467 -9.26669922 11.45935059 -8.38183594 11.43237305 C-5.53028565 10.91473308 -4.12117753 9.9450079 -2 8 C-1.10594825 5.97993559 -1.10594825 5.97993559 -0.75 3.8125 C-0.5025 2.554375 -0.255 1.29625 0 0 Z " fill="#1D3E5B" transform="translate(486,823)"/>
<path d="M0 0 C0 1.32 0 2.64 0 4 C-1.093125 4.226875 -2.18625 4.45375 -3.3125 4.6875 C-7.05891763 5.65076836 -7.05891763 5.65076836 -8.8125 8.3125 C-9.59751162 10.08910525 -10.34839234 11.88122768 -11.0625 13.6875 C-12 16 -12 16 -14 18 C-16.84602594 18.36487512 -18.3864306 18.40199375 -20.8125 16.8125 C-22 15 -22 15 -22.625 12.6875 C-21.61239041 8.33327877 -18.61250664 6.41495407 -15 4 C-10.03656939 1.20914369 -5.80664718 -0.59555356 0 0 Z " fill="#1D3E5B" transform="translate(342,822)"/>
<path d="M0 0 C2.5 1.5625 2.5 1.5625 4 4 C3.93913078 7.46954545 3.6274029 9.91947278 1.875 12.9375 C-1.13913252 14.64550843 -3.62088399 14.36204814 -7 14 C-8.9375 13 -8.9375 13 -10 11 C-10.52960415 7.41957756 -10.65886567 4.24021772 -8.9375 1 C-5.82090489 -0.60856522 -3.43737531 -0.42213381 0 0 Z " fill="#163856" transform="translate(667,792)"/>
<path d="M0 0 C-0.63148507 3.53560283 -1.54775439 6.7874523 -2.77734375 10.16015625 C-3.12603516 11.11857422 -3.47472656 12.07699219 -3.83398438 13.06445312 C-4.19814453 14.05380859 -4.56230469 15.04316406 -4.9375 16.0625 C-5.29779297 17.05572266 -5.65808594 18.04894531 -6.02929688 19.07226562 C-7.52258991 23.15613331 -8.98404055 27.14078181 -11 31 C-12.53930664 29.75585938 -12.53930664 29.75585938 -14 28 C-13.95874023 26.07226562 -13.95874023 26.07226562 -13.37109375 23.90625 C-13.05567627 22.71322266 -13.05567627 22.71322266 -12.73388672 21.49609375 C-12.4917041 20.67238281 -12.24952148 19.84867188 -12 19 C-11.77199707 18.20722656 -11.54399414 17.41445313 -11.30908203 16.59765625 C-10.59748094 14.21816379 -9.83790059 11.85940533 -9.0625 9.5 C-8.68448242 8.28570313 -8.68448242 8.28570313 -8.29882812 7.046875 C-8.04681641 6.27859375 -7.79480469 5.5103125 -7.53515625 4.71875 C-7.312229 4.02716797 -7.08930176 3.33558594 -6.85961914 2.62304688 C-5.33268758 -0.25995257 -3.00338639 0 0 0 Z " fill="#244561" transform="translate(775,841)"/>
<path d="M0 0 C0 1.32 0 2.64 0 4 C-4.62 5.65 -9.24 7.3 -14 9 C-14.33 7.35 -14.66 5.7 -15 4 C-13.06441401 3.32779649 -11.12645628 2.66241923 -9.1875 2 C-8.10855469 1.62875 -7.02960938 1.2575 -5.91796875 0.875 C-3 0 -3 0 0 0 Z " fill="#244261" transform="translate(350,848)"/>
<path d="M0 0 C-0.33 0.99 -0.66 1.98 -1 3 C-0.01 3.66 0.98 4.32 2 5 C-2.29 5.66 -6.58 6.32 -11 7 C-10.67 5.35 -10.34 3.7 -10 2 C-6.65842753 0.05074939 -3.81884554 -0.21821974 0 0 Z " fill="#2B4B68" transform="translate(541,822)"/>
<path d="M0 0 C3.3 0 6.6 0 10 0 C10.33 1.32 10.66 2.64 11 4 C8.03 4 5.06 4 2 4 C1.34 2.68 0.68 1.36 0 0 Z " fill="#203D5B" transform="translate(272,880)"/>
<path d="M0 0 C0 1.32 0 2.64 0 4 C-4.41062136 5.0257259 -6.92630576 5.03684712 -11 3 C-6.86621405 0.2441427 -4.94796454 -0.10756445 0 0 Z " fill="#2C4B68" transform="translate(342,822)"/>
<path d="M0 0 C1.98 0 3.96 0 6 0 C6 0.33 6 0.66 6 1 C9.96 1.33 13.92 1.66 18 2 C18 2.33 18 2.66 18 3 C12.06 3 6.12 3 0 3 C0 2.01 0 1.02 0 0 Z " fill="#244866" transform="translate(542,911)"/>
<path d="M0 0 C2.64 0 5.28 0 8 0 C8 0.99 8 1.98 8 3 C5.69 3.33 3.38 3.66 1 4 C0.67 2.68 0.34 1.36 0 0 Z " fill="#3E5A77" transform="translate(635,878)"/>
<path d="M0 0 C0.99 0 1.98 0 3 0 C3.05410687 1.77049689 3.09284119 3.54146849 3.125 5.3125 C3.14820313 6.29863281 3.17140625 7.28476562 3.1953125 8.30078125 C3 11 3 11 1 14 C0.67 9.38 0.34 4.76 0 0 Z " fill="#304C68" transform="translate(500,861)"/>
<path d="M0 0 C0.99 0.33 1.98 0.66 3 1 C3.8125 2.8125 3.8125 2.8125 4 5 C3.0625 7.25 3.0625 7.25 2 9 C0.4375 7.875 0.4375 7.875 -1 6 C-0.6875 2.8125 -0.6875 2.8125 0 0 Z " fill="#2E4F69" transform="translate(762,863)"/>
<path d="M0 0 C0 1.32 0 2.64 0 4 C-2.25 4.6875 -2.25 4.6875 -5 5 C-7.3125 3.5625 -7.3125 3.5625 -9 2 C-3.375 0 -3.375 0 0 0 Z " fill="#35516E" transform="translate(350,848)"/>
<path d="M0 0 C0.66 1.32 1.32 2.64 2 4 C1.01 5.485 1.01 5.485 0 7 C-1.32 7 -2.64 7 -4 7 C-3.67 5.02 -3.34 3.04 -3 1 C-2.01 0.67 -1.02 0.34 0 0 Z " fill="#254560" transform="translate(755,889)"/>
<path d="M0 0 C1.98 0 3.96 0 6 0 C4.02 2.31 2.04 4.62 0 7 C-0.33 6.01 -0.66 5.02 -1 4 C-1.66 3.67 -2.32 3.34 -3 3 C-2.34 3 -1.68 3 -1 3 C-0.67 2.01 -0.34 1.02 0 0 Z " fill="#204160" transform="translate(403,832)"/>
<path d="M0 0 C0.33 0.66 0.66 1.32 1 2 C-0.3125 4.625 -0.3125 4.625 -2 7 C-2.66 7 -3.32 7 -4 7 C-4.33 8.32 -4.66 9.64 -5 11 C-5.66 11 -6.32 11 -7 11 C-5.5140084 6.40693504 -3.14985318 3.56430755 0 0 Z " fill="#234360" transform="translate(520,831)"/>
<path d="M0 0 C2.31 0 4.62 0 7 0 C7 0.99 7 1.98 7 3 C4.36 2.67 1.72 2.34 -1 2 C-0.67 1.34 -0.34 0.68 0 0 Z " fill="#0F3153" transform="translate(672,881)"/>
<path d="M0 0 C-4.625 3 -4.625 3 -8 3 C-8 2.01 -8 1.02 -8 0 C-4.94736336 -0.98120464 -3.05263664 -0.98120464 0 0 Z " fill="#1D3F5E" transform="translate(442,881)"/>
<path d="M0 0 C0 0.99 0 1.98 0 3 C-2.64 3 -5.28 3 -8 3 C-5.53387212 -0.1151089 -3.89156016 -0.31553191 0 0 Z " fill="#1B3F60" transform="translate(574,911)"/>
<path d="M0 0 C0.99 0.33 1.98 0.66 3 1 C3.33 1.99 3.66 2.98 4 4 C2.02 4 0.04 4 -2 4 C-2 3.01 -2 2.02 -2 1 C-1.34 0.67 -0.68 0.34 0 0 Z " fill="#2F506D" transform="translate(651,826)"/>
<path d="M0 0 C-1.65 1.32 -3.3 2.64 -5 4 C-5 3.34 -5 2.68 -5 2 C-6.32 1.67 -7.64 1.34 -9 1 C-5.64919071 -1.10976881 -3.77897651 -1.0497157 0 0 Z " fill="#2A4A69" transform="translate(622,874)"/>
<path d="M0 0 C-0.33 0.99 -0.66 1.98 -1 3 C-4.3 2.34 -7.6 1.68 -11 1 C-11 0.67 -11 0.34 -11 0 C-3.375 -1.125 -3.375 -1.125 0 0 Z " fill="#3D5C78" transform="translate(348,878)"/>
<path d="M0 0 C0 0.66 0 1.32 0 2 C-1.98 2.99 -1.98 2.99 -4 4 C-4 3.34 -4 2.68 -4 2 C-4.99 1.67 -5.98 1.34 -7 1 C-3.375 -1.125 -3.375 -1.125 0 0 Z " fill="#39587B" transform="translate(722,877)"/>
<path d="M0 0 C2.31 0.33 4.62 0.66 7 1 C5 3 5 3 2.375 3.125 C1.59125 3.08375 0.8075 3.0425 0 3 C0 2.01 0 1.02 0 0 Z " fill="#193D5E" transform="translate(612,825)"/>
</svg>
