<?xml version="1.0" encoding="UTF-8"?>
<svg version="1.1" xmlns="http://www.w3.org/2000/svg" width="1024" height="1024">
<path d="M0 0 C337.92 0 675.84 0 1024 0 C1024 337.92 1024 675.84 1024 1024 C686.08 1024 348.16 1024 0 1024 C0 686.08 0 348.16 0 0 Z " fill="#284665" transform="translate(0,0)"/>
<path d="M0 0 C337.92 0 675.84 0 1024 0 C1024 337.92 1024 675.84 1024 1024 C686.08 1024 348.16 1024 0 1024 C0 686.08 0 348.16 0 0 Z M56 82 C56 324.88 56 567.76 56 818 C202.52 818 349.04 818 500 818 C500 632.54 500 447.08 500 256 C509.9 256 519.8 256 530 256 C530 441.46 530 626.92 530 818 C535.28 818 540.56 818 546 818 C546 681.05 546 544.1 546 403 C574.38 403 602.76 403 632 403 C632 539.95 632 676.9 632 818 C743.21 818 854.42 818 969 818 C969 575.12 969 332.24 969 82 C667.71 82 366.42 82 56 82 Z " fill="#FBFBFB" transform="translate(0,0)"/>
<path d="M0 0 C0.83543461 -0.00058914 1.67086922 -0.00117828 2.53162003 -0.00178528 C43.44992761 -0.022111 84.34226628 0.99481551 124.91015625 6.77246094 C128.3012814 7.2484254 131.69519595 7.682196 135.09375 8.1015625 C137.16668124 8.35925779 139.23959884 8.61706285 141.3125 8.875 C142.20904297 8.98585937 143.10558594 9.09671875 144.02929688 9.2109375 C149.54581559 9.92549043 154.89965338 10.97922769 160.3125 12.25 C161.99827897 12.62299231 163.68449597 12.99400913 165.37109375 13.36328125 C185.74115818 17.88221179 205.50037498 23.70926271 225.3125 30.25 C226.19728027 30.54132813 227.08206055 30.83265625 227.99365234 31.1328125 C273.24887286 46.15645755 317.64656412 68.20877997 353.3125 100.25 C353.91690918 100.79269531 354.52131836 101.33539063 355.14404297 101.89453125 C388.74258751 132.2626113 412.8163767 169.97902735 423.3125 214.25 C423.5602417 215.25063477 423.5602417 215.25063477 423.81298828 216.27148438 C426.63478333 228.18897246 426.59841973 240.2599161 426.625 252.4375 C426.63051376 253.65028625 426.63051376 253.65028625 426.63613892 254.88757324 C426.67439365 271.03147876 425.25858352 285.96069903 420.25 301.4375 C419.85441895 302.68273437 419.45883789 303.92796875 419.05126953 305.2109375 C409.60208079 334.29456153 395.30708688 360.32317506 374.515625 382.859375 C373.04592532 384.45415551 371.59777458 386.0690649 370.171875 387.703125 C359.5114042 399.8974765 347.29055169 409.66943558 334.3125 419.25 C333.6412207 419.75144531 332.96994141 420.25289062 332.27832031 420.76953125 C305.63654424 440.5971859 275.38762027 455.47024875 244.5234375 467.515625 C241.91142394 468.53776653 239.86951996 469.53067606 237.4765625 471.046875 C235.3125 472.25 235.3125 472.25 233 471.9375 C232.1646875 471.5971875 232.1646875 471.5971875 231.3125 471.25 C235.83305515 462.54624456 243.04716848 457.01694549 250.42138672 450.84912109 C255.19822964 446.80983357 259.75640144 442.53446125 264.3125 438.25 C265.26382813 437.37601563 266.21515625 436.50203125 267.1953125 435.6015625 C281.00557336 422.61413894 291.76624306 406.536716 301.3125 390.25 C301.70663086 389.58516602 302.10076172 388.92033203 302.50683594 388.23535156 C310.02381259 375.49977636 315.66948657 362.46828058 320.5 348.5 C320.83330322 347.56091797 321.16660645 346.62183594 321.51000977 345.65429688 C326.65118986 330.35104082 327.87569192 314.914664 327.75 298.875 C327.74629395 298.02148956 327.74258789 297.16797913 327.73876953 296.28860474 C327.66034051 283.58176667 327.1910117 271.44700078 323.3125 259.25 C323.03873535 258.37182617 322.7649707 257.49365234 322.48291016 256.58886719 C312.79183939 226.30230132 295.10646126 202.06911275 273.3125 179.25 C272.72662109 178.63543945 272.14074219 178.02087891 271.53710938 177.38769531 C263.55855941 169.07351944 255.36448375 161.48400803 246.11914062 154.60351562 C244.24478934 153.1992719 242.39492939 151.76676426 240.546875 150.328125 C225.75228861 138.89433923 209.9054506 129.27049223 193.45947266 120.41162109 C191.41622875 119.30612252 189.38513413 118.18096464 187.35546875 117.05078125 C135.47482129 88.46728723 76.82330815 74.5431928 18.625 65.9375 C17.63693359 65.78998291 16.64886719 65.64246582 15.63085938 65.49047852 C12.19586868 65.01663878 8.76026817 64.62080092 5.3125 64.25 C4.51875977 64.16419678 3.72501953 64.07839355 2.90722656 63.98999023 C-17.30732963 61.88912295 -37.51409505 61.85007995 -57.8125 61.875 C-58.67654072 61.87523918 -59.54058144 61.87547836 -60.43080521 61.87572479 C-85.27970414 61.88442193 -109.85738727 62.13942458 -134.47027588 65.91418457 C-136.87205425 66.27795214 -139.27608434 66.62254423 -141.68115234 66.96386719 C-173.49613807 71.35588252 -173.49613807 71.35588252 -204.76855469 78.47143555 C-208.79842686 79.5463153 -212.86113915 80.44096501 -216.93286133 81.34179688 C-227.51244072 83.68452573 -237.82508433 86.37225617 -248.109375 89.7734375 C-251.95902221 91.04076372 -255.83645237 92.13559455 -259.74804688 93.19360352 C-297.83706805 103.56698936 -337.77993577 118.45608958 -372.48046875 137.2890625 C-374.6875 138.25 -374.6875 138.25 -378.6875 138.25 C-377.44880233 133.77826134 -376.03739165 131.09522822 -372.7578125 127.82421875 C-371.96842285 127.03200928 -371.1790332 126.2397998 -370.36572266 125.42358398 C-369.52315918 124.60317627 -368.6805957 123.78276855 -367.8125 122.9375 C-366.95060059 122.08808838 -366.08870117 121.23867676 -365.20068359 120.36352539 C-359.02927225 114.36145508 -352.74385013 109.17950657 -345.6875 104.25 C-343.76640217 102.73476791 -341.85004168 101.21351751 -339.9375 99.6875 C-298.03189026 67.08193771 -247.39661311 43.45264025 -196.6875 28.25 C-194.60010544 27.60727393 -192.51286581 26.96404449 -190.42578125 26.3203125 C-174.9762548 21.61604936 -159.48457934 17.6015062 -143.6875 14.25 C-142.4603125 13.98944824 -141.233125 13.72889648 -139.96875 13.46044922 C-117.70294332 8.77931227 -95.60957842 5.4894735 -73 3.125 C-72.17855499 3.03837097 -71.35710999 2.95174194 -70.51077271 2.86248779 C-46.98825218 0.40103716 -23.62961873 0.00762263 0 0 Z " fill="#F9FAFA" transform="translate(480.6875,137.75)"/>
<path d="M0 0 C0.66 0 1.32 0 2 0 C2.66 -0.99 3.32 -1.98 4 -3 C5.98 -3 7.96 -3 10 -3 C10 19.44 10 41.88 10 65 C12.64 65 15.28 65 18 65 C18 65.99 18 66.98 18 68 C9.09 68 0.18 68 -9 68 C-9 67.01 -9 66.02 -9 65 C-5.7 65 -2.4 65 1 65 C0.505 54.605 0.505 54.605 0 44 C-1.65 45.32 -3.3 46.64 -5 48 C-9.78774001 50.87812615 -14.79382734 50.74480962 -20.15234375 49.5 C-26.19696222 47.45805595 -30.8938704 44.08990611 -34.3125 38.625 C-36.08660815 34.81395287 -36.72118551 32.18221737 -37 28 C-37.06316406 27.16339844 -37.12632812 26.32679688 -37.19140625 25.46484375 C-37.52934022 17.7141647 -36.22842793 11.15083591 -31.38671875 4.92578125 C-22.45472645 -4.52113744 -10.97950925 -7.02688592 0 0 Z " fill="#2C4A66" transform="translate(549,895)"/>
<path d="M0 0 C5.10455945 -0.04979311 10.2089745 -0.08590409 15.3137207 -0.10986328 C17.04681871 -0.11986161 18.7799001 -0.13346473 20.51293945 -0.15087891 C23.01778284 -0.17540084 25.52240136 -0.18654496 28.02734375 -0.1953125 C28.79022202 -0.20563507 29.55310028 -0.21595764 30.33909607 -0.22659302 C38.387615 -0.22823583 45.60464178 0.79447587 52 6 C57.18377537 11.88428556 57.34478638 15.6860621 57.28125 23.4375 C56.80832997 29.42782042 54.8851065 33.06252943 50.75 37.3125 C43.47473099 41.77686962 37.34614775 42.41021285 29 42.1875 C25.7 42.125625 22.4 42.06375 19 42 C19 51.24 19 60.48 19 70 C22.63 70 26.26 70 30 70 C30 71.32 30 72.64 30 74 C20.1 74 10.2 74 0 74 C0 72.68 0 71.36 0 70 C2.97 70 5.94 70 9 70 C9 48.22 9 26.44 9 4 C6.03 4 3.06 4 0 4 C0 2.68 0 1.36 0 0 Z " fill="#274563" transform="translate(286,869)"/>
<path d="M0 0 C6.23205489 5.321435 6.23205489 5.321435 7.15118408 9.42782593 C7.28717914 11.68132327 7.27402719 13.88428572 7.19921875 16.140625 C7.19214401 16.95338898 7.18506927 17.76615295 7.17778015 18.60354614 C7.14994424 21.18197373 7.08723161 23.75817412 7.0234375 26.3359375 C6.99834041 28.09111432 6.97552971 29.84632541 6.95507812 31.6015625 C6.90015373 35.88886997 6.81396097 40.17452706 6.7109375 44.4609375 C9.3509375 44.4609375 11.9909375 44.4609375 14.7109375 44.4609375 C14.7109375 45.7809375 14.7109375 47.1009375 14.7109375 48.4609375 C9.4309375 48.4609375 4.1509375 48.4609375 -1.2890625 48.4609375 C-1.6190625 47.4709375 -1.9490625 46.4809375 -2.2890625 45.4609375 C-3.4028125 46.1003125 -4.5165625 46.7396875 -5.6640625 47.3984375 C-11.62925768 50.8229014 -16.72884774 51.44588184 -23.5859375 49.96484375 C-28.14921727 48.44660969 -30.63090113 46.60766924 -33.2890625 42.4609375 C-35.38175367 38.27555517 -34.7101769 33.01995867 -34.2890625 28.4609375 C-31.82309177 23.52899603 -27.30629895 21.36692676 -22.2890625 19.4609375 C-18.03305968 18.32355744 -13.85033304 18.34402696 -9.4765625 18.3984375 C-8.78369141 18.40294922 -8.09082031 18.40746094 -7.37695312 18.41210938 C-5.68095182 18.42380594 -3.98499547 18.44173826 -2.2890625 18.4609375 C-2.34966189 16.73082493 -2.43860901 15.00169411 -2.5390625 13.2734375 C-2.58546875 12.31050781 -2.631875 11.34757813 -2.6796875 10.35546875 C-3.45199922 6.68698809 -4.53448497 5.00116877 -7.2890625 2.4609375 C-10.41057972 1.6716769 -10.41057972 1.6716769 -13.7890625 1.8359375 C-14.913125 1.82304688 -16.0371875 1.81015625 -17.1953125 1.796875 C-20.45780259 2.20354025 -20.45780259 2.20354025 -22.6328125 4.8125 C-24.40388248 7.41390039 -24.40388248 7.41390039 -25.2890625 10.4609375 C-26.9390625 10.4609375 -28.5890625 10.4609375 -30.2890625 10.4609375 C-30.2890625 7.1609375 -30.2890625 3.8609375 -30.2890625 0.4609375 C-20.91451532 -3.48624026 -9.25851948 -5.08566563 0 0 Z " fill="#284562" transform="translate(382.2890625,894.5390625)"/>
<path d="M0 0 C17.49 0 34.98 0 53 0 C53 5.61 53 11.22 53 17 C51.35 17 49.7 17 48 17 C47.49487756 15.39743892 46.99608373 13.79288208 46.5 12.1875 C46.2215625 11.29417969 45.943125 10.40085937 45.65625 9.48046875 C45 7 45 7 45 4 C36.42 4 27.84 4 19 4 C19 13.9 19 23.8 19 34 C25.27 33.67 31.54 33.34 38 33 C38.66 30.36 39.32 27.72 40 25 C41.32 25 42.64 25 44 25 C44 32.26 44 39.52 44 47 C42.35 47 40.7 47 39 47 C38.505 43.04 38.505 43.04 38 39 C31.73 38.67 25.46 38.34 19 38 C19 48.56 19 59.12 19 70 C27.91 70 36.82 70 46 70 C46.99 66.04 47.98 62.08 49 58 C49.495 57.01 49.495 57.01 50 56 C51.32 56 52.64 56 54 56 C54 61.94 54 67.88 54 74 C36.18 74 18.36 74 0 74 C0 72.68 0 71.36 0 70 C2.97 70 5.94 70 9 70 C9 48.22 9 26.44 9 4 C6.03 4 3.06 4 0 4 C0 2.68 0 1.36 0 0 Z " fill="#23415F" transform="translate(451,869)"/>
<path d="M0 0 C5.61 0 11.22 0 17 0 C17.01458252 1.21582764 17.02916504 2.43165527 17.04418945 3.68432617 C17.10225098 8.20399078 17.1794836 12.72316127 17.26245117 17.24243164 C17.29566354 19.19677702 17.32370695 21.15121747 17.34643555 23.10571289 C17.38004933 25.91854282 17.43236854 28.73050447 17.48828125 31.54296875 C17.49467117 32.41398727 17.5010611 33.2850058 17.50764465 34.18241882 C17.62139129 38.89724749 17.88638468 42.19965582 21 46 C25.32127181 47.32519002 29.29677937 46.31843953 33.3125 44.5 C38.98919864 39.2193501 40.22843615 34.19722624 40.609375 26.65625 C40.68891701 23.93748052 40.72253455 21.2197182 40.75 18.5 C40.77820374 17.09110984 40.80813723 15.68225319 40.83984375 14.2734375 C40.91021093 10.84890123 40.96307585 7.42503295 41 4 C38.36 4 35.72 4 33 4 C33 2.68 33 1.36 33 0 C38.61 0 44.22 0 50 0 C50 15.18 50 30.36 50 46 C52.31 46 54.62 46 57 46 C57 47.65 57 49.3 57 51 C51.72 51 46.44 51 41 51 C40.505 47.04 40.505 47.04 40 43 C39.56429687 43.48210938 39.12859375 43.96421875 38.6796875 44.4609375 C33.82846385 49.6061747 30.13602959 51.99387254 22.9375 52.25 C18.62465002 51.97616826 15.73091532 51.75543254 12.62109375 48.6015625 C8.15687345 43.3869462 7.86048364 40.14986505 7.90234375 33.4921875 C7.9037587 32.65156769 7.90517365 31.81094788 7.90663147 30.94485474 C7.91223763 28.25486725 7.92479114 25.56496241 7.9375 22.875 C7.94251421 21.05338662 7.94707725 19.23177193 7.95117188 17.41015625 C7.96220906 12.94007223 7.9794778 8.47005014 8 4 C5.36 4 2.72 4 0 4 C0 2.68 0 1.36 0 0 Z " fill="#2A4863" transform="translate(567,893)"/>
<path d="M0 0 C3.08073848 1.3831887 4.6384567 2.6384567 7 5 C7.44734426 9.50445368 7.4142035 14.02401426 7.42553711 18.5480957 C7.43740359 20.79425097 7.48653898 23.03763068 7.53710938 25.28320312 C7.54657748 26.71613245 7.55381066 28.14907863 7.55859375 29.58203125 C7.57204834 30.88374268 7.58550293 32.1854541 7.59936523 33.52661133 C6.85287571 37.85260174 5.31524996 39.23178987 2 42 C1.4225 42.598125 0.845 43.19625 0.25 43.8125 C-3.45450606 45.76765598 -6.925895 45.83130979 -11 45 C-15.27685897 42.75895873 -17.55929224 39.76768449 -19.9375 35.625 C-22.47117835 27.45742818 -22.38067312 15.74086726 -19.08984375 7.83984375 C-14.51721191 0.12045451 -8.64859412 -1.3768241 0 0 Z " fill="#F9FAFA" transform="translate(543,896)"/>
<path d="M0 0 C7.92 0 15.84 0 24 0 C24 1.32 24 2.64 24 4 C21.36 4 18.72 4 16 4 C17.64660763 8.0598776 19.30086477 12.11652703 20.9621582 16.17041016 C21.52577515 17.54878775 22.08732439 18.92801276 22.64672852 20.30810547 C23.4530168 22.2962332 24.26678963 24.28115465 25.08203125 26.265625 C25.56905518 27.45961914 26.0560791 28.65361328 26.55786133 29.88378906 C27.81496815 32.60017834 29.09230217 34.71373179 31 37 C31.25168945 36.3201001 31.50337891 35.6402002 31.76269531 34.93969727 C32.92214528 31.81284881 34.08604183 28.68767295 35.25 25.5625 C35.64574219 24.49322266 36.04148437 23.42394531 36.44921875 22.32226562 C38.76547579 16.11393732 41.21247879 10.01239488 44 4 C41.36 4 38.72 4 36 4 C36 2.68 36 1.36 36 0 C41.61 0 47.22 0 53 0 C53 1.32 53 2.64 53 4 C51.84552368 4.05885376 51.84552368 4.05885376 50.66772461 4.11889648 C47.7554939 4.74974399 47.7554939 4.74974399 46.51782227 7.61352539 C46.12135498 8.76328857 45.7248877 9.91305176 45.31640625 11.09765625 C45.09545792 11.71919083 44.87450958 12.3407254 44.64686584 12.98109436 C43.93303037 15.00212249 43.24801549 17.03171178 42.5625 19.0625 C42.07748384 20.44915032 41.59033836 21.83505767 41.10107422 23.22021484 C40.14522989 25.93260324 39.19878163 28.64793475 38.26123047 31.36669922 C36.77665461 35.6434042 35.22751056 39.8913073 33.625 44.125 C33.17640625 45.3109375 32.7278125 46.496875 32.265625 47.71875 C24.43563279 68.0187298 24.43563279 68.0187298 18 72 C13.16442783 72.78933604 8.55902925 72.94266885 4.3125 70.375 C2.65726636 67.37981532 2.62527839 65.3724945 3 62 C4 61 4 61 7.5625 60.9375 C8.696875 60.958125 9.83125 60.97875 11 61 C11.66 62.98 12.32 64.96 13 67 C15.88626775 66.89971731 15.88626775 66.89971731 19 66 C21.05446084 63.77107929 21.05446084 63.77107929 22.4375 60.875 C22.95183594 59.94429687 23.46617187 59.01359375 23.99609375 58.0546875 C25.94829471 52.11452738 23.78710775 46.93584789 21.26953125 41.46484375 C20.99662766 40.86426651 20.72372406 40.26368927 20.44255066 39.64491272 C19.57427991 37.73845762 18.69395019 35.83789207 17.8125 33.9375 C16.95522341 32.06900183 16.10055581 30.19934016 15.24728394 28.32901001 C14.67988001 27.0886325 14.10902711 25.84982679 13.53469849 24.61264038 C12.06692555 21.43311942 10.68222029 18.24478091 9.41162109 14.98095703 C9.15458908 14.33453751 8.89755707 13.68811798 8.63273621 13.02210999 C7.92741569 11.23218481 7.2436668 9.43380282 6.5612793 7.63500977 C5.24507193 4.75507107 5.24507193 4.75507107 2.31958008 4.11694336 C1.55411865 4.07835205 0.78865723 4.03976074 0 4 C0 2.68 0 1.36 0 0 Z " fill="#2A4662" transform="translate(694,893)"/>
<path d="M0 0 C18.48648649 0 18.48648649 0 24 4 C27.13869205 8.09203309 27.43237051 11.34391703 27.4375 16.4375 C27.46650391 18.35369141 27.46650391 18.35369141 27.49609375 20.30859375 C26.81669979 25.36392675 24.73747537 28.4731277 20.9375 31.8125 C14.13847058 35.97964706 9.27051695 34 0 34 C0 22.78 0 11.56 0 0 Z " fill="#F9F9FA" transform="translate(305,873)"/>
<path d="M0 0 C2.97 0 5.94 0 9 0 C9 5.94 9 11.88 9 18 C13.95 18 18.9 18 24 18 C24 19.32 24 20.64 24 22 C19.05 22 14.1 22 9 22 C9.11806197 27.66014162 9.24229672 33.32010083 9.37231445 38.97998047 C9.41569001 40.90637504 9.45736314 42.83280871 9.49731445 44.75927734 C9.55495362 47.52453408 9.61866616 50.2895935 9.68359375 53.0546875 C9.70030624 53.9193161 9.71701874 54.7839447 9.73423767 55.67477417 C9.72159896 59.97395852 9.72159896 59.97395852 11 64 C13.64 64 16.28 64 19 64 C19.99 62.02 20.98 60.04 22 58 C23.65 58 25.3 58 27 58 C26.14489368 62.04232081 25.561819 64.45258661 22.5625 67.375 C17.87093009 70.35014189 13.41722449 70.67484196 8 70 C3.95452204 67.94048395 1.51191672 66.28881821 0 62 C-0.2696435 59.02387691 -0.23234176 56.0642365 -0.1953125 53.078125 C-0.19106766 51.78814606 -0.19106766 51.78814606 -0.18673706 50.47210693 C-0.1755615 47.73126179 -0.15046179 44.99074602 -0.125 42.25 C-0.1149668 40.38932764 -0.10584155 38.52865015 -0.09765625 36.66796875 C-0.07563076 32.11185268 -0.04111897 27.55598214 0 23 C-2.64 23 -5.28 23 -8 23 C-8 21.35 -8 19.7 -8 18 C-5.36 18 -2.72 18 0 18 C0 12.06 0 6.12 0 0 Z " fill="#274561" transform="translate(666,875)"/>
<path d="M0 0 C1.32 0.66 2.64 1.32 4 2 C4 5.63 4 9.26 4 13 C2.02 13 0.04 13 -2 13 C-2.28875 12.21625 -2.5775 11.4325 -2.875 10.625 C-3.84912254 7.90328368 -3.84912254 7.90328368 -6 6 C-9.77806504 5.496258 -11.50499562 5.68499721 -14.75 7.75 C-19.00881946 12.00881946 -19.31754259 15.75035565 -19.4140625 21.609375 C-19.43342865 22.33618469 -19.4527948 23.06299438 -19.4727478 23.81182861 C-19.53234271 26.12443448 -19.57884758 28.43709067 -19.625 30.75 C-19.66319836 32.32163582 -19.70225117 33.89325113 -19.7421875 35.46484375 C-19.83802743 39.30972842 -19.92213195 43.15471107 -20 47 C-16.7 47 -13.4 47 -10 47 C-10 48.32 -10 49.64 -10 51 C-19.24 51 -28.48 51 -38 51 C-38 49.68 -38 48.36 -38 47 C-35.03 47 -32.06 47 -29 47 C-29 33.47 -29 19.94 -29 6 C-31.97 6 -34.94 6 -38 6 C-38 4.35 -38 2.7 -38 1 C-32.06 1 -26.12 1 -20 1 C-19.67 2.65 -19.34 4.3 -19 6 C-18.55011719 5.566875 -18.10023438 5.13375 -17.63671875 4.6875 C-12.02617242 -0.16972648 -7.32821018 -1.18343767 0 0 Z " fill="#2B4965" transform="translate(440,892)"/>
<path d="M0 0 C5.61 0 11.22 0 17 0 C17 15.18 17 30.36 17 46 C19.64 46 22.28 46 25 46 C25 47.32 25 48.64 25 50 C16.75 50 8.5 50 0 50 C0 48.68 0 47.36 0 46 C2.64 46 5.28 46 8 46 C8 32.14 8 18.28 8 4 C5.36 4 2.72 4 0 4 C0 2.68 0 1.36 0 0 Z " fill="#27435F" transform="translate(630,893)"/>
<path d="M0 0 C5.61 0 11.22 0 17 0 C17.01458252 1.21582764 17.02916504 2.43165527 17.04418945 3.68432617 C17.10225098 8.20399078 17.1794836 12.72316127 17.26245117 17.24243164 C17.29566354 19.19677702 17.32370695 21.15121747 17.34643555 23.10571289 C17.38004933 25.91854282 17.43236854 28.73050447 17.48828125 31.54296875 C17.49467117 32.41398727 17.5010611 33.2850058 17.50764465 34.18241882 C17.6207424 38.87035063 17.82428312 42.27742257 21 46 C24.57996259 47.36900354 24.57996259 47.36900354 28 48 C24.19485912 50.53676059 21.77142959 51.50918554 17.10546875 51.4921875 C13.13844393 50.56483105 11.13807924 47.27000354 9 44 C7.36054037 40.72108075 7.87969822 37.09386466 7.90234375 33.4921875 C7.9037587 32.65156769 7.90517365 31.81094788 7.90663147 30.94485474 C7.91223763 28.25486725 7.92479114 25.56496241 7.9375 22.875 C7.94251421 21.05338662 7.94707725 19.23177193 7.95117188 17.41015625 C7.96220906 12.94007223 7.9794778 8.47005014 8 4 C5.36 4 2.72 4 0 4 C0 2.68 0 1.36 0 0 Z " fill="#284561" transform="translate(567,893)"/>
<path d="M0 0 C0.69738281 0.00902344 1.39476562 0.01804687 2.11328125 0.02734375 C3.82566958 0.05080112 5.53788004 0.08666896 7.25 0.125 C7.35845031 2.68864483 7.43749744 5.24766279 7.5 7.8125 C7.55027344 8.8943457 7.55027344 8.8943457 7.6015625 9.99804688 C7.6720191 13.85554571 7.52981166 15.68300451 5.41015625 19.03125 C1.82763541 22.50363909 -1.32042517 23.92077502 -6.25 24.625 C-10.98140292 23.9490853 -12.46698963 22.5643442 -15.75 19.125 C-16.625 17.25 -16.625 17.25 -16.75 15.125 C-16.87375 14.01125 -16.9975 12.8975 -17.125 11.75 C-16.61907818 6.85942241 -15.2369732 5.53272381 -11.75 2.125 C-8.07751363 -0.39983438 -4.28740007 -0.10536144 0 0 Z " fill="#F4F5F7" transform="translate(373.75,916.875)"/>
<path d="M0 0 C5.61 0 11.22 0 17 0 C17 1.32 17 2.64 17 4 C15.84987427 4.04688965 15.84987427 4.04688965 14.67651367 4.09472656 C11.72502243 4.75837529 11.72502243 4.75837529 10.4543457 7.78808594 C10.03241943 9.00786133 9.61049316 10.22763672 9.17578125 11.484375 C8.94344284 12.13698303 8.71110443 12.78959106 8.47172546 13.4619751 C7.73250779 15.55174146 7.02218544 17.65004296 6.3125 19.75 C5.82417297 21.14910468 5.33395904 22.5475523 4.84179688 23.9453125 C3.93500876 26.5246158 3.04194362 29.10714625 2.1574707 31.69433594 C1.77550537 32.78520508 1.39354004 33.87607422 1 35 C0.58463989 36.4236084 0.58463989 36.4236084 0.16088867 37.87597656 C-1 40 -1 40 -3.625 40.8125 C-4.800625 40.9053125 -4.800625 40.9053125 -6 41 C-1.76045747 28.46922073 2.49190533 16.0385251 8 4 C5.36 4 2.72 4 0 4 C0 2.68 0 1.36 0 0 Z " fill="#314F6D" transform="translate(730,893)"/>
<path d="M0 0 C1.32 0 2.64 0 4 0 C4 5.94 4 11.88 4 18 C0.7 17.67 -2.6 17.34 -6 17 C-6 16.34 -6 15.68 -6 15 C-14.25 15 -22.5 15 -31 15 C-31 14.67 -31 14.34 -31 14 C-22.09 14 -13.18 14 -4 14 C-3.01 10.04 -2.02 6.08 -1 2 C-0.67 1.34 -0.34 0.68 0 0 Z " fill="#2C4A67" transform="translate(501,925)"/>
<path d="M0 0 C1.32 0 2.64 0 4 0 C4 7.26 4 14.52 4 22 C2.35 22 0.7 22 -1 22 C-1.1953125 19.94921875 -1.390625 17.8984375 -1.5859375 15.84765625 C-1.72257812 15.23792969 -1.85921875 14.62820313 -2 14 C-2.66 13.67 -3.32 13.34 -4 13 C-4 12.34 -4 11.68 -4 11 C-9.28 10.67 -14.56 10.34 -20 10 C-20 9.67 -20 9.34 -20 9 C-14.06 8.67 -8.12 8.34 -2 8 C-1.34 5.36 -0.68 2.72 0 0 Z " fill="#2C4965" transform="translate(491,894)"/>
<path d="M0 0 C2.9375 0.75 2.9375 0.75 4.9375 2.75 C5.3125 5.6875 5.3125 5.6875 4.9375 8.75 C2.82060295 11.10210784 1.49708485 11.66810953 -1.625 12.125 C-4.0625 11.75 -4.0625 11.75 -5.9375 10.6875 C-7.76098531 7.54705307 -6.9283284 5.1514687 -6.0625 1.75 C-3.0625 -0.25 -3.0625 -0.25 0 0 Z " fill="#324C66" transform="translate(643.0625,868.25)"/>
<path d="M0 0 C4.02645536 4.5231572 3.23070702 8.15542225 3 14 C7.95 14 12.9 14 18 14 C18 14.33 18 14.66 18 15 C12.72 15 7.44 15 2 15 C1.67 12.36 1.34 9.72 1 7 C0.56429687 7.48210938 0.12859375 7.96421875 -0.3203125 8.4609375 C-4.54648976 12.94324672 -7.73111633 15.79081695 -14.15234375 16.10546875 C-16.10180425 16.12259933 -18.05162226 16.06718544 -20 16 C-18 15 -16 14 -14 13 C-14.66 12.34 -15.32 11.68 -16 11 C-15.40832031 10.91363281 -14.81664062 10.82726562 -14.20703125 10.73828125 C-8.66159044 9.75222407 -5.61091642 8.5957118 -2 4 C-0.70480005 1.83379456 -0.70480005 1.83379456 0 0 Z " fill="#38546F" transform="translate(606,929)"/>
<path d="M0 0 C5.61 0 11.22 0 17 0 C17 1.32 17 2.64 17 4 C15.8553125 4.0309375 15.8553125 4.0309375 14.6875 4.0625 C11.58610882 4.79660949 11.58610882 4.79660949 10.1875 8.5625 C9.795625 9.696875 9.40375 10.83125 9 12 C8.01 12 7.02 12 6 12 C6.875 6.25 6.875 6.25 8 4 C5.36 4 2.72 4 0 4 C0 2.68 0 1.36 0 0 Z " fill="#253F5C" transform="translate(730,893)"/>
<path d="M0 0 C1.65 0 3.3 0 5 0 C4.14489368 4.04232081 3.561819 6.45258661 0.5625 9.375 C-2.98958655 11.62754269 -5.56950038 12.12218115 -9.6875 12.0625 C-10.89986328 12.04896484 -10.89986328 12.04896484 -12.13671875 12.03515625 C-13.05904297 12.01775391 -13.05904297 12.01775391 -14 12 C-13.01 11.319375 -13.01 11.319375 -12 10.625 C-11.34 10.08875 -10.68 9.5525 -10 9 C-10 8.34 -10 7.68 -10 7 C-8.3603125 6.938125 -8.3603125 6.938125 -6.6875 6.875 C-2.75003667 6.39434602 -2.75003667 6.39434602 -1.0625 2.9375 C-0.711875 1.968125 -0.36125 0.99875 0 0 Z " fill="#405976" transform="translate(688,933)"/>
<path d="M0 0 C0.99 0.99 1.98 1.98 3 3 C1.564062 8.22159274 -0.77578306 12.670042 -4 17 C-4.66 17.33 -5.32 17.66 -6 18 C-6 17.34 -6 16.68 -6 16 C-6.99 15.67 -7.98 15.34 -9 15 C-8.09507812 14.18789063 -8.09507812 14.18789063 -7.171875 13.359375 C-4.79464129 10.77691248 -3.62789483 8.46508793 -2.25 5.25 C-1.82203125 4.26515625 -1.3940625 3.2803125 -0.953125 2.265625 C-0.63859375 1.51796875 -0.3240625 0.7703125 0 0 Z " fill="#36526F" transform="translate(720,945)"/>
<path d="M0 0 C7.92 0 15.84 0 24 0 C24 1.32 24 2.64 24 4 C21.69 4 19.38 4 17 4 C17 3.67 17 3.34 17 3 C18.98 3 20.96 3 23 3 C23 2.34 23 1.68 23 1 C17.72 1 12.44 1 7 1 C6.34 2.32 5.68 3.64 5 5 C3.35 4.67 1.7 4.34 0 4 C0 2.68 0 1.36 0 0 Z " fill="#37526C" transform="translate(694,893)"/>
<path d="M0 0 C0 0.99 0 1.98 0 3 C-1.43725871 3.16873478 -2.87481838 3.33490737 -4.3125 3.5 C-5.11300781 3.5928125 -5.91351563 3.685625 -6.73828125 3.78125 C-11.62916246 4.2542886 -11.62916246 4.2542886 -14.1875 2.5 C-14.785625 2.005 -15.38375 1.51 -16 1 C-10.44860651 -1.48351814 -5.83475015 -0.85330338 0 0 Z " fill="#2F4D69" transform="translate(371,893)"/>
<path d="M0 0 C5.61 0 11.22 0 17 0 C17 1.32 17 2.64 17 4 C16.01 3.67 15.02 3.34 14 3 C14.66 3 15.32 3 16 3 C16 2.34 16 1.68 16 1 C13.36 1.33 10.72 1.66 8 2 C8 2.66 8 3.32 8 4 C5.36 4 2.72 4 0 4 C0 2.68 0 1.36 0 0 Z " fill="#39526C" transform="translate(730,893)"/>
<path d="M0 0 C7.34864301 -0.36743215 7.34864301 -0.36743215 10.4375 1.375 C12 3 12 3 13 5 C8.71 5 4.42 5 0 5 C0 3.35 0 1.7 0 0 Z " fill="#577087" transform="translate(534,891)"/>
<path d="M0 0 C0.66 1.32 1.32 2.64 2 4 C-2.86051596 6.59227518 -7.65271133 6.18689553 -13 6 C-9.98368264 2.55146643 -7.49189775 2.56148722 -3 2 C-2.01 1.34 -1.02 0.68 0 0 Z " fill="#3E5974" transform="translate(374,939)"/>
<path d="M0 0 C4.02645536 4.5231572 3.23070702 8.15542225 3 14 C7.95 14 12.9 14 18 14 C18 14.33 18 14.66 18 15 C12.72 15 7.44 15 2 15 C2 11.7 2 8.4 2 5 C0.68 5.33 -0.64 5.66 -2 6 C-1.34 4.02 -0.68 2.04 0 0 Z " fill="#6A7E93" transform="translate(606,929)"/>
<path d="M0 0 C4.95 0 9.9 0 15 0 C15 0.33 15 0.66 15 1 C12.69 1.33 10.38 1.66 8 2 C8 2.66 8 3.32 8 4 C5.36 4 2.72 4 0 4 C0 2.68 0 1.36 0 0 Z " fill="#304C69" transform="translate(600,893)"/>
<path d="M0 0 C3.3 0 6.6 0 10 0 C9.01 0.495 9.01 0.495 8 1 C8 1.99 8 2.98 8 4 C5.36 4 2.72 4 0 4 C0 2.68 0 1.36 0 0 Z " fill="#34526D" transform="translate(567,893)"/>
<path d="M0 0 C0.33 0.66 0.66 1.32 1 2 C1.99 2.33 2.98 2.66 4 3 C3.01 5.31 2.02 7.62 1 10 C0.01 10 -0.98 10 -2 10 C-1.54177532 6.53058454 -1.10868317 3.32604951 0 0 Z " fill="#385370" transform="translate(735,903)"/>
<path d="M0 0 C0.33 0.66 0.66 1.32 1 2 C1.99 2.33 2.98 2.66 4 3 C3.25 5.4375 3.25 5.4375 2 8 C0.68 8.33 -0.64 8.66 -2 9 C-1.34 6.03 -0.68 3.06 0 0 Z " fill="#45607D" transform="translate(732,911)"/>
<path d="M0 0 C1.5625 1.75 1.5625 1.75 3 4 C2.6875 6.25 2.6875 6.25 2 8 C0.35 8.33 -1.3 8.66 -3 9 C-2.01 6.03 -1.02 3.06 0 0 Z " fill="#48627F" transform="translate(727,925)"/>
<path d="M0 0 C2.64 0 5.28 0 8 0 C7.67 0.99 7.34 1.98 7 3 C3.7 3 0.4 3 -3 3 C-2.01 2.67 -1.02 2.34 0 2 C0 1.34 0 0.68 0 0 Z " fill="#1D3A57" transform="translate(480,904)"/>
<path d="M0 0 C2 2 2 2 2 4 C-0.5 5.625 -0.5 5.625 -3 7 C-3.66 6.01 -4.32 5.02 -5 4 C-3.35 2.68 -1.7 1.36 0 0 Z " fill="#32516D" transform="translate(426,894)"/>
<path d="M0 0 C3.3 0.33 6.6 0.66 10 1 C10 1.99 10 2.98 10 4 C3.49618902 4.36814024 3.49618902 4.36814024 1.0625 2.5625 C0 1 0 1 0 0 Z " fill="#506A81" transform="translate(361,892)"/>
<path d="M0 0 C2.31 0.33 4.62 0.66 7 1 C7 1.66 7 2.32 7 3 C6.34 3 5.68 3 5 3 C4.67 3.99 4.34 4.98 4 6 C2.02 5.01 0.04 4.02 -2 3 C-1.34 2.01 -0.68 1.02 0 0 Z " fill="#3B5671" transform="translate(545,894)"/>
<path d="M0 0 C3.375 -0.1875 3.375 -0.1875 7 0 C7.66 0.99 8.32 1.98 9 3 C5.37 3.33 1.74 3.66 -2 4 C-1.34 2.68 -0.68 1.36 0 0 Z " fill="#1E3F5E" transform="translate(533,892)"/>
<path d="M0 0 C2.97 0 5.94 0 9 0 C8.67 0.99 8.34 1.98 8 3 C6.1875 3.8125 6.1875 3.8125 4 4 C1.75 3.0625 1.75 3.0625 0 2 C0 1.34 0 0.68 0 0 Z " fill="#2E4A65" transform="translate(367,892)"/>
<path d="M0 0 C0.99 0.99 1.98 1.98 3 3 C2.34 4.32 1.68 5.64 1 7 C0.01 7 -0.98 7 -2 7 C-1.34 4.69 -0.68 2.38 0 0 Z " fill="#3F5974" transform="translate(720,945)"/>
<path d="M0 0 C3.3 0 6.6 0 10 0 C9.67 0.99 9.34 1.98 9 3 C6.36 3 3.72 3 1 3 C0.67 2.01 0.34 1.02 0 0 Z " fill="#365370" transform="translate(420,939)"/>
<path d="M0 0 C2.64 0 5.28 0 8 0 C8 0.99 8 1.98 8 3 C6.02 3 4.04 3 2 3 C2 2.34 2 1.68 2 1 C1.34 0.67 0.68 0.34 0 0 Z " fill="#365371" transform="translate(389,939)"/>
<path d="M0 0 C0.33 0.99 0.66 1.98 1 3 C0.2884375 3.6496875 0.2884375 3.6496875 -0.4375 4.3125 C-2.23686957 6.02309613 -2.23686957 6.02309613 -3 9 C-3.33 8.34 -3.66 7.68 -4 7 C-4.99 6.67 -5.98 6.34 -7 6 C-6.21625 5.566875 -5.4325 5.13375 -4.625 4.6875 C-1.78301625 3.10779753 -1.78301625 3.10779753 0 0 Z " fill="#3E5873" transform="translate(549,933)"/>
<path d="M0 0 C2.64 0 5.28 0 8 0 C7.67 0.99 7.34 1.98 7 3 C5.02 3 3.04 3 1 3 C0.67 2.01 0.34 1.02 0 0 Z " fill="#3D5978" transform="translate(647,939)"/>
<path d="M0 0 C1.485 0.99 1.485 0.99 3 2 C2.67 3.32 2.34 4.64 2 6 C1.01 6 0.02 6 -1 6 C-0.67 4.02 -0.34 2.04 0 0 Z " fill="#2C4760" transform="translate(737,899)"/>
</svg>
